<svg width="280" height="48" viewBox="0 0 280 48" fill="none" xmlns="http://www.w3.org/2000/svg">
<path d="M0 16C0 7.16344 7.16344 0 16 0C24.8366 0 32 7.16344 32 16C32 24.8366 24.8366 32 16 32C7.16344 32 0 24.8366 0 16Z" fill="white" fill-opacity="0.5"/>
<path d="M11 21L21 11" stroke="#EB4763" stroke-width="2" stroke-linecap="round"/>
<path d="M21 21L11 11" stroke="#EB4763" stroke-width="2" stroke-linecap="round"/>
<path d="M16 31C7.71573 31 1 24.2843 1 16H-1C-1 25.3888 6.61116 33 16 33V31ZM31 16C31 24.2843 24.2843 31 16 31V33C25.3888 33 33 25.3888 33 16H31ZM16 1C24.2843 1 31 7.71573 31 16H33C33 6.61116 25.3888 -1 16 -1V1ZM16 -1C6.61116 -1 -1 6.61116 -1 16H1C1 7.71573 7.71573 1 16 1V-1Z" fill="url(#paint0_linear_5850_366)"/>
<path d="M49.26 4.4H50.988V15.416H57.198V17H49.26V4.4ZM62.9437 17.18C62.0437 17.18 61.2397 16.982 60.5317 16.586C59.8357 16.178 59.2897 15.62 58.8937 14.912C58.5097 14.192 58.3177 13.388 58.3177 12.5C58.3177 11.612 58.5097 10.814 58.8937 10.106C59.2897 9.386 59.8357 8.828 60.5317 8.432C61.2397 8.024 62.0437 7.82 62.9437 7.82C63.8437 7.82 64.6417 8.024 65.3377 8.432C66.0457 8.828 66.5917 9.386 66.9757 10.106C67.3717 10.814 67.5697 11.612 67.5697 12.5C67.5697 13.388 67.3717 14.192 66.9757 14.912C66.5917 15.62 66.0457 16.178 65.3377 16.586C64.6417 16.982 63.8437 17.18 62.9437 17.18ZM62.9437 15.74C63.8317 15.74 64.5577 15.458 65.1217 14.894C65.6977 14.33 65.9857 13.532 65.9857 12.5C65.9857 11.468 65.6977 10.67 65.1217 10.106C64.5577 9.542 63.8317 9.26 62.9437 9.26C62.0557 9.26 61.3237 9.542 60.7477 10.106C60.1837 10.67 59.9017 11.468 59.9017 12.5C59.9017 13.532 60.1837 14.33 60.7477 14.894C61.3237 15.458 62.0557 15.74 62.9437 15.74ZM69.4732 8H71.0572V9.17C71.4052 8.774 71.8012 8.45 72.2452 8.198C72.6892 7.946 73.1752 7.82 73.7032 7.82C74.0152 7.82 74.2552 7.868 74.4232 7.964L74.1712 9.278C74.0272 9.242 73.8352 9.224 73.5952 9.224C73.0912 9.224 72.6172 9.374 72.1732 9.674C71.7292 9.974 71.3572 10.4 71.0572 10.952V17H69.4732V8ZM79.5671 17.18C78.6671 17.18 77.8871 16.988 77.2271 16.604C76.5671 16.208 76.0571 15.662 75.6971 14.966C75.3491 14.258 75.1751 13.436 75.1751 12.5C75.1751 11.588 75.3731 10.778 75.7691 10.07C76.1651 9.362 76.6991 8.81 77.3711 8.414C78.0431 8.018 78.7751 7.82 79.5671 7.82C80.3711 7.82 81.0911 8.006 81.7271 8.378C82.3751 8.738 82.8791 9.26 83.2391 9.944C83.6111 10.628 83.7971 11.444 83.7971 12.392V13.004H76.7771C76.8011 13.856 77.0651 14.528 77.5691 15.02C78.0851 15.5 78.7571 15.74 79.5851 15.74C80.2691 15.74 80.8391 15.578 81.2951 15.254C81.7511 14.918 82.0631 14.474 82.2311 13.922H83.7071C83.4551 14.942 82.9751 15.74 82.2671 16.316C81.5591 16.892 80.6591 17.18 79.5671 17.18ZM82.3031 11.636C82.2431 10.88 81.9551 10.298 81.4391 9.89C80.9351 9.47 80.3111 9.26 79.5671 9.26C78.8471 9.26 78.2351 9.47 77.7311 9.89C77.2271 10.31 76.9151 10.892 76.7951 11.636H82.3031ZM85.5923 8H87.1763V9.062C87.9443 8.234 88.8563 7.82 89.9123 7.82C90.4763 7.82 90.9323 7.928 91.2803 8.144C91.6403 8.348 91.9343 8.672 92.1623 9.116C93.0983 8.252 94.0943 7.82 95.1503 7.82C96.0383 7.82 96.6983 8.042 97.1303 8.486C97.5743 8.918 97.7963 9.506 97.7963 10.25V17H96.2123V10.718C96.2123 10.25 96.0863 9.884 95.8343 9.62C95.5943 9.356 95.2343 9.224 94.7543 9.224C93.8543 9.224 93.0983 9.65 92.4863 10.502V17H90.9023V10.79C90.9023 9.746 90.4223 9.224 89.4623 9.224C89.0543 9.224 88.6523 9.362 88.2563 9.638C87.8603 9.914 87.5003 10.274 87.1763 10.718V17H85.5923V8ZM104.666 6.632C104.366 6.632 104.108 6.53 103.892 6.326C103.688 6.11 103.586 5.852 103.586 5.552C103.586 5.252 103.688 5 103.892 4.796C104.108 4.58 104.366 4.472 104.666 4.472C104.966 4.472 105.218 4.58 105.422 4.796C105.638 5 105.746 5.252 105.746 5.552C105.746 5.852 105.638 6.11 105.422 6.326C105.218 6.53 104.966 6.632 104.666 6.632ZM103.874 8H105.458V17H103.874V8ZM107.829 8H109.413V8.99C109.725 8.666 110.121 8.39 110.601 8.162C111.081 7.934 111.639 7.82 112.275 7.82C113.019 7.82 113.703 8.012 114.327 8.396C114.963 8.78 115.467 9.326 115.839 10.034C116.211 10.742 116.397 11.564 116.397 12.5C116.397 13.436 116.223 14.258 115.875 14.966C115.527 15.674 115.041 16.22 114.417 16.604C113.793 16.988 113.091 17.18 112.311 17.18C111.735 17.18 111.189 17.084 110.673 16.892C110.169 16.688 109.749 16.406 109.413 16.046V20.6H107.829V8ZM112.023 15.74C112.839 15.74 113.505 15.47 114.021 14.93C114.549 14.39 114.813 13.58 114.813 12.5C114.813 11.42 114.549 10.61 114.021 10.07C113.505 9.53 112.839 9.26 112.023 9.26C111.555 9.26 111.117 9.368 110.709 9.584C110.313 9.8 109.995 10.088 109.755 10.448C109.527 10.808 109.413 11.198 109.413 11.618V13.346C109.413 13.766 109.533 14.162 109.773 14.534C110.013 14.894 110.331 15.188 110.727 15.416C111.123 15.632 111.555 15.74 112.023 15.74ZM121.401 17.18C120.333 17.18 119.469 16.916 118.809 16.388C118.149 15.86 117.777 15.128 117.693 14.192H119.187C119.319 14.684 119.553 15.068 119.889 15.344C120.237 15.608 120.753 15.74 121.437 15.74C121.941 15.74 122.367 15.626 122.715 15.398C123.075 15.17 123.255 14.858 123.255 14.462C123.255 14.078 123.057 13.772 122.661 13.544C122.277 13.316 121.611 13.082 120.663 12.842C119.751 12.614 119.079 12.296 118.647 11.888C118.227 11.48 118.017 10.934 118.017 10.25C118.017 9.818 118.143 9.416 118.395 9.044C118.659 8.672 119.019 8.378 119.475 8.162C119.943 7.934 120.471 7.82 121.059 7.82C122.031 7.82 122.817 8.066 123.417 8.558C124.017 9.05 124.359 9.752 124.443 10.664H122.877C122.817 10.184 122.625 9.818 122.301 9.566C121.977 9.314 121.563 9.188 121.059 9.188C120.663 9.188 120.309 9.278 119.997 9.458C119.685 9.626 119.529 9.878 119.529 10.214C119.529 10.538 119.709 10.808 120.069 11.024C120.429 11.228 121.035 11.444 121.887 11.672C122.883 11.936 123.615 12.266 124.083 12.662C124.563 13.058 124.803 13.592 124.803 14.264C124.803 14.816 124.659 15.314 124.371 15.758C124.095 16.202 123.699 16.55 123.183 16.802C122.667 17.054 122.073 17.18 121.401 17.18ZM129.57 17.18C128.622 17.18 127.89 16.916 127.374 16.388C126.858 15.86 126.6 15.134 126.6 14.21V8H128.184V13.922C128.184 14.522 128.34 14.984 128.652 15.308C128.976 15.62 129.432 15.776 130.02 15.776C130.536 15.776 131.022 15.62 131.478 15.308C131.946 14.996 132.36 14.576 132.72 14.048V8H134.304V17H132.72V15.83C132.372 16.202 131.916 16.52 131.352 16.784C130.788 17.048 130.194 17.18 129.57 17.18ZM136.674 8H138.258V9.062C139.026 8.234 139.938 7.82 140.994 7.82C141.558 7.82 142.014 7.928 142.362 8.144C142.722 8.348 143.016 8.672 143.244 9.116C144.18 8.252 145.176 7.82 146.232 7.82C147.12 7.82 147.78 8.042 148.212 8.486C148.656 8.918 148.878 9.506 148.878 10.25V17H147.294V10.718C147.294 10.25 147.168 9.884 146.916 9.62C146.676 9.356 146.316 9.224 145.836 9.224C144.936 9.224 144.18 9.65 143.568 10.502V17H141.984V10.79C141.984 9.746 141.504 9.224 140.544 9.224C140.136 9.224 139.734 9.362 139.338 9.638C138.942 9.914 138.582 10.274 138.258 10.718V17H136.674V8ZM158.61 17.18C157.866 17.18 157.176 16.988 156.54 16.604C155.916 16.22 155.418 15.674 155.046 14.966C154.674 14.258 154.488 13.436 154.488 12.5C154.488 11.564 154.662 10.742 155.01 10.034C155.358 9.326 155.844 8.78 156.468 8.396C157.092 8.012 157.794 7.82 158.574 7.82C159.15 7.82 159.69 7.922 160.194 8.126C160.71 8.318 161.136 8.594 161.472 8.954V3.86H163.056V17H161.472V16.01C161.16 16.334 160.764 16.61 160.284 16.838C159.804 17.066 159.246 17.18 158.61 17.18ZM158.862 15.74C159.33 15.74 159.762 15.632 160.158 15.416C160.566 15.2 160.884 14.912 161.112 14.552C161.352 14.192 161.472 13.802 161.472 13.382V11.654C161.472 11.234 161.352 10.844 161.112 10.484C160.872 10.112 160.554 9.818 160.158 9.602C159.762 9.374 159.33 9.26 158.862 9.26C158.046 9.26 157.374 9.53 156.846 10.07C156.33 10.61 156.072 11.42 156.072 12.5C156.072 13.58 156.33 14.39 156.846 14.93C157.374 15.47 158.046 15.74 158.862 15.74ZM169.59 17.18C168.69 17.18 167.886 16.982 167.178 16.586C166.482 16.178 165.936 15.62 165.54 14.912C165.156 14.192 164.964 13.388 164.964 12.5C164.964 11.612 165.156 10.814 165.54 10.106C165.936 9.386 166.482 8.828 167.178 8.432C167.886 8.024 168.69 7.82 169.59 7.82C170.49 7.82 171.288 8.024 171.984 8.432C172.692 8.828 173.238 9.386 173.622 10.106C174.018 10.814 174.216 11.612 174.216 12.5C174.216 13.388 174.018 14.192 173.622 14.912C173.238 15.62 172.692 16.178 171.984 16.586C171.288 16.982 170.49 17.18 169.59 17.18ZM169.59 15.74C170.478 15.74 171.204 15.458 171.768 14.894C172.344 14.33 172.632 13.532 172.632 12.5C172.632 11.468 172.344 10.67 171.768 10.106C171.204 9.542 170.478 9.26 169.59 9.26C168.702 9.26 167.97 9.542 167.394 10.106C166.83 10.67 166.548 11.468 166.548 12.5C166.548 13.532 166.83 14.33 167.394 14.894C167.97 15.458 168.702 15.74 169.59 15.74ZM176.12 3.86H177.704V17H176.12V3.86ZM184.233 17.18C183.333 17.18 182.529 16.982 181.821 16.586C181.125 16.178 180.579 15.62 180.183 14.912C179.799 14.192 179.607 13.388 179.607 12.5C179.607 11.612 179.799 10.814 180.183 10.106C180.579 9.386 181.125 8.828 181.821 8.432C182.529 8.024 183.333 7.82 184.233 7.82C185.133 7.82 185.931 8.024 186.627 8.432C187.335 8.828 187.881 9.386 188.265 10.106C188.661 10.814 188.859 11.612 188.859 12.5C188.859 13.388 188.661 14.192 188.265 14.912C187.881 15.62 187.335 16.178 186.627 16.586C185.931 16.982 185.133 17.18 184.233 17.18ZM184.233 15.74C185.121 15.74 185.847 15.458 186.411 14.894C186.987 14.33 187.275 13.532 187.275 12.5C187.275 11.468 186.987 10.67 186.411 10.106C185.847 9.542 185.121 9.26 184.233 9.26C183.345 9.26 182.613 9.542 182.037 10.106C181.473 10.67 181.191 11.468 181.191 12.5C181.191 13.532 181.473 14.33 182.037 14.894C182.613 15.458 183.345 15.74 184.233 15.74ZM190.762 8H192.346V9.17C192.694 8.774 193.09 8.45 193.534 8.198C193.978 7.946 194.464 7.82 194.992 7.82C195.304 7.82 195.544 7.868 195.712 7.964L195.46 9.278C195.316 9.242 195.124 9.224 194.884 9.224C194.38 9.224 193.906 9.374 193.462 9.674C193.018 9.974 192.646 10.4 192.346 10.952V17H190.762V8ZM204.247 17.18C203.179 17.18 202.315 16.916 201.655 16.388C200.995 15.86 200.623 15.128 200.539 14.192H202.033C202.165 14.684 202.399 15.068 202.735 15.344C203.083 15.608 203.599 15.74 204.283 15.74C204.787 15.74 205.213 15.626 205.561 15.398C205.921 15.17 206.101 14.858 206.101 14.462C206.101 14.078 205.903 13.772 205.507 13.544C205.123 13.316 204.457 13.082 203.509 12.842C202.597 12.614 201.925 12.296 201.493 11.888C201.073 11.48 200.863 10.934 200.863 10.25C200.863 9.818 200.989 9.416 201.241 9.044C201.505 8.672 201.865 8.378 202.321 8.162C202.789 7.934 203.317 7.82 203.905 7.82C204.877 7.82 205.663 8.066 206.263 8.558C206.863 9.05 207.205 9.752 207.289 10.664H205.723C205.663 10.184 205.471 9.818 205.147 9.566C204.823 9.314 204.409 9.188 203.905 9.188C203.509 9.188 203.155 9.278 202.843 9.458C202.531 9.626 202.375 9.878 202.375 10.214C202.375 10.538 202.555 10.808 202.915 11.024C203.275 11.228 203.881 11.444 204.733 11.672C205.729 11.936 206.461 12.266 206.929 12.662C207.409 13.058 207.649 13.592 207.649 14.264C207.649 14.816 207.505 15.314 207.217 15.758C206.941 16.202 206.545 16.55 206.029 16.802C205.513 17.054 204.919 17.18 204.247 17.18ZM210.31 6.632C210.01 6.632 209.752 6.53 209.536 6.326C209.332 6.11 209.23 5.852 209.23 5.552C209.23 5.252 209.332 5 209.536 4.796C209.752 4.58 210.01 4.472 210.31 4.472C210.61 4.472 210.862 4.58 211.066 4.796C211.282 5 211.39 5.252 211.39 5.552C211.39 5.852 211.282 6.11 211.066 6.326C210.862 6.53 210.61 6.632 210.31 6.632ZM209.518 8H211.102V17H209.518V8ZM216.713 17.18C216.017 17.18 215.471 16.988 215.075 16.604C214.691 16.208 214.499 15.644 214.499 14.912V9.44H212.717V8H214.499V5.3L216.083 5.876V8H218.243V9.44H216.083V14.804C216.083 15.116 216.173 15.356 216.353 15.524C216.545 15.692 216.827 15.776 217.199 15.776C217.427 15.776 217.625 15.764 217.793 15.74C217.973 15.704 218.093 15.68 218.153 15.668V17C217.685 17.12 217.205 17.18 216.713 17.18ZM226.292 17.18C225.44 17.18 224.75 16.946 224.222 16.478C223.694 15.998 223.43 15.362 223.43 14.57C223.43 13.73 223.718 13.07 224.294 12.59C224.87 12.11 225.596 11.828 226.472 11.744L229.28 11.456V10.844C229.28 10.328 229.094 9.938 228.722 9.674C228.362 9.398 227.882 9.26 227.282 9.26C226.778 9.26 226.352 9.38 226.004 9.62C225.668 9.86 225.44 10.226 225.32 10.718H223.826C223.958 9.77 224.36 9.05 225.032 8.558C225.716 8.066 226.502 7.82 227.39 7.82C228.446 7.82 229.286 8.084 229.91 8.612C230.546 9.128 230.864 9.812 230.864 10.664V14.876C230.864 15.176 230.93 15.41 231.062 15.578C231.194 15.734 231.392 15.812 231.656 15.812C231.812 15.812 231.968 15.788 232.124 15.74V16.928C231.764 17.048 231.428 17.108 231.116 17.108C230.144 17.108 229.55 16.64 229.334 15.704C228.986 16.1 228.536 16.448 227.984 16.748C227.432 17.036 226.868 17.18 226.292 17.18ZM226.472 15.74C227.408 15.74 228.344 15.272 229.28 14.336V12.716L226.58 13.022C226.076 13.082 225.686 13.25 225.41 13.526C225.146 13.79 225.014 14.114 225.014 14.498C225.014 14.906 225.146 15.218 225.41 15.434C225.686 15.638 226.04 15.74 226.472 15.74ZM233.846 8H235.43V9.062C236.198 8.234 237.11 7.82 238.166 7.82C238.73 7.82 239.186 7.928 239.534 8.144C239.894 8.348 240.188 8.672 240.416 9.116C241.352 8.252 242.348 7.82 243.404 7.82C244.292 7.82 244.952 8.042 245.384 8.486C245.828 8.918 246.05 9.506 246.05 10.25V17H244.466V10.718C244.466 10.25 244.34 9.884 244.088 9.62C243.848 9.356 243.488 9.224 243.008 9.224C242.108 9.224 241.352 9.65 240.74 10.502V17H239.156V10.79C239.156 9.746 238.676 9.224 237.716 9.224C237.308 9.224 236.906 9.362 236.51 9.638C236.114 9.914 235.754 10.274 235.43 10.718V17H233.846V8ZM252.272 17.18C251.372 17.18 250.592 16.988 249.932 16.604C249.272 16.208 248.762 15.662 248.402 14.966C248.054 14.258 247.88 13.436 247.88 12.5C247.88 11.588 248.078 10.778 248.474 10.07C248.87 9.362 249.404 8.81 250.076 8.414C250.748 8.018 251.48 7.82 252.272 7.82C253.076 7.82 253.796 8.006 254.432 8.378C255.08 8.738 255.584 9.26 255.944 9.944C256.316 10.628 256.502 11.444 256.502 12.392V13.004H249.482C249.506 13.856 249.77 14.528 250.274 15.02C250.79 15.5 251.462 15.74 252.29 15.74C252.974 15.74 253.544 15.578 254 15.254C254.456 14.918 254.768 14.474 254.936 13.922H256.412C256.16 14.942 255.68 15.74 254.972 16.316C254.264 16.892 253.364 17.18 252.272 17.18ZM255.008 11.636C254.948 10.88 254.66 10.298 254.144 9.89C253.64 9.47 253.016 9.26 252.272 9.26C251.552 9.26 250.94 9.47 250.436 9.89C249.932 10.31 249.62 10.892 249.5 11.636H255.008ZM261.326 17.18C260.63 17.18 260.084 16.988 259.688 16.604C259.304 16.208 259.112 15.644 259.112 14.912V9.44H257.33V8H259.112V5.3L260.696 5.876V8H262.856V9.44H260.696V14.804C260.696 15.116 260.786 15.356 260.966 15.524C261.158 15.692 261.44 15.776 261.812 15.776C262.04 15.776 262.238 15.764 262.406 15.74C262.586 15.704 262.706 15.68 262.766 15.668V17C262.298 17.12 261.818 17.18 261.326 17.18ZM264.372 19.052C264.78 18.68 265.092 18.338 265.308 18.026C265.524 17.726 265.644 17.384 265.668 17C265.284 17 264.978 16.874 264.75 16.622C264.522 16.358 264.408 16.064 264.408 15.74C264.408 15.368 264.528 15.056 264.768 14.804C265.02 14.54 265.332 14.408 265.704 14.408C266.088 14.408 266.4 14.54 266.64 14.804C266.88 15.056 267 15.374 267 15.758C267 16.502 266.814 17.162 266.442 17.738C266.07 18.314 265.506 18.872 264.75 19.412L264.372 19.052ZM53.22 41.18C52.368 41.18 51.6 40.988 50.916 40.604C50.232 40.208 49.692 39.656 49.296 38.948C48.912 38.24 48.72 37.424 48.72 36.5C48.72 35.576 48.912 34.76 49.296 34.052C49.692 33.344 50.232 32.798 50.916 32.414C51.6 32.018 52.368 31.82 53.22 31.82C54.384 31.82 55.344 32.126 56.1 32.738C56.856 33.338 57.312 34.178 57.468 35.258H55.974C55.83 34.622 55.524 34.13 55.056 33.782C54.588 33.434 53.982 33.26 53.238 33.26C52.374 33.26 51.666 33.554 51.114 34.142C50.574 34.718 50.304 35.504 50.304 36.5C50.304 37.496 50.574 38.288 51.114 38.876C51.666 39.452 52.374 39.74 53.238 39.74C53.982 39.74 54.588 39.566 55.056 39.218C55.524 38.87 55.83 38.378 55.974 37.742H57.468C57.312 38.822 56.856 39.668 56.1 40.28C55.344 40.88 54.384 41.18 53.22 41.18ZM63.5413 41.18C62.6413 41.18 61.8373 40.982 61.1293 40.586C60.4333 40.178 59.8873 39.62 59.4913 38.912C59.1073 38.192 58.9153 37.388 58.9153 36.5C58.9153 35.612 59.1073 34.814 59.4913 34.106C59.8873 33.386 60.4333 32.828 61.1293 32.432C61.8373 32.024 62.6413 31.82 63.5413 31.82C64.4413 31.82 65.2393 32.024 65.9353 32.432C66.6433 32.828 67.1893 33.386 67.5733 34.106C67.9693 34.814 68.1673 35.612 68.1673 36.5C68.1673 37.388 67.9693 38.192 67.5733 38.912C67.1893 39.62 66.6433 40.178 65.9353 40.586C65.2393 40.982 64.4413 41.18 63.5413 41.18ZM63.5413 39.74C64.4293 39.74 65.1553 39.458 65.7193 38.894C66.2953 38.33 66.5833 37.532 66.5833 36.5C66.5833 35.468 66.2953 34.67 65.7193 34.106C65.1553 33.542 64.4293 33.26 63.5413 33.26C62.6533 33.26 61.9213 33.542 61.3453 34.106C60.7813 34.67 60.4993 35.468 60.4993 36.5C60.4993 37.532 60.7813 38.33 61.3453 38.894C61.9213 39.458 62.6533 39.74 63.5413 39.74ZM70.0708 32H71.6548V33.17C72.0028 32.798 72.4588 32.48 73.0228 32.216C73.5868 31.952 74.1808 31.82 74.8048 31.82C75.7528 31.82 76.4848 32.084 77.0008 32.612C77.5168 33.14 77.7748 33.866 77.7748 34.79V41H76.1908V35.078C76.1908 34.478 76.0288 34.022 75.7048 33.71C75.3928 33.386 74.9428 33.224 74.3548 33.224C73.8388 33.224 73.3468 33.38 72.8788 33.692C72.4228 34.004 72.0148 34.424 71.6548 34.952V41H70.0708V32ZM83.1688 41.18C82.1008 41.18 81.2368 40.916 80.5768 40.388C79.9168 39.86 79.5448 39.128 79.4608 38.192H80.9548C81.0868 38.684 81.3208 39.068 81.6568 39.344C82.0048 39.608 82.5208 39.74 83.2048 39.74C83.7088 39.74 84.1348 39.626 84.4828 39.398C84.8428 39.17 85.0228 38.858 85.0228 38.462C85.0228 38.078 84.8248 37.772 84.4288 37.544C84.0448 37.316 83.3788 37.082 82.4308 36.842C81.5188 36.614 80.8468 36.296 80.4148 35.888C79.9948 35.48 79.7848 34.934 79.7848 34.25C79.7848 33.818 79.9108 33.416 80.1628 33.044C80.4268 32.672 80.7868 32.378 81.2428 32.162C81.7108 31.934 82.2388 31.82 82.8268 31.82C83.7988 31.82 84.5848 32.066 85.1848 32.558C85.7848 33.05 86.1268 33.752 86.2108 34.664H84.6448C84.5848 34.184 84.3928 33.818 84.0688 33.566C83.7448 33.314 83.3308 33.188 82.8268 33.188C82.4308 33.188 82.0768 33.278 81.7648 33.458C81.4528 33.626 81.2968 33.878 81.2968 34.214C81.2968 34.538 81.4768 34.808 81.8368 35.024C82.1968 35.228 82.8028 35.444 83.6548 35.672C84.6508 35.936 85.3828 36.266 85.8508 36.662C86.3308 37.058 86.5708 37.592 86.5708 38.264C86.5708 38.816 86.4268 39.314 86.1388 39.758C85.8628 40.202 85.4668 40.55 84.9508 40.802C84.4348 41.054 83.8408 41.18 83.1688 41.18ZM92.364 41.18C91.464 41.18 90.684 40.988 90.024 40.604C89.364 40.208 88.854 39.662 88.494 38.966C88.146 38.258 87.972 37.436 87.972 36.5C87.972 35.588 88.17 34.778 88.566 34.07C88.962 33.362 89.496 32.81 90.168 32.414C90.84 32.018 91.572 31.82 92.364 31.82C93.168 31.82 93.888 32.006 94.524 32.378C95.172 32.738 95.676 33.26 96.036 33.944C96.408 34.628 96.594 35.444 96.594 36.392V37.004H89.574C89.598 37.856 89.862 38.528 90.366 39.02C90.882 39.5 91.554 39.74 92.382 39.74C93.066 39.74 93.636 39.578 94.092 39.254C94.548 38.918 94.86 38.474 95.028 37.922H96.504C96.252 38.942 95.772 39.74 95.064 40.316C94.356 40.892 93.456 41.18 92.364 41.18ZM95.1 35.636C95.04 34.88 94.752 34.298 94.236 33.89C93.732 33.47 93.108 33.26 92.364 33.26C91.644 33.26 91.032 33.47 90.528 33.89C90.024 34.31 89.712 34.892 89.592 35.636H95.1ZM102.421 41.18C101.569 41.18 100.801 40.988 100.117 40.604C99.4332 40.208 98.8932 39.656 98.4972 38.948C98.1132 38.24 97.9212 37.424 97.9212 36.5C97.9212 35.576 98.1132 34.76 98.4972 34.052C98.8932 33.344 99.4332 32.798 100.117 32.414C100.801 32.018 101.569 31.82 102.421 31.82C103.585 31.82 104.545 32.126 105.301 32.738C106.057 33.338 106.513 34.178 106.669 35.258H105.175C105.031 34.622 104.725 34.13 104.257 33.782C103.789 33.434 103.183 33.26 102.439 33.26C101.575 33.26 100.867 33.554 100.315 34.142C99.7752 34.718 99.5052 35.504 99.5052 36.5C99.5052 37.496 99.7752 38.288 100.315 38.876C100.867 39.452 101.575 39.74 102.439 39.74C103.183 39.74 103.789 39.566 104.257 39.218C104.725 38.87 105.031 38.378 105.175 37.742H106.669C106.513 38.822 106.057 39.668 105.301 40.28C104.545 40.88 103.585 41.18 102.421 41.18ZM111.508 41.18C110.812 41.18 110.266 40.988 109.87 40.604C109.486 40.208 109.294 39.644 109.294 38.912V33.44H107.512V32H109.294V29.3L110.878 29.876V32H113.038V33.44H110.878V38.804C110.878 39.116 110.968 39.356 111.148 39.524C111.34 39.692 111.622 39.776 111.994 39.776C112.222 39.776 112.42 39.764 112.588 39.74C112.768 39.704 112.888 39.68 112.948 39.668V41C112.48 41.12 112 41.18 111.508 41.18ZM118.591 41.18C117.691 41.18 116.911 40.988 116.251 40.604C115.591 40.208 115.081 39.662 114.721 38.966C114.373 38.258 114.199 37.436 114.199 36.5C114.199 35.588 114.397 34.778 114.793 34.07C115.189 33.362 115.723 32.81 116.395 32.414C117.067 32.018 117.799 31.82 118.591 31.82C119.395 31.82 120.115 32.006 120.751 32.378C121.399 32.738 121.903 33.26 122.263 33.944C122.635 34.628 122.821 35.444 122.821 36.392V37.004H115.801C115.825 37.856 116.089 38.528 116.593 39.02C117.109 39.5 117.781 39.74 118.609 39.74C119.293 39.74 119.863 39.578 120.319 39.254C120.775 38.918 121.087 38.474 121.255 37.922H122.731C122.479 38.942 121.999 39.74 121.291 40.316C120.583 40.892 119.683 41.18 118.591 41.18ZM121.327 35.636C121.267 34.88 120.979 34.298 120.463 33.89C119.959 33.47 119.335 33.26 118.591 33.26C117.871 33.26 117.259 33.47 116.755 33.89C116.251 34.31 115.939 34.892 115.819 35.636H121.327ZM127.645 41.18C126.949 41.18 126.403 40.988 126.007 40.604C125.623 40.208 125.431 39.644 125.431 38.912V33.44H123.649V32H125.431V29.3L127.015 29.876V32H129.175V33.44H127.015V38.804C127.015 39.116 127.105 39.356 127.285 39.524C127.477 39.692 127.759 39.776 128.131 39.776C128.359 39.776 128.557 39.764 128.725 39.74C128.905 39.704 129.025 39.68 129.085 39.668V41C128.617 41.12 128.137 41.18 127.645 41.18ZM133.912 41.18C132.964 41.18 132.232 40.916 131.716 40.388C131.2 39.86 130.942 39.134 130.942 38.21V32H132.526V37.922C132.526 38.522 132.682 38.984 132.994 39.308C133.318 39.62 133.774 39.776 134.362 39.776C134.878 39.776 135.364 39.62 135.82 39.308C136.288 38.996 136.702 38.576 137.062 38.048V32H138.646V41H137.062V39.83C136.714 40.202 136.258 40.52 135.694 40.784C135.13 41.048 134.536 41.18 133.912 41.18ZM141.016 32H142.6V33.17C142.948 32.774 143.344 32.45 143.788 32.198C144.232 31.946 144.718 31.82 145.246 31.82C145.558 31.82 145.798 31.868 145.966 31.964L145.714 33.278C145.57 33.242 145.378 33.224 145.138 33.224C144.634 33.224 144.16 33.374 143.716 33.674C143.272 33.974 142.9 34.4 142.6 34.952V41H141.016V32ZM153.835 41.18C152.983 41.18 152.293 40.946 151.765 40.478C151.237 39.998 150.973 39.362 150.973 38.57C150.973 37.73 151.261 37.07 151.837 36.59C152.413 36.11 153.139 35.828 154.015 35.744L156.823 35.456V34.844C156.823 34.328 156.637 33.938 156.265 33.674C155.905 33.398 155.425 33.26 154.825 33.26C154.321 33.26 153.895 33.38 153.547 33.62C153.211 33.86 152.983 34.226 152.863 34.718H151.369C151.501 33.77 151.903 33.05 152.575 32.558C153.259 32.066 154.045 31.82 154.933 31.82C155.989 31.82 156.829 32.084 157.453 32.612C158.089 33.128 158.407 33.812 158.407 34.664V38.876C158.407 39.176 158.473 39.41 158.605 39.578C158.737 39.734 158.935 39.812 159.199 39.812C159.355 39.812 159.511 39.788 159.667 39.74V40.928C159.307 41.048 158.971 41.108 158.659 41.108C157.687 41.108 157.093 40.64 156.877 39.704C156.529 40.1 156.079 40.448 155.527 40.748C154.975 41.036 154.411 41.18 153.835 41.18ZM154.015 39.74C154.951 39.74 155.887 39.272 156.823 38.336V36.716L154.123 37.022C153.619 37.082 153.229 37.25 152.953 37.526C152.689 37.79 152.557 38.114 152.557 38.498C152.557 38.906 152.689 39.218 152.953 39.434C153.229 39.638 153.583 39.74 154.015 39.74ZM164.533 41.18C163.789 41.18 163.099 40.988 162.463 40.604C161.839 40.22 161.341 39.674 160.969 38.966C160.597 38.258 160.411 37.436 160.411 36.5C160.411 35.564 160.585 34.742 160.933 34.034C161.281 33.326 161.767 32.78 162.391 32.396C163.015 32.012 163.717 31.82 164.497 31.82C165.073 31.82 165.613 31.922 166.117 32.126C166.633 32.318 167.059 32.594 167.395 32.954V27.86H168.979V41H167.395V40.01C167.083 40.334 166.687 40.61 166.207 40.838C165.727 41.066 165.169 41.18 164.533 41.18ZM164.785 39.74C165.253 39.74 165.685 39.632 166.081 39.416C166.489 39.2 166.807 38.912 167.035 38.552C167.275 38.192 167.395 37.802 167.395 37.382V35.654C167.395 35.234 167.275 34.844 167.035 34.484C166.795 34.112 166.477 33.818 166.081 33.602C165.685 33.374 165.253 33.26 164.785 33.26C163.969 33.26 163.297 33.53 162.769 34.07C162.253 34.61 161.995 35.42 161.995 36.5C161.995 37.58 162.253 38.39 162.769 38.93C163.297 39.47 163.969 39.74 164.785 39.74ZM172.148 30.632C171.848 30.632 171.59 30.53 171.374 30.326C171.17 30.11 171.068 29.852 171.068 29.552C171.068 29.252 171.17 29 171.374 28.796C171.59 28.58 171.848 28.472 172.148 28.472C172.448 28.472 172.7 28.58 172.904 28.796C173.12 29 173.228 29.252 173.228 29.552C173.228 29.852 173.12 30.11 172.904 30.326C172.7 30.53 172.448 30.632 172.148 30.632ZM171.356 32H172.94V41H171.356V32ZM175.311 32H176.895V32.99C177.207 32.666 177.603 32.39 178.083 32.162C178.563 31.934 179.121 31.82 179.757 31.82C180.501 31.82 181.185 32.012 181.809 32.396C182.445 32.78 182.949 33.326 183.321 34.034C183.693 34.742 183.879 35.564 183.879 36.5C183.879 37.436 183.705 38.258 183.357 38.966C183.009 39.674 182.523 40.22 181.899 40.604C181.275 40.988 180.573 41.18 179.793 41.18C179.217 41.18 178.671 41.084 178.155 40.892C177.651 40.688 177.231 40.406 176.895 40.046V44.6H175.311V32ZM179.505 39.74C180.321 39.74 180.987 39.47 181.503 38.93C182.031 38.39 182.295 37.58 182.295 36.5C182.295 35.42 182.031 34.61 181.503 34.07C180.987 33.53 180.321 33.26 179.505 33.26C179.037 33.26 178.599 33.368 178.191 33.584C177.795 33.8 177.477 34.088 177.237 34.448C177.009 34.808 176.895 35.198 176.895 35.618V37.346C176.895 37.766 177.015 38.162 177.255 38.534C177.495 38.894 177.813 39.188 178.209 39.416C178.605 39.632 179.037 39.74 179.505 39.74ZM186.58 30.632C186.28 30.632 186.022 30.53 185.806 30.326C185.602 30.11 185.5 29.852 185.5 29.552C185.5 29.252 185.602 29 185.806 28.796C186.022 28.58 186.28 28.472 186.58 28.472C186.88 28.472 187.132 28.58 187.336 28.796C187.552 29 187.66 29.252 187.66 29.552C187.66 29.852 187.552 30.11 187.336 30.326C187.132 30.53 186.88 30.632 186.58 30.632ZM185.788 32H187.372V41H185.788V32ZM192.839 41.18C191.771 41.18 190.907 40.916 190.247 40.388C189.587 39.86 189.215 39.128 189.131 38.192H190.625C190.757 38.684 190.991 39.068 191.327 39.344C191.675 39.608 192.191 39.74 192.875 39.74C193.379 39.74 193.805 39.626 194.153 39.398C194.513 39.17 194.693 38.858 194.693 38.462C194.693 38.078 194.495 37.772 194.099 37.544C193.715 37.316 193.049 37.082 192.101 36.842C191.189 36.614 190.517 36.296 190.085 35.888C189.665 35.48 189.455 34.934 189.455 34.25C189.455 33.818 189.581 33.416 189.833 33.044C190.097 32.672 190.457 32.378 190.913 32.162C191.381 31.934 191.909 31.82 192.497 31.82C193.469 31.82 194.255 32.066 194.855 32.558C195.455 33.05 195.797 33.752 195.881 34.664H194.315C194.255 34.184 194.063 33.818 193.739 33.566C193.415 33.314 193.001 33.188 192.497 33.188C192.101 33.188 191.747 33.278 191.435 33.458C191.123 33.626 190.967 33.878 190.967 34.214C190.967 34.538 191.147 34.808 191.507 35.024C191.867 35.228 192.473 35.444 193.325 35.672C194.321 35.936 195.053 36.266 195.521 36.662C196.001 37.058 196.241 37.592 196.241 38.264C196.241 38.816 196.097 39.314 195.809 39.758C195.533 40.202 195.137 40.55 194.621 40.802C194.105 41.054 193.511 41.18 192.839 41.18ZM202.142 41.18C201.29 41.18 200.522 40.988 199.838 40.604C199.154 40.208 198.614 39.656 198.218 38.948C197.834 38.24 197.642 37.424 197.642 36.5C197.642 35.576 197.834 34.76 198.218 34.052C198.614 33.344 199.154 32.798 199.838 32.414C200.522 32.018 201.29 31.82 202.142 31.82C203.306 31.82 204.266 32.126 205.022 32.738C205.778 33.338 206.234 34.178 206.39 35.258H204.896C204.752 34.622 204.446 34.13 203.978 33.782C203.51 33.434 202.904 33.26 202.16 33.26C201.296 33.26 200.588 33.554 200.036 34.142C199.496 34.718 199.226 35.504 199.226 36.5C199.226 37.496 199.496 38.288 200.036 38.876C200.588 39.452 201.296 39.74 202.16 39.74C202.904 39.74 203.51 39.566 203.978 39.218C204.446 38.87 204.752 38.378 204.896 37.742H206.39C206.234 38.822 205.778 39.668 205.022 40.28C204.266 40.88 203.306 41.18 202.142 41.18ZM209.097 30.632C208.797 30.632 208.539 30.53 208.323 30.326C208.119 30.11 208.017 29.852 208.017 29.552C208.017 29.252 208.119 29 208.323 28.796C208.539 28.58 208.797 28.472 209.097 28.472C209.397 28.472 209.649 28.58 209.853 28.796C210.069 29 210.177 29.252 210.177 29.552C210.177 29.852 210.069 30.11 209.853 30.326C209.649 30.53 209.397 30.632 209.097 30.632ZM208.305 32H209.889V41H208.305V32ZM212.26 32H213.844V33.17C214.192 32.798 214.648 32.48 215.212 32.216C215.776 31.952 216.37 31.82 216.994 31.82C217.942 31.82 218.674 32.084 219.19 32.612C219.706 33.14 219.964 33.866 219.964 34.79V41H218.38V35.078C218.38 34.478 218.218 34.022 217.894 33.71C217.582 33.386 217.132 33.224 216.544 33.224C216.028 33.224 215.536 33.38 215.068 33.692C214.612 34.004 214.204 34.424 213.844 34.952V41H212.26V32ZM226.222 44.78C225.094 44.78 224.206 44.528 223.558 44.024C222.91 43.52 222.532 42.842 222.424 41.99H224.152C224.356 42.89 225.028 43.34 226.168 43.34C227.104 43.34 227.77 43.106 228.166 42.638C228.574 42.182 228.778 41.588 228.778 40.856V39.812C228.37 40.22 227.938 40.52 227.482 40.712C227.038 40.904 226.504 41 225.88 41C225.088 41 224.38 40.82 223.756 40.46C223.144 40.088 222.664 39.554 222.316 38.858C221.968 38.162 221.794 37.346 221.794 36.41C221.794 35.486 221.98 34.676 222.352 33.98C222.724 33.284 223.222 32.75 223.846 32.378C224.482 32.006 225.172 31.82 225.916 31.82C226.552 31.82 227.11 31.934 227.59 32.162C228.07 32.39 228.466 32.666 228.778 32.99V32H230.362V40.946C230.362 42.11 229.996 43.04 229.264 43.736C228.544 44.432 227.53 44.78 226.222 44.78ZM226.168 39.56C226.948 39.56 227.578 39.32 228.058 38.84C228.538 38.348 228.778 37.736 228.778 37.004V35.852C228.778 35.36 228.658 34.916 228.418 34.52C228.19 34.124 227.872 33.818 227.464 33.602C227.068 33.374 226.636 33.26 226.168 33.26C225.352 33.26 224.68 33.518 224.152 34.034C223.636 34.55 223.378 35.342 223.378 36.41C223.378 37.478 223.636 38.27 224.152 38.786C224.68 39.302 225.352 39.56 226.168 39.56ZM240.442 41.18C239.542 41.18 238.762 40.988 238.102 40.604C237.442 40.208 236.932 39.662 236.572 38.966C236.224 38.258 236.05 37.436 236.05 36.5C236.05 35.588 236.248 34.778 236.644 34.07C237.04 33.362 237.574 32.81 238.246 32.414C238.918 32.018 239.65 31.82 240.442 31.82C241.246 31.82 241.966 32.006 242.602 32.378C243.25 32.738 243.754 33.26 244.114 33.944C244.486 34.628 244.672 35.444 244.672 36.392V37.004H237.652C237.676 37.856 237.94 38.528 238.444 39.02C238.96 39.5 239.632 39.74 240.46 39.74C241.144 39.74 241.714 39.578 242.17 39.254C242.626 38.918 242.938 38.474 243.106 37.922H244.582C244.33 38.942 243.85 39.74 243.142 40.316C242.434 40.892 241.534 41.18 240.442 41.18ZM243.178 35.636C243.118 34.88 242.83 34.298 242.314 33.89C241.81 33.47 241.186 33.26 240.442 33.26C239.722 33.26 239.11 33.47 238.606 33.89C238.102 34.31 237.79 34.892 237.67 35.636H243.178ZM246.467 27.86H248.051V41H246.467V27.86ZM251.214 30.632C250.914 30.632 250.656 30.53 250.44 30.326C250.236 30.11 250.134 29.852 250.134 29.552C250.134 29.252 250.236 29 250.44 28.796C250.656 28.58 250.914 28.472 251.214 28.472C251.514 28.472 251.766 28.58 251.97 28.796C252.186 29 252.294 29.252 252.294 29.552C252.294 29.852 252.186 30.11 251.97 30.326C251.766 30.53 251.514 30.632 251.214 30.632ZM250.422 32H252.006V41H250.422V32ZM257.617 41.18C256.921 41.18 256.375 40.988 255.979 40.604C255.595 40.208 255.403 39.644 255.403 38.912V33.44H253.621V32H255.403V29.3L256.987 29.876V32H259.147V33.44H256.987V38.804C256.987 39.116 257.077 39.356 257.257 39.524C257.449 39.692 257.731 39.776 258.103 39.776C258.331 39.776 258.529 39.764 258.697 39.74C258.877 39.704 258.997 39.68 259.057 39.668V41C258.589 41.12 258.109 41.18 257.617 41.18ZM261.995 41C261.647 41 261.341 40.874 261.077 40.622C260.825 40.358 260.699 40.052 260.699 39.704C260.699 39.356 260.825 39.056 261.077 38.804C261.341 38.54 261.647 38.408 261.995 38.408C262.343 38.408 262.643 38.54 262.895 38.804C263.159 39.056 263.291 39.356 263.291 39.704C263.291 40.052 263.159 40.358 262.895 40.622C262.643 40.874 262.343 41 261.995 41Z" fill="#808080"/>
<defs>
<linearGradient id="paint0_linear_5850_366" x1="32" y1="-9.53674e-07" x2="-2.86102e-06" y2="32" gradientUnits="userSpaceOnUse">
<stop stop-color="white"/>
<stop offset="1" stop-color="white" stop-opacity="0"/>
</linearGradient>
</defs>
</svg>
