<svg width="1392" height="120" viewBox="0 0 1392 120" fill="none" xmlns="http://www.w3.org/2000/svg">
<rect width="1392" height="120" fill="#4754EB"/>
<path d="M57.26 28.4H58.988V38.39L64.784 28.4H66.728V41H65V31.01L59.204 41H57.26V28.4ZM69.1763 32H70.7603V35.78H75.2963V32H76.8803V41H75.2963V37.22H70.7603V41H69.1763V32ZM83.2805 41.18C82.4285 41.18 81.6605 40.988 80.9765 40.604C80.2925 40.208 79.7525 39.656 79.3565 38.948C78.9725 38.24 78.7805 37.424 78.7805 36.5C78.7805 35.576 78.9725 34.76 79.3565 34.052C79.7525 33.344 80.2925 32.798 80.9765 32.414C81.6605 32.018 82.4285 31.82 83.2805 31.82C84.4445 31.82 85.4045 32.126 86.1605 32.738C86.9165 33.338 87.3725 34.178 87.5285 35.258H86.0345C85.8905 34.622 85.5845 34.13 85.1165 33.782C84.6485 33.434 84.0425 33.26 83.2985 33.26C82.4345 33.26 81.7265 33.554 81.1745 34.142C80.6345 34.718 80.3645 35.504 80.3645 36.5C80.3645 37.496 80.6345 38.288 81.1745 38.876C81.7265 39.452 82.4345 39.74 83.2985 39.74C84.0425 39.74 84.6485 39.566 85.1165 39.218C85.5845 38.87 85.8905 38.378 86.0345 37.742H87.5285C87.3725 38.822 86.9165 39.668 86.1605 40.28C85.4045 40.88 84.4445 41.18 83.2805 41.18ZM91.4232 33.44H88.3632V32H96.0672V33.44H93.0072V41H91.4232V33.44ZM99.9598 41.18C99.1078 41.18 98.4178 40.946 97.8898 40.478C97.3618 39.998 97.0978 39.362 97.0978 38.57C97.0978 37.73 97.3858 37.07 97.9618 36.59C98.5378 36.11 99.2638 35.828 100.14 35.744L102.948 35.456V34.844C102.948 34.328 102.762 33.938 102.39 33.674C102.03 33.398 101.55 33.26 100.95 33.26C100.446 33.26 100.02 33.38 99.6718 33.62C99.3358 33.86 99.1078 34.226 98.9878 34.718H97.4938C97.6258 33.77 98.0278 33.05 98.6998 32.558C99.3838 32.066 100.17 31.82 101.058 31.82C102.114 31.82 102.954 32.084 103.578 32.612C104.214 33.128 104.532 33.812 104.532 34.664V38.876C104.532 39.176 104.598 39.41 104.73 39.578C104.862 39.734 105.06 39.812 105.324 39.812C105.48 39.812 105.636 39.788 105.792 39.74V40.928C105.432 41.048 105.096 41.108 104.784 41.108C103.812 41.108 103.218 40.64 103.002 39.704C102.654 40.1 102.204 40.448 101.652 40.748C101.1 41.036 100.536 41.18 99.9598 41.18ZM100.14 39.74C101.076 39.74 102.012 39.272 102.948 38.336V36.716L100.248 37.022C99.7438 37.082 99.3538 37.25 99.0778 37.526C98.8138 37.79 98.6818 38.114 98.6818 38.498C98.6818 38.906 98.8138 39.218 99.0778 39.434C99.3538 39.638 99.7078 39.74 100.14 39.74ZM111.487 41.18C110.695 41.18 109.933 41.012 109.201 40.676C108.481 40.34 107.881 39.752 107.401 38.912C106.921 38.072 106.681 36.95 106.681 35.546C106.681 33.194 107.101 31.418 107.941 30.218C108.781 29.006 110.119 28.4 111.955 28.4H112.729C113.113 28.4 113.395 28.352 113.575 28.256C113.755 28.16 113.881 27.968 113.953 27.68H115.393C115.357 28.292 115.099 28.808 114.619 29.228C114.151 29.636 113.425 29.84 112.441 29.84H111.757C110.569 29.84 109.669 30.194 109.057 30.902C108.457 31.598 108.085 32.642 107.941 34.034C108.361 33.254 108.889 32.69 109.525 32.342C110.161 31.994 110.839 31.82 111.559 31.82C112.339 31.82 113.059 32.006 113.719 32.378C114.379 32.75 114.907 33.29 115.303 33.998C115.699 34.694 115.897 35.528 115.897 36.5C115.897 37.46 115.687 38.294 115.267 39.002C114.859 39.71 114.313 40.25 113.629 40.622C112.957 40.994 112.243 41.18 111.487 41.18ZM111.343 39.74C111.847 39.74 112.321 39.632 112.765 39.416C113.221 39.188 113.593 38.834 113.881 38.354C114.169 37.862 114.313 37.25 114.313 36.518C114.313 35.762 114.163 35.138 113.863 34.646C113.575 34.154 113.197 33.8 112.729 33.584C112.273 33.356 111.781 33.242 111.253 33.242C110.749 33.242 110.269 33.356 109.813 33.584C109.369 33.8 109.003 34.154 108.715 34.646C108.427 35.126 108.283 35.732 108.283 36.464C108.283 37.22 108.427 37.844 108.715 38.336C109.015 38.828 109.393 39.188 109.849 39.416C110.317 39.632 110.815 39.74 111.343 39.74ZM121.955 41.18C121.055 41.18 120.251 40.982 119.543 40.586C118.847 40.178 118.301 39.62 117.905 38.912C117.521 38.192 117.329 37.388 117.329 36.5C117.329 35.612 117.521 34.814 117.905 34.106C118.301 33.386 118.847 32.828 119.543 32.432C120.251 32.024 121.055 31.82 121.955 31.82C122.855 31.82 123.653 32.024 124.349 32.432C125.057 32.828 125.603 33.386 125.987 34.106C126.383 34.814 126.581 35.612 126.581 36.5C126.581 37.388 126.383 38.192 125.987 38.912C125.603 39.62 125.057 40.178 124.349 40.586C123.653 40.982 122.855 41.18 121.955 41.18ZM121.955 39.74C122.843 39.74 123.569 39.458 124.133 38.894C124.709 38.33 124.997 37.532 124.997 36.5C124.997 35.468 124.709 34.67 124.133 34.106C123.569 33.542 122.843 33.26 121.955 33.26C121.067 33.26 120.335 33.542 119.759 34.106C119.195 34.67 118.913 35.468 118.913 36.5C118.913 37.532 119.195 38.33 119.759 38.894C120.335 39.458 121.067 39.74 121.955 39.74ZM130.464 33.44H127.404V32H135.108V33.44H132.048V41H130.464V33.44ZM136.94 32H138.524V35.42H141.278C142.154 35.42 142.904 35.636 143.528 36.068C144.152 36.5 144.464 37.214 144.464 38.21C144.464 39.206 144.152 39.92 143.528 40.352C142.904 40.784 142.154 41 141.278 41H136.94V32ZM145.94 32H147.524V41H145.94V32ZM141.098 39.56C141.71 39.56 142.16 39.452 142.448 39.236C142.736 39.02 142.88 38.678 142.88 38.21C142.88 37.742 142.736 37.4 142.448 37.184C142.16 36.968 141.71 36.86 141.098 36.86H138.524V39.56H141.098Z" fill="white"/>
<path d="M62.56 67.16C61.4933 67.16 60.5173 66.904 59.632 66.392C58.7573 65.8693 58.064 65.1707 57.552 64.296C57.0507 63.4107 56.8 62.4453 56.8 61.4C56.8 60.3547 57.0507 59.3947 57.552 58.52C58.064 57.6347 58.7573 56.936 59.632 56.424C60.5173 55.9013 61.4933 55.64 62.56 55.64C63.6267 55.64 64.5973 55.9013 65.472 56.424C66.3573 56.936 67.0507 57.6347 67.552 58.52C68.064 59.3947 68.32 60.3547 68.32 61.4C68.32 62.4453 68.064 63.4107 67.552 64.296C67.0507 65.1707 66.3573 65.8693 65.472 66.392C64.5973 66.904 63.6267 67.16 62.56 67.16ZM62.56 66.072C63.4027 66.072 64.176 65.864 64.88 65.448C65.584 65.0213 66.1387 64.4507 66.544 63.736C66.96 63.0213 67.168 62.2427 67.168 61.4C67.168 60.5573 66.96 59.7787 66.544 59.064C66.1387 58.3493 65.584 57.784 64.88 57.368C64.176 56.9413 63.4027 56.728 62.56 56.728C61.7173 56.728 60.944 56.9413 60.24 57.368C59.536 57.784 58.976 58.3493 58.56 59.064C58.1547 59.7787 57.952 60.5573 57.952 61.4C57.952 62.2427 58.1547 63.0213 58.56 63.736C58.976 64.4507 59.536 65.0213 60.24 65.448C60.944 65.864 61.7173 66.072 62.56 66.072ZM62.56 64.664C61.9627 64.664 61.4187 64.5307 60.928 64.264C60.448 63.9867 60.0693 63.6027 59.792 63.112C59.5147 62.6107 59.376 62.04 59.376 61.4C59.376 60.76 59.5147 60.1947 59.792 59.704C60.0693 59.2027 60.448 58.8187 60.928 58.552C61.4187 58.2747 61.9627 58.136 62.56 58.136C63.3707 58.136 64.0427 58.3493 64.576 58.776C65.1093 59.192 65.4293 59.7787 65.536 60.536H64.496C64.3893 60.0987 64.1707 59.7573 63.84 59.512C63.52 59.2667 63.0987 59.144 62.576 59.144C61.968 59.144 61.4667 59.3467 61.072 59.752C60.6773 60.1573 60.48 60.7067 60.48 61.4C60.48 62.0933 60.6773 62.6427 61.072 63.048C61.4667 63.4533 61.968 63.656 62.576 63.656C63.0987 63.656 63.5093 63.544 63.808 63.32C64.1173 63.096 64.3467 62.744 64.496 62.264H65.536C65.3973 63.0213 65.0667 63.6133 64.544 64.04C64.032 64.456 63.3707 64.664 62.56 64.664ZM73.1564 65.688L77.7804 61.528C78.2497 61.1013 78.6017 60.7013 78.8364 60.328C79.071 59.944 79.1884 59.4907 79.1884 58.968C79.1884 58.3707 78.991 57.9013 78.5964 57.56C78.2124 57.2187 77.7217 57.048 77.1244 57.048C76.431 57.048 75.8657 57.2453 75.4284 57.64C75.0017 58.0347 74.7724 58.5787 74.7404 59.272H73.2684C73.3004 58.5787 73.487 57.9547 73.8284 57.4C74.1697 56.8453 74.623 56.4133 75.1884 56.104C75.7537 55.7947 76.3937 55.64 77.1084 55.64C77.7804 55.64 78.383 55.7733 78.9164 56.04C79.4604 56.3067 79.887 56.6853 80.1964 57.176C80.5057 57.6667 80.6604 58.2373 80.6604 58.888C80.6604 59.5813 80.5004 60.2053 80.1804 60.76C79.871 61.304 79.407 61.848 78.7884 62.392L75.1564 65.592H80.8844V67H73.1564V65.688ZM86.7655 67.16C85.8268 67.16 85.0162 66.9147 84.3335 66.424C83.6508 65.9227 83.1282 65.2347 82.7655 64.36C82.4135 63.4853 82.2375 62.4987 82.2375 61.4C82.2375 60.3013 82.4135 59.3147 82.7655 58.44C83.1282 57.5653 83.6508 56.8827 84.3335 56.392C85.0162 55.8907 85.8268 55.64 86.7655 55.64C87.7042 55.64 88.5148 55.8907 89.1975 56.392C89.8802 56.8827 90.3975 57.5653 90.7495 58.44C91.1122 59.3147 91.2935 60.3013 91.2935 61.4C91.2935 62.4987 91.1122 63.4853 90.7495 64.36C90.3975 65.2347 89.8802 65.9227 89.1975 66.424C88.5148 66.9147 87.7042 67.16 86.7655 67.16ZM86.7655 65.752C87.7468 65.752 88.4828 65.3627 88.9735 64.584C89.4748 63.7947 89.7255 62.7333 89.7255 61.4C89.7255 60.0667 89.4748 59.0107 88.9735 58.232C88.4828 57.4427 87.7468 57.048 86.7655 57.048C85.7842 57.048 85.0428 57.4427 84.5415 58.232C84.0508 59.0107 83.8055 60.0667 83.8055 61.4C83.8055 62.7333 84.0508 63.7947 84.5415 64.584C85.0428 65.3627 85.7842 65.752 86.7655 65.752ZM92.4533 65.688L97.0773 61.528C97.5466 61.1013 97.8986 60.7013 98.1333 60.328C98.3679 59.944 98.4853 59.4907 98.4853 58.968C98.4853 58.3707 98.2879 57.9013 97.8933 57.56C97.5093 57.2187 97.0186 57.048 96.4213 57.048C95.7279 57.048 95.1626 57.2453 94.7253 57.64C94.2986 58.0347 94.0693 58.5787 94.0373 59.272H92.5653C92.5973 58.5787 92.7839 57.9547 93.1253 57.4C93.4666 56.8453 93.9199 56.4133 94.4853 56.104C95.0506 55.7947 95.6906 55.64 96.4053 55.64C97.0773 55.64 97.6799 55.7733 98.2133 56.04C98.7573 56.3067 99.1839 56.6853 99.4933 57.176C99.8026 57.6667 99.9573 58.2373 99.9573 58.888C99.9573 59.5813 99.7973 60.2053 99.4773 60.76C99.1679 61.304 98.7039 61.848 98.0853 62.392L94.4533 65.592H100.181V67H92.4533V65.688ZM103.576 57.944C103.32 58.168 103.032 58.3227 102.712 58.408C102.402 58.4827 101.976 58.52 101.432 58.52V57.24H101.688C102.264 57.24 102.706 57.128 103.016 56.904C103.325 56.6693 103.512 56.3013 103.576 55.8H105.112V67H103.576V57.944ZM115.962 67.16C114.948 67.16 114.015 66.92 113.162 66.44C112.319 65.9493 111.647 65.2667 111.146 64.392C110.644 63.5173 110.394 62.52 110.394 61.4C110.394 60.28 110.644 59.2827 111.146 58.408C111.647 57.5333 112.319 56.856 113.162 56.376C114.015 55.8853 114.948 55.64 115.962 55.64C117.284 55.64 118.388 55.992 119.274 56.696C120.159 57.4 120.719 58.3333 120.954 59.496H119.418C119.194 58.728 118.778 58.1307 118.17 57.704C117.562 57.2667 116.82 57.048 115.946 57.048C115.146 57.048 114.442 57.2347 113.834 57.608C113.236 57.9813 112.772 58.4987 112.442 59.16C112.122 59.8213 111.962 60.568 111.962 61.4C111.962 62.232 112.122 62.9787 112.442 63.64C112.772 64.3013 113.236 64.8187 113.834 65.192C114.442 65.5653 115.146 65.752 115.946 65.752C116.82 65.752 117.562 65.5387 118.17 65.112C118.778 64.6747 119.194 64.072 119.418 63.304H120.954C120.794 64.072 120.49 64.7493 120.042 65.336C119.594 65.912 119.018 66.36 118.314 66.68C117.62 67 116.836 67.16 115.962 67.16ZM126.502 67.16C125.702 67.16 124.987 66.984 124.358 66.632C123.739 66.2693 123.254 65.7733 122.902 65.144C122.561 64.504 122.39 63.7893 122.39 63C122.39 62.2107 122.561 61.5013 122.902 60.872C123.254 60.232 123.739 59.736 124.358 59.384C124.987 59.0213 125.702 58.84 126.502 58.84C127.302 58.84 128.011 59.0213 128.63 59.384C129.259 59.736 129.745 60.232 130.086 60.872C130.438 61.5013 130.614 62.2107 130.614 63C130.614 63.7893 130.438 64.504 130.086 65.144C129.745 65.7733 129.259 66.2693 128.63 66.632C128.011 66.984 127.302 67.16 126.502 67.16ZM126.502 65.88C127.291 65.88 127.937 65.6293 128.438 65.128C128.95 64.6267 129.206 63.9173 129.206 63C129.206 62.0827 128.95 61.3733 128.438 60.872C127.937 60.3707 127.291 60.12 126.502 60.12C125.713 60.12 125.062 60.3707 124.55 60.872C124.049 61.3733 123.798 62.0827 123.798 63C123.798 63.9173 124.049 64.6267 124.55 65.128C125.062 65.6293 125.713 65.88 126.502 65.88ZM132.306 59H133.714V59.88C133.991 59.592 134.343 59.3467 134.77 59.144C135.197 58.9413 135.693 58.84 136.258 58.84C136.919 58.84 137.527 59.0107 138.082 59.352C138.647 59.6933 139.095 60.1787 139.426 60.808C139.757 61.4373 139.922 62.168 139.922 63C139.922 63.832 139.767 64.5627 139.458 65.192C139.149 65.8213 138.717 66.3067 138.162 66.648C137.607 66.9893 136.983 67.16 136.29 67.16C135.778 67.16 135.293 67.0747 134.834 66.904C134.386 66.7227 134.013 66.472 133.714 66.152V70.2H132.306V59ZM136.034 65.88C136.759 65.88 137.351 65.64 137.81 65.16C138.279 64.68 138.514 63.96 138.514 63C138.514 62.04 138.279 61.32 137.81 60.84C137.351 60.36 136.759 60.12 136.034 60.12C135.618 60.12 135.229 60.216 134.866 60.408C134.514 60.6 134.231 60.856 134.018 61.176C133.815 61.496 133.714 61.8427 133.714 62.216V63.752C133.714 64.1253 133.821 64.4773 134.034 64.808C134.247 65.128 134.53 65.3893 134.882 65.592C135.234 65.784 135.618 65.88 136.034 65.88ZM143.598 66.648L140.43 59H141.902L144.046 64.104L144.254 65.08L146.59 59H148.014L143.566 70.2H142.174L143.598 66.648ZM149.415 59H150.823V60.04C151.133 59.688 151.485 59.4 151.879 59.176C152.274 58.952 152.706 58.84 153.175 58.84C153.453 58.84 153.666 58.8827 153.815 58.968L153.591 60.136C153.463 60.104 153.293 60.088 153.079 60.088C152.631 60.088 152.21 60.2213 151.815 60.488C151.421 60.7547 151.09 61.1333 150.823 61.624V67H149.415V59ZM155.994 57.784C155.728 57.784 155.498 57.6933 155.306 57.512C155.125 57.32 155.034 57.0907 155.034 56.824C155.034 56.5573 155.125 56.3333 155.306 56.152C155.498 55.96 155.728 55.864 155.994 55.864C156.261 55.864 156.485 55.96 156.666 56.152C156.858 56.3333 156.954 56.5573 156.954 56.824C156.954 57.0907 156.858 57.32 156.666 57.512C156.485 57.6933 156.261 57.784 155.994 57.784ZM155.29 59H156.698V67H155.29V59ZM162.326 70.36C161.323 70.36 160.534 70.136 159.958 69.688C159.382 69.24 159.046 68.6373 158.95 67.88H160.486C160.667 68.68 161.265 69.08 162.278 69.08C163.11 69.08 163.702 68.872 164.054 68.456C164.417 68.0507 164.598 67.5227 164.598 66.872V65.944C164.235 66.3067 163.851 66.5733 163.446 66.744C163.051 66.9147 162.577 67 162.022 67C161.318 67 160.689 66.84 160.134 66.52C159.59 66.1893 159.163 65.7147 158.854 65.096C158.545 64.4773 158.39 63.752 158.39 62.92C158.39 62.0987 158.555 61.3787 158.886 60.76C159.217 60.1413 159.659 59.6667 160.214 59.336C160.779 59.0053 161.393 58.84 162.054 58.84C162.619 58.84 163.115 58.9413 163.542 59.144C163.969 59.3467 164.321 59.592 164.598 59.88V59H166.006V66.952C166.006 67.9867 165.681 68.8133 165.03 69.432C164.39 70.0507 163.489 70.36 162.326 70.36ZM162.278 65.72C162.971 65.72 163.531 65.5067 163.958 65.08C164.385 64.6427 164.598 64.0987 164.598 63.448V62.424C164.598 61.9867 164.491 61.592 164.278 61.24C164.075 60.888 163.793 60.616 163.43 60.424C163.078 60.2213 162.694 60.12 162.278 60.12C161.553 60.12 160.955 60.3493 160.486 60.808C160.027 61.2667 159.798 61.9707 159.798 62.92C159.798 63.8693 160.027 64.5733 160.486 65.032C160.955 65.4907 161.553 65.72 162.278 65.72ZM168.118 55.32H169.527V60.04C169.836 59.7093 170.252 59.4267 170.775 59.192C171.297 58.9573 171.847 58.84 172.423 58.84C173.276 58.84 173.943 59.08 174.423 59.56C174.913 60.0293 175.159 60.6693 175.159 61.48V67H173.751V61.736C173.751 61.2133 173.596 60.808 173.287 60.52C172.977 60.232 172.556 60.088 172.023 60.088C171.564 60.088 171.111 60.2213 170.663 60.488C170.215 60.7547 169.836 61.1013 169.527 61.528V67H168.118V55.32ZM179.811 67.16C179.192 67.16 178.707 66.9893 178.355 66.648C178.014 66.296 177.843 65.7947 177.843 65.144V60.28H176.259V59H177.843V56.6L179.251 57.112V59H181.171V60.28H179.251V65.048C179.251 65.3253 179.331 65.5387 179.491 65.688C179.662 65.8373 179.912 65.912 180.243 65.912C180.446 65.912 180.622 65.9013 180.771 65.88C180.931 65.848 181.038 65.8267 181.091 65.816V67C180.675 67.1067 180.248 67.16 179.811 67.16ZM186.165 59H187.573V60.04C187.883 59.688 188.235 59.4 188.629 59.176C189.024 58.952 189.456 58.84 189.925 58.84C190.203 58.84 190.416 58.8827 190.565 58.968L190.341 60.136C190.213 60.104 190.043 60.088 189.829 60.088C189.381 60.088 188.96 60.2213 188.565 60.488C188.171 60.7547 187.84 61.1333 187.573 61.624V67H186.165V59ZM195.138 67.16C194.338 67.16 193.644 66.9893 193.058 66.648C192.471 66.296 192.018 65.8107 191.698 65.192C191.388 64.5627 191.234 63.832 191.234 63C191.234 62.1893 191.41 61.4693 191.762 60.84C192.114 60.2107 192.588 59.72 193.186 59.368C193.783 59.016 194.434 58.84 195.138 58.84C195.852 58.84 196.492 59.0053 197.058 59.336C197.634 59.656 198.082 60.12 198.402 60.728C198.732 61.336 198.898 62.0613 198.898 62.904V63.448H192.658C192.679 64.2053 192.914 64.8027 193.362 65.24C193.82 65.6667 194.418 65.88 195.154 65.88C195.762 65.88 196.268 65.736 196.674 65.448C197.079 65.1493 197.356 64.7547 197.506 64.264H198.818C198.594 65.1707 198.167 65.88 197.538 66.392C196.908 66.904 196.108 67.16 195.138 67.16ZM197.57 62.232C197.516 61.56 197.26 61.0427 196.802 60.68C196.354 60.3067 195.799 60.12 195.138 60.12C194.498 60.12 193.954 60.3067 193.506 60.68C193.058 61.0533 192.78 61.5707 192.674 62.232H197.57ZM203.246 67.16C202.296 67.16 201.528 66.9253 200.942 66.456C200.355 65.9867 200.024 65.336 199.95 64.504H201.278C201.395 64.9413 201.603 65.2827 201.902 65.528C202.211 65.7627 202.67 65.88 203.278 65.88C203.726 65.88 204.104 65.7787 204.414 65.576C204.734 65.3733 204.894 65.096 204.894 64.744C204.894 64.4027 204.718 64.1307 204.366 63.928C204.024 63.7253 203.432 63.5173 202.59 63.304C201.779 63.1013 201.182 62.8187 200.798 62.456C200.424 62.0933 200.238 61.608 200.238 61C200.238 60.616 200.35 60.2587 200.574 59.928C200.808 59.5973 201.128 59.336 201.534 59.144C201.95 58.9413 202.419 58.84 202.942 58.84C203.806 58.84 204.504 59.0587 205.038 59.496C205.571 59.9333 205.875 60.5573 205.95 61.368H204.558C204.504 60.9413 204.334 60.616 204.046 60.392C203.758 60.168 203.39 60.056 202.942 60.056C202.59 60.056 202.275 60.136 201.998 60.296C201.72 60.4453 201.582 60.6693 201.582 60.968C201.582 61.256 201.742 61.496 202.062 61.688C202.382 61.8693 202.92 62.0613 203.678 62.264C204.563 62.4987 205.214 62.792 205.63 63.144C206.056 63.496 206.27 63.9707 206.27 64.568C206.27 65.0587 206.142 65.5013 205.886 65.896C205.64 66.2907 205.288 66.6 204.83 66.824C204.371 67.048 203.843 67.16 203.246 67.16ZM211.419 67.16C210.619 67.16 209.926 66.9893 209.339 66.648C208.752 66.296 208.299 65.8107 207.979 65.192C207.67 64.5627 207.515 63.832 207.515 63C207.515 62.1893 207.691 61.4693 208.043 60.84C208.395 60.2107 208.87 59.72 209.467 59.368C210.064 59.016 210.715 58.84 211.419 58.84C212.134 58.84 212.774 59.0053 213.339 59.336C213.915 59.656 214.363 60.12 214.683 60.728C215.014 61.336 215.179 62.0613 215.179 62.904V63.448H208.939C208.96 64.2053 209.195 64.8027 209.643 65.24C210.102 65.6667 210.699 65.88 211.435 65.88C212.043 65.88 212.55 65.736 212.955 65.448C213.36 65.1493 213.638 64.7547 213.787 64.264H215.099C214.875 65.1707 214.448 65.88 213.819 66.392C213.19 66.904 212.39 67.16 211.419 67.16ZM213.851 62.232C213.798 61.56 213.542 61.0427 213.083 60.68C212.635 60.3067 212.08 60.12 211.419 60.12C210.779 60.12 210.235 60.3067 209.787 60.68C209.339 61.0533 209.062 61.5707 208.955 62.232H213.851ZM216.775 59H218.183V60.04C218.492 59.688 218.844 59.4 219.239 59.176C219.633 58.952 220.065 58.84 220.535 58.84C220.812 58.84 221.025 58.8827 221.175 58.968L220.951 60.136C220.823 60.104 220.652 60.088 220.439 60.088C219.991 60.088 219.569 60.2213 219.175 60.488C218.78 60.7547 218.449 61.1333 218.183 61.624V67H216.775V59ZM221.946 59H223.434L225.498 64.424L225.802 65.752L226.106 64.424L228.17 59H229.658L226.554 67H225.05L221.946 59ZM234.169 67.16C233.369 67.16 232.676 66.9893 232.089 66.648C231.502 66.296 231.049 65.8107 230.729 65.192C230.42 64.5627 230.265 63.832 230.265 63C230.265 62.1893 230.441 61.4693 230.793 60.84C231.145 60.2107 231.62 59.72 232.217 59.368C232.814 59.016 233.465 58.84 234.169 58.84C234.884 58.84 235.524 59.0053 236.089 59.336C236.665 59.656 237.113 60.12 237.433 60.728C237.764 61.336 237.929 62.0613 237.929 62.904V63.448H231.689C231.71 64.2053 231.945 64.8027 232.393 65.24C232.852 65.6667 233.449 65.88 234.185 65.88C234.793 65.88 235.3 65.736 235.705 65.448C236.11 65.1493 236.388 64.7547 236.537 64.264H237.849C237.625 65.1707 237.198 65.88 236.569 66.392C235.94 66.904 235.14 67.16 234.169 67.16ZM236.601 62.232C236.548 61.56 236.292 61.0427 235.833 60.68C235.385 60.3067 234.83 60.12 234.169 60.12C233.529 60.12 232.985 60.3067 232.537 60.68C232.089 61.0533 231.812 61.5707 231.705 62.232H236.601ZM242.773 67.16C242.111 67.16 241.498 66.9893 240.933 66.648C240.378 66.3067 239.935 65.8213 239.605 65.192C239.274 64.5627 239.109 63.832 239.109 63C239.109 62.168 239.263 61.4373 239.573 60.808C239.882 60.1787 240.314 59.6933 240.869 59.352C241.423 59.0107 242.047 58.84 242.741 58.84C243.253 58.84 243.733 58.9307 244.181 59.112C244.639 59.2827 245.018 59.528 245.317 59.848V55.32H246.725V67H245.317V66.12C245.039 66.408 244.687 66.6533 244.261 66.856C243.834 67.0587 243.338 67.16 242.773 67.16ZM242.997 65.88C243.413 65.88 243.797 65.784 244.149 65.592C244.511 65.4 244.794 65.144 244.997 64.824C245.21 64.504 245.317 64.1573 245.317 63.784V62.248C245.317 61.8747 245.21 61.528 244.997 61.208C244.783 60.8773 244.501 60.616 244.149 60.424C243.797 60.2213 243.413 60.12 242.997 60.12C242.271 60.12 241.674 60.36 241.205 60.84C240.746 61.32 240.517 62.04 240.517 63C240.517 63.96 240.746 64.68 241.205 65.16C241.674 65.64 242.271 65.88 242.997 65.88ZM57.12 77.8H58.656V89H57.12V77.8ZM60.8372 81H62.2453V82.04C62.5546 81.7093 62.9599 81.4267 63.4613 81.192C63.9626 80.9573 64.4906 80.84 65.0453 80.84C65.8879 80.84 66.5386 81.0747 66.9973 81.544C67.4559 82.0133 67.6853 82.6587 67.6853 83.48V89H66.2773V83.736C66.2773 83.2027 66.1333 82.7973 65.8453 82.52C65.5679 82.232 65.1679 82.088 64.6453 82.088C64.1866 82.088 63.7493 82.2267 63.3333 82.504C62.9279 82.7813 62.5653 83.1547 62.2453 83.624V89H60.8372V81ZM72.4799 89.16C71.5305 89.16 70.7625 88.9253 70.1759 88.456C69.5892 87.9867 69.2585 87.336 69.1839 86.504H70.5119C70.6292 86.9413 70.8372 87.2827 71.1359 87.528C71.4452 87.7627 71.9039 87.88 72.5119 87.88C72.9599 87.88 73.3385 87.7787 73.6479 87.576C73.9679 87.3733 74.1279 87.096 74.1279 86.744C74.1279 86.4027 73.9519 86.1307 73.5999 85.928C73.2585 85.7253 72.6665 85.5173 71.8239 85.304C71.0132 85.1013 70.4159 84.8187 70.0319 84.456C69.6585 84.0933 69.4719 83.608 69.4719 83C69.4719 82.616 69.5839 82.2587 69.8079 81.928C70.0425 81.5973 70.3625 81.336 70.7679 81.144C71.1839 80.9413 71.6532 80.84 72.1759 80.84C73.0399 80.84 73.7385 81.0587 74.2719 81.496C74.8052 81.9333 75.1092 82.5573 75.1839 83.368H73.7919C73.7385 82.9413 73.5679 82.616 73.2799 82.392C72.9919 82.168 72.6239 82.056 72.1759 82.056C71.8239 82.056 71.5092 82.136 71.2319 82.296C70.9545 82.4453 70.8159 82.6693 70.8159 82.968C70.8159 83.256 70.9759 83.496 71.2959 83.688C71.6159 83.8693 72.1545 84.0613 72.9119 84.264C73.7972 84.4987 74.4479 84.792 74.8639 85.144C75.2905 85.496 75.5039 85.9707 75.5039 86.568C75.5039 87.0587 75.3759 87.5013 75.1199 87.896C74.8745 88.2907 74.5225 88.6 74.0639 88.824C73.6052 89.048 73.0772 89.16 72.4799 89.16ZM79.7954 89.16C79.1767 89.16 78.6914 88.9893 78.3394 88.648C77.998 88.296 77.8274 87.7947 77.8274 87.144V82.28H76.2434V81H77.8274V78.6L79.2354 79.112V81H81.1554V82.28H79.2354V87.048C79.2354 87.3253 79.3154 87.5387 79.4754 87.688C79.646 87.8373 79.8967 87.912 80.2274 87.912C80.43 87.912 80.606 87.9013 80.7554 87.88C80.9154 87.848 81.022 87.8267 81.0754 87.816V89C80.6594 89.1067 80.2327 89.16 79.7954 89.16ZM84.9504 89.16C84.193 89.16 83.5797 88.952 83.1104 88.536C82.641 88.1093 82.4064 87.544 82.4064 86.84C82.4064 86.0933 82.6624 85.5067 83.1744 85.08C83.6864 84.6533 84.3317 84.4027 85.1104 84.328L87.6064 84.072V83.528C87.6064 83.0693 87.441 82.7227 87.1104 82.488C86.7904 82.2427 86.3637 82.12 85.8304 82.12C85.3824 82.12 85.0037 82.2267 84.6944 82.44C84.3957 82.6533 84.193 82.9787 84.0864 83.416H82.7584C82.8757 82.5733 83.233 81.9333 83.8304 81.496C84.4384 81.0587 85.137 80.84 85.9264 80.84C86.865 80.84 87.6117 81.0747 88.1664 81.544C88.7317 82.0027 89.0144 82.6107 89.0144 83.368V87.112C89.0144 87.3787 89.073 87.5867 89.1904 87.736C89.3077 87.8747 89.4837 87.944 89.7184 87.944C89.857 87.944 89.9957 87.9227 90.1344 87.88V88.936C89.8144 89.0427 89.5157 89.096 89.2384 89.096C88.3744 89.096 87.8464 88.68 87.6544 87.848C87.345 88.2 86.945 88.5093 86.4544 88.776C85.9637 89.032 85.4624 89.16 84.9504 89.16ZM85.1104 87.88C85.9424 87.88 86.7744 87.464 87.6064 86.632V85.192L85.2064 85.464C84.7584 85.5173 84.4117 85.6667 84.1664 85.912C83.9317 86.1467 83.8144 86.4347 83.8144 86.776C83.8144 87.1387 83.9317 87.416 84.1664 87.608C84.4117 87.7893 84.7264 87.88 85.1104 87.88ZM95.6174 89.16C95.052 89.16 94.556 89.0587 94.1294 88.856C93.7027 88.6533 93.3507 88.408 93.0734 88.12V89H91.6654V77.32H93.0734V81.848C93.372 81.528 93.7454 81.2827 94.1934 81.112C94.652 80.9307 95.1374 80.84 95.6494 80.84C96.3427 80.84 96.9667 81.0107 97.5214 81.352C98.076 81.6933 98.508 82.1787 98.8174 82.808C99.1267 83.4373 99.2814 84.168 99.2814 85C99.2814 85.832 99.116 86.5627 98.7854 87.192C98.4547 87.8213 98.0067 88.3067 97.4414 88.648C96.8867 88.9893 96.2787 89.16 95.6174 89.16ZM95.3934 87.88C96.1187 87.88 96.7107 87.64 97.1694 87.16C97.6387 86.68 97.8734 85.96 97.8734 85C97.8734 84.04 97.6387 83.32 97.1694 82.84C96.7107 82.36 96.1187 82.12 95.3934 82.12C94.9774 82.12 94.5934 82.2213 94.2414 82.424C93.8894 82.616 93.6067 82.8773 93.3934 83.208C93.18 83.528 93.0734 83.8747 93.0734 84.248V85.784C93.0734 86.1573 93.1747 86.504 93.3774 86.824C93.5907 87.144 93.8734 87.4 94.2254 87.592C94.588 87.784 94.9774 87.88 95.3934 87.88ZM104.674 89.16C103.874 89.16 103.159 88.984 102.53 88.632C101.911 88.2693 101.426 87.7733 101.074 87.144C100.733 86.504 100.562 85.7893 100.562 85C100.562 84.2107 100.733 83.5013 101.074 82.872C101.426 82.232 101.911 81.736 102.53 81.384C103.159 81.0213 103.874 80.84 104.674 80.84C105.474 80.84 106.183 81.0213 106.802 81.384C107.431 81.736 107.917 82.232 108.258 82.872C108.61 83.5013 108.786 84.2107 108.786 85C108.786 85.7893 108.61 86.504 108.258 87.144C107.917 87.7733 107.431 88.2693 106.802 88.632C106.183 88.984 105.474 89.16 104.674 89.16ZM104.674 87.88C105.463 87.88 106.109 87.6293 106.61 87.128C107.122 86.6267 107.378 85.9173 107.378 85C107.378 84.0827 107.122 83.3733 106.61 82.872C106.109 82.3707 105.463 82.12 104.674 82.12C103.885 82.12 103.234 82.3707 102.722 82.872C102.221 83.3733 101.97 84.0827 101.97 85C101.97 85.9173 102.221 86.6267 102.722 87.128C103.234 87.6293 103.885 87.88 104.674 87.88ZM112.936 89.16C112.317 89.16 111.832 88.9893 111.48 88.648C111.139 88.296 110.968 87.7947 110.968 87.144V82.28H109.384V81H110.968V78.6L112.376 79.112V81H114.296V82.28H112.376V87.048C112.376 87.3253 112.456 87.5387 112.616 87.688C112.787 87.8373 113.037 87.912 113.368 87.912C113.571 87.912 113.747 87.9013 113.896 87.88C114.056 87.848 114.163 87.8267 114.216 87.816V89C113.8 89.1067 113.373 89.16 112.936 89.16ZM118.683 89.16C117.734 89.16 116.966 88.9253 116.379 88.456C115.792 87.9867 115.462 87.336 115.387 86.504H116.715C116.832 86.9413 117.04 87.2827 117.339 87.528C117.648 87.7627 118.107 87.88 118.715 87.88C119.163 87.88 119.542 87.7787 119.851 87.576C120.171 87.3733 120.331 87.096 120.331 86.744C120.331 86.4027 120.155 86.1307 119.803 85.928C119.462 85.7253 118.87 85.5173 118.027 85.304C117.216 85.1013 116.619 84.8187 116.235 84.456C115.862 84.0933 115.675 83.608 115.675 83C115.675 82.616 115.787 82.2587 116.011 81.928C116.246 81.5973 116.566 81.336 116.971 81.144C117.387 80.9413 117.856 80.84 118.379 80.84C119.243 80.84 119.942 81.0587 120.475 81.496C121.008 81.9333 121.312 82.5573 121.387 83.368H119.995C119.942 82.9413 119.771 82.616 119.483 82.392C119.195 82.168 118.827 82.056 118.379 82.056C118.027 82.056 117.712 82.136 117.435 82.296C117.158 82.4453 117.019 82.6693 117.019 82.968C117.019 83.256 117.179 83.496 117.499 83.688C117.819 83.8693 118.358 84.0613 119.115 84.264C120 84.4987 120.651 84.792 121.067 85.144C121.494 85.496 121.707 85.9707 121.707 86.568C121.707 87.0587 121.579 87.5013 121.323 87.896C121.078 88.2907 120.726 88.6 120.267 88.824C119.808 89.048 119.28 89.16 118.683 89.16Z" fill="#D9D9D9"/>
<path d="M1155.26 52.4H1159.94C1160.74 52.4 1161.44 52.538 1162.03 52.814C1162.63 53.09 1163.08 53.468 1163.4 53.948C1163.72 54.428 1163.88 54.968 1163.88 55.568C1163.88 56.744 1163.34 57.638 1162.24 58.25C1162.88 58.43 1163.43 58.796 1163.9 59.348C1164.37 59.9 1164.6 60.566 1164.6 61.346C1164.6 62.462 1164.21 63.35 1163.41 64.01C1162.63 64.67 1161.57 65 1160.23 65H1155.26V52.4ZM1160.1 57.728C1161.53 57.728 1162.24 57.104 1162.24 55.856C1162.24 54.608 1161.53 53.984 1160.1 53.984H1156.99V57.728H1160.1ZM1160.7 63.416C1161.4 63.416 1161.96 63.242 1162.35 62.894C1162.76 62.534 1162.96 62.024 1162.96 61.364C1162.96 60.704 1162.76 60.2 1162.35 59.852C1161.96 59.492 1161.4 59.312 1160.7 59.312H1156.99V63.416H1160.7ZM1170.36 65.18C1169.46 65.18 1168.68 64.988 1168.02 64.604C1167.36 64.208 1166.85 63.662 1166.49 62.966C1166.14 62.258 1165.97 61.436 1165.97 60.5C1165.97 59.588 1166.17 58.778 1166.56 58.07C1166.96 57.362 1167.49 56.81 1168.17 56.414C1168.84 56.018 1169.57 55.82 1170.36 55.82C1171.17 55.82 1171.89 56.006 1172.52 56.378C1173.17 56.738 1173.67 57.26 1174.03 57.944C1174.41 58.628 1174.59 59.444 1174.59 60.392V61.004H1167.57C1167.6 61.856 1167.86 62.528 1168.36 63.02C1168.88 63.5 1169.55 63.74 1170.38 63.74C1171.06 63.74 1171.63 63.578 1172.09 63.254C1172.55 62.918 1172.86 62.474 1173.03 61.922H1174.5C1174.25 62.942 1173.77 63.74 1173.06 64.316C1172.35 64.892 1171.45 65.18 1170.36 65.18ZM1173.1 59.636C1173.04 58.88 1172.75 58.298 1172.23 57.89C1171.73 57.47 1171.11 57.26 1170.36 57.26C1169.64 57.26 1169.03 57.47 1168.53 57.89C1168.02 58.31 1167.71 58.892 1167.59 59.636H1173.1ZM1176.39 56H1177.97V56.99C1178.28 56.666 1178.68 56.39 1179.16 56.162C1179.64 55.934 1180.2 55.82 1180.83 55.82C1181.58 55.82 1182.26 56.012 1182.89 56.396C1183.52 56.78 1184.03 57.326 1184.4 58.034C1184.77 58.742 1184.96 59.564 1184.96 60.5C1184.96 61.436 1184.78 62.258 1184.43 62.966C1184.09 63.674 1183.6 64.22 1182.98 64.604C1182.35 64.988 1181.65 65.18 1180.87 65.18C1180.29 65.18 1179.75 65.084 1179.23 64.892C1178.73 64.688 1178.31 64.406 1177.97 64.046V68.6H1176.39V56ZM1180.58 63.74C1181.4 63.74 1182.06 63.47 1182.58 62.93C1183.11 62.39 1183.37 61.58 1183.37 60.5C1183.37 59.42 1183.11 58.61 1182.58 58.07C1182.06 57.53 1181.4 57.26 1180.58 57.26C1180.11 57.26 1179.68 57.368 1179.27 57.584C1178.87 57.8 1178.55 58.088 1178.31 58.448C1178.09 58.808 1177.97 59.198 1177.97 59.618V61.346C1177.97 61.766 1178.09 62.162 1178.33 62.534C1178.57 62.894 1178.89 63.188 1179.29 63.416C1179.68 63.632 1180.11 63.74 1180.58 63.74ZM1186.86 56H1188.45V59.78H1192.98V56H1194.57V65H1192.98V61.22H1188.45V65H1186.86V56ZM1199.71 64.604L1196.14 56H1197.8L1200.21 61.742L1200.45 62.84L1203.07 56H1204.68L1199.67 68.6H1198.11L1199.71 64.604ZM1208.95 57.44H1205.89V56H1213.6V57.44H1210.54V65H1208.95V57.44ZM1215.43 56H1217.01V59.42H1219.77C1220.64 59.42 1221.39 59.636 1222.02 60.068C1222.64 60.5 1222.95 61.214 1222.95 62.21C1222.95 63.206 1222.64 63.92 1222.02 64.352C1221.39 64.784 1220.64 65 1219.77 65H1215.43V56ZM1219.59 63.56C1220.2 63.56 1220.65 63.452 1220.94 63.236C1221.22 63.02 1221.37 62.678 1221.37 62.21C1221.37 61.742 1221.22 61.4 1220.94 61.184C1220.65 60.968 1220.2 60.86 1219.59 60.86H1217.01V63.56H1219.59ZM1228.9 65.18C1228.05 65.18 1227.28 64.988 1226.6 64.604C1225.91 64.208 1225.37 63.656 1224.98 62.948C1224.59 62.24 1224.4 61.424 1224.4 60.5C1224.4 59.576 1224.59 58.76 1224.98 58.052C1225.37 57.344 1225.91 56.798 1226.6 56.414C1227.28 56.018 1228.05 55.82 1228.9 55.82C1230.06 55.82 1231.02 56.126 1231.78 56.738C1232.54 57.338 1232.99 58.178 1233.15 59.258H1231.65C1231.51 58.622 1231.2 58.13 1230.74 57.782C1230.27 57.434 1229.66 57.26 1228.92 57.26C1228.05 57.26 1227.35 57.554 1226.79 58.142C1226.25 58.718 1225.98 59.504 1225.98 60.5C1225.98 61.496 1226.25 62.288 1226.79 62.876C1227.35 63.452 1228.05 63.74 1228.92 63.74C1229.66 63.74 1230.27 63.566 1230.74 63.218C1231.2 62.87 1231.51 62.378 1231.65 61.742H1233.15C1232.99 62.822 1232.54 63.668 1231.78 64.28C1231.02 64.88 1230.06 65.18 1228.9 65.18ZM1236.25 61.49V61.436C1235.22 60.848 1234.7 60.008 1234.7 58.916C1234.7 58.028 1235 57.32 1235.6 56.792C1236.2 56.264 1237.02 56 1238.05 56H1241.09V65H1239.58V61.76H1237.76L1235.95 65H1234.24L1236.25 61.49ZM1239.58 60.482V57.296H1237.91C1237.36 57.296 1236.93 57.44 1236.63 57.728C1236.33 58.004 1236.18 58.388 1236.18 58.88C1236.18 59.372 1236.33 59.762 1236.63 60.05C1236.94 60.338 1237.37 60.482 1237.91 60.482H1239.58ZM1247.24 56H1248.83V59.78H1253.36V56H1254.95V65H1253.36V61.22H1248.83V65H1247.24V56ZM1259.75 65.18C1258.89 65.18 1258.2 64.946 1257.68 64.478C1257.15 63.998 1256.88 63.362 1256.88 62.57C1256.88 61.73 1257.17 61.07 1257.75 60.59C1258.32 60.11 1259.05 59.828 1259.93 59.744L1262.73 59.456V58.844C1262.73 58.328 1262.55 57.938 1262.18 57.674C1261.82 57.398 1261.34 57.26 1260.74 57.26C1260.23 57.26 1259.81 57.38 1259.46 57.62C1259.12 57.86 1258.89 58.226 1258.77 58.718H1257.28C1257.41 57.77 1257.81 57.05 1258.49 56.558C1259.17 56.066 1259.96 55.82 1260.84 55.82C1261.9 55.82 1262.74 56.084 1263.36 56.612C1264 57.128 1264.32 57.812 1264.32 58.664V62.876C1264.32 63.176 1264.38 63.41 1264.52 63.578C1264.65 63.734 1264.85 63.812 1265.11 63.812C1265.27 63.812 1265.42 63.788 1265.58 63.74V64.928C1265.22 65.048 1264.88 65.108 1264.57 65.108C1263.6 65.108 1263 64.64 1262.79 63.704C1262.44 64.1 1261.99 64.448 1261.44 64.748C1260.89 65.036 1260.32 65.18 1259.75 65.18ZM1259.93 63.74C1260.86 63.74 1261.8 63.272 1262.73 62.336V60.716L1260.03 61.022C1259.53 61.082 1259.14 61.25 1258.86 61.526C1258.6 61.79 1258.47 62.114 1258.47 62.498C1258.47 62.906 1258.6 63.218 1258.86 63.434C1259.14 63.638 1259.49 63.74 1259.93 63.74ZM1267.3 56H1271.41C1272.26 56 1272.94 56.216 1273.46 56.648C1273.99 57.068 1274.25 57.602 1274.25 58.25C1274.25 59.09 1273.88 59.732 1273.15 60.176V60.266C1273.61 60.41 1273.99 60.668 1274.29 61.04C1274.6 61.412 1274.75 61.862 1274.75 62.39C1274.75 63.17 1274.47 63.8 1273.89 64.28C1273.33 64.76 1272.55 65 1271.57 65H1267.3V56ZM1271.42 59.654C1272.3 59.654 1272.74 59.282 1272.74 58.538C1272.74 57.806 1272.3 57.44 1271.42 57.44H1268.89V59.654H1271.42ZM1271.77 63.56C1272.7 63.56 1273.17 63.146 1273.17 62.318C1273.17 61.502 1272.7 61.094 1271.77 61.094H1268.89V63.56H1271.77ZM1280.3 65.18C1279.4 65.18 1278.62 64.988 1277.96 64.604C1277.3 64.208 1276.79 63.662 1276.43 62.966C1276.08 62.258 1275.9 61.436 1275.9 60.5C1275.9 59.588 1276.1 58.778 1276.5 58.07C1276.89 57.362 1277.43 56.81 1278.1 56.414C1278.77 56.018 1279.5 55.82 1280.3 55.82C1281.1 55.82 1281.82 56.006 1282.46 56.378C1283.1 56.738 1283.61 57.26 1283.97 57.944C1284.34 58.628 1284.53 59.444 1284.53 60.392V61.004H1277.51C1277.53 61.856 1277.79 62.528 1278.3 63.02C1278.81 63.5 1279.49 63.74 1280.31 63.74C1281 63.74 1281.57 63.578 1282.02 63.254C1282.48 62.918 1282.79 62.474 1282.96 61.922H1284.44C1284.18 62.942 1283.7 63.74 1283 64.316C1282.29 64.892 1281.39 65.18 1280.3 65.18ZM1283.03 59.636C1282.97 58.88 1282.68 58.298 1282.17 57.89C1281.66 57.47 1281.04 57.26 1280.3 57.26C1279.58 57.26 1278.96 57.47 1278.46 57.89C1277.96 58.31 1277.64 58.892 1277.52 59.636H1283.03ZM1286.32 56H1287.9V56.99C1288.22 56.666 1288.61 56.39 1289.09 56.162C1289.57 55.934 1290.13 55.82 1290.77 55.82C1291.51 55.82 1292.19 56.012 1292.82 56.396C1293.45 56.78 1293.96 57.326 1294.33 58.034C1294.7 58.742 1294.89 59.564 1294.89 60.5C1294.89 61.436 1294.71 62.258 1294.37 62.966C1294.02 63.674 1293.53 64.22 1292.91 64.604C1292.28 64.988 1291.58 65.18 1290.8 65.18C1290.23 65.18 1289.68 65.084 1289.16 64.892C1288.66 64.688 1288.24 64.406 1287.9 64.046V68.6H1286.32V56ZM1290.51 63.74C1291.33 63.74 1292 63.47 1292.51 62.93C1293.04 62.39 1293.3 61.58 1293.3 60.5C1293.3 59.42 1293.04 58.61 1292.51 58.07C1292 57.53 1291.33 57.26 1290.51 57.26C1290.05 57.26 1289.61 57.368 1289.2 57.584C1288.8 57.8 1288.49 58.088 1288.25 58.448C1288.02 58.808 1287.9 59.198 1287.9 59.618V61.346C1287.9 61.766 1288.02 62.162 1288.26 62.534C1288.5 62.894 1288.82 63.188 1289.22 63.416C1289.61 63.632 1290.05 63.74 1290.51 63.74ZM1298.57 60.032L1295.8 56H1297.57L1299.49 58.862L1301.42 56H1303.18L1300.41 60.032L1303.6 65H1301.83L1299.49 61.256L1297.15 65H1295.39L1298.57 60.032Z" fill="white"/>
<path d="M1319 64C1319 64.5523 1319.45 65 1320 65C1320.55 65 1321 64.5523 1321 64L1319 64ZM1320.71 47.2929C1320.32 46.9024 1319.68 46.9024 1319.29 47.2929L1312.93 53.6569C1312.54 54.0474 1312.54 54.6805 1312.93 55.0711C1313.32 55.4616 1313.95 55.4616 1314.34 55.0711L1320 49.4142L1325.66 55.0711C1326.05 55.4616 1326.68 55.4616 1327.07 55.0711C1327.46 54.6805 1327.46 54.0474 1327.07 53.6569L1320.71 47.2929ZM1321 64L1321 48L1319 48L1319 64L1321 64Z" fill="white"/>
</svg>
