<svg width="452" height="68" viewBox="0 0 452 68" fill="none" xmlns="http://www.w3.org/2000/svg">
<path d="M1.448 1.8H5.948V23.04H18.296V27H1.448V1.8ZM29.9119 27.36C28.0639 27.36 26.4079 26.952 24.9439 26.136C23.5039 25.32 22.3759 24.204 21.5599 22.788C20.7679 21.372 20.3719 19.776 20.3719 18C20.3719 16.224 20.7679 14.628 21.5599 13.212C22.3759 11.796 23.5039 10.68 24.9439 9.864C26.4079 9.048 28.0639 8.64 29.9119 8.64C31.7599 8.64 33.4039 9.048 34.8439 9.864C36.2839 10.68 37.3999 11.796 38.1919 13.212C39.0079 14.628 39.4159 16.224 39.4159 18C39.4159 19.776 39.0079 21.372 38.1919 22.788C37.3999 24.204 36.2839 25.32 34.8439 26.136C33.4039 26.952 31.7599 27.36 29.9119 27.36ZM29.9119 23.724C31.4959 23.724 32.7919 23.22 33.7999 22.212C34.8079 21.18 35.3119 19.776 35.3119 18C35.3119 16.224 34.8079 14.832 33.7999 13.824C32.7919 12.792 31.4959 12.276 29.9119 12.276C28.3279 12.276 27.0199 12.792 25.9879 13.824C24.9799 14.832 24.4759 16.224 24.4759 18C24.4759 19.776 24.9799 21.18 25.9879 22.212C27.0199 23.22 28.3279 23.724 29.9119 23.724ZM43.1048 9H47.2088V11.232C48.7208 9.504 50.4488 8.64 52.3928 8.64C53.0408 8.64 53.5568 8.736 53.9408 8.928L53.4008 12.24L53.2568 12.348C52.9688 12.276 52.5728 12.24 52.0688 12.24C51.0608 12.24 50.1368 12.528 49.2968 13.104C48.4568 13.68 47.7608 14.508 47.2088 15.588V27H43.1048V9ZM64.4227 27.36C62.6467 27.36 61.0747 26.976 59.7067 26.208C58.3387 25.416 57.2827 24.312 56.5387 22.896C55.7947 21.48 55.4227 19.848 55.4227 18C55.4227 16.176 55.8307 14.556 56.6467 13.14C57.4867 11.724 58.5907 10.62 59.9587 9.828C61.3267 9.036 62.8147 8.64 64.4227 8.64C66.1267 8.64 67.6387 9.012 68.9587 9.756C70.3027 10.476 71.3467 11.532 72.0907 12.924C72.8347 14.316 73.2067 15.96 73.2067 17.856V19.116H59.4187C59.5147 20.58 60.0187 21.744 60.9307 22.608C61.8667 23.448 63.0547 23.868 64.4947 23.868C65.7187 23.868 66.7267 23.592 67.5187 23.04C68.3107 22.464 68.8747 21.684 69.2107 20.7L72.8107 20.916L72.9187 21.096C72.3427 23.112 71.3227 24.66 69.8587 25.74C68.4187 26.82 66.6067 27.36 64.4227 27.36ZM69.3187 16.128C69.1987 14.832 68.6827 13.824 67.7707 13.104C66.8827 12.36 65.7667 11.988 64.4227 11.988C63.1747 11.988 62.0947 12.36 61.1827 13.104C60.2947 13.824 59.7307 14.832 59.4907 16.128H69.3187ZM76.679 9H80.783V11.124C82.295 9.468 84.095 8.64 86.183 8.64C87.311 8.64 88.235 8.856 88.955 9.288C89.675 9.72 90.251 10.356 90.683 11.196C92.435 9.492 94.391 8.64 96.551 8.64C98.351 8.64 99.719 9.12 100.655 10.08C101.615 11.04 102.095 12.336 102.095 13.968V27H97.991V15.012C97.991 14.148 97.775 13.476 97.343 12.996C96.911 12.492 96.251 12.24 95.363 12.24C93.803 12.24 92.495 13.044 91.439 14.652V27H87.335V15.084C87.335 14.196 87.119 13.5 86.687 12.996C86.279 12.492 85.643 12.24 84.779 12.24C84.011 12.24 83.279 12.492 82.583 12.996C81.911 13.476 81.311 14.112 80.783 14.904V27H76.679V9ZM116.1 6.66C115.404 6.66 114.804 6.408 114.3 5.904C113.796 5.4 113.544 4.8 113.544 4.104C113.544 3.408 113.796 2.808 114.3 2.304C114.804 1.8 115.404 1.548 116.1 1.548C116.796 1.548 117.396 1.8 117.9 2.304C118.404 2.808 118.656 3.408 118.656 4.104C118.656 4.8 118.404 5.4 117.9 5.904C117.396 6.408 116.796 6.66 116.1 6.66ZM114.048 9H118.152V27H114.048V9ZM122.699 9H126.803V10.98C128.315 9.42 130.235 8.64 132.563 8.64C134.003 8.64 135.359 9.012 136.631 9.756C137.927 10.476 138.959 11.544 139.727 12.96C140.519 14.376 140.915 16.056 140.915 18C140.915 19.944 140.519 21.624 139.727 23.04C138.959 24.456 137.915 25.536 136.595 26.28C135.299 27 133.871 27.36 132.311 27.36C131.231 27.36 130.199 27.18 129.215 26.82C128.255 26.46 127.451 25.956 126.803 25.308V34.2H122.699V9ZM131.627 23.832C133.139 23.832 134.375 23.34 135.335 22.356C136.295 21.348 136.775 19.896 136.775 18C136.775 16.104 136.295 14.664 135.335 13.68C134.375 12.672 133.139 12.168 131.627 12.168C130.307 12.168 129.167 12.6 128.207 13.464C127.271 14.328 126.803 15.396 126.803 16.668V19.296C126.803 20.136 127.019 20.904 127.451 21.6C127.883 22.296 128.471 22.848 129.215 23.256C129.959 23.64 130.763 23.832 131.627 23.832ZM151.009 27.36C148.897 27.36 147.181 26.868 145.861 25.884C144.541 24.876 143.713 23.484 143.377 21.708L143.449 21.492L146.869 20.916C147.109 21.9 147.553 22.656 148.201 23.184C148.849 23.712 149.809 23.976 151.081 23.976C151.945 23.976 152.665 23.784 153.241 23.4C153.841 23.016 154.141 22.488 154.141 21.816C154.141 21.144 153.805 20.616 153.133 20.232C152.461 19.824 151.273 19.404 149.569 18.972C147.721 18.516 146.341 17.868 145.429 17.028C144.517 16.164 144.061 15.036 144.061 13.644C144.061 12.732 144.325 11.892 144.853 11.124C145.381 10.356 146.125 9.756 147.085 9.324C148.045 8.868 149.137 8.64 150.361 8.64C152.305 8.64 153.877 9.096 155.077 10.008C156.277 10.896 156.997 12.18 157.237 13.86L157.165 14.04L153.673 14.508C153.505 13.62 153.121 12.948 152.521 12.492C151.945 12.012 151.213 11.772 150.325 11.772C149.629 11.772 149.017 11.916 148.489 12.204C147.985 12.492 147.733 12.912 147.733 13.464C147.733 14.04 148.081 14.52 148.777 14.904C149.473 15.288 150.697 15.72 152.449 16.2C154.345 16.704 155.749 17.364 156.661 18.18C157.573 18.996 158.029 20.088 158.029 21.456C158.029 22.56 157.741 23.568 157.165 24.48C156.589 25.368 155.761 26.076 154.681 26.604C153.625 27.108 152.401 27.36 151.009 27.36ZM167.593 27.36C165.649 27.36 164.137 26.808 163.057 25.704C162.001 24.576 161.473 23.052 161.473 21.132V9H165.577V20.34C165.577 21.444 165.865 22.296 166.441 22.896C167.041 23.472 167.881 23.76 168.961 23.76C169.897 23.76 170.773 23.484 171.589 22.932C172.405 22.38 173.113 21.648 173.713 20.736V9H177.816V27H173.713V24.696C172.993 25.488 172.105 26.136 171.049 26.64C169.993 27.12 168.841 27.36 167.593 27.36ZM182.429 9H186.533V11.124C188.045 9.468 189.845 8.64 191.933 8.64C193.061 8.64 193.985 8.856 194.705 9.288C195.425 9.72 196.001 10.356 196.433 11.196C198.185 9.492 200.141 8.64 202.301 8.64C204.101 8.64 205.469 9.12 206.405 10.08C207.365 11.04 207.845 12.336 207.845 13.968V27H203.741V15.012C203.741 14.148 203.525 13.476 203.093 12.996C202.661 12.492 202.001 12.24 201.113 12.24C199.553 12.24 198.245 13.044 197.189 14.652V27H193.085V15.084C193.085 14.196 192.869 13.5 192.437 12.996C192.029 12.492 191.393 12.24 190.529 12.24C189.761 12.24 189.029 12.492 188.333 12.996C187.661 13.476 187.061 14.112 186.533 14.904V27H182.429V9ZM227.394 27.36C225.954 27.36 224.586 26.988 223.29 26.244C221.994 25.5 220.938 24.42 220.122 23.004C219.33 21.588 218.934 19.92 218.934 18C218.934 16.056 219.318 14.376 220.086 12.96C220.854 11.544 221.886 10.476 223.182 9.756C224.502 9.012 225.942 8.64 227.502 8.64C228.606 8.64 229.626 8.82 230.562 9.18C231.522 9.54 232.35 10.044 233.046 10.692V0.719999H237.15V27H233.046V25.056C231.606 26.592 229.722 27.36 227.394 27.36ZM228.222 23.832C229.542 23.832 230.67 23.4 231.606 22.536C232.566 21.672 233.046 20.604 233.046 19.332V16.704C233.046 15.432 232.566 14.364 231.606 13.5C230.67 12.612 229.53 12.168 228.186 12.168C226.698 12.168 225.474 12.672 224.514 13.68C223.554 14.664 223.074 16.104 223.074 18C223.074 19.896 223.554 21.348 224.514 22.356C225.474 23.34 226.71 23.832 228.222 23.832ZM250.377 27.36C248.529 27.36 246.873 26.952 245.409 26.136C243.969 25.32 242.841 24.204 242.025 22.788C241.233 21.372 240.837 19.776 240.837 18C240.837 16.224 241.233 14.628 242.025 13.212C242.841 11.796 243.969 10.68 245.409 9.864C246.873 9.048 248.529 8.64 250.377 8.64C252.225 8.64 253.869 9.048 255.309 9.864C256.749 10.68 257.865 11.796 258.657 13.212C259.473 14.628 259.881 16.224 259.881 18C259.881 19.776 259.473 21.372 258.657 22.788C257.865 24.204 256.749 25.32 255.309 26.136C253.869 26.952 252.225 27.36 250.377 27.36ZM250.377 23.724C251.961 23.724 253.257 23.22 254.265 22.212C255.273 21.18 255.777 19.776 255.777 18C255.777 16.224 255.273 14.832 254.265 13.824C253.257 12.792 251.961 12.276 250.377 12.276C248.793 12.276 247.485 12.792 246.453 13.824C245.445 14.832 244.941 16.224 244.941 18C244.941 19.776 245.445 21.18 246.453 22.212C247.485 23.22 248.793 23.724 250.377 23.724ZM263.57 0.719999H267.674V27H263.57V0.719999ZM280.892 27.36C279.044 27.36 277.388 26.952 275.924 26.136C274.484 25.32 273.356 24.204 272.54 22.788C271.748 21.372 271.352 19.776 271.352 18C271.352 16.224 271.748 14.628 272.54 13.212C273.356 11.796 274.484 10.68 275.924 9.864C277.388 9.048 279.044 8.64 280.892 8.64C282.74 8.64 284.384 9.048 285.824 9.864C287.264 10.68 288.38 11.796 289.172 13.212C289.988 14.628 290.396 16.224 290.396 18C290.396 19.776 289.988 21.372 289.172 22.788C288.38 24.204 287.264 25.32 285.824 26.136C284.384 26.952 282.74 27.36 280.892 27.36ZM280.892 23.724C282.476 23.724 283.772 23.22 284.78 22.212C285.788 21.18 286.292 19.776 286.292 18C286.292 16.224 285.788 14.832 284.78 13.824C283.772 12.792 282.476 12.276 280.892 12.276C279.308 12.276 278 12.792 276.968 13.824C275.96 14.832 275.456 16.224 275.456 18C275.456 19.776 275.96 21.18 276.968 22.212C278 23.22 279.308 23.724 280.892 23.724ZM294.085 9H298.189V11.232C299.701 9.504 301.429 8.64 303.373 8.64C304.021 8.64 304.537 8.736 304.921 8.928L304.381 12.24L304.237 12.348C303.949 12.276 303.553 12.24 303.049 12.24C302.041 12.24 301.117 12.528 300.277 13.104C299.437 13.68 298.741 14.508 298.189 15.588V27H294.085V9ZM322.185 27.36C320.073 27.36 318.357 26.868 317.037 25.884C315.717 24.876 314.889 23.484 314.553 21.708L314.625 21.492L318.045 20.916C318.285 21.9 318.729 22.656 319.377 23.184C320.025 23.712 320.985 23.976 322.257 23.976C323.121 23.976 323.841 23.784 324.417 23.4C325.017 23.016 325.317 22.488 325.317 21.816C325.317 21.144 324.981 20.616 324.309 20.232C323.637 19.824 322.449 19.404 320.745 18.972C318.897 18.516 317.517 17.868 316.605 17.028C315.693 16.164 315.237 15.036 315.237 13.644C315.237 12.732 315.501 11.892 316.029 11.124C316.557 10.356 317.301 9.756 318.261 9.324C319.221 8.868 320.313 8.64 321.537 8.64C323.481 8.64 325.053 9.096 326.253 10.008C327.453 10.896 328.173 12.18 328.413 13.86L328.341 14.04L324.849 14.508C324.681 13.62 324.297 12.948 323.697 12.492C323.121 12.012 322.389 11.772 321.501 11.772C320.805 11.772 320.193 11.916 319.665 12.204C319.161 12.492 318.909 12.912 318.909 13.464C318.909 14.04 319.257 14.52 319.953 14.904C320.649 15.288 321.873 15.72 323.625 16.2C325.521 16.704 326.925 17.364 327.837 18.18C328.749 18.996 329.205 20.088 329.205 21.456C329.205 22.56 328.917 23.568 328.341 24.48C327.765 25.368 326.937 26.076 325.857 26.604C324.801 27.108 323.577 27.36 322.185 27.36ZM334.772 6.66C334.076 6.66 333.476 6.408 332.972 5.904C332.468 5.4 332.216 4.8 332.216 4.104C332.216 3.408 332.468 2.808 332.972 2.304C333.476 1.8 334.076 1.548 334.772 1.548C335.468 1.548 336.068 1.8 336.572 2.304C337.076 2.808 337.328 3.408 337.328 4.104C337.328 4.8 337.076 5.4 336.572 5.904C336.068 6.408 335.468 6.66 334.772 6.66ZM332.72 9H336.824V27H332.72V9ZM348.21 27.36C346.674 27.36 345.462 26.94 344.574 26.1C343.686 25.236 343.242 23.988 343.242 22.356V12.528H339.894V9H343.242V3.708H343.566L347.382 5.04V9H351.414V12.528H347.382V21.996C347.382 22.596 347.55 23.064 347.886 23.4C348.246 23.712 348.762 23.868 349.434 23.868C349.986 23.868 350.55 23.796 351.126 23.652L351.234 23.724V27C350.25 27.24 349.242 27.36 348.21 27.36ZM367.465 27.36C365.833 27.36 364.465 26.88 363.361 25.92C362.281 24.936 361.741 23.628 361.741 21.996C361.741 20.34 362.305 19.032 363.433 18.072C364.585 17.088 366.097 16.5 367.969 16.308L373.189 15.768V14.796C373.189 13.86 372.877 13.152 372.253 12.672C371.629 12.168 370.789 11.916 369.733 11.916C368.797 11.916 368.029 12.144 367.429 12.6C366.853 13.056 366.481 13.728 366.313 14.616L362.749 14.436L362.569 14.292C362.905 12.468 363.745 11.076 365.089 10.116C366.433 9.132 368.029 8.64 369.877 8.64C372.061 8.64 373.825 9.192 375.169 10.296C376.513 11.376 377.185 12.864 377.185 14.76V22.14C377.185 23.34 377.665 23.94 378.625 23.94C378.841 23.94 379.105 23.904 379.417 23.832L379.525 23.904V26.856C378.781 27.096 378.025 27.216 377.257 27.216C376.393 27.216 375.613 27.012 374.917 26.604C374.245 26.196 373.753 25.524 373.441 24.588H373.333C372.565 25.428 371.677 26.1 370.669 26.604C369.685 27.108 368.617 27.36 367.465 27.36ZM368.221 24.012C369.181 24.012 370.057 23.784 370.849 23.328C371.641 22.848 372.421 22.164 373.189 21.276V18.648L368.509 19.188C367.573 19.308 366.865 19.608 366.385 20.088C365.905 20.544 365.665 21.108 365.665 21.78C365.665 22.5 365.905 23.052 366.385 23.436C366.865 23.82 367.477 24.012 368.221 24.012ZM382.82 9H386.924V11.124C388.436 9.468 390.236 8.64 392.324 8.64C393.452 8.64 394.376 8.856 395.096 9.288C395.816 9.72 396.392 10.356 396.824 11.196C398.576 9.492 400.532 8.64 402.692 8.64C404.492 8.64 405.86 9.12 406.796 10.08C407.756 11.04 408.236 12.336 408.236 13.968V27H404.132V15.012C404.132 14.148 403.916 13.476 403.484 12.996C403.052 12.492 402.392 12.24 401.504 12.24C399.944 12.24 398.636 13.044 397.58 14.652V27H393.476V15.084C393.476 14.196 393.26 13.5 392.828 12.996C392.42 12.492 391.784 12.24 390.92 12.24C390.152 12.24 389.42 12.492 388.724 12.996C388.052 13.476 387.452 14.112 386.924 14.904V27H382.82V9ZM420.766 27.36C418.99 27.36 417.418 26.976 416.05 26.208C414.682 25.416 413.626 24.312 412.882 22.896C412.138 21.48 411.766 19.848 411.766 18C411.766 16.176 412.174 14.556 412.99 13.14C413.83 11.724 414.934 10.62 416.302 9.828C417.67 9.036 419.158 8.64 420.766 8.64C422.47 8.64 423.982 9.012 425.302 9.756C426.646 10.476 427.69 11.532 428.434 12.924C429.178 14.316 429.55 15.96 429.55 17.856V19.116H415.762C415.858 20.58 416.362 21.744 417.274 22.608C418.21 23.448 419.398 23.868 420.838 23.868C422.062 23.868 423.07 23.592 423.862 23.04C424.654 22.464 425.218 21.684 425.554 20.7L429.154 20.916L429.262 21.096C428.686 23.112 427.666 24.66 426.202 25.74C424.762 26.82 422.95 27.36 420.766 27.36ZM425.662 16.128C425.542 14.832 425.026 13.824 424.114 13.104C423.226 12.36 422.11 11.988 420.766 11.988C419.518 11.988 418.438 12.36 417.526 13.104C416.638 13.824 416.074 14.832 415.834 16.128H425.662ZM439.441 27.36C437.905 27.36 436.693 26.94 435.805 26.1C434.917 25.236 434.473 23.988 434.473 22.356V12.528H431.125V9H434.473V3.708H434.797L438.613 5.04V9H442.645V12.528H438.613V21.996C438.613 22.596 438.781 23.064 439.117 23.4C439.477 23.712 439.993 23.868 440.665 23.868C441.217 23.868 441.781 23.796 442.357 23.652L442.465 23.724V27C441.481 27.24 440.473 27.36 439.441 27.36ZM445.629 31.5C446.493 30.756 447.165 30.036 447.645 29.34C448.149 28.644 448.425 27.864 448.473 27C447.633 26.976 446.961 26.688 446.457 26.136C445.953 25.584 445.701 24.948 445.701 24.228C445.701 23.436 445.965 22.764 446.493 22.212C447.045 21.636 447.729 21.348 448.545 21.348C449.385 21.348 450.057 21.636 450.561 22.212C451.089 22.764 451.353 23.472 451.353 24.336C451.353 25.968 450.957 27.396 450.165 28.62C449.373 29.868 448.137 31.092 446.457 32.292L445.629 31.5ZM9.584 67.36C7.856 67.36 6.284 66.964 4.868 66.172C3.476 65.38 2.372 64.276 1.556 62.86C0.764 61.444 0.368 59.824 0.368 58C0.368 56.176 0.764 54.556 1.556 53.14C2.372 51.724 3.476 50.62 4.868 49.828C6.284 49.036 7.856 48.64 9.584 48.64C11.936 48.64 13.88 49.24 15.416 50.44C16.952 51.64 17.888 53.308 18.224 55.444L18.116 55.624L14.516 55.84C14.252 54.736 13.7 53.872 12.86 53.248C12.02 52.6 10.94 52.276 9.62 52.276C8.084 52.276 6.824 52.78 5.84 53.788C4.88 54.796 4.4 56.2 4.4 58C4.4 59.8 4.88 61.204 5.84 62.212C6.824 63.22 8.084 63.724 9.62 63.724C10.94 63.724 12.008 63.424 12.824 62.824C13.64 62.2 14.204 61.312 14.516 60.16L18.116 60.376L18.224 60.556C17.792 62.716 16.82 64.396 15.308 65.596C13.796 66.772 11.888 67.36 9.584 67.36ZM30.5096 67.36C28.6616 67.36 27.0056 66.952 25.5416 66.136C24.1016 65.32 22.9736 64.204 22.1576 62.788C21.3656 61.372 20.9696 59.776 20.9696 58C20.9696 56.224 21.3656 54.628 22.1576 53.212C22.9736 51.796 24.1016 50.68 25.5416 49.864C27.0056 49.048 28.6616 48.64 30.5096 48.64C32.3576 48.64 34.0016 49.048 35.4416 49.864C36.8816 50.68 37.9976 51.796 38.7896 53.212C39.6056 54.628 40.0136 56.224 40.0136 58C40.0136 59.776 39.6056 61.372 38.7896 62.788C37.9976 64.204 36.8816 65.32 35.4416 66.136C34.0016 66.952 32.3576 67.36 30.5096 67.36ZM30.5096 63.724C32.0936 63.724 33.3896 63.22 34.3976 62.212C35.4056 61.18 35.9096 59.776 35.9096 58C35.9096 56.224 35.4056 54.832 34.3976 53.824C33.3896 52.792 32.0936 52.276 30.5096 52.276C28.9256 52.276 27.6176 52.792 26.5856 53.824C25.5776 54.832 25.0736 56.224 25.0736 58C25.0736 59.776 25.5776 61.18 26.5856 62.212C27.6176 63.22 28.9256 63.724 30.5096 63.724ZM43.7024 49H47.8064V51.34C48.5504 50.572 49.4504 49.936 50.5064 49.432C51.5864 48.904 52.7384 48.64 53.9624 48.64C55.8824 48.64 57.3704 49.192 58.4264 50.296C59.5064 51.376 60.0464 52.816 60.0464 54.616V67H55.9424V55.66C55.9424 54.556 55.6544 53.716 55.0784 53.14C54.5264 52.54 53.7104 52.24 52.6304 52.24C51.7184 52.24 50.8304 52.528 49.9664 53.104C49.1264 53.656 48.4064 54.376 47.8064 55.264V67H43.7024V49ZM70.9229 67.36C68.8109 67.36 67.0949 66.868 65.7749 65.884C64.4549 64.876 63.6269 63.484 63.2909 61.708L63.3629 61.492L66.7829 60.916C67.0229 61.9 67.4669 62.656 68.1149 63.184C68.7629 63.712 69.7229 63.976 70.9949 63.976C71.8589 63.976 72.5789 63.784 73.1549 63.4C73.7549 63.016 74.0549 62.488 74.0549 61.816C74.0549 61.144 73.7189 60.616 73.0469 60.232C72.3749 59.824 71.1869 59.404 69.4829 58.972C67.6349 58.516 66.2549 57.868 65.3429 57.028C64.4309 56.164 63.9749 55.036 63.9749 53.644C63.9749 52.732 64.2389 51.892 64.7669 51.124C65.2949 50.356 66.0389 49.756 66.9989 49.324C67.9589 48.868 69.0509 48.64 70.2749 48.64C72.2189 48.64 73.7909 49.096 74.9909 50.008C76.1909 50.896 76.9109 52.18 77.1509 53.86L77.0789 54.04L73.5869 54.508C73.4189 53.62 73.0349 52.948 72.4349 52.492C71.8589 52.012 71.1269 51.772 70.2389 51.772C69.5429 51.772 68.9309 51.916 68.4029 52.204C67.8989 52.492 67.6469 52.912 67.6469 53.464C67.6469 54.04 67.9949 54.52 68.6909 54.904C69.3869 55.288 70.6109 55.72 72.3629 56.2C74.2589 56.704 75.6629 57.364 76.5749 58.18C77.4869 58.996 77.9429 60.088 77.9429 61.456C77.9429 62.56 77.6549 63.568 77.0789 64.48C76.5029 65.368 75.6749 66.076 74.5949 66.604C73.5389 67.108 72.3149 67.36 70.9229 67.36ZM89.5946 67.36C87.8186 67.36 86.2466 66.976 84.8786 66.208C83.5106 65.416 82.4546 64.312 81.7106 62.896C80.9666 61.48 80.5946 59.848 80.5946 58C80.5946 56.176 81.0026 54.556 81.8186 53.14C82.6586 51.724 83.7626 50.62 85.1306 49.828C86.4986 49.036 87.9866 48.64 89.5946 48.64C91.2986 48.64 92.8106 49.012 94.1306 49.756C95.4746 50.476 96.5186 51.532 97.2626 52.924C98.0066 54.316 98.3786 55.96 98.3786 57.856V59.116H84.5906C84.6866 60.58 85.1906 61.744 86.1026 62.608C87.0386 63.448 88.2266 63.868 89.6666 63.868C90.8906 63.868 91.8986 63.592 92.6906 63.04C93.4826 62.464 94.0466 61.684 94.3826 60.7L97.9826 60.916L98.0906 61.096C97.5146 63.112 96.4946 64.66 95.0306 65.74C93.5906 66.82 91.7786 67.36 89.5946 67.36ZM94.4906 56.128C94.3706 54.832 93.8546 53.824 92.9426 53.104C92.0546 52.36 90.9386 51.988 89.5946 51.988C88.3466 51.988 87.2666 52.36 86.3546 53.104C85.4666 53.824 84.9026 54.832 84.6626 56.128H94.4906ZM110.131 67.36C108.403 67.36 106.831 66.964 105.415 66.172C104.023 65.38 102.919 64.276 102.103 62.86C101.311 61.444 100.915 59.824 100.915 58C100.915 56.176 101.311 54.556 102.103 53.14C102.919 51.724 104.023 50.62 105.415 49.828C106.831 49.036 108.403 48.64 110.131 48.64C112.483 48.64 114.427 49.24 115.963 50.44C117.499 51.64 118.435 53.308 118.771 55.444L118.663 55.624L115.063 55.84C114.799 54.736 114.247 53.872 113.407 53.248C112.567 52.6 111.487 52.276 110.167 52.276C108.631 52.276 107.371 52.78 106.387 53.788C105.427 54.796 104.947 56.2 104.947 58C104.947 59.8 105.427 61.204 106.387 62.212C107.371 63.22 108.631 63.724 110.167 63.724C111.487 63.724 112.555 63.424 113.371 62.824C114.187 62.2 114.751 61.312 115.063 60.16L118.663 60.376L118.771 60.556C118.339 62.716 117.367 64.396 115.855 65.596C114.343 66.772 112.435 67.36 110.131 67.36ZM128.66 67.36C127.124 67.36 125.912 66.94 125.024 66.1C124.136 65.236 123.692 63.988 123.692 62.356V52.528H120.344V49H123.692V43.708H124.016L127.832 45.04V49H131.864V52.528H127.832V61.996C127.832 62.596 128 63.064 128.336 63.4C128.696 63.712 129.212 63.868 129.884 63.868C130.436 63.868 131 63.796 131.576 63.652L131.684 63.724V67C130.7 67.24 129.692 67.36 128.66 67.36ZM143.138 67.36C141.362 67.36 139.79 66.976 138.422 66.208C137.054 65.416 135.998 64.312 135.254 62.896C134.51 61.48 134.138 59.848 134.138 58C134.138 56.176 134.546 54.556 135.362 53.14C136.202 51.724 137.306 50.62 138.674 49.828C140.042 49.036 141.53 48.64 143.138 48.64C144.842 48.64 146.354 49.012 147.674 49.756C149.018 50.476 150.062 51.532 150.806 52.924C151.55 54.316 151.922 55.96 151.922 57.856V59.116H138.134C138.23 60.58 138.734 61.744 139.646 62.608C140.582 63.448 141.77 63.868 143.21 63.868C144.434 63.868 145.442 63.592 146.234 63.04C147.026 62.464 147.59 61.684 147.926 60.7L151.526 60.916L151.634 61.096C151.058 63.112 150.038 64.66 148.574 65.74C147.134 66.82 145.322 67.36 143.138 67.36ZM148.034 56.128C147.914 54.832 147.398 53.824 146.486 53.104C145.598 52.36 144.482 51.988 143.138 51.988C141.89 51.988 140.81 52.36 139.898 53.104C139.01 53.824 138.446 54.832 138.206 56.128H148.034ZM161.812 67.36C160.276 67.36 159.064 66.94 158.176 66.1C157.288 65.236 156.844 63.988 156.844 62.356V52.528H153.496V49H156.844V43.708H157.168L160.984 45.04V49H165.016V52.528H160.984V61.996C160.984 62.596 161.152 63.064 161.488 63.4C161.848 63.712 162.364 63.868 163.036 63.868C163.588 63.868 164.152 63.796 164.728 63.652L164.836 63.724V67C163.852 67.24 162.844 67.36 161.812 67.36ZM174.624 67.36C172.68 67.36 171.168 66.808 170.088 65.704C169.032 64.576 168.504 63.052 168.504 61.132V49H172.608V60.34C172.608 61.444 172.896 62.296 173.472 62.896C174.072 63.472 174.912 63.76 175.992 63.76C176.928 63.76 177.804 63.484 178.62 62.932C179.436 62.38 180.144 61.648 180.744 60.736V49H184.848V67H180.744V64.696C180.024 65.488 179.136 66.136 178.08 66.64C177.024 67.12 175.872 67.36 174.624 67.36ZM189.46 49H193.564V51.232C195.076 49.504 196.804 48.64 198.748 48.64C199.396 48.64 199.912 48.736 200.296 48.928L199.756 52.24L199.612 52.348C199.324 52.276 198.928 52.24 198.424 52.24C197.416 52.24 196.492 52.528 195.652 53.104C194.812 53.68 194.116 54.508 193.564 55.588V67H189.46V49ZM202.978 67C202.21 67 201.538 66.724 200.962 66.172C200.41 65.596 200.134 64.924 200.134 64.156C200.134 63.388 200.41 62.728 200.962 62.176C201.538 61.624 202.21 61.348 202.978 61.348C203.746 61.348 204.406 61.624 204.958 62.176C205.51 62.728 205.786 63.388 205.786 64.156C205.786 64.924 205.51 65.596 204.958 66.172C204.406 66.724 203.746 67 202.978 67Z" fill="#1A1A1A"/>
</svg>
