<svg width="194" height="23" viewBox="0 0 194 23" fill="none" xmlns="http://www.w3.org/2000/svg">
<path d="M0.984 15.576L7.8 9.456C8.424 8.896 8.896 8.36 9.216 7.848C9.536 7.32 9.696 6.712 9.696 6.024C9.696 5.256 9.448 4.648 8.952 4.2C8.456 3.736 7.808 3.504 7.008 3.504C6.08 3.504 5.336 3.784 4.776 4.344C4.216 4.888 3.912 5.632 3.864 6.576L1.152 6.36L1.08 6.192C1.16 5.216 1.456 4.328 1.968 3.528C2.48 2.728 3.168 2.104 4.032 1.656C4.896 1.192 5.88 0.959999 6.984 0.959999C8.04 0.959999 8.984 1.168 9.816 1.584C10.664 1.984 11.32 2.56 11.784 3.312C12.264 4.048 12.504 4.904 12.504 5.88C12.504 6.92 12.272 7.848 11.808 8.664C11.344 9.48 10.648 10.288 9.72 11.088L4.872 15.36H12.792V18H0.984V15.576ZM25.8473 18.24C24.3753 18.24 23.1673 17.864 22.2233 17.112C21.2953 16.344 20.7113 15.304 20.4713 13.992L20.5433 13.824L23.0633 13.56C23.2873 14.312 23.6233 14.864 24.0713 15.216C24.5353 15.552 25.1353 15.72 25.8713 15.72C26.5593 15.72 27.1753 15.52 27.7193 15.12C28.2793 14.72 28.7193 14.144 29.0393 13.392C29.3593 12.64 29.5193 11.752 29.5193 10.728C28.5593 11.784 27.2233 12.312 25.5113 12.312C24.4713 12.312 23.5273 12.088 22.6793 11.64C21.8313 11.192 21.1593 10.552 20.6633 9.72C20.1833 8.888 19.9433 7.928 19.9433 6.84C19.9433 5.736 20.1993 4.736 20.7113 3.84C21.2393 2.944 21.9753 2.24 22.9193 1.728C23.8633 1.216 24.9433 0.959999 26.1593 0.959999C27.0713 0.959999 27.9593 1.168 28.8233 1.584C29.6873 2 30.3993 2.568 30.9593 3.288C31.4873 3.992 31.8713 4.816 32.1113 5.76C32.3673 6.688 32.4953 7.776 32.4953 9.024C32.4953 10.864 32.2313 12.48 31.7032 13.872C31.1753 15.264 30.4073 16.344 29.3993 17.112C28.4073 17.864 27.2233 18.24 25.8473 18.24ZM26.0633 10.128C26.7353 10.128 27.3193 9.976 27.8153 9.672C28.3273 9.352 28.7113 8.936 28.9673 8.424C29.2393 7.912 29.3753 7.36 29.3753 6.768C29.3753 5.824 29.0793 5.032 28.4873 4.392C27.8953 3.736 27.0873 3.408 26.0633 3.408C25.3913 3.408 24.8073 3.568 24.3113 3.888C23.8153 4.192 23.4313 4.6 23.1593 5.112C22.9033 5.624 22.7753 6.176 22.7753 6.768C22.7753 7.36 22.9033 7.912 23.1593 8.424C23.4313 8.936 23.8153 9.352 24.3113 9.672C24.8073 9.976 25.3913 10.128 26.0633 10.128ZM40.4723 18.24C39.0003 18.24 37.7923 17.864 36.8483 17.112C35.9203 16.344 35.3363 15.304 35.0963 13.992L35.1683 13.824L37.6883 13.56C37.9123 14.312 38.2483 14.864 38.6963 15.216C39.1603 15.552 39.7603 15.72 40.4963 15.72C41.1843 15.72 41.8003 15.52 42.3443 15.12C42.9043 14.72 43.3443 14.144 43.6643 13.392C43.9843 12.64 44.1443 11.752 44.1443 10.728C43.1843 11.784 41.8483 12.312 40.1363 12.312C39.0963 12.312 38.1523 12.088 37.3043 11.64C36.4563 11.192 35.7843 10.552 35.2883 9.72C34.8083 8.888 34.5683 7.928 34.5683 6.84C34.5683 5.736 34.8243 4.736 35.3363 3.84C35.8643 2.944 36.6003 2.24 37.5443 1.728C38.4883 1.216 39.5683 0.959999 40.7843 0.959999C41.6963 0.959999 42.5843 1.168 43.4483 1.584C44.3123 2 45.0243 2.568 45.5843 3.288C46.1123 3.992 46.4963 4.816 46.7363 5.76C46.9923 6.688 47.1203 7.776 47.1203 9.024C47.1203 10.864 46.8563 12.48 46.3282 13.872C45.8003 15.264 45.0323 16.344 44.0243 17.112C43.0323 17.864 41.8483 18.24 40.4723 18.24ZM40.6883 10.128C41.3603 10.128 41.9443 9.976 42.4403 9.672C42.9523 9.352 43.3363 8.936 43.5923 8.424C43.8643 7.912 44.0003 7.36 44.0003 6.768C44.0003 5.824 43.7043 5.032 43.1123 4.392C42.5203 3.736 41.7123 3.408 40.6883 3.408C40.0163 3.408 39.4323 3.568 38.9363 3.888C38.4403 4.192 38.0563 4.6 37.7843 5.112C37.5283 5.624 37.4003 6.176 37.4003 6.768C37.4003 7.36 37.5283 7.912 37.7843 8.424C38.0563 8.936 38.4403 9.352 38.9363 9.672C39.4323 9.976 40.0163 10.128 40.6883 10.128ZM56.4893 18.24C55.0653 18.24 53.8173 17.88 52.7453 17.16C51.6733 16.424 50.8493 15.4 50.2733 14.088C49.7133 12.776 49.4333 11.28 49.4333 9.6C49.4333 7.92 49.7133 6.424 50.2733 5.112C50.8493 3.8 51.6733 2.784 52.7453 2.064C53.8173 1.328 55.0653 0.959999 56.4893 0.959999C57.9133 0.959999 59.1533 1.328 60.2093 2.064C61.2813 2.784 62.1053 3.8 62.6813 5.112C63.2573 6.424 63.5453 7.92 63.5453 9.6C63.5453 11.28 63.2573 12.776 62.6813 14.088C62.1053 15.4 61.2813 16.424 60.2093 17.16C59.1533 17.88 57.9133 18.24 56.4893 18.24ZM56.4893 15.6C57.8333 15.6 58.8573 15.072 59.5613 14.016C60.2813 12.944 60.6413 11.472 60.6413 9.6C60.6413 7.728 60.2813 6.264 59.5613 5.208C58.8573 4.136 57.8333 3.6 56.4893 3.6C55.1453 3.6 54.1133 4.136 53.3933 5.208C52.6893 6.264 52.3373 7.728 52.3373 9.6C52.3373 11.472 52.6893 12.944 53.3933 14.016C54.1133 15.072 55.1453 15.6 56.4893 15.6ZM71.2626 6H73.9986V7.32C75.0066 6.28 76.2866 5.76 77.8386 5.76C78.7986 5.76 79.7026 6.008 80.5506 6.504C81.4146 6.984 82.1026 7.696 82.6146 8.64C83.1426 9.584 83.4066 10.704 83.4066 12C83.4066 13.296 83.1426 14.416 82.6146 15.36C82.1026 16.304 81.4066 17.024 80.5266 17.52C79.6626 18 78.7106 18.24 77.6706 18.24C76.9506 18.24 76.2626 18.12 75.6066 17.88C74.9666 17.64 74.4306 17.304 73.9986 16.872V22.8H71.2626V6ZM77.2146 15.888C78.2226 15.888 79.0466 15.56 79.6866 14.904C80.3266 14.232 80.6466 13.264 80.6466 12C80.6466 10.736 80.3266 9.776 79.6866 9.12C79.0466 8.448 78.2226 8.112 77.2146 8.112C76.3346 8.112 75.5746 8.4 74.9346 8.976C74.3106 9.552 73.9986 10.264 73.9986 11.112V12.864C73.9986 13.424 74.1426 13.936 74.4306 14.4C74.7186 14.864 75.1106 15.232 75.6066 15.504C76.1026 15.76 76.6386 15.888 77.2146 15.888ZM89.1171 17.592L84.2691 6H87.2931L90.1491 12.792L90.3411 14.4H90.4611L93.7251 6H96.5811L89.8371 22.8H87.0291L89.1171 17.592ZM104.903 18.24C103.767 18.24 102.695 18.008 101.687 17.544C100.679 17.08 99.8467 16.28 99.1907 15.144C98.5347 13.992 98.2067 12.464 98.2067 10.56C98.2067 4.32 100.591 1.2 105.359 1.2H106.415C106.943 1.2 107.327 1.136 107.567 1.008C107.823 0.88 107.999 0.624 108.095 0.24H110.351C110.287 1.216 109.919 2.024 109.247 2.664C108.591 3.288 107.567 3.6 106.175 3.6H105.263C103.839 3.6 102.711 3.992 101.879 4.776C101.063 5.56 100.535 6.784 100.295 8.448L100.199 9.048H100.247L100.439 8.424C100.983 7.48 101.663 6.8 102.479 6.384C103.295 5.968 104.159 5.76 105.071 5.76C106.111 5.76 107.079 6.008 107.975 6.504C108.887 7 109.615 7.72 110.159 8.664C110.719 9.608 110.999 10.72 110.999 12C110.999 13.28 110.711 14.392 110.135 15.336C109.559 16.28 108.799 17 107.855 17.496C106.927 17.992 105.943 18.24 104.903 18.24ZM104.711 15.84C105.703 15.84 106.535 15.52 107.207 14.88C107.895 14.224 108.239 13.272 108.239 12.024C108.239 10.744 107.887 9.776 107.183 9.12C106.479 8.464 105.615 8.136 104.591 8.136C103.599 8.136 102.759 8.464 102.071 9.12C101.383 9.76 101.039 10.704 101.039 11.952C101.039 13.232 101.391 14.2 102.095 14.856C102.799 15.512 103.671 15.84 104.711 15.84Z" fill="#4754EB"/>
<path d="M121.634 1.2H124.514L115.394 18H112.514L121.634 1.2ZM125.216 6H127.88L131.984 15.144L136.112 6H138.752V18H136.304V10.68H136.232L136.136 11.352L133.16 18H130.808L127.832 11.352L127.736 10.68H127.664V18H125.216V6ZM147.209 18.24C146.025 18.24 144.977 17.984 144.065 17.472C143.153 16.944 142.449 16.208 141.953 15.264C141.457 14.32 141.209 13.232 141.209 12C141.209 10.784 141.481 9.704 142.025 8.76C142.585 7.816 143.321 7.08 144.233 6.552C145.145 6.024 146.137 5.76 147.209 5.76C148.345 5.76 149.353 6.008 150.233 6.504C151.129 6.984 151.825 7.688 152.321 8.616C152.817 9.544 153.065 10.64 153.065 11.904V12.744H143.873C143.937 13.72 144.273 14.496 144.881 15.072C145.505 15.632 146.297 15.912 147.257 15.912C148.073 15.912 148.745 15.728 149.273 15.36C149.801 14.976 150.177 14.456 150.401 13.8L152.801 13.944L152.873 14.064C152.489 15.408 151.809 16.44 150.833 17.16C149.873 17.88 148.665 18.24 147.209 18.24ZM150.473 10.752C150.393 9.888 150.049 9.216 149.441 8.736C148.849 8.24 148.105 7.992 147.209 7.992C146.377 7.992 145.657 8.24 145.049 8.736C144.457 9.216 144.081 9.888 143.921 10.752H150.473ZM160.9 18.24C159.748 18.24 158.7 17.976 157.756 17.448C156.828 16.92 156.092 16.184 155.548 15.24C155.02 14.296 154.756 13.216 154.756 12C154.756 10.784 155.02 9.704 155.548 8.76C156.092 7.816 156.828 7.08 157.756 6.552C158.7 6.024 159.748 5.76 160.9 5.76C162.468 5.76 163.764 6.16 164.788 6.96C165.812 7.76 166.436 8.872 166.66 10.296L166.588 10.416L164.188 10.56C164.012 9.824 163.644 9.248 163.084 8.832C162.524 8.4 161.804 8.184 160.924 8.184C159.9 8.184 159.06 8.52 158.404 9.192C157.764 9.864 157.444 10.8 157.444 12C157.444 13.2 157.764 14.136 158.404 14.808C159.06 15.48 159.9 15.816 160.924 15.816C161.804 15.816 162.516 15.616 163.06 15.216C163.604 14.8 163.98 14.208 164.188 13.44L166.588 13.584L166.66 13.704C166.372 15.144 165.724 16.264 164.716 17.064C163.708 17.848 162.436 18.24 160.9 18.24ZM170.578 13.512V13.32C169.266 12.536 168.61 11.416 168.61 9.96C168.61 8.728 169.026 7.76 169.858 7.056C170.706 6.352 171.834 6 173.242 6H177.802V18H175.114V13.848H173.266L170.914 18H167.986L170.578 13.512ZM175.114 11.736V8.136H173.194C172.57 8.136 172.082 8.296 171.73 8.616C171.378 8.92 171.202 9.352 171.202 9.912C171.202 10.488 171.378 10.936 171.73 11.256C172.082 11.576 172.57 11.736 173.194 11.736H175.114ZM190.864 18H180.88V6H183.616V15.6H189.04V6H191.776V15.6H193.456V20.712H190.864V18Z" fill="#808080"/>
</svg>
