<svg width="422" height="24" viewBox="0 0 422 24" fill="none" xmlns="http://www.w3.org/2000/svg">
<path d="M1.224 4.4H3.474V15.02H9.648V17H1.224V4.4ZM15.456 17.18C14.532 17.18 13.704 16.976 12.972 16.568C12.252 16.16 11.688 15.602 11.28 14.894C10.884 14.186 10.686 13.388 10.686 12.5C10.686 11.612 10.884 10.814 11.28 10.106C11.688 9.398 12.252 8.84 12.972 8.432C13.704 8.024 14.532 7.82 15.456 7.82C16.38 7.82 17.202 8.024 17.922 8.432C18.642 8.84 19.2 9.398 19.596 10.106C20.004 10.814 20.208 11.612 20.208 12.5C20.208 13.388 20.004 14.186 19.596 14.894C19.2 15.602 18.642 16.16 17.922 16.568C17.202 16.976 16.38 17.18 15.456 17.18ZM15.456 15.362C16.248 15.362 16.896 15.11 17.4 14.606C17.904 14.09 18.156 13.388 18.156 12.5C18.156 11.612 17.904 10.916 17.4 10.412C16.896 9.896 16.248 9.638 15.456 9.638C14.664 9.638 14.01 9.896 13.494 10.412C12.99 10.916 12.738 11.612 12.738 12.5C12.738 13.388 12.99 14.09 13.494 14.606C14.01 15.11 14.664 15.362 15.456 15.362ZM22.0524 8H24.1044V9.116C24.8604 8.252 25.7244 7.82 26.6964 7.82C27.0204 7.82 27.2784 7.868 27.4704 7.964L27.2004 9.62L27.1284 9.674C26.9844 9.638 26.7864 9.62 26.5344 9.62C26.0304 9.62 25.5684 9.764 25.1484 10.052C24.7284 10.34 24.3804 10.754 24.1044 11.294V17H22.0524V8ZM32.7113 17.18C31.8233 17.18 31.0373 16.988 30.3533 16.604C29.6693 16.208 29.1413 15.656 28.7693 14.948C28.3973 14.24 28.2113 13.424 28.2113 12.5C28.2113 11.588 28.4153 10.778 28.8233 10.07C29.2433 9.362 29.7953 8.81 30.4793 8.414C31.1633 8.018 31.9073 7.82 32.7113 7.82C33.5633 7.82 34.3193 8.006 34.9793 8.378C35.6513 8.738 36.1733 9.266 36.5453 9.962C36.9173 10.658 37.1033 11.48 37.1033 12.428V13.058H30.2093C30.2573 13.79 30.5093 14.372 30.9653 14.804C31.4333 15.224 32.0273 15.434 32.7473 15.434C33.3593 15.434 33.8633 15.296 34.2593 15.02C34.6553 14.732 34.9373 14.342 35.1053 13.85L36.9053 13.958L36.9593 14.048C36.6713 15.056 36.1613 15.83 35.4293 16.37C34.7093 16.91 33.8033 17.18 32.7113 17.18ZM35.1593 11.564C35.0993 10.916 34.8413 10.412 34.3853 10.052C33.9413 9.68 33.3833 9.494 32.7113 9.494C32.0873 9.494 31.5473 9.68 31.0913 10.052C30.6473 10.412 30.3653 10.916 30.2453 11.564H35.1593ZM38.8395 8H40.8915V9.062C41.6475 8.234 42.5475 7.82 43.5915 7.82C44.1555 7.82 44.6175 7.928 44.9775 8.144C45.3375 8.36 45.6255 8.678 45.8415 9.098C46.7175 8.246 47.6955 7.82 48.7755 7.82C49.6755 7.82 50.3595 8.06 50.8275 8.54C51.3075 9.02 51.5475 9.668 51.5475 10.484V17H49.4955V11.006C49.4955 10.574 49.3875 10.238 49.1715 9.998C48.9555 9.746 48.6255 9.62 48.1815 9.62C47.4015 9.62 46.7475 10.022 46.2195 10.826V17H44.1675V11.042C44.1675 10.598 44.0595 10.25 43.8435 9.998C43.6395 9.746 43.3215 9.62 42.8895 9.62C42.5055 9.62 42.1395 9.746 41.7915 9.998C41.4555 10.238 41.1555 10.556 40.8915 10.952V17H38.8395V8ZM58.5502 6.83C58.2022 6.83 57.9022 6.704 57.6502 6.452C57.3982 6.2 57.2722 5.9 57.2722 5.552C57.2722 5.204 57.3982 4.904 57.6502 4.652C57.9022 4.4 58.2022 4.274 58.5502 4.274C58.8982 4.274 59.1982 4.4 59.4502 4.652C59.7022 4.904 59.8282 5.204 59.8282 5.552C59.8282 5.9 59.7022 6.2 59.4502 6.452C59.1982 6.704 58.8982 6.83 58.5502 6.83ZM57.5242 8H59.5762V17H57.5242V8ZM61.8493 8H63.9013V8.99C64.6573 8.21 65.6173 7.82 66.7813 7.82C67.5013 7.82 68.1793 8.006 68.8153 8.378C69.4633 8.738 69.9793 9.272 70.3633 9.98C70.7593 10.688 70.9573 11.528 70.9573 12.5C70.9573 13.472 70.7593 14.312 70.3633 15.02C69.9793 15.728 69.4573 16.268 68.7973 16.64C68.1493 17 67.4353 17.18 66.6553 17.18C66.1153 17.18 65.5993 17.09 65.1073 16.91C64.6273 16.73 64.2253 16.478 63.9013 16.154V20.6H61.8493V8ZM66.3133 15.416C67.0693 15.416 67.6873 15.17 68.1673 14.678C68.6473 14.174 68.8873 13.448 68.8873 12.5C68.8873 11.552 68.6473 10.832 68.1673 10.34C67.6873 9.836 67.0693 9.584 66.3133 9.584C65.6533 9.584 65.0833 9.8 64.6033 10.232C64.1353 10.664 63.9013 11.198 63.9013 11.834V13.148C63.9013 13.568 64.0093 13.952 64.2253 14.3C64.4413 14.648 64.7353 14.924 65.1073 15.128C65.4793 15.32 65.8813 15.416 66.3133 15.416ZM76.0044 17.18C74.9484 17.18 74.0904 16.934 73.4304 16.442C72.7704 15.938 72.3564 15.242 72.1884 14.354L72.2244 14.246L73.9344 13.958C74.0544 14.45 74.2764 14.828 74.6004 15.092C74.9244 15.356 75.4044 15.488 76.0404 15.488C76.4724 15.488 76.8324 15.392 77.1204 15.2C77.4204 15.008 77.5704 14.744 77.5704 14.408C77.5704 14.072 77.4024 13.808 77.0664 13.616C76.7304 13.412 76.1364 13.202 75.2844 12.986C74.3604 12.758 73.6704 12.434 73.2144 12.014C72.7584 11.582 72.5304 11.018 72.5304 10.322C72.5304 9.866 72.6624 9.446 72.9264 9.062C73.1904 8.678 73.5624 8.378 74.0424 8.162C74.5224 7.934 75.0684 7.82 75.6804 7.82C76.6524 7.82 77.4384 8.048 78.0384 8.504C78.6384 8.948 78.9984 9.59 79.1184 10.43L79.0824 10.52L77.3364 10.754C77.2524 10.31 77.0604 9.974 76.7604 9.746C76.4724 9.506 76.1064 9.386 75.6624 9.386C75.3144 9.386 75.0084 9.458 74.7444 9.602C74.4924 9.746 74.3664 9.956 74.3664 10.232C74.3664 10.52 74.5404 10.76 74.8884 10.952C75.2364 11.144 75.8484 11.36 76.7244 11.6C77.6724 11.852 78.3744 12.182 78.8304 12.59C79.2864 12.998 79.5144 13.544 79.5144 14.228C79.5144 14.78 79.3704 15.284 79.0824 15.74C78.7944 16.184 78.3804 16.538 77.8404 16.802C77.3124 17.054 76.7004 17.18 76.0044 17.18ZM84.2963 17.18C83.3243 17.18 82.5683 16.904 82.0283 16.352C81.5003 15.788 81.2363 15.026 81.2363 14.066V8H83.2883V13.67C83.2883 14.222 83.4323 14.648 83.7203 14.948C84.0203 15.236 84.4403 15.38 84.9803 15.38C85.4483 15.38 85.8863 15.242 86.2943 14.966C86.7023 14.69 87.0563 14.324 87.3563 13.868V8H89.4082V17H87.3563V15.848C86.9963 16.244 86.5523 16.568 86.0243 16.82C85.4963 17.06 84.9203 17.18 84.2963 17.18ZM91.7145 8H93.7665V9.062C94.5225 8.234 95.4225 7.82 96.4665 7.82C97.0305 7.82 97.4925 7.928 97.8525 8.144C98.2125 8.36 98.5005 8.678 98.7165 9.098C99.5925 8.246 100.571 7.82 101.651 7.82C102.551 7.82 103.235 8.06 103.703 8.54C104.183 9.02 104.423 9.668 104.423 10.484V17H102.371V11.006C102.371 10.574 102.263 10.238 102.047 9.998C101.831 9.746 101.501 9.62 101.057 9.62C100.277 9.62 99.6225 10.022 99.0945 10.826V17H97.0425V11.042C97.0425 10.598 96.9345 10.25 96.7185 9.998C96.5145 9.746 96.1965 9.62 95.7645 9.62C95.3805 9.62 95.0145 9.746 94.6665 9.998C94.3305 10.238 94.0305 10.556 93.7665 10.952V17H91.7145V8Z" fill="#4754EB"/>
<line x1="122.5" y1="11.5" x2="145.5" y2="11.5" stroke="white" stroke-linecap="round"/>
<path d="M163.26 4.4H164.988V15.416H171.198V17H163.26V4.4ZM176.944 17.18C176.044 17.18 175.24 16.982 174.532 16.586C173.836 16.178 173.29 15.62 172.894 14.912C172.51 14.192 172.318 13.388 172.318 12.5C172.318 11.612 172.51 10.814 172.894 10.106C173.29 9.386 173.836 8.828 174.532 8.432C175.24 8.024 176.044 7.82 176.944 7.82C177.844 7.82 178.642 8.024 179.338 8.432C180.046 8.828 180.592 9.386 180.976 10.106C181.372 10.814 181.57 11.612 181.57 12.5C181.57 13.388 181.372 14.192 180.976 14.912C180.592 15.62 180.046 16.178 179.338 16.586C178.642 16.982 177.844 17.18 176.944 17.18ZM176.944 15.74C177.832 15.74 178.558 15.458 179.122 14.894C179.698 14.33 179.986 13.532 179.986 12.5C179.986 11.468 179.698 10.67 179.122 10.106C178.558 9.542 177.832 9.26 176.944 9.26C176.056 9.26 175.324 9.542 174.748 10.106C174.184 10.67 173.902 11.468 173.902 12.5C173.902 13.532 174.184 14.33 174.748 14.894C175.324 15.458 176.056 15.74 176.944 15.74ZM183.473 8H185.057V9.17C185.405 8.774 185.801 8.45 186.245 8.198C186.689 7.946 187.175 7.82 187.703 7.82C188.015 7.82 188.255 7.868 188.423 7.964L188.171 9.278C188.027 9.242 187.835 9.224 187.595 9.224C187.091 9.224 186.617 9.374 186.173 9.674C185.729 9.974 185.357 10.4 185.057 10.952V17H183.473V8ZM193.567 17.18C192.667 17.18 191.887 16.988 191.227 16.604C190.567 16.208 190.057 15.662 189.697 14.966C189.349 14.258 189.175 13.436 189.175 12.5C189.175 11.588 189.373 10.778 189.769 10.07C190.165 9.362 190.699 8.81 191.371 8.414C192.043 8.018 192.775 7.82 193.567 7.82C194.371 7.82 195.091 8.006 195.727 8.378C196.375 8.738 196.879 9.26 197.239 9.944C197.611 10.628 197.797 11.444 197.797 12.392V13.004H190.777C190.801 13.856 191.065 14.528 191.569 15.02C192.085 15.5 192.757 15.74 193.585 15.74C194.269 15.74 194.839 15.578 195.295 15.254C195.751 14.918 196.063 14.474 196.231 13.922H197.707C197.455 14.942 196.975 15.74 196.267 16.316C195.559 16.892 194.659 17.18 193.567 17.18ZM196.303 11.636C196.243 10.88 195.955 10.298 195.439 9.89C194.935 9.47 194.311 9.26 193.567 9.26C192.847 9.26 192.235 9.47 191.731 9.89C191.227 10.31 190.915 10.892 190.795 11.636H196.303ZM199.592 8H201.176V9.062C201.944 8.234 202.856 7.82 203.912 7.82C204.476 7.82 204.932 7.928 205.28 8.144C205.64 8.348 205.934 8.672 206.162 9.116C207.098 8.252 208.094 7.82 209.15 7.82C210.038 7.82 210.698 8.042 211.13 8.486C211.574 8.918 211.796 9.506 211.796 10.25V17H210.212V10.718C210.212 10.25 210.086 9.884 209.834 9.62C209.594 9.356 209.234 9.224 208.754 9.224C207.854 9.224 207.098 9.65 206.486 10.502V17H204.902V10.79C204.902 9.746 204.422 9.224 203.462 9.224C203.054 9.224 202.652 9.362 202.256 9.638C201.86 9.914 201.5 10.274 201.176 10.718V17H199.592V8ZM218.666 6.632C218.366 6.632 218.108 6.53 217.892 6.326C217.688 6.11 217.586 5.852 217.586 5.552C217.586 5.252 217.688 5 217.892 4.796C218.108 4.58 218.366 4.472 218.666 4.472C218.966 4.472 219.218 4.58 219.422 4.796C219.638 5 219.746 5.252 219.746 5.552C219.746 5.852 219.638 6.11 219.422 6.326C219.218 6.53 218.966 6.632 218.666 6.632ZM217.874 8H219.458V17H217.874V8ZM221.829 8H223.413V8.99C223.725 8.666 224.121 8.39 224.601 8.162C225.081 7.934 225.639 7.82 226.275 7.82C227.019 7.82 227.703 8.012 228.327 8.396C228.963 8.78 229.467 9.326 229.839 10.034C230.211 10.742 230.397 11.564 230.397 12.5C230.397 13.436 230.223 14.258 229.875 14.966C229.527 15.674 229.041 16.22 228.417 16.604C227.793 16.988 227.091 17.18 226.311 17.18C225.735 17.18 225.189 17.084 224.673 16.892C224.169 16.688 223.749 16.406 223.413 16.046V20.6H221.829V8ZM226.023 15.74C226.839 15.74 227.505 15.47 228.021 14.93C228.549 14.39 228.813 13.58 228.813 12.5C228.813 11.42 228.549 10.61 228.021 10.07C227.505 9.53 226.839 9.26 226.023 9.26C225.555 9.26 225.117 9.368 224.709 9.584C224.313 9.8 223.995 10.088 223.755 10.448C223.527 10.808 223.413 11.198 223.413 11.618V13.346C223.413 13.766 223.533 14.162 223.773 14.534C224.013 14.894 224.331 15.188 224.727 15.416C225.123 15.632 225.555 15.74 226.023 15.74ZM235.401 17.18C234.333 17.18 233.469 16.916 232.809 16.388C232.149 15.86 231.777 15.128 231.693 14.192H233.187C233.319 14.684 233.553 15.068 233.889 15.344C234.237 15.608 234.753 15.74 235.437 15.74C235.941 15.74 236.367 15.626 236.715 15.398C237.075 15.17 237.255 14.858 237.255 14.462C237.255 14.078 237.057 13.772 236.661 13.544C236.277 13.316 235.611 13.082 234.663 12.842C233.751 12.614 233.079 12.296 232.647 11.888C232.227 11.48 232.017 10.934 232.017 10.25C232.017 9.818 232.143 9.416 232.395 9.044C232.659 8.672 233.019 8.378 233.475 8.162C233.943 7.934 234.471 7.82 235.059 7.82C236.031 7.82 236.817 8.066 237.417 8.558C238.017 9.05 238.359 9.752 238.443 10.664H236.877C236.817 10.184 236.625 9.818 236.301 9.566C235.977 9.314 235.563 9.188 235.059 9.188C234.663 9.188 234.309 9.278 233.997 9.458C233.685 9.626 233.529 9.878 233.529 10.214C233.529 10.538 233.709 10.808 234.069 11.024C234.429 11.228 235.035 11.444 235.887 11.672C236.883 11.936 237.615 12.266 238.083 12.662C238.563 13.058 238.803 13.592 238.803 14.264C238.803 14.816 238.659 15.314 238.371 15.758C238.095 16.202 237.699 16.55 237.183 16.802C236.667 17.054 236.073 17.18 235.401 17.18ZM243.57 17.18C242.622 17.18 241.89 16.916 241.374 16.388C240.858 15.86 240.6 15.134 240.6 14.21V8H242.184V13.922C242.184 14.522 242.34 14.984 242.652 15.308C242.976 15.62 243.432 15.776 244.02 15.776C244.536 15.776 245.022 15.62 245.478 15.308C245.946 14.996 246.36 14.576 246.72 14.048V8H248.304V17H246.72V15.83C246.372 16.202 245.916 16.52 245.352 16.784C244.788 17.048 244.194 17.18 243.57 17.18ZM250.674 8H252.258V9.062C253.026 8.234 253.938 7.82 254.994 7.82C255.558 7.82 256.014 7.928 256.362 8.144C256.722 8.348 257.016 8.672 257.244 9.116C258.18 8.252 259.176 7.82 260.232 7.82C261.12 7.82 261.78 8.042 262.212 8.486C262.656 8.918 262.878 9.506 262.878 10.25V17H261.294V10.718C261.294 10.25 261.168 9.884 260.916 9.62C260.676 9.356 260.316 9.224 259.836 9.224C258.936 9.224 258.18 9.65 257.568 10.502V17H255.984V10.79C255.984 9.746 255.504 9.224 254.544 9.224C254.136 9.224 253.734 9.362 253.338 9.638C252.942 9.914 252.582 10.274 252.258 10.718V17H250.674V8Z" fill="white"/>
<line x1="280.5" y1="11.5" x2="303.5" y2="11.5" stroke="white" stroke-linecap="round"/>
<path d="M321.26 4.4H322.988V15.416H329.198V17H321.26V4.4ZM334.944 17.18C334.044 17.18 333.24 16.982 332.532 16.586C331.836 16.178 331.29 15.62 330.894 14.912C330.51 14.192 330.318 13.388 330.318 12.5C330.318 11.612 330.51 10.814 330.894 10.106C331.29 9.386 331.836 8.828 332.532 8.432C333.24 8.024 334.044 7.82 334.944 7.82C335.844 7.82 336.642 8.024 337.338 8.432C338.046 8.828 338.592 9.386 338.976 10.106C339.372 10.814 339.57 11.612 339.57 12.5C339.57 13.388 339.372 14.192 338.976 14.912C338.592 15.62 338.046 16.178 337.338 16.586C336.642 16.982 335.844 17.18 334.944 17.18ZM334.944 15.74C335.832 15.74 336.558 15.458 337.122 14.894C337.698 14.33 337.986 13.532 337.986 12.5C337.986 11.468 337.698 10.67 337.122 10.106C336.558 9.542 335.832 9.26 334.944 9.26C334.056 9.26 333.324 9.542 332.748 10.106C332.184 10.67 331.902 11.468 331.902 12.5C331.902 13.532 332.184 14.33 332.748 14.894C333.324 15.458 334.056 15.74 334.944 15.74ZM341.473 8H343.057V9.17C343.405 8.774 343.801 8.45 344.245 8.198C344.689 7.946 345.175 7.82 345.703 7.82C346.015 7.82 346.255 7.868 346.423 7.964L346.171 9.278C346.027 9.242 345.835 9.224 345.595 9.224C345.091 9.224 344.617 9.374 344.173 9.674C343.729 9.974 343.357 10.4 343.057 10.952V17H341.473V8ZM351.567 17.18C350.667 17.18 349.887 16.988 349.227 16.604C348.567 16.208 348.057 15.662 347.697 14.966C347.349 14.258 347.175 13.436 347.175 12.5C347.175 11.588 347.373 10.778 347.769 10.07C348.165 9.362 348.699 8.81 349.371 8.414C350.043 8.018 350.775 7.82 351.567 7.82C352.371 7.82 353.091 8.006 353.727 8.378C354.375 8.738 354.879 9.26 355.239 9.944C355.611 10.628 355.797 11.444 355.797 12.392V13.004H348.777C348.801 13.856 349.065 14.528 349.569 15.02C350.085 15.5 350.757 15.74 351.585 15.74C352.269 15.74 352.839 15.578 353.295 15.254C353.751 14.918 354.063 14.474 354.231 13.922H355.707C355.455 14.942 354.975 15.74 354.267 16.316C353.559 16.892 352.659 17.18 351.567 17.18ZM354.303 11.636C354.243 10.88 353.955 10.298 353.439 9.89C352.935 9.47 352.311 9.26 351.567 9.26C350.847 9.26 350.235 9.47 349.731 9.89C349.227 10.31 348.915 10.892 348.795 11.636H354.303ZM357.592 8H359.176V9.062C359.944 8.234 360.856 7.82 361.912 7.82C362.476 7.82 362.932 7.928 363.28 8.144C363.64 8.348 363.934 8.672 364.162 9.116C365.098 8.252 366.094 7.82 367.15 7.82C368.038 7.82 368.698 8.042 369.13 8.486C369.574 8.918 369.796 9.506 369.796 10.25V17H368.212V10.718C368.212 10.25 368.086 9.884 367.834 9.62C367.594 9.356 367.234 9.224 366.754 9.224C365.854 9.224 365.098 9.65 364.486 10.502V17H362.902V10.79C362.902 9.746 362.422 9.224 361.462 9.224C361.054 9.224 360.652 9.362 360.256 9.638C359.86 9.914 359.5 10.274 359.176 10.718V17H357.592V8ZM376.666 6.632C376.366 6.632 376.108 6.53 375.892 6.326C375.688 6.11 375.586 5.852 375.586 5.552C375.586 5.252 375.688 5 375.892 4.796C376.108 4.58 376.366 4.472 376.666 4.472C376.966 4.472 377.218 4.58 377.422 4.796C377.638 5 377.746 5.252 377.746 5.552C377.746 5.852 377.638 6.11 377.422 6.326C377.218 6.53 376.966 6.632 376.666 6.632ZM375.874 8H377.458V17H375.874V8ZM379.829 8H381.413V8.99C381.725 8.666 382.121 8.39 382.601 8.162C383.081 7.934 383.639 7.82 384.275 7.82C385.019 7.82 385.703 8.012 386.327 8.396C386.963 8.78 387.467 9.326 387.839 10.034C388.211 10.742 388.397 11.564 388.397 12.5C388.397 13.436 388.223 14.258 387.875 14.966C387.527 15.674 387.041 16.22 386.417 16.604C385.793 16.988 385.091 17.18 384.311 17.18C383.735 17.18 383.189 17.084 382.673 16.892C382.169 16.688 381.749 16.406 381.413 16.046V20.6H379.829V8ZM384.023 15.74C384.839 15.74 385.505 15.47 386.021 14.93C386.549 14.39 386.813 13.58 386.813 12.5C386.813 11.42 386.549 10.61 386.021 10.07C385.505 9.53 384.839 9.26 384.023 9.26C383.555 9.26 383.117 9.368 382.709 9.584C382.313 9.8 381.995 10.088 381.755 10.448C381.527 10.808 381.413 11.198 381.413 11.618V13.346C381.413 13.766 381.533 14.162 381.773 14.534C382.013 14.894 382.331 15.188 382.727 15.416C383.123 15.632 383.555 15.74 384.023 15.74ZM393.401 17.18C392.333 17.18 391.469 16.916 390.809 16.388C390.149 15.86 389.777 15.128 389.693 14.192H391.187C391.319 14.684 391.553 15.068 391.889 15.344C392.237 15.608 392.753 15.74 393.437 15.74C393.941 15.74 394.367 15.626 394.715 15.398C395.075 15.17 395.255 14.858 395.255 14.462C395.255 14.078 395.057 13.772 394.661 13.544C394.277 13.316 393.611 13.082 392.663 12.842C391.751 12.614 391.079 12.296 390.647 11.888C390.227 11.48 390.017 10.934 390.017 10.25C390.017 9.818 390.143 9.416 390.395 9.044C390.659 8.672 391.019 8.378 391.475 8.162C391.943 7.934 392.471 7.82 393.059 7.82C394.031 7.82 394.817 8.066 395.417 8.558C396.017 9.05 396.359 9.752 396.443 10.664H394.877C394.817 10.184 394.625 9.818 394.301 9.566C393.977 9.314 393.563 9.188 393.059 9.188C392.663 9.188 392.309 9.278 391.997 9.458C391.685 9.626 391.529 9.878 391.529 10.214C391.529 10.538 391.709 10.808 392.069 11.024C392.429 11.228 393.035 11.444 393.887 11.672C394.883 11.936 395.615 12.266 396.083 12.662C396.563 13.058 396.803 13.592 396.803 14.264C396.803 14.816 396.659 15.314 396.371 15.758C396.095 16.202 395.699 16.55 395.183 16.802C394.667 17.054 394.073 17.18 393.401 17.18ZM401.57 17.18C400.622 17.18 399.89 16.916 399.374 16.388C398.858 15.86 398.6 15.134 398.6 14.21V8H400.184V13.922C400.184 14.522 400.34 14.984 400.652 15.308C400.976 15.62 401.432 15.776 402.02 15.776C402.536 15.776 403.022 15.62 403.478 15.308C403.946 14.996 404.36 14.576 404.72 14.048V8H406.304V17H404.72V15.83C404.372 16.202 403.916 16.52 403.352 16.784C402.788 17.048 402.194 17.18 401.57 17.18ZM408.674 8H410.258V9.062C411.026 8.234 411.938 7.82 412.994 7.82C413.558 7.82 414.014 7.928 414.362 8.144C414.722 8.348 415.016 8.672 415.244 9.116C416.18 8.252 417.176 7.82 418.232 7.82C419.12 7.82 419.78 8.042 420.212 8.486C420.656 8.918 420.878 9.506 420.878 10.25V17H419.294V10.718C419.294 10.25 419.168 9.884 418.916 9.62C418.676 9.356 418.316 9.224 417.836 9.224C416.936 9.224 416.18 9.65 415.568 10.502V17H413.984V10.79C413.984 9.746 413.504 9.224 412.544 9.224C412.136 9.224 411.734 9.362 411.338 9.638C410.942 9.914 410.582 10.274 410.258 10.718V17H408.674V8Z" fill="white"/>
</svg>
