<svg width="165" height="32" viewBox="0 0 165 32" fill="none" xmlns="http://www.w3.org/2000/svg">
<rect x="1" y="1" width="22" height="30" rx="11" stroke="white" stroke-width="2"/>
<path d="M12 13L12 7" stroke="white" stroke-width="2" stroke-linecap="round"/>
<path d="M33.552 21.16C33.3493 21.16 33.152 21.1333 32.96 21.08C32.7787 21.0267 32.6293 20.9573 32.512 20.872V19.512C32.6293 19.576 32.7627 19.6293 32.912 19.672C33.0613 19.7147 33.2 19.736 33.328 19.736C33.6373 19.736 33.872 19.592 34.032 19.304C34.192 19.016 34.2987 18.6533 34.352 18.216C34.416 17.7787 34.464 17.192 34.496 16.456L34.8 9.8H42.448V21H40.912V11.208H36.224L35.888 17.48C35.8347 18.472 35.6533 19.336 35.344 20.072C35.0453 20.7973 34.448 21.16 33.552 21.16ZM44.6185 13H45.9945V18.92L50.1705 13H51.5785V21H50.2025V15L46.0265 21H44.6185V13ZM57.2806 21.16C56.5233 21.16 55.8406 20.9893 55.2326 20.648C54.6246 20.296 54.1446 19.8053 53.7926 19.176C53.4513 18.5467 53.2806 17.8213 53.2806 17C53.2806 16.1787 53.4513 15.4533 53.7926 14.824C54.1446 14.1947 54.6246 13.7093 55.2326 13.368C55.8406 13.016 56.5233 12.84 57.2806 12.84C58.3153 12.84 59.1686 13.112 59.8406 13.656C60.5126 14.1893 60.918 14.936 61.0566 15.896H59.7286C59.6006 15.3307 59.3286 14.8933 58.9126 14.584C58.4966 14.2747 57.958 14.12 57.2966 14.12C56.5286 14.12 55.8993 14.3813 55.4086 14.904C54.9286 15.416 54.6886 16.1147 54.6886 17C54.6886 17.8853 54.9286 18.5893 55.4086 19.112C55.8993 19.624 56.5286 19.88 57.2966 19.88C57.958 19.88 58.4966 19.7253 58.9126 19.416C59.3286 19.1067 59.6006 18.6693 59.7286 18.104H61.0566C60.918 19.064 60.5126 19.816 59.8406 20.36C59.1686 20.8933 58.3153 21.16 57.2806 21.16ZM64.5185 14.28H61.7985V13H68.6465V14.28H65.9265V21H64.5185V14.28ZM72.1066 21.16C71.3493 21.16 70.736 20.952 70.2666 20.536C69.7973 20.1093 69.5626 19.544 69.5626 18.84C69.5626 18.0933 69.8186 17.5067 70.3306 17.08C70.8426 16.6533 71.488 16.4027 72.2666 16.328L74.7626 16.072V15.528C74.7626 15.0693 74.5973 14.7227 74.2666 14.488C73.9466 14.2427 73.52 14.12 72.9866 14.12C72.5386 14.12 72.16 14.2267 71.8506 14.44C71.552 14.6533 71.3493 14.9787 71.2426 15.416H69.9146C70.032 14.5733 70.3893 13.9333 70.9866 13.496C71.5946 13.0587 72.2933 12.84 73.0826 12.84C74.0213 12.84 74.768 13.0747 75.3226 13.544C75.888 14.0027 76.1706 14.6107 76.1706 15.368V19.112C76.1706 19.3787 76.2293 19.5867 76.3466 19.736C76.464 19.8747 76.64 19.944 76.8746 19.944C77.0133 19.944 77.152 19.9227 77.2906 19.88V20.936C76.9706 21.0427 76.672 21.096 76.3946 21.096C75.5306 21.096 75.0026 20.68 74.8106 19.848C74.5013 20.2 74.1013 20.5093 73.6106 20.776C73.12 21.032 72.6186 21.16 72.1066 21.16ZM72.2666 19.88C73.0986 19.88 73.9306 19.464 74.7626 18.632V17.192L72.3626 17.464C71.9146 17.5173 71.568 17.6667 71.3226 17.912C71.088 18.1467 70.9706 18.4347 70.9706 18.776C70.9706 19.1387 71.088 19.416 71.3226 19.608C71.568 19.7893 71.8826 19.88 72.2666 19.88ZM78.8216 13H80.1976V18.92L84.3736 13H85.7816V21H84.4056V15L80.2296 21H78.8216V13ZM82.3096 12.008C81.6696 12.008 81.163 11.816 80.7896 11.432C80.427 11.0373 80.2456 10.536 80.2456 9.928H81.5416C81.5416 10.184 81.611 10.392 81.7496 10.552C81.899 10.7013 82.0856 10.776 82.3096 10.776C82.5336 10.776 82.715 10.7013 82.8536 10.552C83.003 10.392 83.0776 10.184 83.0776 9.928H84.3736C84.3736 10.536 84.187 11.0373 83.8136 11.432C83.451 11.816 82.9496 12.008 82.3096 12.008ZM90.1435 14.28H87.4235V13H94.2715V14.28H91.5515V21H90.1435V14.28ZM98.9034 21.16C98.1034 21.16 97.41 20.9893 96.8234 20.648C96.2367 20.296 95.7834 19.8107 95.4634 19.192C95.154 18.5627 94.9994 17.832 94.9994 17C94.9994 16.1893 95.1754 15.4693 95.5274 14.84C95.8794 14.2107 96.354 13.72 96.9514 13.368C97.5487 13.016 98.1994 12.84 98.9034 12.84C99.618 12.84 100.258 13.0053 100.823 13.336C101.399 13.656 101.847 14.12 102.167 14.728C102.498 15.336 102.663 16.0613 102.663 16.904V17.448H96.4234C96.4447 18.2053 96.6794 18.8027 97.1274 19.24C97.586 19.6667 98.1834 19.88 98.9194 19.88C99.5274 19.88 100.034 19.736 100.439 19.448C100.845 19.1493 101.122 18.7547 101.271 18.264H102.583C102.359 19.1707 101.933 19.88 101.303 20.392C100.674 20.904 99.874 21.16 98.9034 21.16ZM101.335 16.232C101.282 15.56 101.026 15.0427 100.567 14.68C100.119 14.3067 99.5647 14.12 98.9034 14.12C98.2634 14.12 97.7194 14.3067 97.2714 14.68C96.8234 15.0533 96.546 15.5707 96.4394 16.232H101.335ZM116.291 19.72V22.776H114.947V21H108.707V22.776H107.363V19.72H108.451C108.685 18.6747 108.829 17.656 108.883 16.664C108.947 15.6613 108.979 14.44 108.979 13H115.251V19.72H116.291ZM113.843 19.72V14.28H110.275C110.253 15.3893 110.211 16.3707 110.147 17.224C110.093 18.0667 109.981 18.8987 109.811 19.72H113.843ZM120.31 21.16C119.552 21.16 118.939 20.952 118.47 20.536C118 20.1093 117.766 19.544 117.766 18.84C117.766 18.0933 118.022 17.5067 118.534 17.08C119.046 16.6533 119.691 16.4027 120.47 16.328L122.966 16.072V15.528C122.966 15.0693 122.8 14.7227 122.47 14.488C122.15 14.2427 121.723 14.12 121.19 14.12C120.742 14.12 120.363 14.2267 120.054 14.44C119.755 14.6533 119.552 14.9787 119.446 15.416H118.118C118.235 14.5733 118.592 13.9333 119.19 13.496C119.798 13.0587 120.496 12.84 121.286 12.84C122.224 12.84 122.971 13.0747 123.526 13.544C124.091 14.0027 124.374 14.6107 124.374 15.368V19.112C124.374 19.3787 124.432 19.5867 124.55 19.736C124.667 19.8747 124.843 19.944 125.078 19.944C125.216 19.944 125.355 19.9227 125.494 19.88V20.936C125.174 21.0427 124.875 21.096 124.598 21.096C123.734 21.096 123.206 20.68 123.014 19.848C122.704 20.2 122.304 20.5093 121.814 20.776C121.323 21.032 120.822 21.16 120.31 21.16ZM120.47 19.88C121.302 19.88 122.134 19.464 122.966 18.632V17.192L120.566 17.464C120.118 17.5173 119.771 17.6667 119.526 17.912C119.291 18.1467 119.174 18.4347 119.174 18.776C119.174 19.1387 119.291 19.416 119.526 19.608C119.771 19.7893 120.086 19.88 120.47 19.88ZM127.737 21.16C127.364 21.16 127.007 21.0533 126.665 20.84V19.512C126.985 19.6827 127.247 19.768 127.449 19.768C127.631 19.768 127.769 19.704 127.865 19.576C127.972 19.448 128.057 19.2347 128.121 18.936C128.196 18.6267 128.265 18.168 128.329 17.56L128.825 13H134.489V21H133.081V14.28H130.089L129.721 17.608C129.625 18.4933 129.497 19.192 129.337 19.704C129.188 20.216 128.985 20.5893 128.729 20.824C128.473 21.048 128.143 21.16 127.737 21.16ZM136.603 13H138.011V16.04H140.459C141.238 16.04 141.904 16.232 142.459 16.616C143.014 17 143.291 17.6347 143.291 18.52C143.291 19.4053 143.014 20.04 142.459 20.424C141.904 20.808 141.238 21 140.459 21H136.603V13ZM140.299 19.72C140.843 19.72 141.243 19.624 141.499 19.432C141.755 19.24 141.883 18.936 141.883 18.52C141.883 18.104 141.755 17.8 141.499 17.608C141.243 17.416 140.843 17.32 140.299 17.32H138.011V19.72H140.299ZM144.993 13H146.402V19.72H149.314V13H150.722V19.72H153.634V13H155.042V21H144.993V13ZM160.638 21.16C159.838 21.16 159.144 20.9893 158.558 20.648C157.971 20.296 157.518 19.8107 157.198 19.192C156.888 18.5627 156.734 17.832 156.734 17C156.734 16.1893 156.91 15.4693 157.262 14.84C157.614 14.2107 158.088 13.72 158.686 13.368C159.283 13.016 159.934 12.84 160.638 12.84C161.352 12.84 161.992 13.0053 162.558 13.336C163.134 13.656 163.582 14.12 163.902 14.728C164.232 15.336 164.398 16.0613 164.398 16.904V17.448H158.158C158.179 18.2053 158.414 18.8027 158.862 19.24C159.32 19.6667 159.918 19.88 160.654 19.88C161.262 19.88 161.768 19.736 162.174 19.448C162.579 19.1493 162.856 18.7547 163.006 18.264H164.318C164.094 19.1707 163.667 19.88 163.038 20.392C162.408 20.904 161.608 21.16 160.638 21.16ZM163.07 16.232C163.016 15.56 162.76 15.0427 162.302 14.68C161.854 14.3067 161.299 14.12 160.638 14.12C159.998 14.12 159.454 14.3067 159.006 14.68C158.558 15.0533 158.28 15.5707 158.174 16.232H163.07Z" fill="white"/>
</svg>
