<svg width="382" height="18" viewBox="0 0 382 18" fill="none" xmlns="http://www.w3.org/2000/svg">
<path d="M5.598 14.18C4.746 14.18 3.96 14.012 3.24 13.676C2.52 13.34 1.938 12.866 1.494 12.254C1.05 11.642 0.798 10.934 0.738 10.13L0.81 10.04L2.916 9.842C2.988 10.598 3.276 11.186 3.78 11.606C4.296 12.026 4.926 12.236 5.67 12.236C6.366 12.236 6.936 12.062 7.38 11.714C7.824 11.354 8.046 10.85 8.046 10.202C8.046 9.53 7.806 9.026 7.326 8.69C6.846 8.354 6.06 8.066 4.968 7.826C3.768 7.55 2.838 7.154 2.178 6.638C1.53 6.11 1.206 5.378 1.206 4.442C1.206 3.794 1.386 3.23 1.746 2.75C2.106 2.258 2.598 1.88 3.222 1.616C3.846 1.352 4.548 1.22 5.328 1.22C6.612 1.22 7.632 1.538 8.388 2.174C9.156 2.81 9.6 3.668 9.72 4.748L9.63 4.856L7.65 4.964C7.566 4.328 7.326 3.848 6.93 3.524C6.534 3.188 5.994 3.02 5.31 3.02C4.734 3.02 4.266 3.14 3.906 3.38C3.546 3.62 3.366 3.932 3.366 4.316C3.366 4.808 3.594 5.18 4.05 5.432C4.518 5.684 5.298 5.942 6.39 6.206C7.614 6.494 8.568 6.938 9.252 7.538C9.936 8.138 10.278 8.984 10.278 10.076C10.278 10.904 10.074 11.63 9.666 12.254C9.258 12.866 8.694 13.34 7.974 13.676C7.266 14.012 6.474 14.18 5.598 14.18ZM16.2582 14.18C15.3702 14.18 14.5842 13.988 13.9002 13.604C13.2162 13.208 12.6882 12.656 12.3162 11.948C11.9442 11.24 11.7582 10.424 11.7582 9.5C11.7582 8.588 11.9622 7.778 12.3702 7.07C12.7902 6.362 13.3422 5.81 14.0262 5.414C14.7102 5.018 15.4542 4.82 16.2582 4.82C17.1102 4.82 17.8662 5.006 18.5262 5.378C19.1982 5.738 19.7202 6.266 20.0922 6.962C20.4642 7.658 20.6502 8.48 20.6502 9.428V10.058H13.7562C13.8042 10.79 14.0562 11.372 14.5122 11.804C14.9802 12.224 15.5742 12.434 16.2942 12.434C16.9062 12.434 17.4102 12.296 17.8062 12.02C18.2022 11.732 18.4842 11.342 18.6522 10.85L20.4522 10.958L20.5062 11.048C20.2182 12.056 19.7082 12.83 18.9762 13.37C18.2562 13.91 17.3502 14.18 16.2582 14.18ZM18.7062 8.564C18.6462 7.916 18.3882 7.412 17.9322 7.052C17.4882 6.68 16.9302 6.494 16.2582 6.494C15.6342 6.494 15.0942 6.68 14.6382 7.052C14.1942 7.412 13.9122 7.916 13.7922 8.564H18.7062ZM22.3864 5H24.4384V6.062C25.1944 5.234 26.0944 4.82 27.1384 4.82C27.7024 4.82 28.1644 4.928 28.5244 5.144C28.8844 5.36 29.1724 5.678 29.3884 6.098C30.2644 5.246 31.2424 4.82 32.3224 4.82C33.2224 4.82 33.9064 5.06 34.3744 5.54C34.8544 6.02 35.0944 6.668 35.0944 7.484V14H33.0424V8.006C33.0424 7.574 32.9344 7.238 32.7184 6.998C32.5024 6.746 32.1724 6.62 31.7284 6.62C30.9484 6.62 30.2944 7.022 29.7664 7.826V14H27.7144V8.042C27.7144 7.598 27.6064 7.25 27.3904 6.998C27.1864 6.746 26.8684 6.62 26.4364 6.62C26.0524 6.62 25.6864 6.746 25.3384 6.998C25.0024 7.238 24.7024 7.556 24.4384 7.952V14H22.3864V5ZM37.3278 5H39.3798V5.99C40.1358 5.21 41.0958 4.82 42.2598 4.82C42.9798 4.82 43.6578 5.006 44.2938 5.378C44.9418 5.738 45.4578 6.272 45.8418 6.98C46.2378 7.688 46.4358 8.528 46.4358 9.5C46.4358 10.472 46.2378 11.312 45.8418 12.02C45.4578 12.728 44.9358 13.268 44.2758 13.64C43.6278 14 42.9138 14.18 42.1338 14.18C41.5938 14.18 41.0778 14.09 40.5858 13.91C40.1058 13.73 39.7038 13.478 39.3798 13.154V17.6H37.3278V5ZM41.7918 12.416C42.5478 12.416 43.1658 12.17 43.6458 11.678C44.1258 11.174 44.3658 10.448 44.3658 9.5C44.3658 8.552 44.1258 7.832 43.6458 7.34C43.1658 6.836 42.5478 6.584 41.7918 6.584C41.1318 6.584 40.5618 6.8 40.0818 7.232C39.6138 7.664 39.3798 8.198 39.3798 8.834V10.148C39.3798 10.568 39.4878 10.952 39.7038 11.3C39.9198 11.648 40.2138 11.924 40.5858 12.128C40.9578 12.32 41.3598 12.416 41.7918 12.416ZM52.311 14.18C51.423 14.18 50.637 13.988 49.953 13.604C49.269 13.208 48.741 12.656 48.369 11.948C47.997 11.24 47.811 10.424 47.811 9.5C47.811 8.588 48.015 7.778 48.423 7.07C48.843 6.362 49.395 5.81 50.079 5.414C50.763 5.018 51.507 4.82 52.311 4.82C53.163 4.82 53.919 5.006 54.579 5.378C55.251 5.738 55.773 6.266 56.145 6.962C56.517 7.658 56.703 8.48 56.703 9.428V10.058H49.809C49.857 10.79 50.109 11.372 50.565 11.804C51.033 12.224 51.627 12.434 52.347 12.434C52.959 12.434 53.463 12.296 53.859 12.02C54.255 11.732 54.537 11.342 54.705 10.85L56.505 10.958L56.559 11.048C56.271 12.056 55.761 12.83 55.029 13.37C54.309 13.91 53.403 14.18 52.311 14.18ZM54.759 8.564C54.699 7.916 54.441 7.412 53.985 7.052C53.541 6.68 52.983 6.494 52.311 6.494C51.687 6.494 51.147 6.68 50.691 7.052C50.247 7.412 49.965 7.916 49.845 8.564H54.759ZM58.4391 5H60.4911V6.116C61.2471 5.252 62.1111 4.82 63.0831 4.82C63.4071 4.82 63.6651 4.868 63.8571 4.964L63.5871 6.62L63.5151 6.674C63.3711 6.638 63.1731 6.62 62.9211 6.62C62.4171 6.62 61.9551 6.764 61.5351 7.052C61.1151 7.34 60.7671 7.754 60.4911 8.294V14H58.4391V5ZM72.4888 14.18C71.4328 14.18 70.5748 13.934 69.9148 13.442C69.2548 12.938 68.8408 12.242 68.6728 11.354L68.7088 11.246L70.4188 10.958C70.5388 11.45 70.7608 11.828 71.0848 12.092C71.4088 12.356 71.8888 12.488 72.5248 12.488C72.9568 12.488 73.3168 12.392 73.6048 12.2C73.9048 12.008 74.0548 11.744 74.0548 11.408C74.0548 11.072 73.8868 10.808 73.5508 10.616C73.2148 10.412 72.6208 10.202 71.7688 9.986C70.8448 9.758 70.1548 9.434 69.6988 9.014C69.2428 8.582 69.0148 8.018 69.0148 7.322C69.0148 6.866 69.1468 6.446 69.4108 6.062C69.6748 5.678 70.0468 5.378 70.5268 5.162C71.0068 4.934 71.5528 4.82 72.1648 4.82C73.1368 4.82 73.9228 5.048 74.5228 5.504C75.1228 5.948 75.4828 6.59 75.6028 7.43L75.5668 7.52L73.8208 7.754C73.7368 7.31 73.5448 6.974 73.2448 6.746C72.9568 6.506 72.5908 6.386 72.1468 6.386C71.7988 6.386 71.4928 6.458 71.2288 6.602C70.9768 6.746 70.8508 6.956 70.8508 7.232C70.8508 7.52 71.0248 7.76 71.3728 7.952C71.7208 8.144 72.3328 8.36 73.2088 8.6C74.1568 8.852 74.8588 9.182 75.3148 9.59C75.7708 9.998 75.9988 10.544 75.9988 11.228C75.9988 11.78 75.8548 12.284 75.5668 12.74C75.2788 13.184 74.8648 13.538 74.3248 13.802C73.7968 14.054 73.1848 14.18 72.4888 14.18ZM82.0946 14.18C81.1706 14.18 80.3426 13.976 79.6106 13.568C78.8906 13.16 78.3266 12.602 77.9186 11.894C77.5226 11.186 77.3246 10.388 77.3246 9.5C77.3246 8.612 77.5226 7.814 77.9186 7.106C78.3266 6.398 78.8906 5.84 79.6106 5.432C80.3426 5.024 81.1706 4.82 82.0946 4.82C83.0186 4.82 83.8406 5.024 84.5606 5.432C85.2806 5.84 85.8386 6.398 86.2346 7.106C86.6426 7.814 86.8466 8.612 86.8466 9.5C86.8466 10.388 86.6426 11.186 86.2346 11.894C85.8386 12.602 85.2806 13.16 84.5606 13.568C83.8406 13.976 83.0186 14.18 82.0946 14.18ZM82.0946 12.362C82.8866 12.362 83.5346 12.11 84.0386 11.606C84.5426 11.09 84.7946 10.388 84.7946 9.5C84.7946 8.612 84.5426 7.916 84.0386 7.412C83.5346 6.896 82.8866 6.638 82.0946 6.638C81.3026 6.638 80.6486 6.896 80.1326 7.412C79.6286 7.916 79.3766 8.612 79.3766 9.5C79.3766 10.388 79.6286 11.09 80.1326 11.606C80.6486 12.11 81.3026 12.362 82.0946 12.362ZM88.6911 0.86H90.7431V14H88.6911V0.86ZM93.0504 0.86H95.1024V14H93.0504V0.86ZM98.3998 3.83C98.0518 3.83 97.7518 3.704 97.4998 3.452C97.2478 3.2 97.1218 2.9 97.1218 2.552C97.1218 2.204 97.2478 1.904 97.4998 1.652C97.7518 1.4 98.0518 1.274 98.3998 1.274C98.7478 1.274 99.0478 1.4 99.2998 1.652C99.5518 1.904 99.6778 2.204 99.6778 2.552C99.6778 2.9 99.5518 3.2 99.2998 3.452C99.0478 3.704 98.7478 3.83 98.3998 3.83ZM97.3738 5H99.4258V14H97.3738V5ZM105.839 14.18C104.975 14.18 104.189 13.982 103.481 13.586C102.785 13.19 102.233 12.638 101.825 11.93C101.429 11.222 101.231 10.412 101.231 9.5C101.231 8.588 101.429 7.778 101.825 7.07C102.233 6.362 102.785 5.81 103.481 5.414C104.189 5.018 104.975 4.82 105.839 4.82C107.015 4.82 107.987 5.12 108.755 5.72C109.523 6.32 109.991 7.154 110.159 8.222L110.105 8.312L108.305 8.42C108.173 7.868 107.897 7.436 107.477 7.124C107.057 6.8 106.517 6.638 105.857 6.638C105.089 6.638 104.459 6.89 103.967 7.394C103.487 7.898 103.247 8.6 103.247 9.5C103.247 10.4 103.487 11.102 103.967 11.606C104.459 12.11 105.089 12.362 105.857 12.362C106.517 12.362 107.051 12.212 107.459 11.912C107.867 11.6 108.149 11.156 108.305 10.58L110.105 10.688L110.159 10.778C109.943 11.858 109.457 12.698 108.701 13.298C107.945 13.886 106.991 14.18 105.839 14.18ZM112.99 3.83C112.642 3.83 112.342 3.704 112.09 3.452C111.838 3.2 111.712 2.9 111.712 2.552C111.712 2.204 111.838 1.904 112.09 1.652C112.342 1.4 112.642 1.274 112.99 1.274C113.338 1.274 113.638 1.4 113.89 1.652C114.142 1.904 114.268 2.204 114.268 2.552C114.268 2.9 114.142 3.2 113.89 3.452C113.638 3.704 113.338 3.83 112.99 3.83ZM111.964 5H114.016V14H111.964V5ZM119.709 14.18C118.941 14.18 118.335 13.97 117.891 13.55C117.447 13.118 117.225 12.494 117.225 11.678V6.764H115.551V5H117.225V2.354H117.387L119.295 3.02V5H121.311V6.764H119.295V11.498C119.295 11.798 119.379 12.032 119.547 12.2C119.727 12.356 119.985 12.434 120.321 12.434C120.597 12.434 120.879 12.398 121.167 12.326L121.221 12.362V14C120.729 14.12 120.225 14.18 119.709 14.18ZM126.115 14.18C125.143 14.18 124.387 13.904 123.847 13.352C123.319 12.788 123.055 12.026 123.055 11.066V5H125.107V10.67C125.107 11.222 125.251 11.648 125.539 11.948C125.839 12.236 126.259 12.38 126.799 12.38C127.267 12.38 127.705 12.242 128.113 11.966C128.521 11.69 128.875 11.324 129.175 10.868V5H131.227V14H129.175V12.848C128.815 13.244 128.371 13.568 127.843 13.82C127.315 14.06 126.739 14.18 126.115 14.18ZM137.295 14.18C136.575 14.18 135.891 13.994 135.243 13.622C134.595 13.25 134.067 12.71 133.659 12.002C133.263 11.294 133.065 10.46 133.065 9.5C133.065 8.528 133.257 7.688 133.641 6.98C134.025 6.272 134.541 5.738 135.189 5.378C135.849 5.006 136.569 4.82 137.349 4.82C137.901 4.82 138.411 4.91 138.879 5.09C139.359 5.27 139.773 5.522 140.121 5.846V0.86H142.173V14H140.121V13.028C139.401 13.796 138.459 14.18 137.295 14.18ZM137.709 12.416C138.369 12.416 138.933 12.2 139.401 11.768C139.881 11.336 140.121 10.802 140.121 10.166V8.852C140.121 8.216 139.881 7.682 139.401 7.25C138.933 6.806 138.363 6.584 137.691 6.584C136.947 6.584 136.335 6.836 135.855 7.34C135.375 7.832 135.135 8.552 135.135 9.5C135.135 10.448 135.375 11.174 135.855 11.678C136.335 12.17 136.953 12.416 137.709 12.416ZM145.474 3.83C145.126 3.83 144.826 3.704 144.574 3.452C144.322 3.2 144.196 2.9 144.196 2.552C144.196 2.204 144.322 1.904 144.574 1.652C144.826 1.4 145.126 1.274 145.474 1.274C145.822 1.274 146.122 1.4 146.374 1.652C146.626 1.904 146.752 2.204 146.752 2.552C146.752 2.9 146.626 3.2 146.374 3.452C146.122 3.704 145.822 3.83 145.474 3.83ZM144.448 5H146.5V14H144.448V5ZM148.773 5H150.825V6.17C151.197 5.786 151.647 5.468 152.175 5.216C152.715 4.952 153.291 4.82 153.903 4.82C154.863 4.82 155.607 5.096 156.135 5.648C156.675 6.188 156.945 6.908 156.945 7.808V14H154.893V8.33C154.893 7.778 154.749 7.358 154.461 7.07C154.185 6.77 153.777 6.62 153.237 6.62C152.781 6.62 152.337 6.764 151.905 7.052C151.485 7.328 151.125 7.688 150.825 8.132V14H148.773V5ZM165.947 14.18C164.975 14.18 164.219 13.904 163.679 13.352C163.151 12.788 162.887 12.026 162.887 11.066V5H164.939V10.67C164.939 11.222 165.083 11.648 165.371 11.948C165.671 12.236 166.091 12.38 166.631 12.38C167.099 12.38 167.537 12.242 167.945 11.966C168.353 11.69 168.707 11.324 169.007 10.868V5H171.059V14H169.007V12.848C168.647 13.244 168.203 13.568 167.675 13.82C167.147 14.06 166.571 14.18 165.947 14.18ZM176.785 14.18C176.017 14.18 175.411 13.97 174.967 13.55C174.523 13.118 174.301 12.494 174.301 11.678V6.764H172.627V5H174.301V2.354H174.463L176.371 3.02V5H178.387V6.764H176.371V11.498C176.371 11.798 176.455 12.032 176.623 12.2C176.803 12.356 177.061 12.434 177.397 12.434C177.673 12.434 177.955 12.398 178.243 12.326L178.297 12.362V14C177.805 14.12 177.301 14.18 176.785 14.18ZM188.122 14.18C187.258 14.18 186.472 13.982 185.764 13.586C185.068 13.19 184.516 12.638 184.108 11.93C183.712 11.222 183.514 10.412 183.514 9.5C183.514 8.588 183.712 7.778 184.108 7.07C184.516 6.362 185.068 5.81 185.764 5.414C186.472 5.018 187.258 4.82 188.122 4.82C189.298 4.82 190.27 5.12 191.038 5.72C191.806 6.32 192.274 7.154 192.442 8.222L192.388 8.312L190.588 8.42C190.456 7.868 190.18 7.436 189.76 7.124C189.34 6.8 188.8 6.638 188.14 6.638C187.372 6.638 186.742 6.89 186.25 7.394C185.77 7.898 185.53 8.6 185.53 9.5C185.53 10.4 185.77 11.102 186.25 11.606C186.742 12.11 187.372 12.362 188.14 12.362C188.8 12.362 189.334 12.212 189.742 11.912C190.15 11.6 190.432 11.156 190.588 10.58L192.388 10.688L192.442 10.778C192.226 11.858 191.74 12.698 190.984 13.298C190.228 13.886 189.274 14.18 188.122 14.18ZM197.271 14.18C196.299 14.18 195.543 13.904 195.003 13.352C194.475 12.788 194.211 12.026 194.211 11.066V5H196.263V10.67C196.263 11.222 196.407 11.648 196.695 11.948C196.995 12.236 197.415 12.38 197.955 12.38C198.423 12.38 198.861 12.242 199.269 11.966C199.677 11.69 200.031 11.324 200.331 10.868V5H202.383V14H200.331V12.848C199.971 13.244 199.527 13.568 198.999 13.82C198.471 14.06 197.895 14.18 197.271 14.18ZM204.689 5H206.741V6.116C207.497 5.252 208.361 4.82 209.333 4.82C209.657 4.82 209.915 4.868 210.107 4.964L209.837 6.62L209.765 6.674C209.621 6.638 209.423 6.62 209.171 6.62C208.667 6.62 208.205 6.764 207.785 7.052C207.365 7.34 207.017 7.754 206.741 8.294V14H204.689V5ZM214.678 14.18C213.622 14.18 212.764 13.934 212.104 13.442C211.444 12.938 211.03 12.242 210.862 11.354L210.898 11.246L212.608 10.958C212.728 11.45 212.95 11.828 213.274 12.092C213.598 12.356 214.078 12.488 214.714 12.488C215.146 12.488 215.506 12.392 215.794 12.2C216.094 12.008 216.244 11.744 216.244 11.408C216.244 11.072 216.076 10.808 215.74 10.616C215.404 10.412 214.81 10.202 213.958 9.986C213.034 9.758 212.344 9.434 211.888 9.014C211.432 8.582 211.204 8.018 211.204 7.322C211.204 6.866 211.336 6.446 211.6 6.062C211.864 5.678 212.236 5.378 212.716 5.162C213.196 4.934 213.742 4.82 214.354 4.82C215.326 4.82 216.112 5.048 216.712 5.504C217.312 5.948 217.672 6.59 217.792 7.43L217.756 7.52L216.01 7.754C215.926 7.31 215.734 6.974 215.434 6.746C215.146 6.506 214.78 6.386 214.336 6.386C213.988 6.386 213.682 6.458 213.418 6.602C213.166 6.746 213.04 6.956 213.04 7.232C213.04 7.52 213.214 7.76 213.562 7.952C213.91 8.144 214.522 8.36 215.398 8.6C216.346 8.852 217.048 9.182 217.504 9.59C217.96 9.998 218.188 10.544 218.188 11.228C218.188 11.78 218.044 12.284 217.756 12.74C217.468 13.184 217.054 13.538 216.514 13.802C215.986 14.054 215.374 14.18 214.678 14.18ZM222.97 14.18C221.998 14.18 221.242 13.904 220.702 13.352C220.174 12.788 219.91 12.026 219.91 11.066V5H221.962V10.67C221.962 11.222 222.106 11.648 222.394 11.948C222.694 12.236 223.114 12.38 223.654 12.38C224.122 12.38 224.56 12.242 224.968 11.966C225.376 11.69 225.73 11.324 226.03 10.868V5H228.082V14H226.03V12.848C225.67 13.244 225.226 13.568 224.698 13.82C224.17 14.06 223.594 14.18 222.97 14.18ZM233.592 14.18C232.536 14.18 231.678 13.934 231.018 13.442C230.358 12.938 229.944 12.242 229.776 11.354L229.812 11.246L231.522 10.958C231.642 11.45 231.864 11.828 232.188 12.092C232.512 12.356 232.992 12.488 233.628 12.488C234.06 12.488 234.42 12.392 234.708 12.2C235.008 12.008 235.158 11.744 235.158 11.408C235.158 11.072 234.99 10.808 234.654 10.616C234.318 10.412 233.724 10.202 232.872 9.986C231.948 9.758 231.258 9.434 230.802 9.014C230.346 8.582 230.118 8.018 230.118 7.322C230.118 6.866 230.25 6.446 230.514 6.062C230.778 5.678 231.15 5.378 231.63 5.162C232.11 4.934 232.656 4.82 233.268 4.82C234.24 4.82 235.026 5.048 235.626 5.504C236.226 5.948 236.586 6.59 236.706 7.43L236.67 7.52L234.924 7.754C234.84 7.31 234.648 6.974 234.348 6.746C234.06 6.506 233.694 6.386 233.25 6.386C232.902 6.386 232.596 6.458 232.332 6.602C232.08 6.746 231.954 6.956 231.954 7.232C231.954 7.52 232.128 7.76 232.476 7.952C232.824 8.144 233.436 8.36 234.312 8.6C235.26 8.852 235.962 9.182 236.418 9.59C236.874 9.998 237.102 10.544 237.102 11.228C237.102 11.78 236.958 12.284 236.67 12.74C236.382 13.184 235.968 13.538 235.428 13.802C234.9 14.054 234.288 14.18 233.592 14.18ZM242.675 5H244.727V6.17C245.099 5.786 245.549 5.468 246.077 5.216C246.617 4.952 247.193 4.82 247.805 4.82C248.765 4.82 249.509 5.096 250.037 5.648C250.577 6.188 250.847 6.908 250.847 7.808V14H248.795V8.33C248.795 7.778 248.651 7.358 248.363 7.07C248.087 6.77 247.679 6.62 247.139 6.62C246.683 6.62 246.239 6.764 245.807 7.052C245.387 7.328 245.027 7.688 244.727 8.132V14H242.675V5ZM256.07 14.18C255.098 14.18 254.342 13.904 253.802 13.352C253.274 12.788 253.01 12.026 253.01 11.066V5H255.062V10.67C255.062 11.222 255.206 11.648 255.494 11.948C255.794 12.236 256.214 12.38 256.754 12.38C257.222 12.38 257.66 12.242 258.068 11.966C258.476 11.69 258.83 11.324 259.13 10.868V5H261.182V14H259.13V12.848C258.77 13.244 258.326 13.568 257.798 13.82C257.27 14.06 256.694 14.18 256.07 14.18ZM263.488 5H265.54V6.17C265.912 5.786 266.362 5.468 266.89 5.216C267.43 4.952 268.006 4.82 268.618 4.82C269.578 4.82 270.322 5.096 270.85 5.648C271.39 6.188 271.66 6.908 271.66 7.808V14H269.608V8.33C269.608 7.778 269.464 7.358 269.176 7.07C268.9 6.77 268.492 6.62 267.952 6.62C267.496 6.62 267.052 6.764 266.62 7.052C266.2 7.328 265.84 7.688 265.54 8.132V14H263.488V5ZM278.034 14.18C277.17 14.18 276.384 13.982 275.676 13.586C274.98 13.19 274.428 12.638 274.02 11.93C273.624 11.222 273.426 10.412 273.426 9.5C273.426 8.588 273.624 7.778 274.02 7.07C274.428 6.362 274.98 5.81 275.676 5.414C276.384 5.018 277.17 4.82 278.034 4.82C279.21 4.82 280.182 5.12 280.95 5.72C281.718 6.32 282.186 7.154 282.354 8.222L282.3 8.312L280.5 8.42C280.368 7.868 280.092 7.436 279.672 7.124C279.252 6.8 278.712 6.638 278.052 6.638C277.284 6.638 276.654 6.89 276.162 7.394C275.682 7.898 275.442 8.6 275.442 9.5C275.442 10.4 275.682 11.102 276.162 11.606C276.654 12.11 277.284 12.362 278.052 12.362C278.712 12.362 279.246 12.212 279.654 11.912C280.062 11.6 280.344 11.156 280.5 10.58L282.3 10.688L282.354 10.778C282.138 11.858 281.652 12.698 280.896 13.298C280.14 13.886 279.186 14.18 278.034 14.18ZM292.006 14.18C291.118 14.18 290.332 13.988 289.648 13.604C288.964 13.208 288.436 12.656 288.064 11.948C287.692 11.24 287.506 10.424 287.506 9.5C287.506 8.588 287.71 7.778 288.118 7.07C288.538 6.362 289.09 5.81 289.774 5.414C290.458 5.018 291.202 4.82 292.006 4.82C292.858 4.82 293.614 5.006 294.274 5.378C294.946 5.738 295.468 6.266 295.84 6.962C296.212 7.658 296.398 8.48 296.398 9.428V10.058H289.504C289.552 10.79 289.804 11.372 290.26 11.804C290.728 12.224 291.322 12.434 292.042 12.434C292.654 12.434 293.158 12.296 293.554 12.02C293.95 11.732 294.232 11.342 294.4 10.85L296.2 10.958L296.254 11.048C295.966 12.056 295.456 12.83 294.724 13.37C294.004 13.91 293.098 14.18 292.006 14.18ZM294.454 8.564C294.394 7.916 294.136 7.412 293.68 7.052C293.236 6.68 292.678 6.494 292.006 6.494C291.382 6.494 290.842 6.68 290.386 7.052C289.942 7.412 289.66 7.916 289.54 8.564H294.454ZM301.122 14.18C300.15 14.18 299.394 13.904 298.854 13.352C298.326 12.788 298.062 12.026 298.062 11.066V5H300.114V10.67C300.114 11.222 300.258 11.648 300.546 11.948C300.846 12.236 301.266 12.38 301.806 12.38C302.274 12.38 302.712 12.242 303.12 11.966C303.528 11.69 303.882 11.324 304.182 10.868V5H306.234V14H304.182V12.848C303.822 13.244 303.378 13.568 302.85 13.82C302.322 14.06 301.746 14.18 301.122 14.18ZM315.308 14.18C314.336 14.18 313.58 13.904 313.04 13.352C312.512 12.788 312.248 12.026 312.248 11.066V5H314.3V10.67C314.3 11.222 314.444 11.648 314.732 11.948C315.032 12.236 315.452 12.38 315.992 12.38C316.46 12.38 316.898 12.242 317.306 11.966C317.714 11.69 318.068 11.324 318.368 10.868V5H320.42V14H318.368V12.848C318.008 13.244 317.564 13.568 317.036 13.82C316.508 14.06 315.932 14.18 315.308 14.18ZM322.726 0.86H324.778V14H322.726V0.86ZM330.506 14.18C329.738 14.18 329.132 13.97 328.688 13.55C328.244 13.118 328.022 12.494 328.022 11.678V6.764H326.348V5H328.022V2.354H328.184L330.092 3.02V5H332.108V6.764H330.092V11.498C330.092 11.798 330.176 12.032 330.344 12.2C330.524 12.356 330.782 12.434 331.118 12.434C331.394 12.434 331.676 12.398 331.964 12.326L332.018 12.362V14C331.526 14.12 331.022 14.18 330.506 14.18ZM333.923 5H335.975V6.116C336.731 5.252 337.595 4.82 338.567 4.82C338.891 4.82 339.149 4.868 339.341 4.964L339.071 6.62L338.999 6.674C338.855 6.638 338.657 6.62 338.405 6.62C337.901 6.62 337.439 6.764 337.019 7.052C336.599 7.34 336.251 7.754 335.975 8.294V14H333.923V5ZM341.98 3.83C341.632 3.83 341.332 3.704 341.08 3.452C340.828 3.2 340.702 2.9 340.702 2.552C340.702 2.204 340.828 1.904 341.08 1.652C341.332 1.4 341.632 1.274 341.98 1.274C342.328 1.274 342.628 1.4 342.88 1.652C343.132 1.904 343.258 2.204 343.258 2.552C343.258 2.9 343.132 3.2 342.88 3.452C342.628 3.704 342.328 3.83 341.98 3.83ZM340.954 5H343.006V14H340.954V5ZM349.419 14.18C348.555 14.18 347.769 13.982 347.061 13.586C346.365 13.19 345.813 12.638 345.405 11.93C345.009 11.222 344.811 10.412 344.811 9.5C344.811 8.588 345.009 7.778 345.405 7.07C345.813 6.362 346.365 5.81 347.061 5.414C347.769 5.018 348.555 4.82 349.419 4.82C350.595 4.82 351.567 5.12 352.335 5.72C353.103 6.32 353.571 7.154 353.739 8.222L353.685 8.312L351.885 8.42C351.753 7.868 351.477 7.436 351.057 7.124C350.637 6.8 350.097 6.638 349.437 6.638C348.669 6.638 348.039 6.89 347.547 7.394C347.067 7.898 346.827 8.6 346.827 9.5C346.827 10.4 347.067 11.102 347.547 11.606C348.039 12.11 348.669 12.362 349.437 12.362C350.097 12.362 350.631 12.212 351.039 11.912C351.447 11.6 351.729 11.156 351.885 10.58L353.685 10.688L353.739 10.778C353.523 11.858 353.037 12.698 352.281 13.298C351.525 13.886 350.571 14.18 349.419 14.18ZM356.57 3.83C356.222 3.83 355.922 3.704 355.67 3.452C355.418 3.2 355.292 2.9 355.292 2.552C355.292 2.204 355.418 1.904 355.67 1.652C355.922 1.4 356.222 1.274 356.57 1.274C356.918 1.274 357.218 1.4 357.47 1.652C357.722 1.904 357.848 2.204 357.848 2.552C357.848 2.9 357.722 3.2 357.47 3.452C357.218 3.704 356.918 3.83 356.57 3.83ZM355.544 5H357.596V14H355.544V5ZM363.901 14.18C363.013 14.18 362.227 13.988 361.543 13.604C360.859 13.208 360.331 12.656 359.959 11.948C359.587 11.24 359.401 10.424 359.401 9.5C359.401 8.588 359.605 7.778 360.013 7.07C360.433 6.362 360.985 5.81 361.669 5.414C362.353 5.018 363.097 4.82 363.901 4.82C364.753 4.82 365.509 5.006 366.169 5.378C366.841 5.738 367.363 6.266 367.735 6.962C368.107 7.658 368.293 8.48 368.293 9.428V10.058H361.399C361.447 10.79 361.699 11.372 362.155 11.804C362.623 12.224 363.217 12.434 363.937 12.434C364.549 12.434 365.053 12.296 365.449 12.02C365.845 11.732 366.127 11.342 366.295 10.85L368.095 10.958L368.149 11.048C367.861 12.056 367.351 12.83 366.619 13.37C365.899 13.91 364.993 14.18 363.901 14.18ZM366.349 8.564C366.289 7.916 366.031 7.412 365.575 7.052C365.131 6.68 364.573 6.494 363.901 6.494C363.277 6.494 362.737 6.68 362.281 7.052C361.837 7.412 361.555 7.916 361.435 8.564H366.349ZM373.233 14.18C372.177 14.18 371.319 13.934 370.659 13.442C369.999 12.938 369.585 12.242 369.417 11.354L369.453 11.246L371.163 10.958C371.283 11.45 371.505 11.828 371.829 12.092C372.153 12.356 372.633 12.488 373.269 12.488C373.701 12.488 374.061 12.392 374.349 12.2C374.649 12.008 374.799 11.744 374.799 11.408C374.799 11.072 374.631 10.808 374.295 10.616C373.959 10.412 373.365 10.202 372.513 9.986C371.589 9.758 370.899 9.434 370.443 9.014C369.987 8.582 369.759 8.018 369.759 7.322C369.759 6.866 369.891 6.446 370.155 6.062C370.419 5.678 370.791 5.378 371.271 5.162C371.751 4.934 372.297 4.82 372.909 4.82C373.881 4.82 374.667 5.048 375.267 5.504C375.867 5.948 376.227 6.59 376.347 7.43L376.311 7.52L374.565 7.754C374.481 7.31 374.289 6.974 373.989 6.746C373.701 6.506 373.335 6.386 372.891 6.386C372.543 6.386 372.237 6.458 371.973 6.602C371.721 6.746 371.595 6.956 371.595 7.232C371.595 7.52 371.769 7.76 372.117 7.952C372.465 8.144 373.077 8.36 373.953 8.6C374.901 8.852 375.603 9.182 376.059 9.59C376.515 9.998 376.743 10.544 376.743 11.228C376.743 11.78 376.599 12.284 376.311 12.74C376.023 13.184 375.609 13.538 375.069 13.802C374.541 14.054 373.929 14.18 373.233 14.18ZM379.671 14C379.287 14 378.951 13.862 378.663 13.586C378.387 13.298 378.249 12.962 378.249 12.578C378.249 12.194 378.387 11.864 378.663 11.588C378.951 11.312 379.287 11.174 379.671 11.174C380.055 11.174 380.385 11.312 380.661 11.588C380.937 11.864 381.075 12.194 381.075 12.578C381.075 12.962 380.937 13.298 380.661 13.586C380.385 13.862 380.055 14 379.671 14Z" fill="#4754EB"/>
</svg>
