<svg width="270" height="35" viewBox="0 0 270 35" fill="none" xmlns="http://www.w3.org/2000/svg">
<path d="M13.436 27.36C11.06 27.36 8.9 26.82 6.956 25.74C5.036 24.636 3.512 23.1 2.384 21.132C1.28 19.164 0.728 16.92 0.728 14.4C0.728 11.88 1.28 9.636 2.384 7.668C3.512 5.7 5.036 4.176 6.956 3.096C8.9 1.992 11.06 1.44 13.436 1.44C15.836 1.44 17.996 1.992 19.916 3.096C21.86 4.176 23.384 5.7 24.488 7.668C25.616 9.636 26.18 11.88 26.18 14.4C26.18 16.92 25.616 19.164 24.488 21.132C23.384 23.1 21.86 24.636 19.916 25.74C17.996 26.82 15.836 27.36 13.436 27.36ZM13.436 23.328C15.068 23.328 16.496 22.956 17.72 22.212C18.968 21.444 19.928 20.388 20.6 19.044C21.272 17.7 21.608 16.152 21.608 14.4C21.608 12.648 21.272 11.1 20.6 9.756C19.928 8.412 18.968 7.368 17.72 6.624C16.496 5.856 15.068 5.472 13.436 5.472C11.804 5.472 10.364 5.856 9.116 6.624C7.892 7.368 6.944 8.412 6.272 9.756C5.6 11.1 5.264 12.648 5.264 14.4C5.264 16.152 5.6 17.7 6.272 19.044C6.944 20.388 7.892 21.444 9.116 22.212C10.364 22.956 11.804 23.328 13.436 23.328ZM39.6704 27.36C37.9664 27.36 36.3584 27.012 34.8464 26.316C33.3344 25.62 32.0864 24.42 31.1024 22.716C30.1184 20.988 29.6264 18.696 29.6264 15.84C29.6264 6.48 33.2024 1.8 40.3544 1.8H41.9384C42.7304 1.8 43.3064 1.704 43.6664 1.512C44.0504 1.32 44.3144 0.935999 44.4584 0.36H47.8424C47.7464 1.824 47.1944 3.036 46.1864 3.996C45.2024 4.932 43.6664 5.4 41.5784 5.4H40.2104C38.0744 5.4 36.3824 5.988 35.1344 7.164C33.9104 8.34 33.1184 10.176 32.7584 12.672L32.6144 13.572H32.6864L32.9744 12.636C33.7904 11.22 34.8104 10.2 36.0344 9.576C37.2584 8.952 38.5544 8.64 39.9224 8.64C41.4824 8.64 42.9344 9.012 44.2784 9.756C45.6464 10.5 46.7384 11.58 47.5544 12.996C48.3944 14.412 48.8144 16.08 48.8144 18C48.8144 19.92 48.3824 21.588 47.5184 23.004C46.6544 24.42 45.5144 25.5 44.0984 26.244C42.7064 26.988 41.2304 27.36 39.6704 27.36ZM39.3824 23.76C40.8704 23.76 42.1184 23.28 43.1264 22.32C44.1584 21.336 44.6744 19.908 44.6744 18.036C44.6744 16.116 44.1464 14.664 43.0904 13.68C42.0344 12.696 40.7384 12.204 39.2024 12.204C37.7144 12.204 36.4544 12.696 35.4224 13.68C34.3904 14.64 33.8744 16.056 33.8744 17.928C33.8744 19.848 34.4024 21.3 35.4584 22.284C36.5144 23.268 37.8224 23.76 39.3824 23.76ZM52.4915 9H56.5955V10.98C58.1075 9.42 60.0275 8.64 62.3555 8.64C63.7955 8.64 65.1515 9.012 66.4235 9.756C67.7195 10.476 68.7515 11.544 69.5195 12.96C70.3115 14.376 70.7075 16.056 70.7075 18C70.7075 19.944 70.3115 21.624 69.5195 23.04C68.7515 24.456 67.7075 25.536 66.3875 26.28C65.0915 27 63.6635 27.36 62.1035 27.36C61.0235 27.36 59.9915 27.18 59.0075 26.82C58.0475 26.46 57.2435 25.956 56.5955 25.308V34.2H52.4915V9ZM61.4195 23.832C62.9315 23.832 64.1675 23.34 65.1275 22.356C66.0875 21.348 66.5675 19.896 66.5675 18C66.5675 16.104 66.0875 14.664 65.1275 13.68C64.1675 12.672 62.9315 12.168 61.4195 12.168C60.0995 12.168 58.9595 12.6 57.9995 13.464C57.0635 14.328 56.5955 15.396 56.5955 16.668V19.296C56.5955 20.136 56.8115 20.904 57.2435 21.6C57.6755 22.296 58.2635 22.848 59.0075 23.256C59.7515 23.64 60.5555 23.832 61.4195 23.832ZM79.2538 27.36C77.6218 27.36 76.2538 26.88 75.1498 25.92C74.0698 24.936 73.5298 23.628 73.5298 21.996C73.5298 20.34 74.0938 19.032 75.2218 18.072C76.3738 17.088 77.8858 16.5 79.7578 16.308L84.9778 15.768V14.796C84.9778 13.86 84.6658 13.152 84.0418 12.672C83.4178 12.168 82.5778 11.916 81.5218 11.916C80.5858 11.916 79.8178 12.144 79.2178 12.6C78.6418 13.056 78.2698 13.728 78.1018 14.616L74.5378 14.436L74.3578 14.292C74.6938 12.468 75.5338 11.076 76.8778 10.116C78.2218 9.132 79.8178 8.64 81.6658 8.64C83.8498 8.64 85.6138 9.192 86.9578 10.296C88.3018 11.376 88.9738 12.864 88.9738 14.76V22.14C88.9738 23.34 89.4538 23.94 90.4138 23.94C90.6298 23.94 90.8938 23.904 91.2058 23.832L91.3138 23.904V26.856C90.5698 27.096 89.8138 27.216 89.0458 27.216C88.1818 27.216 87.4018 27.012 86.7058 26.604C86.0338 26.196 85.5418 25.524 85.2298 24.588H85.1218C84.3538 25.428 83.4658 26.1 82.4578 26.604C81.4738 27.108 80.4058 27.36 79.2538 27.36ZM80.0098 24.012C80.9698 24.012 81.8458 23.784 82.6378 23.328C83.4298 22.848 84.2098 22.164 84.9778 21.276V18.648L80.2978 19.188C79.3618 19.308 78.6538 19.608 78.1738 20.088C77.6938 20.544 77.4538 21.108 77.4538 21.78C77.4538 22.5 77.6938 23.052 78.1738 23.436C78.6538 23.82 79.2658 24.012 80.0098 24.012ZM98.0039 12.6H91.8839V9H108.228V12.6H102.144V27H98.0039V12.6ZM111.765 9H115.869V16.2H124.005V9H128.109V27H124.005V19.8H115.869V27H111.765V9ZM137.578 27.36C135.946 27.36 134.578 26.88 133.474 25.92C132.394 24.936 131.854 23.628 131.854 21.996C131.854 20.34 132.418 19.032 133.546 18.072C134.698 17.088 136.21 16.5 138.082 16.308L143.302 15.768V14.796C143.302 13.86 142.99 13.152 142.366 12.672C141.742 12.168 140.902 11.916 139.846 11.916C138.91 11.916 138.142 12.144 137.542 12.6C136.966 13.056 136.594 13.728 136.426 14.616L132.862 14.436L132.682 14.292C133.018 12.468 133.858 11.076 135.202 10.116C136.546 9.132 138.142 8.64 139.99 8.64C142.174 8.64 143.938 9.192 145.282 10.296C146.626 11.376 147.298 12.864 147.298 14.76V22.14C147.298 23.34 147.778 23.94 148.738 23.94C148.954 23.94 149.218 23.904 149.53 23.832L149.638 23.904V26.856C148.894 27.096 148.138 27.216 147.37 27.216C146.506 27.216 145.726 27.012 145.03 26.604C144.358 26.196 143.866 25.524 143.554 24.588H143.446C142.678 25.428 141.79 26.1 140.782 26.604C139.798 27.108 138.73 27.36 137.578 27.36ZM138.334 24.012C139.294 24.012 140.17 23.784 140.962 23.328C141.754 22.848 142.534 22.164 143.302 21.276V18.648L138.622 19.188C137.686 19.308 136.978 19.608 136.498 20.088C136.018 20.544 135.778 21.108 135.778 21.78C135.778 22.5 136.018 23.052 136.498 23.436C136.978 23.82 137.59 24.012 138.334 24.012ZM155.375 20.268V19.98C153.407 18.804 152.423 17.124 152.423 14.94C152.423 13.092 153.047 11.64 154.295 10.584C155.567 9.528 157.259 9 159.371 9H166.211V27H162.179V20.772H159.407L155.879 27H151.487L155.375 20.268ZM162.179 17.604V12.204H159.299C158.363 12.204 157.631 12.444 157.103 12.924C156.575 13.38 156.311 14.028 156.311 14.868C156.311 15.732 156.575 16.404 157.103 16.884C157.631 17.364 158.363 17.604 159.299 17.604H162.179ZM186.666 27.36C184.938 27.36 183.366 26.964 181.95 26.172C180.558 25.38 179.454 24.276 178.638 22.86C177.846 21.444 177.45 19.824 177.45 18C177.45 16.176 177.846 14.556 178.638 13.14C179.454 11.724 180.558 10.62 181.95 9.828C183.366 9.036 184.938 8.64 186.666 8.64C189.018 8.64 190.962 9.24 192.498 10.44C194.034 11.64 194.97 13.308 195.306 15.444L195.198 15.624L191.598 15.84C191.334 14.736 190.782 13.872 189.942 13.248C189.102 12.6 188.022 12.276 186.702 12.276C185.166 12.276 183.906 12.78 182.922 13.788C181.962 14.796 181.482 16.2 181.482 18C181.482 19.8 181.962 21.204 182.922 22.212C183.906 23.22 185.166 23.724 186.702 23.724C188.022 23.724 189.09 23.424 189.906 22.824C190.722 22.2 191.286 21.312 191.598 20.16L195.198 20.376L195.306 20.556C194.874 22.716 193.902 24.396 192.39 25.596C190.878 26.772 188.97 27.36 186.666 27.36ZM198.988 9H207.952C209.68 9 211.072 9.444 212.128 10.332C213.208 11.196 213.748 12.288 213.748 13.608C213.748 15.312 213.04 16.56 211.624 17.352V17.532C212.536 17.868 213.28 18.396 213.856 19.116C214.432 19.812 214.72 20.676 214.72 21.708C214.72 23.292 214.132 24.576 212.956 25.56C211.78 26.52 210.172 27 208.132 27H198.988V9ZM207.7 16.164C209.188 16.164 209.932 15.516 209.932 14.22C209.932 12.948 209.188 12.312 207.7 12.312H203.02V16.164H207.7ZM208.24 23.652C209.824 23.652 210.616 22.956 210.616 21.564C210.616 20.172 209.824 19.476 208.24 19.476H203.02V23.652H208.24ZM220.027 20.268V19.98C218.059 18.804 217.075 17.124 217.075 14.94C217.075 13.092 217.699 11.64 218.947 10.584C220.219 9.528 221.911 9 224.023 9H230.863V27H226.831V20.772H224.059L220.531 27H216.139L220.027 20.268ZM226.831 17.604V12.204H223.951C223.015 12.204 222.283 12.444 221.755 12.924C221.227 13.38 220.963 14.028 220.963 14.868C220.963 15.732 221.227 16.404 221.755 16.884C222.283 17.364 223.015 17.604 223.951 17.604H226.831ZM242.104 27.36C240.544 27.36 239.2 27.084 238.072 26.532C236.968 25.98 236.116 25.26 235.516 24.372C234.916 23.46 234.568 22.452 234.472 21.348L234.616 21.096L237.748 20.484C237.94 21.564 238.396 22.44 239.116 23.112C239.86 23.784 240.844 24.12 242.068 24.12C243.148 24.12 243.988 23.868 244.588 23.364C245.212 22.86 245.524 22.236 245.524 21.492C245.524 19.812 244.252 18.972 241.708 18.972H240.556V15.984H241.708C242.788 15.984 243.58 15.84 244.084 15.552C244.612 15.24 244.876 14.724 244.876 14.004C244.876 13.332 244.612 12.804 244.084 12.42C243.58 12.012 242.92 11.808 242.104 11.808C241.048 11.808 240.208 12.072 239.584 12.6C238.96 13.128 238.588 13.788 238.468 14.58L235.264 14.256L235.084 14.076C235.3 12.492 236.044 11.196 237.316 10.188C238.588 9.156 240.208 8.64 242.176 8.64C244.048 8.64 245.584 9.084 246.784 9.972C247.984 10.86 248.584 12.084 248.584 13.644C248.584 15.276 247.912 16.464 246.568 17.208C247.528 17.52 248.248 18.072 248.728 18.864C249.232 19.656 249.484 20.544 249.484 21.528C249.484 22.584 249.172 23.556 248.548 24.444C247.948 25.332 247.084 26.04 245.956 26.568C244.852 27.096 243.568 27.36 242.104 27.36ZM253.163 9H257.267V15.408H262.379C264.299 15.408 265.883 15.888 267.131 16.848C268.379 17.784 269.003 19.236 269.003 21.204C269.003 23.172 268.379 24.636 267.131 25.596C265.883 26.532 264.299 27 262.379 27H253.163V9ZM261.839 23.544C263.879 23.544 264.899 22.764 264.899 21.204C264.899 20.412 264.647 19.824 264.143 19.44C263.663 19.056 262.895 18.864 261.839 18.864H257.267V23.544H261.839Z" fill="#1A1A1A"/>
</svg>
