<svg width="135" height="27" viewBox="0 0 135 27" fill="none" xmlns="http://www.w3.org/2000/svg">
<path d="M13.436 26.36C11.06 26.36 8.9 25.82 6.956 24.74C5.036 23.636 3.512 22.1 2.384 20.132C1.28 18.164 0.728 15.92 0.728 13.4C0.728 10.88 1.28 8.636 2.384 6.668C3.512 4.7 5.036 3.176 6.956 2.096C8.9 0.991999 11.06 0.439999 13.436 0.439999C15.836 0.439999 17.996 0.991999 19.916 2.096C21.86 3.176 23.384 4.7 24.488 6.668C25.616 8.636 26.18 10.88 26.18 13.4C26.18 15.92 25.616 18.164 24.488 20.132C23.384 22.1 21.86 23.636 19.916 24.74C17.996 25.82 15.836 26.36 13.436 26.36ZM13.436 22.328C15.068 22.328 16.496 21.956 17.72 21.212C18.968 20.444 19.928 19.388 20.6 18.044C21.272 16.7 21.608 15.152 21.608 13.4C21.608 11.648 21.272 10.1 20.6 8.756C19.928 7.412 18.968 6.368 17.72 5.624C16.496 4.856 15.068 4.472 13.436 4.472C11.804 4.472 10.364 4.856 9.116 5.624C7.892 6.368 6.944 7.412 6.272 8.756C5.6 10.1 5.264 11.648 5.264 13.4C5.264 15.152 5.6 16.7 6.272 18.044C6.944 19.388 7.892 20.444 9.116 21.212C10.364 21.956 11.804 22.328 13.436 22.328ZM35.5664 11.6H29.4464V8H45.7904V11.6H39.7064V26H35.5664V11.6ZM54.9319 26.36C53.3719 26.36 52.0279 26.084 50.8999 25.532C49.7959 24.98 48.9439 24.26 48.3439 23.372C47.7439 22.46 47.3959 21.452 47.2999 20.348L47.4439 20.096L50.5759 19.484C50.7679 20.564 51.2239 21.44 51.9439 22.112C52.6879 22.784 53.6719 23.12 54.8959 23.12C55.9759 23.12 56.8159 22.868 57.4159 22.364C58.0399 21.86 58.3519 21.236 58.3519 20.492C58.3519 18.812 57.0799 17.972 54.5359 17.972H53.3839V14.984H54.5359C55.6159 14.984 56.4079 14.84 56.9119 14.552C57.4399 14.24 57.7039 13.724 57.7039 13.004C57.7039 12.332 57.4399 11.804 56.9119 11.42C56.4079 11.012 55.7479 10.808 54.9319 10.808C53.8759 10.808 53.0359 11.072 52.4119 11.6C51.7879 12.128 51.4159 12.788 51.2959 13.58L48.0919 13.256L47.9119 13.076C48.1279 11.492 48.8719 10.196 50.1439 9.188C51.4159 8.156 53.0359 7.64 55.0039 7.64C56.8759 7.64 58.4119 8.084 59.6119 8.972C60.8119 9.86 61.4119 11.084 61.4119 12.644C61.4119 14.276 60.7399 15.464 59.3959 16.208C60.3559 16.52 61.0759 17.072 61.5559 17.864C62.0599 18.656 62.3119 19.544 62.3119 20.528C62.3119 21.584 61.9999 22.556 61.3759 23.444C60.7759 24.332 59.9119 25.04 58.7839 25.568C57.6799 26.096 56.3959 26.36 54.9319 26.36ZM65.9915 8H70.0955V14.408H75.2075C77.1275 14.408 78.7115 14.888 79.9595 15.848C81.2075 16.784 81.8315 18.236 81.8315 20.204C81.8315 22.172 81.2075 23.636 79.9595 24.596C78.7115 25.532 77.1275 26 75.2075 26H65.9915V8ZM84.6035 8H88.7075V26H84.6035V8ZM74.6675 22.544C76.7075 22.544 77.7275 21.764 77.7275 20.204C77.7275 19.412 77.4755 18.824 76.9715 18.44C76.4915 18.056 75.7235 17.864 74.6675 17.864H70.0955V22.544H74.6675ZM93.3079 8H102.272C104 8 105.392 8.444 106.448 9.332C107.528 10.196 108.068 11.288 108.068 12.608C108.068 14.312 107.36 15.56 105.944 16.352V16.532C106.856 16.868 107.6 17.396 108.176 18.116C108.752 18.812 109.04 19.676 109.04 20.708C109.04 22.292 108.452 23.576 107.276 24.56C106.1 25.52 104.492 26 102.452 26H93.3079V8ZM102.02 15.164C103.508 15.164 104.252 14.516 104.252 13.22C104.252 11.948 103.508 11.312 102.02 11.312H97.3399V15.164H102.02ZM102.56 22.652C104.144 22.652 104.936 21.956 104.936 20.564C104.936 19.172 104.144 18.476 102.56 18.476H97.3399V22.652H102.56ZM112.152 8H116.256V14.408H121.368C123.288 14.408 124.872 14.888 126.12 15.848C127.368 16.784 127.992 18.236 127.992 20.204C127.992 22.172 127.368 23.636 126.12 24.596C124.872 25.532 123.288 26 121.368 26H112.152V8ZM130.764 8H134.868V26H130.764V8ZM120.828 22.544C122.868 22.544 123.888 21.764 123.888 20.204C123.888 19.412 123.636 18.824 123.132 18.44C122.652 18.056 121.884 17.864 120.828 17.864H116.256V22.544H120.828Z" fill="#1A1A1A"/>
</svg>
