<svg width="443" height="90" viewBox="0 0 443 90" fill="none" xmlns="http://www.w3.org/2000/svg">
<path d="M1.26 1.4H10.53V14H8.802V2.984H2.988V14H1.26V1.4ZM17.1409 14.18C16.2409 14.18 15.4369 13.982 14.7289 13.586C14.0329 13.178 13.4869 12.62 13.0909 11.912C12.7069 11.192 12.5149 10.388 12.5149 9.5C12.5149 8.612 12.7069 7.814 13.0909 7.106C13.4869 6.386 14.0329 5.828 14.7289 5.432C15.4369 5.024 16.2409 4.82 17.1409 4.82C18.0409 4.82 18.8389 5.024 19.5349 5.432C20.2429 5.828 20.7889 6.386 21.1729 7.106C21.5689 7.814 21.7669 8.612 21.7669 9.5C21.7669 10.388 21.5689 11.192 21.1729 11.912C20.7889 12.62 20.2429 13.178 19.5349 13.586C18.8389 13.982 18.0409 14.18 17.1409 14.18ZM17.1409 12.74C18.0289 12.74 18.7549 12.458 19.3189 11.894C19.8949 11.33 20.1829 10.532 20.1829 9.5C20.1829 8.468 19.8949 7.67 19.3189 7.106C18.7549 6.542 18.0289 6.26 17.1409 6.26C16.2529 6.26 15.5209 6.542 14.9449 7.106C14.3809 7.67 14.0989 8.468 14.0989 9.5C14.0989 10.532 14.3809 11.33 14.9449 11.894C15.5209 12.458 16.2529 12.74 17.1409 12.74ZM23.6704 5H29.3044V6.44H25.2544V14H23.6704V5ZM34.9827 14.18C34.0827 14.18 33.2787 13.982 32.5707 13.586C31.8747 13.178 31.3287 12.62 30.9327 11.912C30.5487 11.192 30.3567 10.388 30.3567 9.5C30.3567 8.612 30.5487 7.814 30.9327 7.106C31.3287 6.386 31.8747 5.828 32.5707 5.432C33.2787 5.024 34.0827 4.82 34.9827 4.82C35.8827 4.82 36.6807 5.024 37.3767 5.432C38.0847 5.828 38.6307 6.386 39.0147 7.106C39.4107 7.814 39.6087 8.612 39.6087 9.5C39.6087 10.388 39.4107 11.192 39.0147 11.912C38.6307 12.62 38.0847 13.178 37.3767 13.586C36.6807 13.982 35.8827 14.18 34.9827 14.18ZM34.9827 12.74C35.8707 12.74 36.5967 12.458 37.1607 11.894C37.7367 11.33 38.0247 10.532 38.0247 9.5C38.0247 8.468 37.7367 7.67 37.1607 7.106C36.5967 6.542 35.8707 6.26 34.9827 6.26C34.0947 6.26 33.3627 6.542 32.7867 7.106C32.2227 7.67 31.9407 8.468 31.9407 9.5C31.9407 10.532 32.2227 11.33 32.7867 11.894C33.3627 12.458 34.0947 12.74 34.9827 12.74ZM41.5122 5H45.6162C46.4682 5 47.1522 5.216 47.6682 5.648C48.1962 6.068 48.4602 6.602 48.4602 7.25C48.4602 8.09 48.0942 8.732 47.3622 9.176V9.266C47.8182 9.41 48.1962 9.668 48.4962 10.04C48.8082 10.412 48.9642 10.862 48.9642 11.39C48.9642 12.17 48.6762 12.8 48.1002 13.28C47.5362 13.76 46.7622 14 45.7782 14H41.5122V5ZM45.6342 8.654C46.5102 8.654 46.9482 8.282 46.9482 7.538C46.9482 6.806 46.5102 6.44 45.6342 6.44H43.0962V8.654H45.6342ZM45.9762 12.56C46.9122 12.56 47.3802 12.146 47.3802 11.318C47.3802 10.502 46.9122 10.094 45.9762 10.094H43.0962V12.56H45.9762ZM54.7405 14.18C53.8405 14.18 53.0365 13.982 52.3285 13.586C51.6325 13.178 51.0865 12.62 50.6905 11.912C50.3065 11.192 50.1145 10.388 50.1145 9.5C50.1145 8.612 50.3065 7.814 50.6905 7.106C51.0865 6.386 51.6325 5.828 52.3285 5.432C53.0365 5.024 53.8405 4.82 54.7405 4.82C55.6405 4.82 56.4385 5.024 57.1345 5.432C57.8425 5.828 58.3885 6.386 58.7725 7.106C59.1685 7.814 59.3665 8.612 59.3665 9.5C59.3665 10.388 59.1685 11.192 58.7725 11.912C58.3885 12.62 57.8425 13.178 57.1345 13.586C56.4385 13.982 55.6405 14.18 54.7405 14.18ZM54.7405 12.74C55.6285 12.74 56.3545 12.458 56.9185 11.894C57.4945 11.33 57.7825 10.532 57.7825 9.5C57.7825 8.468 57.4945 7.67 56.9185 7.106C56.3545 6.542 55.6285 6.26 54.7405 6.26C53.8525 6.26 53.1205 6.542 52.5445 7.106C51.9805 7.67 51.6985 8.468 51.6985 9.5C51.6985 10.532 51.9805 11.33 52.5445 11.894C53.1205 12.458 53.8525 12.74 54.7405 12.74ZM61.27 5H62.854V5.99C63.166 5.666 63.562 5.39 64.042 5.162C64.522 4.934 65.08 4.82 65.716 4.82C66.46 4.82 67.144 5.012 67.768 5.396C68.404 5.78 68.908 6.326 69.28 7.034C69.652 7.742 69.838 8.564 69.838 9.5C69.838 10.436 69.664 11.258 69.316 11.966C68.968 12.674 68.482 13.22 67.858 13.604C67.234 13.988 66.532 14.18 65.752 14.18C65.176 14.18 64.63 14.084 64.114 13.892C63.61 13.688 63.19 13.406 62.854 13.046V17.6H61.27V5ZM65.464 12.74C66.28 12.74 66.946 12.47 67.462 11.93C67.99 11.39 68.254 10.58 68.254 9.5C68.254 8.42 67.99 7.61 67.462 7.07C66.946 6.53 66.28 6.26 65.464 6.26C64.996 6.26 64.558 6.368 64.15 6.584C63.754 6.8 63.436 7.088 63.196 7.448C62.968 7.808 62.854 8.198 62.854 8.618V10.346C62.854 10.766 62.974 11.162 63.214 11.534C63.454 11.894 63.772 12.188 64.168 12.416C64.564 12.632 64.996 12.74 65.464 12.74ZM71.7466 5H73.2946V11.66L77.9926 5H79.5766V14H78.0286V7.25L73.3306 14H71.7466V5ZM84.4837 6.44H81.4237V5H89.1277V6.44H86.0677V14H84.4837V6.44ZM94.3386 14.18C93.4386 14.18 92.6586 13.988 91.9986 13.604C91.3386 13.208 90.8286 12.662 90.4686 11.966C90.1206 11.258 89.9466 10.436 89.9466 9.5C89.9466 8.588 90.1446 7.778 90.5406 7.07C90.9366 6.362 91.4706 5.81 92.1426 5.414C92.8146 5.018 93.5466 4.82 94.3386 4.82C95.1426 4.82 95.8626 5.006 96.4986 5.378C97.1466 5.738 97.6506 6.26 98.0106 6.944C98.3826 7.628 98.5686 8.444 98.5686 9.392V10.004H91.5486C91.5726 10.856 91.8366 11.528 92.3406 12.02C92.8566 12.5 93.5286 12.74 94.3566 12.74C95.0406 12.74 95.6106 12.578 96.0666 12.254C96.5226 11.918 96.8346 11.474 97.0026 10.922H98.4786C98.2266 11.942 97.7466 12.74 97.0386 13.316C96.3306 13.892 95.4306 14.18 94.3386 14.18ZM97.0746 8.636C97.0146 7.88 96.7266 7.298 96.2106 6.89C95.7066 6.47 95.0826 6.26 94.3386 6.26C93.6186 6.26 93.0066 6.47 92.5026 6.89C91.9986 7.31 91.6866 7.892 91.5666 8.636H97.0746ZM108.175 14.18C107.323 14.18 106.555 13.988 105.871 13.604C105.187 13.208 104.647 12.656 104.251 11.948C103.867 11.24 103.675 10.424 103.675 9.5C103.675 8.576 103.867 7.76 104.251 7.052C104.647 6.344 105.187 5.798 105.871 5.414C106.555 5.018 107.323 4.82 108.175 4.82C109.339 4.82 110.299 5.126 111.055 5.738C111.811 6.338 112.267 7.178 112.423 8.258H110.929C110.785 7.622 110.479 7.13 110.011 6.782C109.543 6.434 108.937 6.26 108.193 6.26C107.329 6.26 106.621 6.554 106.069 7.142C105.529 7.718 105.259 8.504 105.259 9.5C105.259 10.496 105.529 11.288 106.069 11.876C106.621 12.452 107.329 12.74 108.193 12.74C108.937 12.74 109.543 12.566 110.011 12.218C110.479 11.87 110.785 11.378 110.929 10.742H112.423C112.267 11.822 111.811 12.668 111.055 13.28C110.299 13.88 109.339 14.18 108.175 14.18ZM122.276 14.18C121.376 14.18 120.572 13.982 119.864 13.586C119.168 13.178 118.622 12.62 118.226 11.912C117.842 11.192 117.65 10.388 117.65 9.5C117.65 8.612 117.842 7.814 118.226 7.106C118.622 6.386 119.168 5.828 119.864 5.432C120.572 5.024 121.376 4.82 122.276 4.82C123.176 4.82 123.974 5.024 124.67 5.432C125.378 5.828 125.924 6.386 126.308 7.106C126.704 7.814 126.902 8.612 126.902 9.5C126.902 10.388 126.704 11.192 126.308 11.912C125.924 12.62 125.378 13.178 124.67 13.586C123.974 13.982 123.176 14.18 122.276 14.18ZM122.276 12.74C123.164 12.74 123.89 12.458 124.454 11.894C125.03 11.33 125.318 10.532 125.318 9.5C125.318 8.468 125.03 7.67 124.454 7.106C123.89 6.542 123.164 6.26 122.276 6.26C121.388 6.26 120.656 6.542 120.08 7.106C119.516 7.67 119.234 8.468 119.234 9.5C119.234 10.532 119.516 11.33 120.08 11.894C120.656 12.458 121.388 12.74 122.276 12.74ZM137.665 12.56V15.998H136.153V14H129.133V15.998H127.621V12.56H128.845C129.109 11.384 129.271 10.238 129.331 9.122C129.403 7.994 129.439 6.62 129.439 5H136.495V12.56H137.665ZM134.911 12.56V6.44H130.897C130.873 7.688 130.825 8.792 130.753 9.752C130.693 10.7 130.567 11.636 130.375 12.56H134.911ZM139.756 5H141.34V8.78H145.876V5H147.46V14H145.876V10.22H141.34V14H139.756V5ZM149.829 5H151.377V11.66L156.075 5H157.659V14H156.111V7.25L151.413 14H149.829V5ZM160.042 5H161.662L164.866 12.128L168.07 5H169.672V14H168.16V8.168L165.604 14H164.11L161.554 8.168V14H160.042V5ZM175.827 5H177.375V11.66L182.073 5H183.657V14H182.109V7.25L177.411 14H175.827V5ZM189.244 14.18C188.068 14.18 187.168 13.874 186.544 13.262C185.92 12.638 185.596 11.858 185.572 10.922H187.048C187.096 11.498 187.3 11.966 187.66 12.326C188.032 12.686 188.56 12.866 189.244 12.866C189.856 12.866 190.33 12.716 190.666 12.416C191.014 12.116 191.188 11.75 191.188 11.318C191.188 10.358 190.456 9.878 188.992 9.878H188.524V8.528H188.992C189.592 8.528 190.042 8.45 190.342 8.294C190.654 8.126 190.81 7.826 190.81 7.394C190.81 7.022 190.666 6.722 190.378 6.494C190.09 6.254 189.718 6.134 189.262 6.134C188.686 6.134 188.224 6.278 187.876 6.566C187.54 6.854 187.348 7.208 187.3 7.628H185.86C185.92 6.824 186.256 6.158 186.868 5.63C187.48 5.09 188.278 4.82 189.262 4.82C190.114 4.82 190.834 5.036 191.422 5.468C192.022 5.9 192.322 6.5 192.322 7.268C192.322 7.712 192.22 8.09 192.016 8.402C191.824 8.702 191.572 8.936 191.26 9.104C191.764 9.248 192.142 9.53 192.394 9.95C192.646 10.358 192.772 10.814 192.772 11.318C192.772 11.822 192.622 12.296 192.322 12.74C192.034 13.172 191.62 13.52 191.08 13.784C190.552 14.048 189.94 14.18 189.244 14.18ZM198.467 5H200.051V8.78H204.587V5H206.171V14H204.587V10.22H200.051V14H198.467V5ZM210.97 14.18C210.118 14.18 209.428 13.946 208.9 13.478C208.372 12.998 208.108 12.362 208.108 11.57C208.108 10.73 208.396 10.07 208.972 9.59C209.548 9.11 210.274 8.828 211.15 8.744L213.958 8.456V7.844C213.958 7.328 213.772 6.938 213.4 6.674C213.04 6.398 212.56 6.26 211.96 6.26C211.456 6.26 211.03 6.38 210.682 6.62C210.346 6.86 210.118 7.226 209.998 7.718H208.504C208.636 6.77 209.038 6.05 209.71 5.558C210.394 5.066 211.18 4.82 212.068 4.82C213.124 4.82 213.964 5.084 214.588 5.612C215.224 6.128 215.542 6.812 215.542 7.664V11.876C215.542 12.176 215.608 12.41 215.74 12.578C215.872 12.734 216.07 12.812 216.334 12.812C216.49 12.812 216.646 12.788 216.802 12.74V13.928C216.442 14.048 216.106 14.108 215.794 14.108C214.822 14.108 214.228 13.64 214.012 12.704C213.664 13.1 213.214 13.448 212.662 13.748C212.11 14.036 211.546 14.18 210.97 14.18ZM211.15 12.74C212.086 12.74 213.022 12.272 213.958 11.336V9.716L211.258 10.022C210.754 10.082 210.364 10.25 210.088 10.526C209.824 10.79 209.692 11.114 209.692 11.498C209.692 11.906 209.824 12.218 210.088 12.434C210.364 12.638 210.718 12.74 211.15 12.74ZM218.524 5H220.108V12.56H223.384V5H224.968V12.56H228.244V5H229.828V14H218.524V5ZM232.2 5H233.748V11.66L238.446 5H240.03V14H238.482V7.25L233.784 14H232.2V5ZM244.699 9.032L241.927 5H243.691L245.617 7.862L247.543 5H249.307L246.535 9.032L249.721 14H247.957L245.617 10.256L243.277 14H241.513L244.699 9.032ZM259.013 14.18C258.161 14.18 257.393 13.988 256.709 13.604C256.025 13.208 255.485 12.656 255.089 11.948C254.705 11.24 254.513 10.424 254.513 9.5C254.513 8.576 254.705 7.76 255.089 7.052C255.485 6.344 256.025 5.798 256.709 5.414C257.393 5.018 258.161 4.82 259.013 4.82C260.177 4.82 261.137 5.126 261.893 5.738C262.649 6.338 263.105 7.178 263.261 8.258H261.767C261.623 7.622 261.317 7.13 260.849 6.782C260.381 6.434 259.775 6.26 259.031 6.26C258.167 6.26 257.459 6.554 256.907 7.142C256.367 7.718 256.097 8.504 256.097 9.5C256.097 10.496 256.367 11.288 256.907 11.876C257.459 12.452 258.167 12.74 259.031 12.74C259.775 12.74 260.381 12.566 260.849 12.218C261.317 11.87 261.623 11.378 261.767 10.742H263.261C263.105 11.822 262.649 12.668 261.893 13.28C261.137 13.88 260.177 14.18 259.013 14.18ZM269.334 14.18C268.434 14.18 267.63 13.982 266.922 13.586C266.226 13.178 265.68 12.62 265.284 11.912C264.9 11.192 264.708 10.388 264.708 9.5C264.708 8.612 264.9 7.814 265.284 7.106C265.68 6.386 266.226 5.828 266.922 5.432C267.63 5.024 268.434 4.82 269.334 4.82C270.234 4.82 271.032 5.024 271.728 5.432C272.436 5.828 272.982 6.386 273.366 7.106C273.762 7.814 273.96 8.612 273.96 9.5C273.96 10.388 273.762 11.192 273.366 11.912C272.982 12.62 272.436 13.178 271.728 13.586C271.032 13.982 270.234 14.18 269.334 14.18ZM269.334 12.74C270.222 12.74 270.948 12.458 271.512 11.894C272.088 11.33 272.376 10.532 272.376 9.5C272.376 8.468 272.088 7.67 271.512 7.106C270.948 6.542 270.222 6.26 269.334 6.26C268.446 6.26 267.714 6.542 267.138 7.106C266.574 7.67 266.292 8.468 266.292 9.5C266.292 10.532 266.574 11.33 267.138 11.894C267.714 12.458 268.446 12.74 269.334 12.74ZM277.843 6.44H274.783V5H282.487V6.44H279.427V14H277.843V6.44ZM284.495 5H286.079V5.99C286.391 5.666 286.787 5.39 287.267 5.162C287.747 4.934 288.305 4.82 288.941 4.82C289.685 4.82 290.369 5.012 290.993 5.396C291.629 5.78 292.133 6.326 292.505 7.034C292.877 7.742 293.063 8.564 293.063 9.5C293.063 10.436 292.889 11.258 292.541 11.966C292.193 12.674 291.707 13.22 291.083 13.604C290.459 13.988 289.757 14.18 288.977 14.18C288.401 14.18 287.855 14.084 287.339 13.892C286.835 13.688 286.415 13.406 286.079 13.046V17.6H284.495V5ZM288.689 12.74C289.505 12.74 290.171 12.47 290.687 11.93C291.215 11.39 291.479 10.58 291.479 9.5C291.479 8.42 291.215 7.61 290.687 7.07C290.171 6.53 289.505 6.26 288.689 6.26C288.221 6.26 287.783 6.368 287.375 6.584C286.979 6.8 286.661 7.088 286.421 7.448C286.193 7.808 286.079 8.198 286.079 8.618V10.346C286.079 10.766 286.199 11.162 286.439 11.534C286.679 11.894 286.997 12.188 287.393 12.416C287.789 12.632 288.221 12.74 288.689 12.74ZM297.339 13.604L293.775 5H295.431L297.843 10.742L298.077 11.84L300.705 5H302.307L297.303 17.6H295.737L297.339 13.604ZM312.813 12.56V15.998H311.301V14H304.281V15.998H302.769V12.56H303.993C304.257 11.384 304.419 10.238 304.479 9.122C304.551 7.994 304.587 6.62 304.587 5H311.643V12.56H312.813ZM310.059 12.56V6.44H306.045C306.021 7.688 305.973 8.792 305.901 9.752C305.841 10.7 305.715 11.636 305.523 12.56H310.059ZM314.905 5H316.489V8.78H321.025V5H322.609V14H321.025V10.22H316.489V14H314.905V5ZM324.977 5H326.525V11.66L331.223 5H332.807V14H331.259V7.25L326.561 14H324.977V5ZM335.19 5H336.774V8.24L339.96 5H342.012L338.034 9.014L342.39 14H340.374L336.774 9.968V14H335.19V5ZM347.381 14.18C346.481 14.18 345.677 13.982 344.969 13.586C344.273 13.178 343.727 12.62 343.331 11.912C342.947 11.192 342.755 10.388 342.755 9.5C342.755 8.612 342.947 7.814 343.331 7.106C343.727 6.386 344.273 5.828 344.969 5.432C345.677 5.024 346.481 4.82 347.381 4.82C348.281 4.82 349.079 5.024 349.775 5.432C350.483 5.828 351.029 6.386 351.413 7.106C351.809 7.814 352.007 8.612 352.007 9.5C352.007 10.388 351.809 11.192 351.413 11.912C351.029 12.62 350.483 13.178 349.775 13.586C349.079 13.982 348.281 14.18 347.381 14.18ZM347.381 12.74C348.269 12.74 348.995 12.458 349.559 11.894C350.135 11.33 350.423 10.532 350.423 9.5C350.423 8.468 350.135 7.67 349.559 7.106C348.995 6.542 348.269 6.26 347.381 6.26C346.493 6.26 345.761 6.542 345.185 7.106C344.621 7.67 344.339 8.468 344.339 9.5C344.339 10.532 344.621 11.33 345.185 11.894C345.761 12.458 346.493 12.74 347.381 12.74ZM353.911 5H358.015C358.867 5 359.551 5.216 360.067 5.648C360.595 6.068 360.859 6.602 360.859 7.25C360.859 8.09 360.493 8.732 359.761 9.176V9.266C360.217 9.41 360.595 9.668 360.895 10.04C361.207 10.412 361.363 10.862 361.363 11.39C361.363 12.17 361.075 12.8 360.499 13.28C359.935 13.76 359.161 14 358.177 14H353.911V5ZM358.033 8.654C358.909 8.654 359.347 8.282 359.347 7.538C359.347 6.806 358.909 6.44 358.033 6.44H355.495V8.654H358.033ZM358.375 12.56C359.311 12.56 359.779 12.146 359.779 11.318C359.779 10.502 359.311 10.094 358.375 10.094H355.495V12.56H358.375ZM362.657 16.052C363.065 15.68 363.377 15.338 363.593 15.026C363.809 14.726 363.929 14.384 363.953 14C363.569 14 363.263 13.874 363.035 13.622C362.807 13.358 362.693 13.064 362.693 12.74C362.693 12.368 362.813 12.056 363.053 11.804C363.305 11.54 363.617 11.408 363.989 11.408C364.373 11.408 364.685 11.54 364.925 11.804C365.165 12.056 365.285 12.374 365.285 12.758C365.285 13.502 365.099 14.162 364.727 14.738C364.355 15.314 363.791 15.872 363.035 16.412L362.657 16.052ZM377.203 10.22C376.339 10.58 375.547 10.76 374.827 10.76C373.735 10.76 372.835 10.502 372.127 9.986C371.431 9.458 371.083 8.576 371.083 7.34V5H372.667V7.196C372.667 7.964 372.877 8.51 373.297 8.834C373.729 9.158 374.275 9.32 374.935 9.32C375.715 9.32 376.471 9.122 377.203 8.726V5H378.787V14H377.203V10.22ZM383.681 6.44H380.621V5H388.325V6.44H385.265V14H383.681V6.44ZM393.77 14.18C392.87 14.18 392.066 13.982 391.358 13.586C390.662 13.178 390.116 12.62 389.72 11.912C389.336 11.192 389.144 10.388 389.144 9.5C389.144 8.612 389.336 7.814 389.72 7.106C390.116 6.386 390.662 5.828 391.358 5.432C392.066 5.024 392.87 4.82 393.77 4.82C394.67 4.82 395.468 5.024 396.164 5.432C396.872 5.828 397.418 6.386 397.802 7.106C398.198 7.814 398.396 8.612 398.396 9.5C398.396 10.388 398.198 11.192 397.802 11.912C397.418 12.62 396.872 13.178 396.164 13.586C395.468 13.982 394.67 14.18 393.77 14.18ZM393.77 12.74C394.658 12.74 395.384 12.458 395.948 11.894C396.524 11.33 396.812 10.532 396.812 9.5C396.812 8.468 396.524 7.67 395.948 7.106C395.384 6.542 394.658 6.26 393.77 6.26C392.882 6.26 392.15 6.542 391.574 7.106C391.01 7.67 390.728 8.468 390.728 9.5C390.728 10.532 391.01 11.33 391.574 11.894C392.15 12.458 392.882 12.74 393.77 12.74ZM404.817 14.18C404.025 14.18 403.263 14.012 402.531 13.676C401.811 13.34 401.211 12.752 400.731 11.912C400.251 11.072 400.011 9.95 400.011 8.546C400.011 6.194 400.431 4.418 401.271 3.218C402.111 2.006 403.449 1.4 405.285 1.4H406.059C406.443 1.4 406.725 1.352 406.905 1.256C407.085 1.16 407.211 0.968 407.283 0.68H408.723C408.687 1.292 408.429 1.808 407.949 2.228C407.481 2.636 406.755 2.84 405.771 2.84H405.087C403.899 2.84 402.999 3.194 402.387 3.902C401.787 4.598 401.415 5.642 401.271 7.034C401.691 6.254 402.219 5.69 402.855 5.342C403.491 4.994 404.169 4.82 404.889 4.82C405.669 4.82 406.389 5.006 407.049 5.378C407.709 5.75 408.237 6.29 408.633 6.998C409.029 7.694 409.227 8.528 409.227 9.5C409.227 10.46 409.017 11.294 408.597 12.002C408.189 12.71 407.643 13.25 406.959 13.622C406.287 13.994 405.573 14.18 404.817 14.18ZM404.673 12.74C405.177 12.74 405.651 12.632 406.095 12.416C406.551 12.188 406.923 11.834 407.211 11.354C407.499 10.862 407.643 10.25 407.643 9.518C407.643 8.762 407.493 8.138 407.193 7.646C406.905 7.154 406.527 6.8 406.059 6.584C405.603 6.356 405.111 6.242 404.583 6.242C404.079 6.242 403.599 6.356 403.143 6.584C402.699 6.8 402.333 7.154 402.045 7.646C401.757 8.126 401.613 8.732 401.613 9.464C401.613 10.22 401.757 10.844 402.045 11.336C402.345 11.828 402.723 12.188 403.179 12.416C403.647 12.632 404.145 12.74 404.673 12.74ZM411.127 5H412.711V8.42H415.465C416.341 8.42 417.091 8.636 417.715 9.068C418.339 9.5 418.651 10.214 418.651 11.21C418.651 12.206 418.339 12.92 417.715 13.352C417.091 13.784 416.341 14 415.465 14H411.127V5ZM420.127 5H421.711V14H420.127V5ZM415.285 12.56C415.897 12.56 416.347 12.452 416.635 12.236C416.923 12.02 417.067 11.678 417.067 11.21C417.067 10.742 416.923 10.4 416.635 10.184C416.347 9.968 415.897 9.86 415.285 9.86H412.711V12.56H415.285ZM3.96 37.604L0.396 29H2.052L4.464 34.742L4.698 35.84L7.326 29H8.928L3.924 41.6H2.358L3.96 37.604ZM13.4272 38.18C12.2512 38.18 11.3512 37.874 10.7272 37.262C10.1032 36.638 9.77916 35.858 9.75516 34.922H11.2312C11.2792 35.498 11.4832 35.966 11.8432 36.326C12.2152 36.686 12.7432 36.866 13.4272 36.866C14.0392 36.866 14.5132 36.716 14.8492 36.416C15.1972 36.116 15.3712 35.75 15.3712 35.318C15.3712 34.358 14.6392 33.878 13.1752 33.878H12.7072V32.528H13.1752C13.7752 32.528 14.2252 32.45 14.5252 32.294C14.8372 32.126 14.9932 31.826 14.9932 31.394C14.9932 31.022 14.8492 30.722 14.5612 30.494C14.2732 30.254 13.9012 30.134 13.4452 30.134C12.8692 30.134 12.4072 30.278 12.0592 30.566C11.7232 30.854 11.5312 31.208 11.4832 31.628H10.0432C10.1032 30.824 10.4392 30.158 11.0512 29.63C11.6632 29.09 12.4612 28.82 13.4452 28.82C14.2972 28.82 15.0172 29.036 15.6052 29.468C16.2052 29.9 16.5052 30.5 16.5052 31.268C16.5052 31.712 16.4032 32.09 16.1992 32.402C16.0072 32.702 15.7552 32.936 15.4432 33.104C15.9472 33.248 16.3252 33.53 16.5772 33.95C16.8292 34.358 16.9552 34.814 16.9552 35.318C16.9552 35.822 16.8052 36.296 16.5052 36.74C16.2172 37.172 15.8032 37.52 15.2632 37.784C14.7352 38.048 14.1232 38.18 13.4272 38.18ZM18.8716 29H20.4556V32.78H24.9916V29H26.5756V38H24.9916V34.22H20.4556V38H18.8716V29ZM31.3739 38.18C30.5219 38.18 29.8319 37.946 29.3039 37.478C28.7759 36.998 28.5119 36.362 28.5119 35.57C28.5119 34.73 28.7999 34.07 29.3759 33.59C29.9519 33.11 30.6779 32.828 31.5539 32.744L34.3619 32.456V31.844C34.3619 31.328 34.1759 30.938 33.8039 30.674C33.4439 30.398 32.9639 30.26 32.3639 30.26C31.8599 30.26 31.4339 30.38 31.0859 30.62C30.7499 30.86 30.5219 31.226 30.4019 31.718H28.9079C29.0399 30.77 29.4419 30.05 30.1139 29.558C30.7979 29.066 31.5839 28.82 32.4719 28.82C33.5279 28.82 34.3679 29.084 34.9919 29.612C35.6279 30.128 35.9459 30.812 35.9459 31.664V35.876C35.9459 36.176 36.0119 36.41 36.1439 36.578C36.2759 36.734 36.4739 36.812 36.7379 36.812C36.8939 36.812 37.0499 36.788 37.2059 36.74V37.928C36.8459 38.048 36.5099 38.108 36.1979 38.108C35.2259 38.108 34.6319 37.64 34.4159 36.704C34.0679 37.1 33.6179 37.448 33.0659 37.748C32.5139 38.036 31.9499 38.18 31.3739 38.18ZM31.5539 36.74C32.4899 36.74 33.4259 36.272 34.3619 35.336V33.716L31.6619 34.022C31.1579 34.082 30.7679 34.25 30.4919 34.526C30.2279 34.79 30.0959 35.114 30.0959 35.498C30.0959 35.906 30.2279 36.218 30.4919 36.434C30.7679 36.638 31.1219 36.74 31.5539 36.74ZM40.556 30.44H37.496V29H45.2V30.44H42.14V38H40.556V30.44ZM47.0317 29H48.6158V32.42H51.3698C52.2458 32.42 52.9958 32.636 53.6198 33.068C54.2438 33.5 54.5558 34.214 54.5558 35.21C54.5558 36.206 54.2438 36.92 53.6198 37.352C52.9958 37.784 52.2458 38 51.3698 38H47.0317V29ZM51.1898 36.56C51.8018 36.56 52.2518 36.452 52.5398 36.236C52.8278 36.02 52.9718 35.678 52.9718 35.21C52.9718 34.742 52.8278 34.4 52.5398 34.184C52.2518 33.968 51.8018 33.86 51.1898 33.86H48.6158V36.56H51.1898ZM56.1472 40.052C56.5552 39.68 56.8672 39.338 57.0832 39.026C57.2992 38.726 57.4192 38.384 57.4432 38C57.0592 38 56.7532 37.874 56.5252 37.622C56.2972 37.358 56.1832 37.064 56.1832 36.74C56.1832 36.368 56.3032 36.056 56.5432 35.804C56.7952 35.54 57.1072 35.408 57.4792 35.408C57.8632 35.408 58.1752 35.54 58.4152 35.804C58.6552 36.056 58.7752 36.374 58.7752 36.758C58.7752 37.502 58.5892 38.162 58.2172 38.738C57.8452 39.314 57.2812 39.872 56.5252 40.412L56.1472 40.052ZM68.677 38.18C67.825 38.18 67.057 37.988 66.373 37.604C65.689 37.208 65.149 36.656 64.753 35.948C64.369 35.24 64.177 34.424 64.177 33.5C64.177 32.576 64.369 31.76 64.753 31.052C65.149 30.344 65.689 29.798 66.373 29.414C67.057 29.018 67.825 28.82 68.677 28.82C69.841 28.82 70.801 29.126 71.557 29.738C72.313 30.338 72.769 31.178 72.925 32.258H71.431C71.287 31.622 70.981 31.13 70.513 30.782C70.045 30.434 69.439 30.26 68.695 30.26C67.831 30.26 67.123 30.554 66.571 31.142C66.031 31.718 65.761 32.504 65.761 33.5C65.761 34.496 66.031 35.288 66.571 35.876C67.123 36.452 67.831 36.74 68.695 36.74C69.439 36.74 70.045 36.566 70.513 36.218C70.981 35.87 71.287 35.378 71.431 34.742H72.925C72.769 35.822 72.313 36.668 71.557 37.28C70.801 37.88 69.841 38.18 68.677 38.18ZM74.8403 29H76.4243V32.24L79.6103 29H81.6623L77.6843 33.014L82.0403 38H80.0243L76.4243 33.968V38H74.8403V29ZM87.0315 38.18C86.1315 38.18 85.3275 37.982 84.6195 37.586C83.9235 37.178 83.3775 36.62 82.9815 35.912C82.5975 35.192 82.4055 34.388 82.4055 33.5C82.4055 32.612 82.5975 31.814 82.9815 31.106C83.3775 30.386 83.9235 29.828 84.6195 29.432C85.3275 29.024 86.1315 28.82 87.0315 28.82C87.9315 28.82 88.7295 29.024 89.4255 29.432C90.1335 29.828 90.6795 30.386 91.0635 31.106C91.4595 31.814 91.6575 32.612 91.6575 33.5C91.6575 34.388 91.4595 35.192 91.0635 35.912C90.6795 36.62 90.1335 37.178 89.4255 37.586C88.7295 37.982 87.9315 38.18 87.0315 38.18ZM87.0315 36.74C87.9195 36.74 88.6455 36.458 89.2095 35.894C89.7855 35.33 90.0735 34.532 90.0735 33.5C90.0735 32.468 89.7855 31.67 89.2095 31.106C88.6455 30.542 87.9195 30.26 87.0315 30.26C86.1435 30.26 85.4115 30.542 84.8355 31.106C84.2715 31.67 83.9895 32.468 83.9895 33.5C83.9895 34.532 84.2715 35.33 84.8355 35.894C85.4115 36.458 86.1435 36.74 87.0315 36.74ZM93.5364 38.18C93.1164 38.18 92.7144 38.06 92.3304 37.82V36.326C92.6904 36.518 92.9844 36.614 93.2124 36.614C93.4164 36.614 93.5724 36.542 93.6804 36.398C93.8004 36.254 93.8964 36.014 93.9684 35.678C94.0524 35.33 94.1304 34.814 94.2024 34.13L94.7604 29H101.132V38H99.5484V30.44H96.1824L95.7684 34.184C95.6604 35.18 95.5164 35.966 95.3364 36.542C95.1684 37.118 94.9404 37.538 94.6524 37.802C94.3644 38.054 93.9924 38.18 93.5364 38.18ZM103.51 29H105.094V32.42H107.848C108.724 32.42 109.474 32.636 110.098 33.068C110.722 33.5 111.034 34.214 111.034 35.21C111.034 36.206 110.722 36.92 110.098 37.352C109.474 37.784 108.724 38 107.848 38H103.51V29ZM107.668 36.56C108.28 36.56 108.73 36.452 109.018 36.236C109.306 36.02 109.45 35.678 109.45 35.21C109.45 34.742 109.306 34.4 109.018 34.184C108.73 33.968 108.28 33.86 107.668 33.86H105.094V36.56H107.668ZM112.95 29H114.534V32.24L117.72 29H119.772L115.794 33.014L120.15 38H118.134L114.534 33.968V38H112.95V29ZM125.141 38.18C124.241 38.18 123.437 37.982 122.729 37.586C122.033 37.178 121.487 36.62 121.091 35.912C120.707 35.192 120.515 34.388 120.515 33.5C120.515 32.612 120.707 31.814 121.091 31.106C121.487 30.386 122.033 29.828 122.729 29.432C123.437 29.024 124.241 28.82 125.141 28.82C126.041 28.82 126.839 29.024 127.535 29.432C128.243 29.828 128.789 30.386 129.173 31.106C129.569 31.814 129.767 32.612 129.767 33.5C129.767 34.388 129.569 35.192 129.173 35.912C128.789 36.62 128.243 37.178 127.535 37.586C126.839 37.982 126.041 38.18 125.141 38.18ZM125.141 36.74C126.029 36.74 126.755 36.458 127.319 35.894C127.895 35.33 128.183 34.532 128.183 33.5C128.183 32.468 127.895 31.67 127.319 31.106C126.755 30.542 126.029 30.26 125.141 30.26C124.253 30.26 123.521 30.542 122.945 31.106C122.381 31.67 122.099 32.468 122.099 33.5C122.099 34.532 122.381 35.33 122.945 35.894C123.521 36.458 124.253 36.74 125.141 36.74ZM135.45 29H137.07L140.274 36.128L143.478 29H145.08V38H143.568V32.168L141.012 38H139.518L136.962 32.168V38H135.45V29ZM147.456 29H149.04V32.42H151.794C152.67 32.42 153.42 32.636 154.044 33.068C154.668 33.5 154.98 34.214 154.98 35.21C154.98 36.206 154.668 36.92 154.044 37.352C153.42 37.784 152.67 38 151.794 38H147.456V29ZM156.456 29H158.04V38H156.456V29ZM151.614 36.56C152.226 36.56 152.676 36.452 152.964 36.236C153.252 36.02 153.396 35.678 153.396 35.21C153.396 34.742 153.252 34.4 152.964 34.184C152.676 33.968 152.226 33.86 151.614 33.86H149.04V36.56H151.614ZM164.19 29H165.81L169.014 36.128L172.218 29H173.82V38H172.308V32.168L169.752 38H168.258L165.702 32.168V38H164.19V29ZM180.354 38.18C179.454 38.18 178.65 37.982 177.942 37.586C177.246 37.178 176.7 36.62 176.304 35.912C175.92 35.192 175.728 34.388 175.728 33.5C175.728 32.612 175.92 31.814 176.304 31.106C176.7 30.386 177.246 29.828 177.942 29.432C178.65 29.024 179.454 28.82 180.354 28.82C181.254 28.82 182.052 29.024 182.748 29.432C183.456 29.828 184.002 30.386 184.386 31.106C184.782 31.814 184.98 32.612 184.98 33.5C184.98 34.388 184.782 35.192 184.386 35.912C184.002 36.62 183.456 37.178 182.748 37.586C182.052 37.982 181.254 38.18 180.354 38.18ZM180.354 36.74C181.242 36.74 181.968 36.458 182.532 35.894C183.108 35.33 183.396 34.532 183.396 33.5C183.396 32.468 183.108 31.67 182.532 31.106C181.968 30.542 181.242 30.26 180.354 30.26C179.466 30.26 178.734 30.542 178.158 31.106C177.594 31.67 177.312 32.468 177.312 33.5C177.312 34.532 177.594 35.33 178.158 35.894C178.734 36.458 179.466 36.74 180.354 36.74ZM189.691 33.086L185.713 29H187.639L190.825 32.294V29H192.409V32.294L195.595 29H197.521L193.543 33.086L197.899 38H196.009L192.409 33.896V38H190.825V33.896L187.225 38H185.335L189.691 33.086ZM202.655 38.18C201.755 38.18 200.975 37.988 200.315 37.604C199.655 37.208 199.145 36.662 198.785 35.966C198.437 35.258 198.263 34.436 198.263 33.5C198.263 32.588 198.461 31.778 198.857 31.07C199.253 30.362 199.787 29.81 200.459 29.414C201.131 29.018 201.863 28.82 202.655 28.82C203.459 28.82 204.179 29.006 204.815 29.378C205.463 29.738 205.967 30.26 206.327 30.944C206.699 31.628 206.885 32.444 206.885 33.392V34.004H199.865C199.889 34.856 200.153 35.528 200.657 36.02C201.173 36.5 201.845 36.74 202.673 36.74C203.357 36.74 203.927 36.578 204.383 36.254C204.839 35.918 205.151 35.474 205.319 34.922H206.795C206.543 35.942 206.063 36.74 205.355 37.316C204.647 37.892 203.747 38.18 202.655 38.18ZM205.391 32.636C205.331 31.88 205.043 31.298 204.527 30.89C204.023 30.47 203.399 30.26 202.655 30.26C201.935 30.26 201.323 30.47 200.819 30.89C200.315 31.31 200.003 31.892 199.883 32.636H205.391ZM208.68 29H210.3L213.504 36.128L216.708 29H218.31V38H216.798V32.168L214.242 38H212.748L210.192 32.168V38H208.68V29ZM224.465 29H232.169V38H230.585V30.44H226.049V38H224.465V29ZM238.696 38.18C237.796 38.18 236.992 37.982 236.284 37.586C235.588 37.178 235.042 36.62 234.646 35.912C234.262 35.192 234.07 34.388 234.07 33.5C234.07 32.612 234.262 31.814 234.646 31.106C235.042 30.386 235.588 29.828 236.284 29.432C236.992 29.024 237.796 28.82 238.696 28.82C239.596 28.82 240.394 29.024 241.09 29.432C241.798 29.828 242.344 30.386 242.728 31.106C243.124 31.814 243.322 32.612 243.322 33.5C243.322 34.388 243.124 35.192 242.728 35.912C242.344 36.62 241.798 37.178 241.09 37.586C240.394 37.982 239.596 38.18 238.696 38.18ZM238.696 36.74C239.584 36.74 240.31 36.458 240.874 35.894C241.45 35.33 241.738 34.532 241.738 33.5C241.738 32.468 241.45 31.67 240.874 31.106C240.31 30.542 239.584 30.26 238.696 30.26C237.808 30.26 237.076 30.542 236.5 31.106C235.936 31.67 235.654 32.468 235.654 33.5C235.654 34.532 235.936 35.33 236.5 35.894C237.076 36.458 237.808 36.74 238.696 36.74ZM245.201 38.18C244.781 38.18 244.379 38.06 243.995 37.82V36.326C244.355 36.518 244.649 36.614 244.877 36.614C245.081 36.614 245.237 36.542 245.345 36.398C245.465 36.254 245.561 36.014 245.633 35.678C245.717 35.33 245.795 34.814 245.867 34.13L246.425 29H252.797V38H251.213V30.44H247.847L247.433 34.184C247.325 35.18 247.181 35.966 247.001 36.542C246.833 37.118 246.605 37.538 246.317 37.802C246.029 38.054 245.657 38.18 245.201 38.18ZM257.946 37.604L254.382 29H256.038L258.45 34.742L258.684 35.84L261.312 29H262.914L257.91 41.6H256.344L257.946 37.604ZM270.539 34.22C269.675 34.58 268.883 34.76 268.163 34.76C267.071 34.76 266.171 34.502 265.463 33.986C264.767 33.458 264.419 32.576 264.419 31.34V29H266.003V31.196C266.003 31.964 266.213 32.51 266.633 32.834C267.065 33.158 267.611 33.32 268.271 33.32C269.051 33.32 269.807 33.122 270.539 32.726V29H272.123V38H270.539V34.22ZM274.493 29H276.041V35.66L280.739 29H282.323V38H280.775V31.25L276.077 38H274.493V29ZM287.23 30.44H284.17V29H291.874V30.44H288.814V38H287.23V30.44ZM293.706 29H295.29V32.42H298.044C298.92 32.42 299.67 32.636 300.294 33.068C300.918 33.5 301.23 34.214 301.23 35.21C301.23 36.206 300.918 36.92 300.294 37.352C299.67 37.784 298.92 38 298.044 38H293.706V29ZM297.864 36.56C298.476 36.56 298.926 36.452 299.214 36.236C299.502 36.02 299.646 35.678 299.646 35.21C299.646 34.742 299.502 34.4 299.214 34.184C298.926 33.968 298.476 33.86 297.864 33.86H295.29V36.56H297.864ZM316.68 36.56V39.998H315.168V38H308.148V39.998H306.636V36.56H307.86C308.124 35.384 308.286 34.238 308.346 33.122C308.418 31.994 308.454 30.62 308.454 29H315.51V36.56H316.68ZM313.926 36.56V30.44H309.912C309.888 31.688 309.84 32.792 309.768 33.752C309.708 34.7 309.582 35.636 309.39 36.56H313.926ZM319.222 38.18C318.802 38.18 318.4 38.06 318.016 37.82V36.326C318.376 36.518 318.67 36.614 318.898 36.614C319.102 36.614 319.258 36.542 319.366 36.398C319.486 36.254 319.582 36.014 319.654 35.678C319.738 35.33 319.816 34.814 319.888 34.13L320.446 29H326.818V38H325.234V30.44H321.868L321.454 34.184C321.346 35.18 321.202 35.966 321.022 36.542C320.854 37.118 320.626 37.538 320.338 37.802C320.05 38.054 319.678 38.18 319.222 38.18ZM330.384 34.49V34.436C329.352 33.848 328.836 33.008 328.836 31.916C328.836 31.028 329.136 30.32 329.736 29.792C330.336 29.264 331.152 29 332.184 29H335.226V38H333.714V34.76H331.896L330.078 38H328.368L330.384 34.49ZM333.714 33.482V30.296H332.04C331.488 30.296 331.062 30.44 330.762 30.728C330.462 31.004 330.312 31.388 330.312 31.88C330.312 32.372 330.462 32.762 330.762 33.05C331.074 33.338 331.5 33.482 332.04 33.482H333.714ZM341.377 29H345.481C346.333 29 347.017 29.216 347.533 29.648C348.061 30.068 348.325 30.602 348.325 31.25C348.325 32.09 347.959 32.732 347.227 33.176V33.266C347.683 33.41 348.061 33.668 348.361 34.04C348.673 34.412 348.829 34.862 348.829 35.39C348.829 36.17 348.541 36.8 347.965 37.28C347.401 37.76 346.627 38 345.643 38H341.377V29ZM345.499 32.654C346.375 32.654 346.813 32.282 346.813 31.538C346.813 30.806 346.375 30.44 345.499 30.44H342.961V32.654H345.499ZM345.841 36.56C346.777 36.56 347.245 36.146 347.245 35.318C347.245 34.502 346.777 34.094 345.841 34.094H342.961V36.56H345.841ZM353.159 38.18C352.307 38.18 351.617 37.946 351.089 37.478C350.561 36.998 350.297 36.362 350.297 35.57C350.297 34.73 350.585 34.07 351.161 33.59C351.737 33.11 352.463 32.828 353.339 32.744L356.147 32.456V31.844C356.147 31.328 355.961 30.938 355.589 30.674C355.229 30.398 354.749 30.26 354.149 30.26C353.645 30.26 353.219 30.38 352.871 30.62C352.535 30.86 352.307 31.226 352.187 31.718H350.693C350.825 30.77 351.227 30.05 351.899 29.558C352.583 29.066 353.369 28.82 354.257 28.82C355.313 28.82 356.153 29.084 356.777 29.612C357.413 30.128 357.731 30.812 357.731 31.664V35.876C357.731 36.176 357.797 36.41 357.929 36.578C358.061 36.734 358.259 36.812 358.523 36.812C358.679 36.812 358.835 36.788 358.991 36.74V37.928C358.631 38.048 358.295 38.108 357.983 38.108C357.011 38.108 356.417 37.64 356.201 36.704C355.853 37.1 355.403 37.448 354.851 37.748C354.299 38.036 353.735 38.18 353.159 38.18ZM353.339 36.74C354.275 36.74 355.211 36.272 356.147 35.336V33.716L353.447 34.022C352.943 34.082 352.553 34.25 352.277 34.526C352.013 34.79 351.881 35.114 351.881 35.498C351.881 35.906 352.013 36.218 352.277 36.434C352.553 36.638 352.907 36.74 353.339 36.74ZM364.236 38.18C363.384 38.18 362.616 37.988 361.932 37.604C361.248 37.208 360.708 36.656 360.312 35.948C359.928 35.24 359.736 34.424 359.736 33.5C359.736 32.576 359.928 31.76 360.312 31.052C360.708 30.344 361.248 29.798 361.932 29.414C362.616 29.018 363.384 28.82 364.236 28.82C365.4 28.82 366.36 29.126 367.116 29.738C367.872 30.338 368.328 31.178 368.484 32.258H366.99C366.846 31.622 366.54 31.13 366.072 30.782C365.604 30.434 364.998 30.26 364.254 30.26C363.39 30.26 362.682 30.554 362.13 31.142C361.59 31.718 361.32 32.504 361.32 33.5C361.32 34.496 361.59 35.288 362.13 35.876C362.682 36.452 363.39 36.74 364.254 36.74C364.998 36.74 365.604 36.566 366.072 36.218C366.54 35.87 366.846 35.378 366.99 34.742H368.484C368.328 35.822 367.872 36.668 367.116 37.28C366.36 37.88 365.4 38.18 364.236 38.18ZM381.54 38H374.178V29H375.762V36.56H380.298V29H381.882V36.56H383.052V39.998H381.54V38ZM388.596 38.18C387.696 38.18 386.916 37.988 386.256 37.604C385.596 37.208 385.086 36.662 384.726 35.966C384.378 35.258 384.204 34.436 384.204 33.5C384.204 32.588 384.402 31.778 384.798 31.07C385.194 30.362 385.728 29.81 386.4 29.414C387.072 29.018 387.804 28.82 388.596 28.82C389.4 28.82 390.12 29.006 390.756 29.378C391.404 29.738 391.908 30.26 392.268 30.944C392.64 31.628 392.826 32.444 392.826 33.392V34.004H385.806C385.83 34.856 386.094 35.528 386.598 36.02C387.114 36.5 387.786 36.74 388.614 36.74C389.298 36.74 389.868 36.578 390.324 36.254C390.78 35.918 391.092 35.474 391.26 34.922H392.736C392.484 35.942 392.004 36.74 391.296 37.316C390.588 37.892 389.688 38.18 388.596 38.18ZM391.332 32.636C391.272 31.88 390.984 31.298 390.468 30.89C389.964 30.47 389.34 30.26 388.596 30.26C387.876 30.26 387.264 30.47 386.76 30.89C386.256 31.31 385.944 31.892 385.824 32.636H391.332ZM394.72 38.18C394.3 38.18 393.898 38.06 393.514 37.82V36.326C393.874 36.518 394.168 36.614 394.396 36.614C394.6 36.614 394.756 36.542 394.864 36.398C394.984 36.254 395.08 36.014 395.152 35.678C395.236 35.33 395.314 34.814 395.386 34.13L395.944 29H402.316V38H400.732V30.44H397.366L396.952 34.184C396.844 35.18 396.7 35.966 396.52 36.542C396.352 37.118 396.124 37.538 395.836 37.802C395.548 38.054 395.176 38.18 394.72 38.18ZM408.618 38.18C407.718 38.18 406.938 37.988 406.278 37.604C405.618 37.208 405.108 36.662 404.748 35.966C404.4 35.258 404.226 34.436 404.226 33.5C404.226 32.588 404.424 31.778 404.82 31.07C405.216 30.362 405.75 29.81 406.422 29.414C407.094 29.018 407.826 28.82 408.618 28.82C409.422 28.82 410.142 29.006 410.778 29.378C411.426 29.738 411.93 30.26 412.29 30.944C412.662 31.628 412.848 32.444 412.848 33.392V34.004H405.828C405.852 34.856 406.116 35.528 406.62 36.02C407.136 36.5 407.808 36.74 408.636 36.74C409.32 36.74 409.89 36.578 410.346 36.254C410.802 35.918 411.114 35.474 411.282 34.922H412.758C412.506 35.942 412.026 36.74 411.318 37.316C410.61 37.892 409.71 38.18 408.618 38.18ZM411.354 32.636C411.294 31.88 411.006 31.298 410.49 30.89C409.986 30.47 409.362 30.26 408.618 30.26C407.898 30.26 407.286 30.47 406.782 30.89C406.278 31.31 405.966 31.892 405.846 32.636H411.354ZM414.643 29H418.747C419.599 29 420.283 29.216 420.799 29.648C421.327 30.068 421.591 30.602 421.591 31.25C421.591 32.09 421.225 32.732 420.493 33.176V33.266C420.949 33.41 421.327 33.668 421.627 34.04C421.939 34.412 422.095 34.862 422.095 35.39C422.095 36.17 421.807 36.8 421.231 37.28C420.667 37.76 419.893 38 418.909 38H414.643V29ZM418.765 32.654C419.641 32.654 420.079 32.282 420.079 31.538C420.079 30.806 419.641 30.44 418.765 30.44H416.227V32.654H418.765ZM419.107 36.56C420.043 36.56 420.511 36.146 420.511 35.318C420.511 34.502 420.043 34.094 419.107 34.094H416.227V36.56H419.107ZM427.871 38.18C426.971 38.18 426.167 37.982 425.459 37.586C424.763 37.178 424.217 36.62 423.821 35.912C423.437 35.192 423.245 34.388 423.245 33.5C423.245 32.612 423.437 31.814 423.821 31.106C424.217 30.386 424.763 29.828 425.459 29.432C426.167 29.024 426.971 28.82 427.871 28.82C428.771 28.82 429.569 29.024 430.265 29.432C430.973 29.828 431.519 30.386 431.903 31.106C432.299 31.814 432.497 32.612 432.497 33.5C432.497 34.388 432.299 35.192 431.903 35.912C431.519 36.62 430.973 37.178 430.265 37.586C429.569 37.982 428.771 38.18 427.871 38.18ZM427.871 36.74C428.759 36.74 429.485 36.458 430.049 35.894C430.625 35.33 430.913 34.532 430.913 33.5C430.913 32.468 430.625 31.67 430.049 31.106C429.485 30.542 428.759 30.26 427.871 30.26C426.983 30.26 426.251 30.542 425.675 31.106C425.111 31.67 424.829 32.468 424.829 33.5C424.829 34.532 425.111 35.33 425.675 35.894C426.251 36.458 426.983 36.74 427.871 36.74ZM434.401 29H435.949V35.66L440.647 29H442.231V38H440.683V31.25L435.985 38H434.401V29ZM438.325 27.884C437.605 27.884 437.035 27.668 436.615 27.236C436.207 26.792 436.003 26.228 436.003 25.544H437.461C437.461 25.832 437.539 26.066 437.695 26.246C437.863 26.414 438.073 26.498 438.325 26.498C438.577 26.498 438.781 26.414 438.937 26.246C439.105 26.066 439.189 25.832 439.189 25.544H440.647C440.647 26.228 440.437 26.792 440.017 27.236C439.609 27.668 439.045 27.884 438.325 27.884ZM3.618 62.18C2.766 62.18 2.076 61.946 1.548 61.478C1.02 60.998 0.756 60.362 0.756 59.57C0.756 58.73 1.044 58.07 1.62 57.59C2.196 57.11 2.922 56.828 3.798 56.744L6.606 56.456V55.844C6.606 55.328 6.42 54.938 6.048 54.674C5.688 54.398 5.208 54.26 4.608 54.26C4.104 54.26 3.678 54.38 3.33 54.62C2.994 54.86 2.766 55.226 2.646 55.718H1.152C1.284 54.77 1.686 54.05 2.358 53.558C3.042 53.066 3.828 52.82 4.716 52.82C5.772 52.82 6.612 53.084 7.236 53.612C7.872 54.128 8.19 54.812 8.19 55.664V59.876C8.19 60.176 8.256 60.41 8.388 60.578C8.52 60.734 8.718 60.812 8.982 60.812C9.138 60.812 9.294 60.788 9.45 60.74V61.928C9.09 62.048 8.754 62.108 8.442 62.108C7.47 62.108 6.876 61.64 6.66 60.704C6.312 61.1 5.862 61.448 5.31 61.748C4.758 62.036 4.194 62.18 3.618 62.18ZM3.798 60.74C4.734 60.74 5.67 60.272 6.606 59.336V57.716L3.906 58.022C3.402 58.082 3.012 58.25 2.736 58.526C2.472 58.79 2.34 59.114 2.34 59.498C2.34 59.906 2.472 60.218 2.736 60.434C3.012 60.638 3.366 60.74 3.798 60.74ZM13.1885 61.604L9.62452 53H11.2805L13.6925 58.742L13.9265 59.84L16.5545 53H18.1565L13.1525 65.6H11.5865L13.1885 61.604ZM28.6628 60.56V63.998H27.1508V62H20.1308V63.998H18.6188V60.56H19.8428C20.1068 59.384 20.2688 58.238 20.3288 57.122C20.4008 55.994 20.4368 54.62 20.4368 53H27.4928V60.56H28.6628ZM25.9088 60.56V54.44H21.8948C21.8708 55.688 21.8228 56.792 21.7508 57.752C21.6908 58.7 21.5648 59.636 21.3728 60.56H25.9088ZM30.7544 53H32.3024V59.66L37.0004 53H38.5844V62H37.0364V55.25L32.3384 62H30.7544V53ZM43.4915 54.44H40.4315V53H48.1355V54.44H45.0755V62H43.4915V54.44ZM53.5804 62.18C52.6804 62.18 51.8764 61.982 51.1684 61.586C50.4724 61.178 49.9264 60.62 49.5304 59.912C49.1464 59.192 48.9544 58.388 48.9544 57.5C48.9544 56.612 49.1464 55.814 49.5304 55.106C49.9264 54.386 50.4724 53.828 51.1684 53.432C51.8764 53.024 52.6804 52.82 53.5804 52.82C54.4804 52.82 55.2784 53.024 55.9744 53.432C56.6824 53.828 57.2284 54.386 57.6124 55.106C58.0084 55.814 58.2064 56.612 58.2064 57.5C58.2064 58.388 58.0084 59.192 57.6124 59.912C57.2284 60.62 56.6824 61.178 55.9744 61.586C55.2784 61.982 54.4804 62.18 53.5804 62.18ZM53.5804 60.74C54.4684 60.74 55.1944 60.458 55.7584 59.894C56.3344 59.33 56.6224 58.532 56.6224 57.5C56.6224 56.468 56.3344 55.67 55.7584 55.106C55.1944 54.542 54.4684 54.26 53.5804 54.26C52.6924 54.26 51.9604 54.542 51.3844 55.106C50.8204 55.67 50.5384 56.468 50.5384 57.5C50.5384 58.532 50.8204 59.33 51.3844 59.894C51.9604 60.458 52.6924 60.74 53.5804 60.74ZM60.1099 53H61.6939V53.99C62.0059 53.666 62.4019 53.39 62.8819 53.162C63.3619 52.934 63.9199 52.82 64.5559 52.82C65.2999 52.82 65.9839 53.012 66.6079 53.396C67.2439 53.78 67.7479 54.326 68.1199 55.034C68.4919 55.742 68.6779 56.564 68.6779 57.5C68.6779 58.436 68.5039 59.258 68.1559 59.966C67.8079 60.674 67.3219 61.22 66.6979 61.604C66.0739 61.988 65.3719 62.18 64.5919 62.18C64.0159 62.18 63.4699 62.084 62.9539 61.892C62.4499 61.688 62.0299 61.406 61.6939 61.046V65.6H60.1099V53ZM64.3039 60.74C65.1199 60.74 65.7859 60.47 66.3019 59.93C66.8299 59.39 67.0939 58.58 67.0939 57.5C67.0939 56.42 66.8299 55.61 66.3019 55.07C65.7859 54.53 65.1199 54.26 64.3039 54.26C63.8359 54.26 63.3979 54.368 62.9899 54.584C62.5939 54.8 62.2759 55.088 62.0359 55.448C61.8079 55.808 61.6939 56.198 61.6939 56.618V58.346C61.6939 58.766 61.8139 59.162 62.0539 59.534C62.2939 59.894 62.6119 60.188 63.0079 60.416C63.4039 60.632 63.8359 60.74 64.3039 60.74ZM70.5864 53H72.1344V59.66L76.8324 53H78.4164V62H76.8684V55.25L72.1704 62H70.5864V53ZM80.7993 53H82.3473V59.66L87.0453 53H88.6293V62H87.0813V55.25L82.3833 62H80.7993V53ZM97.9955 62.18C96.8195 62.18 95.9195 61.874 95.2955 61.262C94.6715 60.638 94.3475 59.858 94.3235 58.922H95.7995C95.8475 59.498 96.0515 59.966 96.4115 60.326C96.7835 60.686 97.3115 60.866 97.9955 60.866C98.6075 60.866 99.0815 60.716 99.4175 60.416C99.7655 60.116 99.9395 59.75 99.9395 59.318C99.9395 58.358 99.2075 57.878 97.7435 57.878H97.2755V56.528H97.7435C98.3435 56.528 98.7935 56.45 99.0935 56.294C99.4055 56.126 99.5615 55.826 99.5615 55.394C99.5615 55.022 99.4175 54.722 99.1295 54.494C98.8415 54.254 98.4695 54.134 98.0135 54.134C97.4375 54.134 96.9755 54.278 96.6275 54.566C96.2915 54.854 96.0995 55.208 96.0515 55.628H94.6115C94.6715 54.824 95.0075 54.158 95.6195 53.63C96.2315 53.09 97.0295 52.82 98.0135 52.82C98.8655 52.82 99.5855 53.036 100.174 53.468C100.774 53.9 101.074 54.5 101.074 55.268C101.074 55.712 100.972 56.09 100.768 56.402C100.576 56.702 100.324 56.936 100.012 57.104C100.516 57.248 100.894 57.53 101.146 57.95C101.398 58.358 101.524 58.814 101.524 59.318C101.524 59.822 101.374 60.296 101.074 60.74C100.786 61.172 100.372 61.52 99.8315 61.784C99.3035 62.048 98.6915 62.18 97.9955 62.18ZM105.87 62.18C105.018 62.18 104.328 61.946 103.8 61.478C103.272 60.998 103.008 60.362 103.008 59.57C103.008 58.73 103.296 58.07 103.872 57.59C104.448 57.11 105.174 56.828 106.05 56.744L108.858 56.456V55.844C108.858 55.328 108.672 54.938 108.3 54.674C107.94 54.398 107.46 54.26 106.86 54.26C106.356 54.26 105.93 54.38 105.582 54.62C105.246 54.86 105.018 55.226 104.898 55.718H103.404C103.536 54.77 103.938 54.05 104.61 53.558C105.294 53.066 106.08 52.82 106.968 52.82C108.024 52.82 108.864 53.084 109.488 53.612C110.124 54.128 110.442 54.812 110.442 55.664V59.876C110.442 60.176 110.508 60.41 110.64 60.578C110.772 60.734 110.97 60.812 111.234 60.812C111.39 60.812 111.546 60.788 111.702 60.74V61.928C111.342 62.048 111.006 62.108 110.694 62.108C109.722 62.108 109.128 61.64 108.912 60.704C108.564 61.1 108.114 61.448 107.562 61.748C107.01 62.036 106.446 62.18 105.87 62.18ZM106.05 60.74C106.986 60.74 107.922 60.272 108.858 59.336V57.716L106.158 58.022C105.654 58.082 105.264 58.25 104.988 58.526C104.724 58.79 104.592 59.114 104.592 59.498C104.592 59.906 104.724 60.218 104.988 60.434C105.264 60.638 105.618 60.74 106.05 60.74ZM117.204 53H118.824L122.028 60.128L125.232 53H126.834V62H125.322V56.168L122.766 62H121.272L118.716 56.168V62H117.204V53ZM133.133 62.18C132.233 62.18 131.453 61.988 130.793 61.604C130.133 61.208 129.623 60.662 129.263 59.966C128.915 59.258 128.741 58.436 128.741 57.5C128.741 56.588 128.939 55.778 129.335 55.07C129.731 54.362 130.265 53.81 130.937 53.414C131.609 53.018 132.341 52.82 133.133 52.82C133.937 52.82 134.657 53.006 135.293 53.378C135.941 53.738 136.445 54.26 136.805 54.944C137.177 55.628 137.363 56.444 137.363 57.392V58.004H130.343C130.367 58.856 130.631 59.528 131.135 60.02C131.651 60.5 132.323 60.74 133.151 60.74C133.835 60.74 134.405 60.578 134.861 60.254C135.317 59.918 135.629 59.474 135.797 58.922H137.273C137.021 59.942 136.541 60.74 135.833 61.316C135.125 61.892 134.225 62.18 133.133 62.18ZM135.869 56.636C135.809 55.88 135.521 55.298 135.005 54.89C134.501 54.47 133.877 54.26 133.133 54.26C132.413 54.26 131.801 54.47 131.297 54.89C130.793 55.31 130.481 55.892 130.361 56.636H135.869ZM143.191 62.18C142.339 62.18 141.571 61.988 140.887 61.604C140.203 61.208 139.663 60.656 139.267 59.948C138.883 59.24 138.691 58.424 138.691 57.5C138.691 56.576 138.883 55.76 139.267 55.052C139.663 54.344 140.203 53.798 140.887 53.414C141.571 53.018 142.339 52.82 143.191 52.82C144.355 52.82 145.315 53.126 146.071 53.738C146.827 54.338 147.283 55.178 147.439 56.258H145.945C145.801 55.622 145.495 55.13 145.027 54.782C144.559 54.434 143.953 54.26 143.209 54.26C142.345 54.26 141.637 54.554 141.085 55.142C140.545 55.718 140.275 56.504 140.275 57.5C140.275 58.496 140.545 59.288 141.085 59.876C141.637 60.452 142.345 60.74 143.209 60.74C143.953 60.74 144.559 60.566 145.027 60.218C145.495 59.87 145.801 59.378 145.945 58.742H147.439C147.283 59.822 146.827 60.668 146.071 61.28C145.315 61.88 144.355 62.18 143.191 62.18ZM150.542 58.49V58.436C149.51 57.848 148.994 57.008 148.994 55.916C148.994 55.028 149.294 54.32 149.894 53.792C150.494 53.264 151.31 53 152.342 53H155.384V62H153.872V58.76H152.054L150.236 62H148.526L150.542 58.49ZM153.872 57.482V54.296H152.198C151.646 54.296 151.22 54.44 150.92 54.728C150.62 55.004 150.47 55.388 150.47 55.88C150.47 56.372 150.62 56.762 150.92 57.05C151.232 57.338 151.658 57.482 152.198 57.482H153.872ZM165.118 62H157.756V53H159.34V60.56H163.876V53H165.46V60.56H166.63V63.998H165.118V62ZM176.536 62.18C175.684 62.18 174.916 61.988 174.232 61.604C173.548 61.208 173.008 60.656 172.612 59.948C172.228 59.24 172.036 58.424 172.036 57.5C172.036 56.576 172.228 55.76 172.612 55.052C173.008 54.344 173.548 53.798 174.232 53.414C174.916 53.018 175.684 52.82 176.536 52.82C177.7 52.82 178.66 53.126 179.416 53.738C180.172 54.338 180.628 55.178 180.784 56.258H179.29C179.146 55.622 178.84 55.13 178.372 54.782C177.904 54.434 177.298 54.26 176.554 54.26C175.69 54.26 174.982 54.554 174.43 55.142C173.89 55.718 173.62 56.504 173.62 57.5C173.62 58.496 173.89 59.288 174.43 59.876C174.982 60.452 175.69 60.74 176.554 60.74C177.298 60.74 177.904 60.566 178.372 60.218C178.84 59.87 179.146 59.378 179.29 58.742H180.784C180.628 59.822 180.172 60.668 179.416 61.28C178.66 61.88 177.7 62.18 176.536 62.18ZM186.479 53H188.099L191.303 60.128L194.507 53H196.109V62H194.597V56.168L192.041 62H190.547L187.991 56.168V62H186.479V53ZM198.485 53H200.033V59.66L204.731 53H206.315V62H204.767V55.25L200.069 62H198.485V53ZM208.698 53H210.282V56.78H214.818V53H216.402V62H214.818V58.22H210.282V62H208.698V53ZM218.77 53H220.318V59.66L225.016 53H226.6V62H225.052V55.25L220.354 62H218.77V53ZM228.983 53H230.603L233.807 60.128L237.011 53H238.613V62H237.101V56.168L234.545 62H233.051L230.495 56.168V62H228.983V53ZM243.419 62.18C242.567 62.18 241.877 61.946 241.349 61.478C240.821 60.998 240.557 60.362 240.557 59.57C240.557 58.73 240.845 58.07 241.421 57.59C241.997 57.11 242.723 56.828 243.599 56.744L246.407 56.456V55.844C246.407 55.328 246.221 54.938 245.849 54.674C245.489 54.398 245.009 54.26 244.409 54.26C243.905 54.26 243.479 54.38 243.131 54.62C242.795 54.86 242.567 55.226 242.447 55.718H240.953C241.085 54.77 241.487 54.05 242.159 53.558C242.843 53.066 243.629 52.82 244.517 52.82C245.573 52.82 246.413 53.084 247.037 53.612C247.673 54.128 247.991 54.812 247.991 55.664V59.876C247.991 60.176 248.057 60.41 248.189 60.578C248.321 60.734 248.519 60.812 248.783 60.812C248.939 60.812 249.095 60.788 249.251 60.74V61.928C248.891 62.048 248.555 62.108 248.243 62.108C247.271 62.108 246.677 61.64 246.461 60.704C246.113 61.1 245.663 61.448 245.111 61.748C244.559 62.036 243.995 62.18 243.419 62.18ZM243.599 60.74C244.535 60.74 245.471 60.272 246.407 59.336V57.716L243.707 58.022C243.203 58.082 242.813 58.25 242.537 58.526C242.273 58.79 242.141 59.114 242.141 59.498C242.141 59.906 242.273 60.218 242.537 60.434C242.813 60.638 243.167 60.74 243.599 60.74ZM251.775 62.18C251.355 62.18 250.953 62.06 250.569 61.82V60.326C250.929 60.518 251.223 60.614 251.451 60.614C251.655 60.614 251.811 60.542 251.919 60.398C252.039 60.254 252.135 60.014 252.207 59.678C252.291 59.33 252.369 58.814 252.441 58.13L252.999 53H259.371V62H257.787V54.44H254.421L254.007 58.184C253.899 59.18 253.755 59.966 253.575 60.542C253.407 61.118 253.179 61.538 252.891 61.802C252.603 62.054 252.231 62.18 251.775 62.18ZM261.749 53H263.333V56.42H266.087C266.963 56.42 267.713 56.636 268.337 57.068C268.961 57.5 269.273 58.214 269.273 59.21C269.273 60.206 268.961 60.92 268.337 61.352C267.713 61.784 266.963 62 266.087 62H261.749V53ZM265.907 60.56C266.519 60.56 266.969 60.452 267.257 60.236C267.545 60.02 267.689 59.678 267.689 59.21C267.689 58.742 267.545 58.4 267.257 58.184C266.969 57.968 266.519 57.86 265.907 57.86H263.333V60.56H265.907ZM271.188 53H272.772V56.78H277.308V53H278.892V62H277.308V58.22H272.772V62H271.188V53ZM281.26 53H282.844V56.42H285.598C286.474 56.42 287.224 56.636 287.848 57.068C288.472 57.5 288.784 58.214 288.784 59.21C288.784 60.206 288.472 60.92 287.848 61.352C287.224 61.784 286.474 62 285.598 62H281.26V53ZM290.26 53H291.844V62H290.26V53ZM285.418 60.56C286.03 60.56 286.48 60.452 286.768 60.236C287.056 60.02 287.2 59.678 287.2 59.21C287.2 58.742 287.056 58.4 286.768 58.184C286.48 57.968 286.03 57.86 285.418 57.86H282.844V60.56H285.418ZM294.215 53H295.835L299.039 60.128L302.243 53H303.845V62H302.333V56.168L299.777 62H298.283L295.727 56.168V62H294.215V53ZM306.221 53H307.769V59.66L312.467 53H314.051V62H312.503V55.25L307.805 62H306.221V53ZM322.985 61.604L319.421 53H321.077L323.489 58.742L323.723 59.84L326.351 53H327.953L322.949 65.6H321.383L322.985 61.604ZM333.158 62.18C332.306 62.18 331.538 61.988 330.854 61.604C330.17 61.208 329.63 60.656 329.234 59.948C328.85 59.24 328.658 58.424 328.658 57.5C328.658 56.576 328.85 55.76 329.234 55.052C329.63 54.344 330.17 53.798 330.854 53.414C331.538 53.018 332.306 52.82 333.158 52.82C334.322 52.82 335.282 53.126 336.038 53.738C336.794 54.338 337.25 55.178 337.406 56.258H335.912C335.768 55.622 335.462 55.13 334.994 54.782C334.526 54.434 333.92 54.26 333.176 54.26C332.312 54.26 331.604 54.554 331.052 55.142C330.512 55.718 330.242 56.504 330.242 57.5C330.242 58.496 330.512 59.288 331.052 59.876C331.604 60.452 332.312 60.74 333.176 60.74C333.92 60.74 334.526 60.566 334.994 60.218C335.462 59.87 335.768 59.378 335.912 58.742H337.406C337.25 59.822 336.794 60.668 336.038 61.28C335.282 61.88 334.322 62.18 333.158 62.18ZM339.321 53H340.869V59.66L345.567 53H347.151V62H345.603V55.25L340.905 62H339.321V53ZM349.984 62.18C349.564 62.18 349.162 62.06 348.778 61.82V60.326C349.138 60.518 349.432 60.614 349.66 60.614C349.864 60.614 350.02 60.542 350.128 60.398C350.248 60.254 350.344 60.014 350.416 59.678C350.5 59.33 350.578 58.814 350.65 58.13L351.208 53H357.58V62H355.996V54.44H352.63L352.216 58.184C352.108 59.18 351.964 59.966 351.784 60.542C351.616 61.118 351.388 61.538 351.1 61.802C350.812 62.054 350.44 62.18 349.984 62.18ZM359.958 53H361.506V59.66L366.204 53H367.788V62H366.24V55.25L361.542 62H359.958V53ZM371.358 58.49V58.436C370.326 57.848 369.81 57.008 369.81 55.916C369.81 55.028 370.11 54.32 370.71 53.792C371.31 53.264 372.126 53 373.158 53H376.2V62H374.688V58.76H372.87L371.052 62H369.342L371.358 58.49ZM374.688 57.482V54.296H373.014C372.462 54.296 372.036 54.44 371.736 54.728C371.436 55.004 371.286 55.388 371.286 55.88C371.286 56.372 371.436 56.762 371.736 57.05C372.048 57.338 372.474 57.482 373.014 57.482H374.688ZM378.573 53H380.193L383.397 60.128L386.601 53H388.203V62H386.691V56.168L384.135 62H382.641L380.085 56.168V62H378.573V53ZM390.579 53H392.127V59.66L396.825 53H398.409V62H396.861V55.25L392.163 62H390.579V53ZM408.603 62.18C407.751 62.18 406.983 61.988 406.299 61.604C405.615 61.208 405.075 60.656 404.679 59.948C404.295 59.24 404.103 58.424 404.103 57.5C404.103 56.576 404.295 55.76 404.679 55.052C405.075 54.344 405.615 53.798 406.299 53.414C406.983 53.018 407.751 52.82 408.603 52.82C409.767 52.82 410.727 53.126 411.483 53.738C412.239 54.338 412.695 55.178 412.851 56.258H411.357C411.213 55.622 410.907 55.13 410.439 54.782C409.971 54.434 409.365 54.26 408.621 54.26C407.757 54.26 407.049 54.554 406.497 55.142C405.957 55.718 405.687 56.504 405.687 57.5C405.687 58.496 405.957 59.288 406.497 59.876C407.049 60.452 407.757 60.74 408.621 60.74C409.365 60.74 409.971 60.566 410.439 60.218C410.907 59.87 411.213 59.378 411.357 58.742H412.851C412.695 59.822 412.239 60.668 411.483 61.28C410.727 61.88 409.767 62.18 408.603 62.18ZM1.188 77H5.292C6.144 77 6.828 77.216 7.344 77.648C7.872 78.068 8.136 78.602 8.136 79.25C8.136 80.09 7.77 80.732 7.038 81.176V81.266C7.494 81.41 7.872 81.668 8.172 82.04C8.484 82.412 8.64 82.862 8.64 83.39C8.64 84.17 8.352 84.8 7.776 85.28C7.212 85.76 6.438 86 5.454 86H1.188V77ZM5.31 80.654C6.186 80.654 6.624 80.282 6.624 79.538C6.624 78.806 6.186 78.44 5.31 78.44H2.772V80.654H5.31ZM5.652 84.56C6.588 84.56 7.056 84.146 7.056 83.318C7.056 82.502 6.588 82.094 5.652 82.094H2.772V84.56H5.652ZM12.9696 86.18C12.1176 86.18 11.4276 85.946 10.8996 85.478C10.3716 84.998 10.1076 84.362 10.1076 83.57C10.1076 82.73 10.3956 82.07 10.9716 81.59C11.5476 81.11 12.2736 80.828 13.1496 80.744L15.9576 80.456V79.844C15.9576 79.328 15.7716 78.938 15.3996 78.674C15.0396 78.398 14.5596 78.26 13.9596 78.26C13.4556 78.26 13.0296 78.38 12.6816 78.62C12.3456 78.86 12.1176 79.226 11.9976 79.718H10.5036C10.6356 78.77 11.0376 78.05 11.7096 77.558C12.3936 77.066 13.1796 76.82 14.0676 76.82C15.1236 76.82 15.9636 77.084 16.5876 77.612C17.2236 78.128 17.5416 78.812 17.5416 79.664V83.876C17.5416 84.176 17.6076 84.41 17.7396 84.578C17.8716 84.734 18.0696 84.812 18.3336 84.812C18.4896 84.812 18.6456 84.788 18.8016 84.74V85.928C18.4416 86.048 18.1056 86.108 17.7936 86.108C16.8216 86.108 16.2276 85.64 16.0116 84.704C15.6636 85.1 15.2136 85.448 14.6616 85.748C14.1096 86.036 13.5456 86.18 12.9696 86.18ZM13.1496 84.74C14.0856 84.74 15.0216 84.272 15.9576 83.336V81.716L13.2576 82.022C12.7536 82.082 12.3636 82.25 12.0876 82.526C11.8236 82.79 11.6916 83.114 11.6916 83.498C11.6916 83.906 11.8236 84.218 12.0876 84.434C12.3636 84.638 12.7176 84.74 13.1496 84.74ZM20.5239 77H22.1079V84.56H25.3839V77H26.9679V84.56H30.2439V77H31.8279V86H20.5239V77ZM38.1237 86.18C37.2237 86.18 36.4437 85.988 35.7837 85.604C35.1237 85.208 34.6137 84.662 34.2537 83.966C33.9057 83.258 33.7317 82.436 33.7317 81.5C33.7317 80.588 33.9297 79.778 34.3257 79.07C34.7217 78.362 35.2557 77.81 35.9277 77.414C36.5997 77.018 37.3317 76.82 38.1237 76.82C38.9277 76.82 39.6477 77.006 40.2837 77.378C40.9317 77.738 41.4357 78.26 41.7957 78.944C42.1677 79.628 42.3537 80.444 42.3537 81.392V82.004H35.3337C35.3577 82.856 35.6217 83.528 36.1257 84.02C36.6417 84.5 37.3137 84.74 38.1417 84.74C38.8257 84.74 39.3957 84.578 39.8517 84.254C40.3077 83.918 40.6197 83.474 40.7877 82.922H42.2637C42.0117 83.942 41.5317 84.74 40.8237 85.316C40.1157 85.892 39.2157 86.18 38.1237 86.18ZM40.8597 80.636C40.7997 79.88 40.5117 79.298 39.9957 78.89C39.4917 78.47 38.8677 78.26 38.1237 78.26C37.4037 78.26 36.7917 78.47 36.2877 78.89C35.7837 79.31 35.4717 79.892 35.3517 80.636H40.8597ZM44.1489 77H45.6969V83.66L50.3949 77H51.9789V86H50.4309V79.25L45.7329 86H44.1489V77ZM48.0729 75.884C47.3529 75.884 46.7829 75.668 46.3629 75.236C45.9549 74.792 45.7509 74.228 45.7509 73.544H47.2089C47.2089 73.832 47.2869 74.066 47.4429 74.246C47.6109 74.414 47.8209 74.498 48.0729 74.498C48.3249 74.498 48.5289 74.414 48.6849 74.246C48.8529 74.066 48.9369 73.832 48.9369 73.544H50.3949C50.3949 74.228 50.1849 74.792 49.7649 75.236C49.3569 75.668 48.7929 75.884 48.0729 75.884ZM62.1731 86.18C61.3211 86.18 60.5531 85.988 59.8691 85.604C59.1851 85.208 58.6451 84.656 58.2491 83.948C57.8651 83.24 57.6731 82.424 57.6731 81.5C57.6731 80.576 57.8651 79.76 58.2491 79.052C58.6451 78.344 59.1851 77.798 59.8691 77.414C60.5531 77.018 61.3211 76.82 62.1731 76.82C63.3371 76.82 64.2971 77.126 65.0531 77.738C65.8091 78.338 66.2651 79.178 66.4211 80.258H64.9271C64.7831 79.622 64.4771 79.13 64.0091 78.782C63.5411 78.434 62.9351 78.26 62.1911 78.26C61.3271 78.26 60.6191 78.554 60.0671 79.142C59.5271 79.718 59.2571 80.504 59.2571 81.5C59.2571 82.496 59.5271 83.288 60.0671 83.876C60.6191 84.452 61.3271 84.74 62.1911 84.74C62.9351 84.74 63.5411 84.566 64.0091 84.218C64.4771 83.87 64.7831 83.378 64.9271 82.742H66.4211C66.2651 83.822 65.8091 84.668 65.0531 85.28C64.2971 85.88 63.3371 86.18 62.1731 86.18ZM70.3157 78.44H67.2557V77H74.9597V78.44H71.8997V86H70.3157V78.44ZM80.4046 86.18C79.5046 86.18 78.7006 85.982 77.9926 85.586C77.2966 85.178 76.7506 84.62 76.3546 83.912C75.9706 83.192 75.7786 82.388 75.7786 81.5C75.7786 80.612 75.9706 79.814 76.3546 79.106C76.7506 78.386 77.2966 77.828 77.9926 77.432C78.7006 77.024 79.5046 76.82 80.4046 76.82C81.3046 76.82 82.1026 77.024 82.7986 77.432C83.5066 77.828 84.0526 78.386 84.4366 79.106C84.8326 79.814 85.0306 80.612 85.0306 81.5C85.0306 82.388 84.8326 83.192 84.4366 83.912C84.0526 84.62 83.5066 85.178 82.7986 85.586C82.1026 85.982 81.3046 86.18 80.4046 86.18ZM80.4046 84.74C81.2926 84.74 82.0186 84.458 82.5826 83.894C83.1586 83.33 83.4466 82.532 83.4466 81.5C83.4466 80.468 83.1586 79.67 82.5826 79.106C82.0186 78.542 81.2926 78.26 80.4046 78.26C79.5166 78.26 78.7846 78.542 78.2086 79.106C77.6446 79.67 77.3626 80.468 77.3626 81.5C77.3626 82.532 77.6446 83.33 78.2086 83.894C78.7846 84.458 79.5166 84.74 80.4046 84.74ZM86.9341 77H88.5181V77.99C88.8301 77.666 89.2261 77.39 89.7061 77.162C90.1861 76.934 90.7441 76.82 91.3801 76.82C92.1241 76.82 92.8081 77.012 93.4321 77.396C94.0681 77.78 94.5721 78.326 94.9441 79.034C95.3161 79.742 95.5021 80.564 95.5021 81.5C95.5021 82.436 95.3281 83.258 94.9801 83.966C94.6321 84.674 94.1461 85.22 93.5221 85.604C92.8981 85.988 92.1961 86.18 91.4161 86.18C90.8401 86.18 90.2941 86.084 89.7781 85.892C89.2741 85.688 88.8541 85.406 88.5181 85.046V89.6H86.9341V77ZM91.1281 84.74C91.9441 84.74 92.6101 84.47 93.1261 83.93C93.6541 83.39 93.9181 82.58 93.9181 81.5C93.9181 80.42 93.6541 79.61 93.1261 79.07C92.6101 78.53 91.9441 78.26 91.1281 78.26C90.6601 78.26 90.2221 78.368 89.8141 78.584C89.4181 78.8 89.1001 79.088 88.8601 79.448C88.6321 79.808 88.5181 80.198 88.5181 80.618V82.346C88.5181 82.766 88.6381 83.162 88.8781 83.534C89.1181 83.894 89.4361 84.188 89.8321 84.416C90.2281 84.632 90.6601 84.74 91.1281 84.74ZM101.569 86.18C100.669 86.18 99.8647 85.982 99.1567 85.586C98.4607 85.178 97.9147 84.62 97.5187 83.912C97.1347 83.192 96.9427 82.388 96.9427 81.5C96.9427 80.612 97.1347 79.814 97.5187 79.106C97.9147 78.386 98.4607 77.828 99.1567 77.432C99.8647 77.024 100.669 76.82 101.569 76.82C102.469 76.82 103.267 77.024 103.963 77.432C104.671 77.828 105.217 78.386 105.601 79.106C105.997 79.814 106.195 80.612 106.195 81.5C106.195 82.388 105.997 83.192 105.601 83.912C105.217 84.62 104.671 85.178 103.963 85.586C103.267 85.982 102.469 86.18 101.569 86.18ZM101.569 84.74C102.457 84.74 103.183 84.458 103.747 83.894C104.323 83.33 104.611 82.532 104.611 81.5C104.611 80.468 104.323 79.67 103.747 79.106C103.183 78.542 102.457 78.26 101.569 78.26C100.681 78.26 99.9487 78.542 99.3727 79.106C98.8087 79.67 98.5267 80.468 98.5267 81.5C98.5267 82.532 98.8087 83.33 99.3727 83.894C99.9487 84.458 100.681 84.74 101.569 84.74ZM108.098 77H109.682V80.78H114.218V77H115.802V86H114.218V82.22H109.682V86H108.098V77ZM118.17 77H119.754V80.42H122.508C123.384 80.42 124.134 80.636 124.758 81.068C125.382 81.5 125.694 82.214 125.694 83.21C125.694 84.206 125.382 84.92 124.758 85.352C124.134 85.784 123.384 86 122.508 86H118.17V77ZM127.17 77H128.754V86H127.17V77ZM122.328 84.56C122.94 84.56 123.39 84.452 123.678 84.236C123.966 84.02 124.11 83.678 124.11 83.21C124.11 82.742 123.966 82.4 123.678 82.184C123.39 81.968 122.94 81.86 122.328 81.86H119.754V84.56H122.328Z" fill="#808080"/>
</svg>
