<svg width="443" height="181" viewBox="0 0 443 181" fill="none" xmlns="http://www.w3.org/2000/svg">
<path d="M0.808 0.799997H31.328V40H24.328V6.96H7.808V40H0.808V0.799997ZM52.0852 40.56C49.2105 40.56 46.6345 39.9253 44.3572 38.656C42.1172 37.3867 40.3625 35.6507 39.0932 33.448C37.8612 31.2453 37.2452 28.7627 37.2452 26C37.2452 23.2373 37.8612 20.7547 39.0932 18.552C40.3625 16.3493 42.1172 14.6133 44.3572 13.344C46.6345 12.0747 49.2105 11.44 52.0852 11.44C54.9599 11.44 57.5172 12.0747 59.7572 13.344C61.9972 14.6133 63.7332 16.3493 64.9652 18.552C66.2345 20.7547 66.8692 23.2373 66.8692 26C66.8692 28.7627 66.2345 31.2453 64.9652 33.448C63.7332 35.6507 61.9972 37.3867 59.7572 38.656C57.5172 39.9253 54.9599 40.56 52.0852 40.56ZM52.0852 34.904C54.5492 34.904 56.5652 34.12 58.1332 32.552C59.7012 30.9467 60.4852 28.7627 60.4852 26C60.4852 23.2373 59.7012 21.072 58.1332 19.504C56.5652 17.8987 54.5492 17.096 52.0852 17.096C49.6212 17.096 47.5865 17.8987 45.9812 19.504C44.4132 21.072 43.6292 23.2373 43.6292 26C43.6292 28.7627 44.4132 30.9467 45.9812 32.552C47.5865 34.12 49.6212 34.904 52.0852 34.904ZM73.0283 40.56C71.6096 40.56 70.2656 40.168 68.9963 39.384V34.12L69.3323 33.952C70.2656 34.4747 71.087 34.736 71.7963 34.736C72.3936 34.736 72.879 34.5307 73.2523 34.12C73.663 33.672 74.0176 32.888 74.3163 31.768C74.615 30.6107 74.8763 28.9493 75.1003 26.784L76.6683 12H98.0043V40H91.6203V17.6H82.1003L81.0923 27.12C80.7563 30.48 80.2523 33.1493 79.5803 35.128C78.9083 37.0693 78.0496 38.4693 77.0043 39.328C75.959 40.1493 74.6336 40.56 73.0283 40.56ZM113.995 39.048L102.683 12H109.739L116.403 27.848L116.851 31.6H117.131L124.747 12H131.411L115.675 51.2H109.123L113.995 39.048ZM154.916 28.8C152.452 29.7707 150.1 30.256 147.86 30.256C144.462 30.256 141.606 29.3973 139.292 27.68C137.014 25.9627 135.876 23.2187 135.876 19.448V12H142.26V18.44C142.26 22.6587 144.444 24.768 148.812 24.768C150.79 24.768 152.825 24.264 154.916 23.256V12H161.3V40H154.916V28.8ZM168.475 12H174.747V30.872H174.859L175.083 29.92L187.795 12H194.179V40H187.907V20.736H187.795L187.403 22.08L174.803 40H168.475V12ZM209.139 17.6H199.619V12H225.043V17.6H215.579V40H209.139V17.6ZM241.831 40.56C239.068 40.56 236.623 39.9627 234.495 38.768C232.367 37.536 230.724 35.8187 229.567 33.616C228.41 31.4133 227.831 28.8747 227.831 26C227.831 23.1627 228.466 20.6427 229.735 18.44C231.042 16.2373 232.759 14.52 234.887 13.288C237.015 12.056 239.33 11.44 241.831 11.44C244.482 11.44 246.834 12.0187 248.887 13.176C250.978 14.296 252.602 15.9387 253.759 18.104C254.916 20.2693 255.495 22.8267 255.495 25.776V27.736H234.047C234.196 30.0133 234.98 31.824 236.399 33.168C237.855 34.4747 239.703 35.128 241.943 35.128C243.847 35.128 245.415 34.6987 246.647 33.84C247.879 32.944 248.756 31.7307 249.279 30.2L254.879 30.536L255.047 30.816C254.151 33.952 252.564 36.36 250.287 38.04C248.047 39.72 245.228 40.56 241.831 40.56ZM249.447 23.088C249.26 21.072 248.458 19.504 247.039 18.384C245.658 17.2267 243.922 16.648 241.831 16.648C239.89 16.648 238.21 17.2267 236.791 18.384C235.41 19.504 234.532 21.072 234.159 23.088H249.447ZM285.534 40.56C282.846 40.56 280.401 39.944 278.198 38.712C276.033 37.48 274.316 35.7627 273.046 33.56C271.814 31.3573 271.198 28.8373 271.198 26C271.198 23.1627 271.814 20.6427 273.046 18.44C274.316 16.2373 276.033 14.52 278.198 13.288C280.401 12.056 282.846 11.44 285.534 11.44C289.193 11.44 292.217 12.3733 294.606 14.24C296.996 16.1067 298.452 18.7013 298.974 22.024L298.806 22.304L293.206 22.64C292.796 20.9227 291.937 19.5787 290.63 18.608C289.324 17.6 287.644 17.096 285.59 17.096C283.201 17.096 281.241 17.88 279.71 19.448C278.217 21.016 277.47 23.2 277.47 26C277.47 28.8 278.217 30.984 279.71 32.552C281.241 34.12 283.201 34.904 285.59 34.904C287.644 34.904 289.305 34.4373 290.574 33.504C291.844 32.5333 292.721 31.152 293.206 29.36L298.806 29.696L298.974 29.976C298.302 33.336 296.79 35.9493 294.438 37.816C292.086 39.6453 289.118 40.56 285.534 40.56ZM312.261 40.56C309.723 40.56 307.595 39.8133 305.877 38.32C304.197 36.7893 303.357 34.7547 303.357 32.216C303.357 29.64 304.235 27.6053 305.989 26.112C307.781 24.5813 310.133 23.6667 313.045 23.368L321.165 22.528V21.016C321.165 19.56 320.68 18.4587 319.709 17.712C318.739 16.928 317.432 16.536 315.789 16.536C314.333 16.536 313.139 16.8907 312.205 17.6C311.309 18.3093 310.731 19.3547 310.469 20.736L304.925 20.456L304.645 20.232C305.168 17.3947 306.475 15.2293 308.565 13.736C310.656 12.2053 313.139 11.44 316.013 11.44C319.411 11.44 322.155 12.2987 324.245 14.016C326.336 15.696 327.381 18.0107 327.381 20.96V32.44C327.381 34.3067 328.128 35.24 329.621 35.24C329.957 35.24 330.368 35.184 330.853 35.072L331.021 35.184V39.776C329.864 40.1493 328.688 40.336 327.493 40.336C326.149 40.336 324.936 40.0187 323.853 39.384C322.808 38.7493 322.043 37.704 321.557 36.248H321.389C320.195 37.5547 318.813 38.6 317.245 39.384C315.715 40.168 314.053 40.56 312.261 40.56ZM313.437 35.352C314.931 35.352 316.293 34.9973 317.525 34.288C318.757 33.5413 319.971 32.4773 321.165 31.096V27.008L313.885 27.848C312.429 28.0347 311.328 28.5013 310.581 29.248C309.835 29.9573 309.461 30.8347 309.461 31.88C309.461 33 309.835 33.8587 310.581 34.456C311.328 35.0533 312.28 35.352 313.437 35.352ZM336.147 12H342.363L351.939 33.336L361.571 12H367.731V40H362.019V22.92H361.851L361.627 24.488L354.683 40H349.195L342.251 24.488L342.027 22.92H341.859V40H336.147V12ZM383.768 39.048L372.456 12H379.512L386.176 27.848L386.624 31.6H386.904L394.52 12H401.184L385.448 51.2H378.896L383.768 39.048ZM429.057 40.56C425.697 40.56 422.841 39.4773 420.489 37.312C418.137 35.1093 416.681 32.2347 416.121 28.688H412.257V40H405.873V12H412.257V23.312H416.121C416.681 19.7653 418.137 16.9093 420.489 14.744C422.841 12.5413 425.697 11.44 429.057 11.44C431.596 11.44 433.854 12.0747 435.833 13.344C437.849 14.576 439.417 16.312 440.537 18.552C441.657 20.7547 442.217 23.2373 442.217 26C442.217 28.7627 441.657 31.264 440.537 33.504C439.417 35.7067 437.849 37.4427 435.833 38.712C433.854 39.944 431.596 40.56 429.057 40.56ZM429.057 34.904C430.998 34.904 432.604 34.12 433.873 32.552C435.18 30.9467 435.833 28.7627 435.833 26C435.833 23.2373 435.18 21.072 433.873 19.504C432.604 17.8987 430.998 17.096 429.057 17.096C427.116 17.096 425.51 17.8987 424.241 19.504C422.972 21.072 422.337 23.2373 422.337 26C422.337 28.7627 422.972 30.9467 424.241 32.552C425.51 34.12 427.116 34.904 429.057 34.904ZM0.584 82H14.528C17.216 82 19.3813 82.6907 21.024 84.072C22.704 85.416 23.544 87.1147 23.544 89.168C23.544 91.8187 22.4427 93.76 20.24 94.992V95.272C21.6587 95.7947 22.816 96.616 23.712 97.736C24.608 98.8187 25.056 100.163 25.056 101.768C25.056 104.232 24.1413 106.229 22.312 107.76C20.4827 109.253 17.9813 110 14.808 110H0.584V82ZM14.136 93.144C16.4507 93.144 17.608 92.136 17.608 90.12C17.608 88.1413 16.4507 87.152 14.136 87.152H6.856V93.144H14.136ZM14.976 104.792C17.44 104.792 18.672 103.709 18.672 101.544C18.672 99.3787 17.44 98.296 14.976 98.296H6.856V104.792H14.976ZM29.8965 82H36.2805V91.968H44.2325C47.2192 91.968 49.6832 92.7147 51.6245 94.208C53.5658 95.664 54.5365 97.9227 54.5365 100.984C54.5365 104.045 53.5658 106.323 51.6245 107.816C49.6832 109.272 47.2192 110 44.2325 110H29.8965V82ZM58.8485 82H65.2325V110H58.8485V82ZM43.3925 104.624C46.5658 104.624 48.1525 103.411 48.1525 100.984C48.1525 99.752 47.7605 98.8373 46.9765 98.24C46.2298 97.6427 45.0352 97.344 43.3925 97.344H36.2805V104.624H43.3925ZM72.3887 82H90.6447V87.208H78.7727V110H72.3887V82ZM108.632 110.56C105.757 110.56 103.181 109.925 100.904 108.656C98.6641 107.387 96.9094 105.651 95.6401 103.448C94.4081 101.245 93.7921 98.7627 93.7921 96C93.7921 93.2373 94.4081 90.7547 95.6401 88.552C96.9094 86.3493 98.6641 84.6133 100.904 83.344C103.181 82.0747 105.757 81.44 108.632 81.44C111.507 81.44 114.064 82.0747 116.304 83.344C118.544 84.6133 120.28 86.3493 121.512 88.552C122.781 90.7547 123.416 93.2373 123.416 96C123.416 98.7627 122.781 101.245 121.512 103.448C120.28 105.651 118.544 107.387 116.304 108.656C114.064 109.925 111.507 110.56 108.632 110.56ZM108.632 104.904C111.096 104.904 113.112 104.12 114.68 102.552C116.248 100.947 117.032 98.7627 117.032 96C117.032 93.2373 116.248 91.072 114.68 89.504C113.112 87.8987 111.096 87.096 108.632 87.096C106.168 87.096 104.133 87.8987 102.528 89.504C100.96 91.072 100.176 93.2373 100.176 96C100.176 98.7627 100.96 100.947 102.528 102.552C104.133 104.12 106.168 104.904 108.632 104.904ZM159.224 104.4V116.328H153.176V110H131.952V116.328H125.96V104.4H130.104C130.888 100.704 131.392 97.1947 131.616 93.872C131.84 90.512 131.952 86.5547 131.952 82H155.304V104.4H159.224ZM148.864 104.4V87.6H137.664C137.552 90.96 137.384 93.9653 137.16 96.616C136.973 99.2667 136.619 101.861 136.096 104.4H148.864ZM165.357 82H171.741V93.2H184.397V82H190.781V110H184.397V98.8H171.741V110H165.357V82ZM206.799 109.048L195.487 82H202.543L209.207 97.848L209.655 101.6H209.935L217.551 82H224.215L208.479 121.2H201.927L206.799 109.048ZM252.088 110.56C248.728 110.56 245.872 109.477 243.52 107.312C241.168 105.109 239.712 102.235 239.152 98.688H235.288V110H228.904V82H235.288V93.312H239.152C239.712 89.7653 241.168 86.9093 243.52 84.744C245.872 82.5413 248.728 81.44 252.088 81.44C254.627 81.44 256.886 82.0747 258.864 83.344C260.88 84.576 262.448 86.312 263.568 88.552C264.688 90.7547 265.248 93.2373 265.248 96C265.248 98.7627 264.688 101.264 263.568 103.504C262.448 105.707 260.88 107.443 258.864 108.712C256.886 109.944 254.627 110.56 252.088 110.56ZM252.088 104.904C254.03 104.904 255.635 104.12 256.904 102.552C258.211 100.947 258.864 98.7627 258.864 96C258.864 93.2373 258.211 91.072 256.904 89.504C255.635 87.8987 254.03 87.096 252.088 87.096C250.147 87.096 248.542 87.8987 247.272 89.504C246.003 91.072 245.368 93.2373 245.368 96C245.368 98.7627 246.003 100.947 247.272 102.552C248.542 104.12 250.147 104.904 252.088 104.904ZM306.013 110H282.717V82H289.101V104.4H301.757V82H308.141V104.4H312.061V116.328H306.013V110ZM329.386 110.56C326.623 110.56 324.178 109.963 322.05 108.768C319.922 107.536 318.279 105.819 317.122 103.616C315.964 101.413 315.386 98.8747 315.386 96C315.386 93.1627 316.02 90.6427 317.29 88.44C318.596 86.2373 320.314 84.52 322.442 83.288C324.57 82.056 326.884 81.44 329.386 81.44C332.036 81.44 334.388 82.0187 336.442 83.176C338.532 84.296 340.156 85.9387 341.314 88.104C342.471 90.2693 343.05 92.8267 343.05 95.776V97.736H321.602C321.751 100.013 322.535 101.824 323.954 103.168C325.41 104.475 327.258 105.128 329.498 105.128C331.402 105.128 332.97 104.699 334.202 103.84C335.434 102.944 336.311 101.731 336.834 100.2L342.434 100.536L342.602 100.816C341.706 103.952 340.119 106.36 337.842 108.04C335.602 109.72 332.783 110.56 329.386 110.56ZM337.002 93.088C336.815 91.072 336.012 89.504 334.594 88.384C333.212 87.2267 331.476 86.648 329.386 86.648C327.444 86.648 325.764 87.2267 324.346 88.384C322.964 89.504 322.087 91.072 321.714 93.088H337.002ZM348.451 82H354.835V93.2H367.491V82H373.875V110H367.491V98.8H354.835V110H348.451V82ZM389.893 109.048L378.581 82H385.637L392.301 97.848L392.749 101.6H393.029L400.645 82H407.309L391.573 121.2H385.021L389.893 109.048ZM0.584 152H6.968V163.2H19.624V152H26.008V180H19.624V168.8H6.968V180H0.584V152ZM40.7378 180.56C38.1991 180.56 36.0711 179.813 34.3538 178.32C32.6738 176.789 31.8338 174.755 31.8338 172.216C31.8338 169.64 32.7111 167.605 34.4658 166.112C36.2578 164.581 38.6098 163.667 41.5218 163.368L49.6418 162.528V161.016C49.6418 159.56 49.1564 158.459 48.1858 157.712C47.2151 156.928 45.9084 156.536 44.2658 156.536C42.8098 156.536 41.6151 156.891 40.6818 157.6C39.7858 158.309 39.2071 159.355 38.9458 160.736L33.4018 160.456L33.1218 160.232C33.6444 157.395 34.9511 155.229 37.0418 153.736C39.1324 152.205 41.6151 151.44 44.4898 151.44C47.8871 151.44 50.6311 152.299 52.7218 154.016C54.8124 155.696 55.8578 158.011 55.8578 160.96V172.44C55.8578 174.307 56.6044 175.24 58.0978 175.24C58.4338 175.24 58.8444 175.184 59.3298 175.072L59.4978 175.184V179.776C58.3404 180.149 57.1644 180.336 55.9698 180.336C54.6258 180.336 53.4124 180.019 52.3298 179.384C51.2844 178.749 50.5191 177.704 50.0338 176.248H49.8658C48.6711 177.555 47.2898 178.6 45.7218 179.384C44.1911 180.168 42.5298 180.56 40.7378 180.56ZM41.9138 175.352C43.4071 175.352 44.7698 174.997 46.0018 174.288C47.2338 173.541 48.4471 172.477 49.6418 171.096V167.008L42.3618 167.848C40.9058 168.035 39.8044 168.501 39.0578 169.248C38.3111 169.957 37.9378 170.835 37.9378 171.88C37.9378 173 38.3111 173.859 39.0578 174.456C39.8044 175.053 40.7564 175.352 41.9138 175.352ZM76.3809 152H101.805V180H95.4209V157.6H82.7649V180H76.3809V152ZM110.599 180.56C109.18 180.56 107.836 180.168 106.567 179.384V174.12L106.903 173.952C107.836 174.475 108.657 174.736 109.367 174.736C109.964 174.736 110.449 174.531 110.823 174.12C111.233 173.672 111.588 172.888 111.887 171.768C112.185 170.611 112.447 168.949 112.671 166.784L114.239 152H135.575V180H129.191V157.6H119.671L118.663 167.12C118.327 170.48 117.823 173.149 117.151 175.128C116.479 177.069 115.62 178.469 114.575 179.328C113.529 180.149 112.204 180.56 110.599 180.56ZM150.277 180.56C147.738 180.56 145.61 179.813 143.893 178.32C142.213 176.789 141.373 174.755 141.373 172.216C141.373 169.64 142.25 167.605 144.005 166.112C145.797 164.581 148.149 163.667 151.061 163.368L159.181 162.528V161.016C159.181 159.56 158.695 158.459 157.725 157.712C156.754 156.928 155.447 156.536 153.805 156.536C152.349 156.536 151.154 156.891 150.221 157.6C149.325 158.309 148.746 159.355 148.485 160.736L142.941 160.456L142.661 160.232C143.183 157.395 144.49 155.229 146.581 153.736C148.671 152.205 151.154 151.44 154.029 151.44C157.426 151.44 160.17 152.299 162.261 154.016C164.351 155.696 165.397 158.011 165.397 160.96V172.44C165.397 174.307 166.143 175.24 167.637 175.24C167.973 175.24 168.383 175.184 168.869 175.072L169.037 175.184V179.776C167.879 180.149 166.703 180.336 165.509 180.336C164.165 180.336 162.951 180.019 161.869 179.384C160.823 178.749 160.058 177.704 159.573 176.248H159.405C158.21 177.555 156.829 178.6 155.261 179.384C153.73 180.168 152.069 180.56 150.277 180.56ZM151.453 175.352C152.946 175.352 154.309 174.997 155.541 174.288C156.773 173.541 157.986 172.477 159.181 171.096V167.008L151.901 167.848C150.445 168.035 149.343 168.501 148.597 169.248C147.85 169.957 147.477 170.835 147.477 171.88C147.477 173 147.85 173.859 148.597 174.456C149.343 175.053 150.295 175.352 151.453 175.352ZM174.162 152H180.546V163.2H193.202V152H199.586V180H193.202V168.8H180.546V180H174.162V152ZM219.3 180.56C216.537 180.56 214.092 179.963 211.964 178.768C209.836 177.536 208.193 175.819 207.036 173.616C205.879 171.413 205.3 168.875 205.3 166C205.3 163.163 205.935 160.643 207.204 158.44C208.511 156.237 210.228 154.52 212.356 153.288C214.484 152.056 216.799 151.44 219.3 151.44C221.951 151.44 224.303 152.019 226.356 153.176C228.447 154.296 230.071 155.939 231.228 158.104C232.385 160.269 232.964 162.827 232.964 165.776V167.736H211.516C211.665 170.013 212.449 171.824 213.868 173.168C215.324 174.475 217.172 175.128 219.412 175.128C221.316 175.128 222.884 174.699 224.116 173.84C225.348 172.944 226.225 171.731 226.748 170.2L232.348 170.536L232.516 170.816C231.62 173.952 230.033 176.36 227.756 178.04C225.516 179.72 222.697 180.56 219.3 180.56ZM226.916 163.088C226.729 161.072 225.927 159.504 224.508 158.384C223.127 157.227 221.391 156.648 219.3 156.648C217.359 156.648 215.679 157.227 214.26 158.384C212.879 159.504 212.001 161.072 211.628 163.088H226.916ZM244.741 157.6H235.221V152H260.645V157.6H251.181V180H244.741V157.6ZM277.433 180.56C274.67 180.56 272.225 179.963 270.097 178.768C267.969 177.536 266.326 175.819 265.169 173.616C264.011 171.413 263.433 168.875 263.433 166C263.433 163.163 264.067 160.643 265.337 158.44C266.643 156.237 268.361 154.52 270.489 153.288C272.617 152.056 274.931 151.44 277.433 151.44C280.083 151.44 282.435 152.019 284.489 153.176C286.579 154.296 288.203 155.939 289.361 158.104C290.518 160.269 291.097 162.827 291.097 165.776V167.736H269.649C269.798 170.013 270.582 171.824 272.001 173.168C273.457 174.475 275.305 175.128 277.545 175.128C279.449 175.128 281.017 174.699 282.249 173.84C283.481 172.944 284.358 171.731 284.881 170.2L290.481 170.536L290.649 170.816C289.753 173.952 288.166 176.36 285.889 178.04C283.649 179.72 280.83 180.56 277.433 180.56ZM285.049 163.088C284.862 161.072 284.059 159.504 282.641 158.384C281.259 157.227 279.523 156.648 277.433 156.648C275.491 156.648 273.811 157.227 272.393 158.384C271.011 159.504 270.134 161.072 269.761 163.088H285.049Z" fill="#1A1A1A"/>
</svg>
