<svg width="265" height="34" viewBox="0 0 265 34" fill="none" xmlns="http://www.w3.org/2000/svg">
<path d="M0.448 0.799998H20.068V26H15.568V4.76H4.948V26H0.448V0.799998ZM32.8719 26.36C31.0959 26.36 29.5239 25.976 28.1559 25.208C26.7879 24.416 25.7319 23.312 24.9879 21.896C24.2439 20.48 23.8719 18.848 23.8719 17C23.8719 15.176 24.2799 13.556 25.0959 12.14C25.9359 10.724 27.0399 9.62 28.4079 8.828C29.7759 8.036 31.2639 7.64 32.8719 7.64C34.5759 7.64 36.0879 8.012 37.4079 8.756C38.7519 9.476 39.7959 10.532 40.5399 11.924C41.2839 13.316 41.6559 14.96 41.6559 16.856V18.116H27.8679C27.9639 19.58 28.4679 20.744 29.3799 21.608C30.3159 22.448 31.5039 22.868 32.9439 22.868C34.1679 22.868 35.1759 22.592 35.9679 22.04C36.7599 21.464 37.3239 20.684 37.6599 19.7L41.2599 19.916L41.3679 20.096C40.7919 22.112 39.7719 23.66 38.3079 24.74C36.8679 25.82 35.0559 26.36 32.8719 26.36ZM37.7679 15.128C37.6479 13.832 37.1319 12.824 36.2199 12.104C35.3319 11.36 34.2159 10.988 32.8719 10.988C31.6239 10.988 30.5439 11.36 29.6319 12.104C28.7439 12.824 28.1799 13.832 27.9399 15.128H37.7679ZM45.1282 8H49.2322V9.98C50.7442 8.42 52.6642 7.64 54.9922 7.64C56.4322 7.64 57.7882 8.012 59.0602 8.756C60.3562 9.476 61.3882 10.544 62.1562 11.96C62.9482 13.376 63.3442 15.056 63.3442 17C63.3442 18.944 62.9482 20.624 62.1562 22.04C61.3882 23.456 60.3442 24.536 59.0242 25.28C57.7282 26 56.3002 26.36 54.7402 26.36C53.6602 26.36 52.6282 26.18 51.6442 25.82C50.6842 25.46 49.8802 24.956 49.2322 24.308V33.2H45.1282V8ZM54.0562 22.832C55.5682 22.832 56.8042 22.34 57.7642 21.356C58.7242 20.348 59.2042 18.896 59.2042 17C59.2042 15.104 58.7242 13.664 57.7642 12.68C56.8042 11.672 55.5682 11.168 54.0562 11.168C52.7362 11.168 51.5962 11.6 50.6362 12.464C49.7002 13.328 49.2322 14.396 49.2322 15.668V18.296C49.2322 19.136 49.4482 19.904 49.8802 20.6C50.3122 21.296 50.9002 21.848 51.6442 22.256C52.3882 22.64 53.1922 22.832 54.0562 22.832ZM67.0306 8H75.9946C77.7226 8 79.1146 8.444 80.1706 9.332C81.2506 10.196 81.7906 11.288 81.7906 12.608C81.7906 14.312 81.0826 15.56 79.6666 16.352V16.532C80.5786 16.868 81.3226 17.396 81.8986 18.116C82.4746 18.812 82.7626 19.676 82.7626 20.708C82.7626 22.292 82.1746 23.576 80.9986 24.56C79.8226 25.52 78.2146 26 76.1746 26H67.0306V8ZM75.7426 15.164C77.2306 15.164 77.9746 14.516 77.9746 13.22C77.9746 11.948 77.2306 11.312 75.7426 11.312H71.0626V15.164H75.7426ZM76.2826 22.652C77.8666 22.652 78.6586 21.956 78.6586 20.564C78.6586 19.172 77.8666 18.476 76.2826 18.476H71.0626V22.652H76.2826ZM85.8743 8H89.9783V14.408H95.0903C97.0103 14.408 98.5943 14.888 99.8423 15.848C101.09 16.784 101.714 18.236 101.714 20.204C101.714 22.172 101.09 23.636 99.8423 24.596C98.5943 25.532 97.0103 26 95.0903 26H85.8743V8ZM104.486 8H108.59V26H104.486V8ZM94.5503 22.544C96.5903 22.544 97.6103 21.764 97.6103 20.204C97.6103 19.412 97.3583 18.824 96.8543 18.44C96.3743 18.056 95.6063 17.864 94.5503 17.864H89.9783V22.544H94.5503ZM113.191 8H117.223V20.132H117.295L117.439 19.52L125.611 8H129.715V26H125.683V13.616H125.611L125.359 14.48L117.259 26H113.191V8ZM121.363 5.84C119.851 5.84 118.663 5.396 117.799 4.508C116.935 3.62 116.503 2.456 116.503 1.016H119.707C119.707 1.544 119.863 1.976 120.175 2.312C120.487 2.648 120.883 2.816 121.363 2.816C121.843 2.816 122.227 2.648 122.515 2.312C122.827 1.976 122.983 1.544 122.983 1.016H126.187C126.187 2.456 125.755 3.62 124.891 4.508C124.051 5.396 122.875 5.84 121.363 5.84ZM141.878 8H150.842C152.57 8 153.962 8.444 155.018 9.332C156.098 10.196 156.638 11.288 156.638 12.608C156.638 14.312 155.93 15.56 154.514 16.352V16.532C155.426 16.868 156.17 17.396 156.746 18.116C157.322 18.812 157.61 19.676 157.61 20.708C157.61 22.292 157.022 23.576 155.846 24.56C154.67 25.52 153.062 26 151.022 26H141.878V8ZM150.59 15.164C152.078 15.164 152.822 14.516 152.822 13.22C152.822 11.948 152.078 11.312 150.59 11.312H145.91V15.164H150.59ZM151.13 22.652C152.714 22.652 153.506 21.956 153.506 20.564C153.506 19.172 152.714 18.476 151.13 18.476H145.91V22.652H151.13ZM169.326 26.36C167.478 26.36 165.822 25.952 164.358 25.136C162.918 24.32 161.79 23.204 160.974 21.788C160.182 20.372 159.786 18.776 159.786 17C159.786 15.224 160.182 13.628 160.974 12.212C161.79 10.796 162.918 9.68 164.358 8.864C165.822 8.048 167.478 7.64 169.326 7.64C171.174 7.64 172.818 8.048 174.258 8.864C175.698 9.68 176.814 10.796 177.606 12.212C178.422 13.628 178.83 15.224 178.83 17C178.83 18.776 178.422 20.372 177.606 21.788C176.814 23.204 175.698 24.32 174.258 25.136C172.818 25.952 171.174 26.36 169.326 26.36ZM169.326 22.724C170.91 22.724 172.206 22.22 173.214 21.212C174.222 20.18 174.726 18.776 174.726 17C174.726 15.224 174.222 13.832 173.214 12.824C172.206 11.792 170.91 11.276 169.326 11.276C167.742 11.276 166.434 11.792 165.402 12.824C164.394 13.832 163.89 15.224 163.89 17C163.89 18.776 164.394 20.18 165.402 21.212C166.434 22.22 167.742 22.724 169.326 22.724ZM182.519 8H198.863V26H194.759V11.6H186.623V26H182.519V8ZM203.472 8H207.576V9.98C209.088 8.42 211.008 7.64 213.336 7.64C214.776 7.64 216.132 8.012 217.404 8.756C218.7 9.476 219.732 10.544 220.5 11.96C221.292 13.376 221.688 15.056 221.688 17C221.688 18.944 221.292 20.624 220.5 22.04C219.732 23.456 218.688 24.536 217.368 25.28C216.072 26 214.644 26.36 213.084 26.36C212.004 26.36 210.972 26.18 209.988 25.82C209.028 25.46 208.224 24.956 207.576 24.308V33.2H203.472V8ZM212.4 22.832C213.912 22.832 215.148 22.34 216.108 21.356C217.068 20.348 217.548 18.896 217.548 17C217.548 15.104 217.068 13.664 216.108 12.68C215.148 11.672 213.912 11.168 212.4 11.168C211.08 11.168 209.94 11.6 208.98 12.464C208.044 13.328 207.576 14.396 207.576 15.668V18.296C207.576 19.136 207.792 19.904 208.224 20.6C208.656 21.296 209.244 21.848 209.988 22.256C210.732 22.64 211.536 22.832 212.4 22.832ZM233.978 26.36C232.13 26.36 230.474 25.952 229.01 25.136C227.57 24.32 226.442 23.204 225.626 21.788C224.834 20.372 224.438 18.776 224.438 17C224.438 15.224 224.834 13.628 225.626 12.212C226.442 10.796 227.57 9.68 229.01 8.864C230.474 8.048 232.13 7.64 233.978 7.64C235.826 7.64 237.47 8.048 238.91 8.864C240.35 9.68 241.466 10.796 242.258 12.212C243.074 13.628 243.482 15.224 243.482 17C243.482 18.776 243.074 20.372 242.258 21.788C241.466 23.204 240.35 24.32 238.91 25.136C237.47 25.952 235.826 26.36 233.978 26.36ZM233.978 22.724C235.562 22.724 236.858 22.22 237.866 21.212C238.874 20.18 239.378 18.776 239.378 17C239.378 15.224 238.874 13.832 237.866 12.824C236.858 11.792 235.562 11.276 233.978 11.276C232.394 11.276 231.086 11.792 230.054 12.824C229.046 13.832 228.542 15.224 228.542 17C228.542 18.776 229.046 20.18 230.054 21.212C231.086 22.22 232.394 22.724 233.978 22.724ZM255.451 26.36C253.723 26.36 252.151 25.964 250.735 25.172C249.343 24.38 248.239 23.276 247.423 21.86C246.631 20.444 246.235 18.824 246.235 17C246.235 15.176 246.631 13.556 247.423 12.14C248.239 10.724 249.343 9.62 250.735 8.828C252.151 8.036 253.723 7.64 255.451 7.64C257.803 7.64 259.747 8.24 261.283 9.44C262.819 10.64 263.755 12.308 264.091 14.444L263.983 14.624L260.383 14.84C260.119 13.736 259.567 12.872 258.727 12.248C257.887 11.6 256.807 11.276 255.487 11.276C253.951 11.276 252.691 11.78 251.707 12.788C250.747 13.796 250.267 15.2 250.267 17C250.267 18.8 250.747 20.204 251.707 21.212C252.691 22.22 253.951 22.724 255.487 22.724C256.807 22.724 257.875 22.424 258.691 21.824C259.507 21.2 260.071 20.312 260.383 19.16L263.983 19.376L264.091 19.556C263.659 21.716 262.687 23.396 261.175 24.596C259.663 25.772 257.755 26.36 255.451 26.36Z" fill="#1A1A1A"/>
</svg>
