<svg width="170" height="17" viewBox="0 0 170 17" fill="none" xmlns="http://www.w3.org/2000/svg">
<path d="M0.224 0.399999H5.3C6.104 0.399999 6.806 0.537999 7.406 0.813999C8.018 1.09 8.486 1.474 8.81 1.966C9.134 2.446 9.296 2.986 9.296 3.586C9.296 4.21 9.164 4.732 8.9 5.152C8.636 5.572 8.258 5.926 7.766 6.214V6.286C8.402 6.49 8.936 6.856 9.368 7.384C9.8 7.912 10.016 8.554 10.016 9.31C10.016 10.042 9.83 10.69 9.458 11.254C9.098 11.806 8.576 12.238 7.892 12.55C7.22 12.85 6.428 13 5.516 13H0.224V0.399999ZM5.354 5.566C6.578 5.566 7.19 5.032 7.19 3.964C7.19 2.908 6.578 2.38 5.354 2.38H2.474V5.566H5.354ZM5.876 11.02C6.476 11.02 6.95 10.876 7.298 10.588C7.646 10.288 7.82 9.856 7.82 9.292C7.82 8.728 7.646 8.296 7.298 7.996C6.95 7.696 6.476 7.546 5.876 7.546H2.474V11.02H5.876ZM14.0387 8.068L11.2487 4H13.5887L15.2447 6.52L16.9007 4H19.2407L16.4507 8.068L19.6007 13H17.2787L15.2447 9.688L13.2107 13H10.9067L14.0387 8.068ZM24.7919 13.18C23.8679 13.18 23.0399 12.976 22.3079 12.568C21.5879 12.16 21.0239 11.602 20.6159 10.894C20.2199 10.186 20.0219 9.388 20.0219 8.5C20.0219 7.612 20.2199 6.814 20.6159 6.106C21.0239 5.398 21.5879 4.84 22.3079 4.432C23.0399 4.024 23.8679 3.82 24.7919 3.82C25.7159 3.82 26.5379 4.024 27.2579 4.432C27.9779 4.84 28.5359 5.398 28.9319 6.106C29.3399 6.814 29.5439 7.612 29.5439 8.5C29.5439 9.388 29.3399 10.186 28.9319 10.894C28.5359 11.602 27.9779 12.16 27.2579 12.568C26.5379 12.976 25.7159 13.18 24.7919 13.18ZM24.7919 11.362C25.5839 11.362 26.2319 11.11 26.7359 10.606C27.2399 10.09 27.4919 9.388 27.4919 8.5C27.4919 7.612 27.2399 6.916 26.7359 6.412C26.2319 5.896 25.5839 5.638 24.7919 5.638C23.9999 5.638 23.3459 5.896 22.8299 6.412C22.3259 6.916 22.0739 7.612 22.0739 8.5C22.0739 9.388 22.3259 10.09 22.8299 10.606C23.3459 11.11 23.9999 11.362 24.7919 11.362ZM41.0536 11.2V15.034H39.1096V13H32.2876V15.034H30.3616V11.2H31.6936C31.9456 10.012 32.1076 8.884 32.1796 7.816C32.2516 6.736 32.2876 5.464 32.2876 4H39.7936V11.2H41.0536ZM37.7236 11.2V5.8H34.1236C34.0876 6.88 34.0336 7.846 33.9616 8.698C33.9016 9.55 33.7876 10.384 33.6196 11.2H37.7236ZM46.8043 4H48.8203V10.066H48.8563L48.9283 9.76L53.0143 4H55.0663V13H53.0503V6.808H53.0143L52.8883 7.24L48.8383 13H46.8043V4ZM61.1481 4H63.2001V4.99C63.9561 4.21 64.9161 3.82 66.0801 3.82C66.8001 3.82 67.4781 4.006 68.1141 4.378C68.7621 4.738 69.2781 5.272 69.6621 5.98C70.0581 6.688 70.2561 7.528 70.2561 8.5C70.2561 9.472 70.0581 10.312 69.6621 11.02C69.2781 11.728 68.7561 12.268 68.0961 12.64C67.4481 13 66.7341 13.18 65.9541 13.18C65.4141 13.18 64.8981 13.09 64.4061 12.91C63.9261 12.73 63.5241 12.478 63.2001 12.154V16.6H61.1481V4ZM65.6121 11.416C66.3681 11.416 66.9861 11.17 67.4661 10.678C67.9461 10.174 68.1861 9.448 68.1861 8.5C68.1861 7.552 67.9461 6.832 67.4661 6.34C66.9861 5.836 66.3681 5.584 65.6121 5.584C64.9521 5.584 64.3821 5.8 63.9021 6.232C63.4341 6.664 63.2001 7.198 63.2001 7.834V9.148C63.2001 9.568 63.3081 9.952 63.5241 10.3C63.7401 10.648 64.0341 10.924 64.4061 11.128C64.7781 11.32 65.1801 11.416 65.6121 11.416ZM76.1313 13.18C75.2433 13.18 74.4573 12.988 73.7733 12.604C73.0893 12.208 72.5613 11.656 72.1893 10.948C71.8173 10.24 71.6313 9.424 71.6313 8.5C71.6313 7.588 71.8353 6.778 72.2433 6.07C72.6633 5.362 73.2153 4.81 73.8993 4.414C74.5833 4.018 75.3273 3.82 76.1313 3.82C76.9833 3.82 77.7393 4.006 78.3993 4.378C79.0713 4.738 79.5933 5.266 79.9653 5.962C80.3373 6.658 80.5233 7.48 80.5233 8.428V9.058H73.6293C73.6773 9.79 73.9293 10.372 74.3853 10.804C74.8533 11.224 75.4473 11.434 76.1673 11.434C76.7793 11.434 77.2833 11.296 77.6793 11.02C78.0753 10.732 78.3573 10.342 78.5253 9.85L80.3253 9.958L80.3793 10.048C80.0913 11.056 79.5813 11.83 78.8493 12.37C78.1293 12.91 77.2233 13.18 76.1313 13.18ZM78.5793 7.564C78.5193 6.916 78.2613 6.412 77.8053 6.052C77.3613 5.68 76.8033 5.494 76.1313 5.494C75.5073 5.494 74.9673 5.68 74.5113 6.052C74.0673 6.412 73.7853 6.916 73.6653 7.564H78.5793ZM82.2594 4H88.1274V5.674H84.3114V13H82.2594V4ZM89.9235 4H91.9395V10.066H91.9755L92.0475 9.76L96.1335 4H98.1855V13H96.1695V6.808H96.1335L96.0075 7.24L91.9575 13H89.9235V4ZM104.628 13.18C103.764 13.18 102.978 12.982 102.27 12.586C101.574 12.19 101.022 11.638 100.614 10.93C100.218 10.222 100.02 9.412 100.02 8.5C100.02 7.588 100.218 6.778 100.614 6.07C101.022 5.362 101.574 4.81 102.27 4.414C102.978 4.018 103.764 3.82 104.628 3.82C105.804 3.82 106.776 4.12 107.544 4.72C108.312 5.32 108.78 6.154 108.948 7.222L108.894 7.312L107.094 7.42C106.962 6.868 106.686 6.436 106.266 6.124C105.846 5.8 105.306 5.638 104.646 5.638C103.878 5.638 103.248 5.89 102.756 6.394C102.276 6.898 102.036 7.6 102.036 8.5C102.036 9.4 102.276 10.102 102.756 10.606C103.248 11.11 103.878 11.362 104.646 11.362C105.306 11.362 105.84 11.212 106.248 10.912C106.656 10.6 106.938 10.156 107.094 9.58L108.894 9.688L108.948 9.778C108.732 10.858 108.246 11.698 107.49 12.298C106.734 12.886 105.78 13.18 104.628 13.18ZM112.873 5.8H109.813V4H117.985V5.8H114.943V13H112.873V5.8ZM119.929 4H121.981V4.99C122.737 4.21 123.697 3.82 124.861 3.82C125.581 3.82 126.259 4.006 126.895 4.378C127.543 4.738 128.059 5.272 128.443 5.98C128.839 6.688 129.037 7.528 129.037 8.5C129.037 9.472 128.839 10.312 128.443 11.02C128.059 11.728 127.537 12.268 126.877 12.64C126.229 13 125.515 13.18 124.735 13.18C124.195 13.18 123.679 13.09 123.187 12.91C122.707 12.73 122.305 12.478 121.981 12.154V16.6H119.929V4ZM124.393 11.416C125.149 11.416 125.767 11.17 126.247 10.678C126.727 10.174 126.967 9.448 126.967 8.5C126.967 7.552 126.727 6.832 126.247 6.34C125.767 5.836 125.149 5.584 124.393 5.584C123.733 5.584 123.163 5.8 122.683 6.232C122.215 6.664 121.981 7.198 121.981 7.834V9.148C121.981 9.568 122.089 9.952 122.305 10.3C122.521 10.648 122.815 10.924 123.187 11.128C123.559 11.32 123.961 11.416 124.393 11.416ZM133.311 13.18C132.495 13.18 131.811 12.94 131.259 12.46C130.719 11.968 130.449 11.314 130.449 10.498C130.449 9.67 130.731 9.016 131.295 8.536C131.871 8.044 132.627 7.75 133.563 7.654L136.173 7.384V6.898C136.173 6.43 136.017 6.076 135.705 5.836C135.393 5.584 134.973 5.458 134.445 5.458C133.977 5.458 133.593 5.572 133.293 5.8C133.005 6.028 132.819 6.364 132.735 6.808L130.953 6.718L130.863 6.646C131.031 5.734 131.451 5.038 132.123 4.558C132.795 4.066 133.593 3.82 134.517 3.82C135.609 3.82 136.491 4.096 137.163 4.648C137.835 5.188 138.171 5.932 138.171 6.88V10.57C138.171 11.17 138.411 11.47 138.891 11.47C138.999 11.47 139.131 11.452 139.287 11.416L139.341 11.452V12.928C138.969 13.048 138.591 13.108 138.207 13.108C137.775 13.108 137.385 13.006 137.037 12.802C136.701 12.598 136.455 12.262 136.299 11.794H136.245C135.861 12.214 135.417 12.55 134.913 12.802C134.421 13.054 133.887 13.18 133.311 13.18ZM133.689 11.506C134.169 11.506 134.607 11.392 135.003 11.164C135.399 10.924 135.789 10.582 136.173 10.138V8.824L133.833 9.094C133.365 9.154 133.011 9.304 132.771 9.544C132.531 9.772 132.411 10.054 132.411 10.39C132.411 10.75 132.531 11.026 132.771 11.218C133.011 11.41 133.317 11.506 133.689 11.506ZM148.476 13H140.988V4H143.04V11.2H147.108V4H149.16V11.2H150.42V15.034H148.476V13ZM152.414 4H154.43V10.066H154.466L154.538 9.76L158.624 4H160.676V13H158.66V6.808H158.624L158.498 7.24L154.448 13H152.414V4ZM164.076 9.634V9.49C163.092 8.902 162.6 8.062 162.6 6.97C162.6 6.046 162.912 5.32 163.536 4.792C164.172 4.264 165.018 4 166.074 4H169.494V13H167.478V9.886H166.092L164.328 13H162.132L164.076 9.634ZM167.478 8.302V5.602H166.038C165.57 5.602 165.204 5.722 164.94 5.962C164.676 6.19 164.544 6.514 164.544 6.934C164.544 7.366 164.676 7.702 164.94 7.942C165.204 8.182 165.57 8.302 166.038 8.302H167.478Z" fill="white"/>
</svg>
