<svg width="291" height="35" viewBox="0 0 291 35" fill="none" xmlns="http://www.w3.org/2000/svg">
<path d="M0.448 1.8H4.948V12.24H5.056L14.02 1.8H19.24L9.016 13.608L19.672 27H14.02L5.056 15.552H4.948V27H0.448V1.8ZM27.1367 27.36C25.5047 27.36 24.1367 26.88 23.0327 25.92C21.9527 24.936 21.4127 23.628 21.4127 21.996C21.4127 20.34 21.9767 19.032 23.1047 18.072C24.2567 17.088 25.7687 16.5 27.6407 16.308L32.8607 15.768V14.796C32.8607 13.86 32.5487 13.152 31.9247 12.672C31.3007 12.168 30.4607 11.916 29.4047 11.916C28.4687 11.916 27.7007 12.144 27.1007 12.6C26.5247 13.056 26.1527 13.728 25.9847 14.616L22.4207 14.436L22.2407 14.292C22.5767 12.468 23.4167 11.076 24.7607 10.116C26.1047 9.132 27.7007 8.64 29.5487 8.64C31.7327 8.64 33.4967 9.192 34.8407 10.296C36.1847 11.376 36.8567 12.864 36.8567 14.76V22.14C36.8567 23.34 37.3367 23.94 38.2967 23.94C38.5127 23.94 38.7767 23.904 39.0887 23.832L39.1967 23.904V26.856C38.4527 27.096 37.6967 27.216 36.9287 27.216C36.0647 27.216 35.2847 27.012 34.5887 26.604C33.9167 26.196 33.4247 25.524 33.1127 24.588H33.0047C32.2367 25.428 31.3487 26.1 30.3407 26.604C29.3567 27.108 28.2887 27.36 27.1367 27.36ZM27.8927 24.012C28.8527 24.012 29.7287 23.784 30.5207 23.328C31.3127 22.848 32.0927 22.164 32.8607 21.276V18.648L28.1807 19.188C27.2447 19.308 26.5367 19.608 26.0567 20.088C25.5767 20.544 25.3367 21.108 25.3367 21.78C25.3367 22.5 25.5767 23.052 26.0567 23.436C26.5367 23.82 27.1487 24.012 27.8927 24.012ZM42.4915 9H46.5955V15.192H46.7395L52.4635 9H57.5035L50.0875 16.956L58.0795 27H53.0755L46.7395 19.188H46.5955V27H42.4915V9ZM68.5774 9H72.5734L78.7294 22.716L84.9214 9H88.8814V27H85.2094V16.02H85.1014L84.9574 17.028L80.4934 27H76.9654L72.5014 17.028L72.3574 16.02H72.2494V27H68.5774V9ZM93.5032 9H97.6072V15.408H102.719C104.639 15.408 106.223 15.888 107.471 16.848C108.719 17.784 109.343 19.236 109.343 21.204C109.343 23.172 108.719 24.636 107.471 25.596C106.223 26.532 104.639 27 102.719 27H93.5032V9ZM112.115 9H116.219V27H112.115V9ZM102.179 23.544C104.219 23.544 105.239 22.764 105.239 21.204C105.239 20.412 104.987 19.824 104.483 19.44C104.003 19.056 103.235 18.864 102.179 18.864H97.6072V23.544H102.179ZM128.378 9H132.482V10.98C133.994 9.42 135.914 8.64 138.242 8.64C139.682 8.64 141.038 9.012 142.31 9.756C143.606 10.476 144.638 11.544 145.406 12.96C146.198 14.376 146.594 16.056 146.594 18C146.594 19.944 146.198 21.624 145.406 23.04C144.638 24.456 143.594 25.536 142.274 26.28C140.978 27 139.55 27.36 137.99 27.36C136.91 27.36 135.878 27.18 134.894 26.82C133.934 26.46 133.13 25.956 132.482 25.308V34.2H128.378V9ZM137.306 23.832C138.818 23.832 140.054 23.34 141.014 22.356C141.974 21.348 142.454 19.896 142.454 18C142.454 16.104 141.974 14.664 141.014 13.68C140.054 12.672 138.818 12.168 137.306 12.168C135.986 12.168 134.846 12.6 133.886 13.464C132.95 14.328 132.482 15.396 132.482 16.668V19.296C132.482 20.136 132.698 20.904 133.13 21.6C133.562 22.296 134.15 22.848 134.894 23.256C135.638 23.64 136.442 23.832 137.306 23.832ZM155.141 27.36C153.509 27.36 152.141 26.88 151.037 25.92C149.957 24.936 149.417 23.628 149.417 21.996C149.417 20.34 149.981 19.032 151.109 18.072C152.261 17.088 153.773 16.5 155.645 16.308L160.865 15.768V14.796C160.865 13.86 160.553 13.152 159.929 12.672C159.305 12.168 158.465 11.916 157.409 11.916C156.473 11.916 155.705 12.144 155.105 12.6C154.529 13.056 154.157 13.728 153.989 14.616L150.425 14.436L150.245 14.292C150.581 12.468 151.421 11.076 152.765 10.116C154.109 9.132 155.705 8.64 157.553 8.64C159.737 8.64 161.501 9.192 162.845 10.296C164.189 11.376 164.861 12.864 164.861 14.76V22.14C164.861 23.34 165.341 23.94 166.301 23.94C166.517 23.94 166.781 23.904 167.093 23.832L167.201 23.904V26.856C166.457 27.096 165.701 27.216 164.933 27.216C164.069 27.216 163.289 27.012 162.593 26.604C161.921 26.196 161.429 25.524 161.117 24.588H161.009C160.241 25.428 159.353 26.1 158.345 26.604C157.361 27.108 156.293 27.36 155.141 27.36ZM155.897 24.012C156.857 24.012 157.733 23.784 158.525 23.328C159.317 22.848 160.097 22.164 160.865 21.276V18.648L156.185 19.188C155.249 19.308 154.541 19.608 154.061 20.088C153.581 20.544 153.341 21.108 153.341 21.78C153.341 22.5 153.581 23.052 154.061 23.436C154.541 23.82 155.153 24.012 155.897 24.012ZM178.874 27.36C177.17 27.36 175.562 27.012 174.05 26.316C172.538 25.62 171.29 24.42 170.306 22.716C169.322 20.988 168.83 18.696 168.83 15.84C168.83 6.48 172.406 1.8 179.558 1.8H181.142C181.934 1.8 182.51 1.704 182.87 1.512C183.254 1.32 183.518 0.935999 183.662 0.36H187.046C186.95 1.824 186.398 3.036 185.39 3.996C184.406 4.932 182.87 5.4 180.782 5.4H179.414C177.278 5.4 175.586 5.988 174.338 7.164C173.114 8.34 172.322 10.176 171.962 12.672L171.818 13.572H171.89L172.178 12.636C172.994 11.22 174.014 10.2 175.238 9.576C176.462 8.952 177.758 8.64 179.126 8.64C180.686 8.64 182.138 9.012 183.482 9.756C184.85 10.5 185.942 11.58 186.758 12.996C187.598 14.412 188.018 16.08 188.018 18C188.018 19.92 187.586 21.588 186.722 23.004C185.858 24.42 184.718 25.5 183.302 26.244C181.91 26.988 180.434 27.36 178.874 27.36ZM178.586 23.76C180.074 23.76 181.322 23.28 182.33 22.32C183.362 21.336 183.878 19.908 183.878 18.036C183.878 16.116 183.35 14.664 182.294 13.68C181.238 12.696 179.942 12.204 178.406 12.204C176.918 12.204 175.658 12.696 174.626 13.68C173.594 14.64 173.078 16.056 173.078 17.928C173.078 19.848 173.606 21.3 174.662 22.284C175.718 23.268 177.026 23.76 178.586 23.76ZM200.299 27.36C198.451 27.36 196.795 26.952 195.331 26.136C193.891 25.32 192.763 24.204 191.947 22.788C191.155 21.372 190.759 19.776 190.759 18C190.759 16.224 191.155 14.628 191.947 13.212C192.763 11.796 193.891 10.68 195.331 9.864C196.795 9.048 198.451 8.64 200.299 8.64C202.147 8.64 203.791 9.048 205.231 9.864C206.671 10.68 207.787 11.796 208.579 13.212C209.395 14.628 209.803 16.224 209.803 18C209.803 19.776 209.395 21.372 208.579 22.788C207.787 24.204 206.671 25.32 205.231 26.136C203.791 26.952 202.147 27.36 200.299 27.36ZM200.299 23.724C201.883 23.724 203.179 23.22 204.187 22.212C205.195 21.18 205.699 19.776 205.699 18C205.699 16.224 205.195 14.832 204.187 13.824C203.179 12.792 201.883 12.276 200.299 12.276C198.715 12.276 197.407 12.792 196.375 13.824C195.367 14.832 194.863 16.224 194.863 18C194.863 19.776 195.367 21.18 196.375 22.212C197.407 23.22 198.715 23.724 200.299 23.724ZM217.695 12.6H211.575V9H227.919V12.6H221.835V27H217.695V12.6ZM235.578 27.36C233.946 27.36 232.578 26.88 231.474 25.92C230.394 24.936 229.854 23.628 229.854 21.996C229.854 20.34 230.418 19.032 231.546 18.072C232.698 17.088 234.21 16.5 236.082 16.308L241.302 15.768V14.796C241.302 13.86 240.99 13.152 240.366 12.672C239.742 12.168 238.902 11.916 237.846 11.916C236.91 11.916 236.142 12.144 235.542 12.6C234.966 13.056 234.594 13.728 234.426 14.616L230.862 14.436L230.682 14.292C231.018 12.468 231.858 11.076 233.202 10.116C234.546 9.132 236.142 8.64 237.99 8.64C240.174 8.64 241.938 9.192 243.282 10.296C244.626 11.376 245.298 12.864 245.298 14.76V22.14C245.298 23.34 245.778 23.94 246.738 23.94C246.954 23.94 247.218 23.904 247.53 23.832L247.638 23.904V26.856C246.894 27.096 246.138 27.216 245.37 27.216C244.506 27.216 243.726 27.012 243.03 26.604C242.358 26.196 241.866 25.524 241.554 24.588H241.446C240.678 25.428 239.79 26.1 238.782 26.604C237.798 27.108 236.73 27.36 235.578 27.36ZM236.334 24.012C237.294 24.012 238.17 23.784 238.962 23.328C239.754 22.848 240.534 22.164 241.302 21.276V18.648L236.622 19.188C235.686 19.308 234.978 19.608 234.498 20.088C234.018 20.544 233.778 21.108 233.778 21.78C233.778 22.5 234.018 23.052 234.498 23.436C234.978 23.82 235.59 24.012 236.334 24.012ZM258.083 27.36C256.307 27.36 254.735 26.976 253.367 26.208C251.999 25.416 250.943 24.312 250.199 22.896C249.455 21.48 249.083 19.848 249.083 18C249.083 16.176 249.491 14.556 250.307 13.14C251.147 11.724 252.251 10.62 253.619 9.828C254.987 9.036 256.475 8.64 258.083 8.64C259.787 8.64 261.299 9.012 262.619 9.756C263.963 10.476 265.007 11.532 265.751 12.924C266.495 14.316 266.867 15.96 266.867 17.856V19.116H253.079C253.175 20.58 253.679 21.744 254.591 22.608C255.527 23.448 256.715 23.868 258.155 23.868C259.379 23.868 260.387 23.592 261.179 23.04C261.971 22.464 262.535 21.684 262.871 20.7L266.471 20.916L266.579 21.096C266.003 23.112 264.983 24.66 263.519 25.74C262.079 26.82 260.267 27.36 258.083 27.36ZM262.979 16.128C262.859 14.832 262.343 13.824 261.431 13.104C260.543 12.36 259.427 11.988 258.083 11.988C256.835 11.988 255.755 12.36 254.843 13.104C253.955 13.824 253.391 14.832 253.151 16.128H262.979ZM270.339 9H274.335L280.491 22.716L286.683 9H290.643V27H286.971V16.02H286.863L286.719 17.028L282.255 27H278.727L274.263 17.028L274.119 16.02H274.011V27H270.339V9Z" fill="#1A1A1A"/>
</svg>
