<svg width="469" height="192" viewBox="0 0 469 192" fill="none" xmlns="http://www.w3.org/2000/svg">
<path d="M0.808 0.799997H16.6C19.1013 0.799997 21.2853 1.22933 23.152 2.088C25.056 2.94666 26.512 4.14133 27.52 5.672C28.528 7.16533 29.032 8.84533 29.032 10.712C29.032 12.6533 28.6213 14.2773 27.8 15.584C26.9787 16.8907 25.8027 17.992 24.272 18.888V19.112C26.2507 19.7467 27.912 20.8853 29.256 22.528C30.6 24.1707 31.272 26.168 31.272 28.52C31.272 30.7973 30.6933 32.8133 29.536 34.568C28.416 36.2853 26.792 37.6293 24.664 38.6C22.5733 39.5333 20.1093 40 17.272 40H0.808V0.799997ZM16.768 16.872C20.576 16.872 22.48 15.2107 22.48 11.888C22.48 8.60266 20.576 6.96 16.768 6.96H7.808V16.872H16.768ZM18.392 33.84C20.2587 33.84 21.7333 33.392 22.816 32.496C23.8987 31.5627 24.44 30.2187 24.44 28.464C24.44 26.7093 23.8987 25.3653 22.816 24.432C21.7333 23.4987 20.2587 23.032 18.392 23.032H7.808V33.84H18.392ZM36.7871 12H43.1711V21.968H51.1231C54.1098 21.968 56.5738 22.7147 58.5151 24.208C60.4565 25.664 61.4271 27.9227 61.4271 30.984C61.4271 34.0453 60.4565 36.3227 58.5151 37.816C56.5738 39.272 54.1098 40 51.1231 40H36.7871V12ZM65.7391 12H72.1231V40H65.7391V12ZM50.2831 34.624C53.4565 34.624 55.0431 33.4107 55.0431 30.984C55.0431 29.752 54.6511 28.8373 53.8671 28.24C53.1205 27.6427 51.9258 27.344 50.2831 27.344H43.1711V34.624H50.2831ZM92.1593 40.56C89.4713 40.56 87.026 39.944 84.8233 38.712C82.658 37.48 80.9406 35.7627 79.6713 33.56C78.4393 31.3573 77.8233 28.8373 77.8233 26C77.8233 23.1627 78.4393 20.6427 79.6713 18.44C80.9406 16.2373 82.658 14.52 84.8233 13.288C87.026 12.056 89.4713 11.44 92.1593 11.44C95.818 11.44 98.842 12.3733 101.231 14.24C103.621 16.1067 105.077 18.7013 105.599 22.024L105.431 22.304L99.8313 22.64C99.4206 20.9227 98.562 19.5787 97.2553 18.608C95.9486 17.6 94.2686 17.096 92.2153 17.096C89.826 17.096 87.866 17.88 86.3353 19.448C84.842 21.016 84.0953 23.2 84.0953 26C84.0953 28.8 84.842 30.984 86.3353 32.552C87.866 34.12 89.826 34.904 92.2153 34.904C94.2686 34.904 95.93 34.4373 97.1993 33.504C98.4686 32.5333 99.346 31.152 99.8313 29.36L105.431 29.696L105.599 29.976C104.927 33.336 103.415 35.9493 101.063 37.816C98.7113 39.6453 95.7433 40.56 92.1593 40.56ZM124.71 40.56C121.836 40.56 119.26 39.9253 116.982 38.656C114.742 37.3867 112.988 35.6507 111.718 33.448C110.486 31.2453 109.87 28.7627 109.87 26C109.87 23.2373 110.486 20.7547 111.718 18.552C112.988 16.3493 114.742 14.6133 116.982 13.344C119.26 12.0747 121.836 11.44 124.71 11.44C127.585 11.44 130.142 12.0747 132.382 13.344C134.622 14.6133 136.358 16.3493 137.59 18.552C138.86 20.7547 139.494 23.2373 139.494 26C139.494 28.7627 138.86 31.2453 137.59 33.448C136.358 35.6507 134.622 37.3867 132.382 38.656C130.142 39.9253 127.585 40.56 124.71 40.56ZM124.71 34.904C127.174 34.904 129.19 34.12 130.758 32.552C132.326 30.9467 133.11 28.7627 133.11 26C133.11 23.2373 132.326 21.072 130.758 19.504C129.19 17.8987 127.174 17.096 124.71 17.096C122.246 17.096 120.212 17.8987 118.606 19.504C117.038 21.072 116.254 23.2373 116.254 26C116.254 28.7627 117.038 30.9467 118.606 32.552C120.212 34.12 122.246 34.904 124.71 34.904ZM145.232 12H151.616V21.632H151.84L160.744 12H168.584L157.048 24.376L169.48 40H161.696L151.84 27.848H151.616V40H145.232V12ZM174.053 12H180.325V30.872H180.437L180.661 29.92L193.373 12H199.757V40H193.485V20.736H193.373L192.981 22.08L180.381 40H174.053V12ZM206.92 12H213.192V30.872H213.304L213.528 29.92L226.24 12H232.624V40H226.352V20.736H226.24L225.848 22.08L213.248 40H206.92V12ZM219.632 8.64C217.28 8.64 215.432 7.94933 214.088 6.568C212.744 5.18667 212.072 3.376 212.072 1.136H217.056C217.056 1.95733 217.299 2.62933 217.784 3.152C218.269 3.67466 218.885 3.936 219.632 3.936C220.379 3.936 220.976 3.67466 221.424 3.152C221.909 2.62933 222.152 1.95733 222.152 1.136H227.136C227.136 3.376 226.464 5.18667 225.12 6.568C223.813 7.94933 221.984 8.64 219.632 8.64ZM260.393 39.048L249.081 12H256.137L262.801 27.848L263.249 31.6H263.529L271.145 12H277.809L262.073 51.2H255.521L260.393 39.048ZM282.498 12H288.882V15.08C291.234 12.6533 294.221 11.44 297.842 11.44C300.082 11.44 302.191 12.0187 304.17 13.176C306.186 14.296 307.791 15.9573 308.986 18.16C310.218 20.3627 310.834 22.976 310.834 26C310.834 29.024 310.218 31.6373 308.986 33.84C307.791 36.0427 306.167 37.7227 304.114 38.88C302.098 40 299.877 40.56 297.45 40.56C295.77 40.56 294.165 40.28 292.634 39.72C291.141 39.16 289.89 38.376 288.882 37.368V51.2H282.498V12ZM296.386 35.072C298.738 35.072 300.661 34.3067 302.154 32.776C303.647 31.208 304.394 28.9493 304.394 26C304.394 23.0507 303.647 20.8107 302.154 19.28C300.661 17.712 298.738 16.928 296.386 16.928C294.333 16.928 292.559 17.6 291.066 18.944C289.61 20.288 288.882 21.9493 288.882 23.928V28.016C288.882 29.3227 289.218 30.5173 289.89 31.6C290.562 32.6827 291.477 33.5413 292.634 34.176C293.791 34.7733 295.042 35.072 296.386 35.072ZM329.952 40.56C327.078 40.56 324.502 39.9253 322.224 38.656C319.984 37.3867 318.23 35.6507 316.96 33.448C315.728 31.2453 315.112 28.7627 315.112 26C315.112 23.2373 315.728 20.7547 316.96 18.552C318.23 16.3493 319.984 14.6133 322.224 13.344C324.502 12.0747 327.078 11.44 329.952 11.44C332.827 11.44 335.384 12.0747 337.624 13.344C339.864 14.6133 341.6 16.3493 342.832 18.552C344.102 20.7547 344.736 23.2373 344.736 26C344.736 28.7627 344.102 31.2453 342.832 33.448C341.6 35.6507 339.864 37.3867 337.624 38.656C335.384 39.9253 332.827 40.56 329.952 40.56ZM329.952 34.904C332.416 34.904 334.432 34.12 336 32.552C337.568 30.9467 338.352 28.7627 338.352 26C338.352 23.2373 337.568 21.072 336 19.504C334.432 17.8987 332.416 17.096 329.952 17.096C327.488 17.096 325.454 17.8987 323.848 19.504C322.28 21.072 321.496 23.2373 321.496 26C321.496 28.7627 322.28 30.9467 323.848 32.552C325.454 34.12 327.488 34.904 329.952 34.904ZM350.475 12H364.419C367.107 12 369.272 12.6907 370.915 14.072C372.595 15.416 373.435 17.1147 373.435 19.168C373.435 21.8187 372.333 23.76 370.131 24.992V25.272C371.549 25.7947 372.707 26.616 373.603 27.736C374.499 28.8187 374.947 30.1627 374.947 31.768C374.947 34.232 374.032 36.2293 372.203 37.76C370.373 39.2533 367.872 40 364.699 40H350.475V12ZM364.027 23.144C366.341 23.144 367.499 22.136 367.499 20.12C367.499 18.1413 366.341 17.152 364.027 17.152H356.747V23.144H364.027ZM364.867 34.792C367.331 34.792 368.563 33.7093 368.563 31.544C368.563 29.3787 367.331 28.296 364.867 28.296H356.747V34.792H364.867ZM392.331 40.56C389.568 40.56 387.123 39.9627 384.995 38.768C382.867 37.536 381.224 35.8187 380.067 33.616C378.91 31.4133 378.331 28.8747 378.331 26C378.331 23.1627 378.966 20.6427 380.235 18.44C381.542 16.2373 383.259 14.52 385.387 13.288C387.515 12.056 389.83 11.44 392.331 11.44C394.982 11.44 397.334 12.0187 399.387 13.176C401.478 14.296 403.102 15.9387 404.259 18.104C405.416 20.2693 405.995 22.8267 405.995 25.776V27.736H384.547C384.696 30.0133 385.48 31.824 386.899 33.168C388.355 34.4747 390.203 35.128 392.443 35.128C394.347 35.128 395.915 34.6987 397.147 33.84C398.379 32.944 399.256 31.7307 399.779 30.2L405.379 30.536L405.547 30.816C404.651 33.952 403.064 36.36 400.787 38.04C398.547 39.72 395.728 40.56 392.331 40.56ZM399.947 23.088C399.76 21.072 398.958 19.504 397.539 18.384C396.158 17.2267 394.422 16.648 392.331 16.648C390.39 16.648 388.71 17.2267 387.291 18.384C385.91 19.504 385.032 21.072 384.659 23.088H399.947ZM411.397 12H417.781V23.2H430.437V12H436.821V40H430.437V28.8H417.781V40H411.397V12ZM443.99 12H450.374V21.968H458.326C461.313 21.968 463.777 22.7147 465.718 24.208C467.66 25.664 468.63 27.9227 468.63 30.984C468.63 34.0453 467.66 36.3227 465.718 37.816C463.777 39.272 461.313 40 458.326 40H443.99V12ZM457.486 34.624C460.66 34.624 462.246 33.4107 462.246 30.984C462.246 29.752 461.854 28.8373 461.07 28.24C460.324 27.6427 459.129 27.344 457.486 27.344H450.374V34.624H457.486ZM0.584 82H14.528C17.216 82 19.3813 82.6907 21.024 84.072C22.704 85.416 23.544 87.1147 23.544 89.168C23.544 91.8187 22.4427 93.76 20.24 94.992V95.272C21.6587 95.7947 22.816 96.616 23.712 97.736C24.608 98.8187 25.056 100.163 25.056 101.768C25.056 104.232 24.1413 106.229 22.312 107.76C20.4827 109.253 17.9813 110 14.808 110H0.584V82ZM14.136 93.144C16.4507 93.144 17.608 92.136 17.608 90.12C17.608 88.1413 16.4507 87.152 14.136 87.152H6.856V93.144H14.136ZM14.976 104.792C17.44 104.792 18.672 103.709 18.672 101.544C18.672 99.3787 17.44 98.296 14.976 98.296H6.856V104.792H14.976ZM43.2805 110.56C40.4058 110.56 37.8298 109.925 35.5525 108.656C33.3125 107.387 31.5578 105.651 30.2885 103.448C29.0565 101.245 28.4405 98.7627 28.4405 96C28.4405 93.2373 29.0565 90.7547 30.2885 88.552C31.5578 86.3493 33.3125 84.6133 35.5525 83.344C37.8298 82.0747 40.4058 81.44 43.2805 81.44C46.1552 81.44 48.7125 82.0747 50.9525 83.344C53.1925 84.6133 54.9285 86.3493 56.1605 88.552C57.4298 90.7547 58.0645 93.2373 58.0645 96C58.0645 98.7627 57.4298 101.245 56.1605 103.448C54.9285 105.651 53.1925 107.387 50.9525 108.656C48.7125 109.925 46.1552 110.56 43.2805 110.56ZM43.2805 104.904C45.7445 104.904 47.7605 104.12 49.3285 102.552C50.8965 100.947 51.6805 98.7627 51.6805 96C51.6805 93.2373 50.8965 91.072 49.3285 89.504C47.7605 87.8987 45.7445 87.096 43.2805 87.096C40.8165 87.096 38.7818 87.8987 37.1765 89.504C35.6085 91.072 34.8245 93.2373 34.8245 96C34.8245 98.7627 35.6085 100.947 37.1765 102.552C38.7818 104.12 40.8165 104.904 43.2805 104.904ZM63.8028 82H77.7468C80.4348 82 82.6001 82.6907 84.2428 84.072C85.9228 85.416 86.7628 87.1147 86.7628 89.168C86.7628 91.8187 85.6614 93.76 83.4588 94.992V95.272C84.8774 95.7947 86.0348 96.616 86.9308 97.736C87.8268 98.8187 88.2748 100.163 88.2748 101.768C88.2748 104.232 87.3601 106.229 85.5308 107.76C83.7014 109.253 81.2001 110 78.0268 110H63.8028V82ZM77.3548 93.144C79.6694 93.144 80.8268 92.136 80.8268 90.12C80.8268 88.1413 79.6694 87.152 77.3548 87.152H70.0748V93.144H77.3548ZM78.1948 104.792C80.6588 104.792 81.8908 103.709 81.8908 101.544C81.8908 99.3787 80.6588 98.296 78.1948 98.296H70.0748V104.792H78.1948ZM95.1221 110.56C93.7034 110.56 92.3594 110.168 91.0901 109.384V104.12L91.4261 103.952C92.3594 104.475 93.1807 104.736 93.8901 104.736C94.4874 104.736 94.9727 104.531 95.3461 104.12C95.7567 103.672 96.1114 102.888 96.4101 101.768C96.7087 100.611 96.9701 98.9493 97.1941 96.784L98.7621 82H120.098V110H113.714V87.6H104.194L103.186 97.12C102.85 100.48 102.346 103.149 101.674 105.128C101.002 107.069 100.143 108.469 99.0981 109.328C98.0527 110.149 96.7274 110.56 95.1221 110.56ZM139.784 110.56C137.022 110.56 134.576 109.963 132.448 108.768C130.32 107.536 128.678 105.819 127.52 103.616C126.363 101.413 125.784 98.8747 125.784 96C125.784 93.1627 126.419 90.6427 127.688 88.44C128.995 86.2373 130.712 84.52 132.84 83.288C134.968 82.056 137.283 81.44 139.784 81.44C142.435 81.44 144.787 82.0187 146.84 83.176C148.931 84.296 150.555 85.9387 151.712 88.104C152.87 90.2693 153.448 92.8267 153.448 95.776V97.736H132C132.15 100.013 132.934 101.824 134.352 103.168C135.808 104.475 137.656 105.128 139.896 105.128C141.8 105.128 143.368 104.699 144.6 103.84C145.832 102.944 146.71 101.731 147.232 100.2L152.832 100.536L153 100.816C152.104 103.952 150.518 106.36 148.24 108.04C146 109.72 143.182 110.56 139.784 110.56ZM147.4 93.088C147.214 91.072 146.411 89.504 144.992 88.384C143.611 87.2267 141.875 86.648 139.784 86.648C137.843 86.648 136.163 87.2267 134.744 88.384C133.363 89.504 132.486 91.072 132.112 93.088H147.4ZM177.447 98.8C174.983 99.7707 172.631 100.256 170.391 100.256C166.994 100.256 164.138 99.3973 161.823 97.68C159.546 95.9627 158.407 93.2187 158.407 89.448V82H164.791V88.44C164.791 92.6587 166.975 94.768 171.343 94.768C173.322 94.768 175.356 94.264 177.447 93.256V82H183.831V110H177.447V98.8ZM203.55 110.56C200.787 110.56 198.342 109.963 196.214 108.768C194.086 107.536 192.443 105.819 191.286 103.616C190.129 101.413 189.55 98.8747 189.55 96C189.55 93.1627 190.185 90.6427 191.454 88.44C192.761 86.2373 194.478 84.52 196.606 83.288C198.734 82.056 201.049 81.44 203.55 81.44C206.201 81.44 208.553 82.0187 210.606 83.176C212.697 84.296 214.321 85.9387 215.478 88.104C216.635 90.2693 217.214 92.8267 217.214 95.776V97.736H195.766C195.915 100.013 196.699 101.824 198.118 103.168C199.574 104.475 201.422 105.128 203.662 105.128C205.566 105.128 207.134 104.699 208.366 103.84C209.598 102.944 210.475 101.731 210.998 100.2L216.598 100.536L216.766 100.816C215.87 103.952 214.283 106.36 212.006 108.04C209.766 109.72 206.947 110.56 203.55 110.56ZM211.166 93.088C210.979 91.072 210.177 89.504 208.758 88.384C207.377 87.2267 205.641 86.648 203.55 86.648C201.609 86.648 199.929 87.2267 198.51 88.384C197.129 89.504 196.251 91.072 195.878 93.088H211.166ZM222.615 82H228.999V93.2H241.655V82H248.039V110H241.655V98.8H228.999V110H222.615V82ZM255.209 82H261.481V100.872H261.593L261.817 99.92L274.529 82H280.913V110H274.641V90.736H274.529L274.137 92.08L261.537 110H255.209V82ZM291.492 99.528V99.08C288.431 97.2507 286.9 94.6373 286.9 91.24C286.9 88.3653 287.871 86.1067 289.812 84.464C291.791 82.8213 294.423 82 297.708 82H308.348V110H302.076V100.312H297.764L292.276 110H285.444L291.492 99.528ZM302.076 95.384V86.984H297.596C296.14 86.984 295.002 87.3573 294.18 88.104C293.359 88.8133 292.948 89.8213 292.948 91.128C292.948 92.472 293.359 93.5173 294.18 94.264C295.002 95.0107 296.14 95.384 297.596 95.384H302.076ZM0.584 152H26.008V180H19.624V157.6H6.968V180H0.584V152ZM33.1778 152H39.5618V155.08C41.9138 152.653 44.9004 151.44 48.5218 151.44C50.7618 151.44 52.8711 152.019 54.8498 153.176C56.8658 154.296 58.4711 155.957 59.6658 158.16C60.8978 160.363 61.5138 162.976 61.5138 166C61.5138 169.024 60.8978 171.637 59.6658 173.84C58.4711 176.043 56.8471 177.723 54.7938 178.88C52.7778 180 50.5564 180.56 48.1298 180.56C46.4498 180.56 44.8444 180.28 43.3138 179.72C41.8204 179.16 40.5698 178.376 39.5618 177.368V191.2H33.1778V152ZM47.0658 175.072C49.4178 175.072 51.3404 174.307 52.8338 172.776C54.3271 171.208 55.0738 168.949 55.0738 166C55.0738 163.051 54.3271 160.811 52.8338 159.28C51.3404 157.712 49.4178 156.928 47.0658 156.928C45.0124 156.928 43.2391 157.6 41.7458 158.944C40.2898 160.288 39.5618 161.949 39.5618 163.928V168.016C39.5618 169.323 39.8978 170.517 40.5698 171.6C41.2418 172.683 42.1564 173.541 43.3138 174.176C44.4711 174.773 45.7218 175.072 47.0658 175.072ZM79.7921 180.56C77.0294 180.56 74.5841 179.963 72.4561 178.768C70.3281 177.536 68.6854 175.819 67.5281 173.616C66.3707 171.413 65.7921 168.875 65.7921 166C65.7921 163.163 66.4267 160.643 67.6961 158.44C69.0027 156.237 70.7201 154.52 72.8481 153.288C74.9761 152.056 77.2907 151.44 79.7921 151.44C82.4427 151.44 84.7947 152.019 86.8481 153.176C88.9387 154.296 90.5627 155.939 91.7201 158.104C92.8774 160.269 93.4561 162.827 93.4561 165.776V167.736H72.0081C72.1574 170.013 72.9414 171.824 74.3601 173.168C75.8161 174.475 77.6641 175.128 79.9041 175.128C81.8081 175.128 83.3761 174.699 84.6081 173.84C85.8401 172.944 86.7174 171.731 87.2401 170.2L92.8401 170.536L93.0081 170.816C92.1121 173.952 90.5254 176.36 88.2481 178.04C86.0081 179.72 83.1894 180.56 79.7921 180.56ZM87.4081 163.088C87.2214 161.072 86.4187 159.504 85.0001 158.384C83.6187 157.227 81.8827 156.648 79.7921 156.648C77.8507 156.648 76.1707 157.227 74.7521 158.384C73.3707 159.504 72.4934 161.072 72.1201 163.088H87.4081ZM129.693 174.4V186.328H123.645V180H102.421V186.328H96.4289V174.4H100.573C101.357 170.704 101.861 167.195 102.085 163.872C102.309 160.512 102.421 156.555 102.421 152H125.773V174.4H129.693ZM119.333 174.4V157.6H108.133C108.021 160.96 107.853 163.965 107.629 166.616C107.442 169.267 107.088 171.861 106.565 174.4H119.333ZM147.284 180.56C144.596 180.56 142.151 179.944 139.948 178.712C137.783 177.48 136.066 175.763 134.796 173.56C133.564 171.357 132.948 168.837 132.948 166C132.948 163.163 133.564 160.643 134.796 158.44C136.066 156.237 137.783 154.52 139.948 153.288C142.151 152.056 144.596 151.44 147.284 151.44C150.943 151.44 153.967 152.373 156.356 154.24C158.746 156.107 160.202 158.701 160.724 162.024L160.556 162.304L154.956 162.64C154.546 160.923 153.687 159.579 152.38 158.608C151.074 157.6 149.394 157.096 147.34 157.096C144.951 157.096 142.991 157.88 141.46 159.448C139.967 161.016 139.22 163.2 139.22 166C139.22 168.8 139.967 170.984 141.46 172.552C142.991 174.12 144.951 174.904 147.34 174.904C149.394 174.904 151.055 174.437 152.324 173.504C153.594 172.533 154.471 171.152 154.956 169.36L160.556 169.696L160.724 169.976C160.052 173.336 158.54 175.949 156.188 177.816C153.836 179.645 150.868 180.56 147.284 180.56ZM172.936 157.6H163.416V152H188.84V157.6H179.376V180H172.936V157.6ZM200.753 180.56C198.215 180.56 196.087 179.813 194.369 178.32C192.689 176.789 191.849 174.755 191.849 172.216C191.849 169.64 192.727 167.605 194.481 166.112C196.273 164.581 198.625 163.667 201.537 163.368L209.657 162.528V161.016C209.657 159.56 209.172 158.459 208.201 157.712C207.231 156.928 205.924 156.536 204.281 156.536C202.825 156.536 201.631 156.891 200.697 157.6C199.801 158.309 199.223 159.355 198.961 160.736L193.417 160.456L193.137 160.232C193.66 157.395 194.967 155.229 197.057 153.736C199.148 152.205 201.631 151.44 204.505 151.44C207.903 151.44 210.647 152.299 212.737 154.016C214.828 155.696 215.873 158.011 215.873 160.96V172.44C215.873 174.307 216.62 175.24 218.113 175.24C218.449 175.24 218.86 175.184 219.345 175.072L219.513 175.184V179.776C218.356 180.149 217.18 180.336 215.985 180.336C214.641 180.336 213.428 180.019 212.345 179.384C211.3 178.749 210.535 177.704 210.049 176.248H209.881C208.687 177.555 207.305 178.6 205.737 179.384C204.207 180.168 202.545 180.56 200.753 180.56ZM201.929 175.352C203.423 175.352 204.785 174.997 206.017 174.288C207.249 173.541 208.463 172.477 209.657 171.096V167.008L202.377 167.848C200.921 168.035 199.82 168.501 199.073 169.248C198.327 169.957 197.953 170.835 197.953 171.88C197.953 173 198.327 173.859 199.073 174.456C199.82 175.053 200.772 175.352 201.929 175.352ZM224.639 152H238.583C241.271 152 243.436 152.691 245.079 154.072C246.759 155.416 247.599 157.115 247.599 159.168C247.599 161.819 246.497 163.76 244.295 164.992V165.272C245.713 165.795 246.871 166.616 247.767 167.736C248.663 168.819 249.111 170.163 249.111 171.768C249.111 174.232 248.196 176.229 246.367 177.76C244.537 179.253 242.036 180 238.863 180H224.639V152ZM238.191 163.144C240.505 163.144 241.663 162.136 241.663 160.12C241.663 158.141 240.505 157.152 238.191 157.152H230.911V163.144H238.191ZM239.031 174.792C241.495 174.792 242.727 173.709 242.727 171.544C242.727 169.379 241.495 168.296 239.031 168.296H230.911V174.792H239.031ZM253.951 152H260.223V170.872H260.335L260.559 169.92L273.271 152H279.655V180H273.383V160.736H273.271L272.879 162.08L260.279 180H253.951V152ZM294.616 157.6H285.096V152H310.52V157.6H301.056V180H294.616V157.6ZM327.308 180.56C324.545 180.56 322.1 179.963 319.972 178.768C317.844 177.536 316.201 175.819 315.044 173.616C313.886 171.413 313.308 168.875 313.308 166C313.308 163.163 313.942 160.643 315.212 158.44C316.518 156.237 318.236 154.52 320.364 153.288C322.492 152.056 324.806 151.44 327.308 151.44C329.958 151.44 332.31 152.019 334.364 153.176C336.454 154.296 338.078 155.939 339.236 158.104C340.393 160.269 340.972 162.827 340.972 165.776V167.736H319.524C319.673 170.013 320.457 171.824 321.876 173.168C323.332 174.475 325.18 175.128 327.42 175.128C329.324 175.128 330.892 174.699 332.124 173.84C333.356 172.944 334.233 171.731 334.756 170.2L340.356 170.536L340.524 170.816C339.628 173.952 338.041 176.36 335.764 178.04C333.524 179.72 330.705 180.56 327.308 180.56ZM334.924 163.088C334.737 161.072 333.934 159.504 332.516 158.384C331.134 157.227 329.398 156.648 327.308 156.648C325.366 156.648 323.686 157.227 322.268 158.384C320.886 159.504 320.009 161.072 319.636 163.088H334.924ZM347.286 180.56C345.867 180.56 344.523 180.168 343.254 179.384V174.12L343.59 173.952C344.523 174.475 345.345 174.736 346.054 174.736C346.651 174.736 347.137 174.531 347.51 174.12C347.921 173.672 348.275 172.888 348.574 171.768C348.873 170.611 349.134 168.949 349.358 166.784L350.926 152H372.262V180H365.878V157.6H356.358L355.35 167.12C355.014 170.48 354.51 173.149 353.838 175.128C353.166 177.069 352.307 178.469 351.262 179.328C350.217 180.149 348.891 180.56 347.286 180.56ZM391.948 180.56C389.186 180.56 386.74 179.963 384.612 178.768C382.484 177.536 380.842 175.819 379.684 173.616C378.527 171.413 377.948 168.875 377.948 166C377.948 163.163 378.583 160.643 379.852 158.44C381.159 156.237 382.876 154.52 385.004 153.288C387.132 152.056 389.447 151.44 391.948 151.44C394.599 151.44 396.951 152.019 399.004 153.176C401.095 154.296 402.719 155.939 403.876 158.104C405.034 160.269 405.612 162.827 405.612 165.776V167.736H384.164C384.314 170.013 385.098 171.824 386.516 173.168C387.972 174.475 389.82 175.128 392.06 175.128C393.964 175.128 395.532 174.699 396.764 173.84C397.996 172.944 398.874 171.731 399.396 170.2L404.996 170.536L405.164 170.816C404.268 173.952 402.682 176.36 400.404 178.04C398.164 179.72 395.346 180.56 391.948 180.56ZM399.564 163.088C399.378 161.072 398.575 159.504 397.156 158.384C395.775 157.227 394.039 156.648 391.948 156.648C390.007 156.648 388.327 157.227 386.908 158.384C385.527 159.504 384.65 161.072 384.276 163.088H399.564ZM411.014 152H417.286V170.872H417.398L417.622 169.92L430.334 152H436.718V180H430.446V160.736H430.334L429.942 162.08L417.342 180H411.014V152ZM423.726 148.64C421.374 148.64 419.526 147.949 418.182 146.568C416.838 145.187 416.166 143.376 416.166 141.136H421.15C421.15 141.957 421.392 142.629 421.878 143.152C422.363 143.675 422.979 143.936 423.726 143.936C424.472 143.936 425.07 143.675 425.518 143.152C426.003 142.629 426.246 141.957 426.246 141.136H431.23C431.23 143.376 430.558 145.187 429.214 146.568C427.907 147.949 426.078 148.64 423.726 148.64Z" fill="#1A1A1A"/>
</svg>
