<svg width="95" height="15" viewBox="0 0 95 15" fill="none" xmlns="http://www.w3.org/2000/svg">
<path d="M0.224 1.4H2.474V10.778H2.528L2.636 10.274L7.838 1.4H10.304V14H8.054V4.622H8L7.892 5.126L2.69 14H0.224V1.4ZM12.6852 5H14.7372V8.6H18.8052V5H20.8572V14H18.8052V10.4H14.7372V14H12.6852V5ZM27.3018 14.18C26.4378 14.18 25.6518 13.982 24.9438 13.586C24.2478 13.19 23.6958 12.638 23.2878 11.93C22.8918 11.222 22.6938 10.412 22.6938 9.5C22.6938 8.588 22.8918 7.778 23.2878 7.07C23.6958 6.362 24.2478 5.81 24.9438 5.414C25.6518 5.018 26.4378 4.82 27.3018 4.82C28.4778 4.82 29.4498 5.12 30.2178 5.72C30.9858 6.32 31.4538 7.154 31.6218 8.222L31.5678 8.312L29.7678 8.42C29.6358 7.868 29.3598 7.436 28.9398 7.124C28.5198 6.8 27.9798 6.638 27.3198 6.638C26.5518 6.638 25.9218 6.89 25.4298 7.394C24.9498 7.898 24.7098 8.6 24.7098 9.5C24.7098 10.4 24.9498 11.102 25.4298 11.606C25.9218 12.11 26.5518 12.362 27.3198 12.362C27.9798 12.362 28.5138 12.212 28.9218 11.912C29.3298 11.6 29.6118 11.156 29.7678 10.58L31.5678 10.688L31.6218 10.778C31.4058 11.858 30.9198 12.698 30.1638 13.298C29.4078 13.886 28.4538 14.18 27.3018 14.18ZM35.5469 6.8H32.4869V5H40.6589V6.8H37.6169V14H35.5469V6.8ZM44.4883 14.18C43.6723 14.18 42.9883 13.94 42.4363 13.46C41.8963 12.968 41.6263 12.314 41.6263 11.498C41.6263 10.67 41.9083 10.016 42.4723 9.536C43.0483 9.044 43.8043 8.75 44.7403 8.654L47.3503 8.384V7.898C47.3503 7.43 47.1943 7.076 46.8823 6.836C46.5703 6.584 46.1503 6.458 45.6223 6.458C45.1543 6.458 44.7703 6.572 44.4703 6.8C44.1823 7.028 43.9963 7.364 43.9123 7.808L42.1303 7.718L42.0403 7.646C42.2083 6.734 42.6283 6.038 43.3003 5.558C43.9723 5.066 44.7703 4.82 45.6943 4.82C46.7863 4.82 47.6683 5.096 48.3403 5.648C49.0123 6.188 49.3483 6.932 49.3483 7.88V11.57C49.3483 12.17 49.5883 12.47 50.0683 12.47C50.1763 12.47 50.3083 12.452 50.4643 12.416L50.5183 12.452V13.928C50.1463 14.048 49.7683 14.108 49.3843 14.108C48.9523 14.108 48.5623 14.006 48.2143 13.802C47.8783 13.598 47.6323 13.262 47.4763 12.794H47.4223C47.0383 13.214 46.5943 13.55 46.0903 13.802C45.5983 14.054 45.0643 14.18 44.4883 14.18ZM44.8663 12.506C45.3463 12.506 45.7843 12.392 46.1803 12.164C46.5763 11.924 46.9663 11.582 47.3503 11.138V9.824L45.0103 10.094C44.5423 10.154 44.1883 10.304 43.9483 10.544C43.7083 10.772 43.5883 11.054 43.5883 11.39C43.5883 11.75 43.7083 12.026 43.9483 12.218C44.1883 12.41 44.4943 12.506 44.8663 12.506ZM56.3548 14.18C55.5028 14.18 54.6988 14.006 53.9428 13.658C53.1868 13.31 52.5628 12.71 52.0708 11.858C51.5788 10.994 51.3328 9.848 51.3328 8.42C51.3328 3.74 53.1208 1.4 56.6968 1.4H57.4888C57.8848 1.4 58.1728 1.352 58.3528 1.256C58.5448 1.16 58.6768 0.968 58.7488 0.68H60.4408C60.3928 1.412 60.1168 2.018 59.6128 2.498C59.1208 2.966 58.3528 3.2 57.3088 3.2H56.6248C55.5568 3.2 54.7108 3.494 54.0868 4.082C53.4748 4.67 53.0788 5.588 52.8988 6.836L52.8268 7.286H52.8628L53.0068 6.818C53.4148 6.11 53.9248 5.6 54.5368 5.288C55.1488 4.976 55.7968 4.82 56.4808 4.82C57.2608 4.82 57.9868 5.006 58.6588 5.378C59.3428 5.75 59.8888 6.29 60.2968 6.998C60.7168 7.706 60.9268 8.54 60.9268 9.5C60.9268 10.46 60.7108 11.294 60.2788 12.002C59.8468 12.71 59.2768 13.25 58.5688 13.622C57.8728 13.994 57.1348 14.18 56.3548 14.18ZM56.2108 12.38C56.9548 12.38 57.5788 12.14 58.0828 11.66C58.5988 11.168 58.8568 10.454 58.8568 9.518C58.8568 8.558 58.5928 7.832 58.0648 7.34C57.5368 6.848 56.8888 6.602 56.1208 6.602C55.3768 6.602 54.7468 6.848 54.2308 7.34C53.7148 7.82 53.4568 8.528 53.4568 9.464C53.4568 10.424 53.7208 11.15 54.2488 11.642C54.7768 12.134 55.4308 12.38 56.2108 12.38ZM67.0673 14.18C66.1433 14.18 65.3153 13.976 64.5833 13.568C63.8633 13.16 63.2993 12.602 62.8913 11.894C62.4953 11.186 62.2973 10.388 62.2973 9.5C62.2973 8.612 62.4953 7.814 62.8913 7.106C63.2993 6.398 63.8633 5.84 64.5833 5.432C65.3153 5.024 66.1433 4.82 67.0673 4.82C67.9913 4.82 68.8133 5.024 69.5333 5.432C70.2533 5.84 70.8113 6.398 71.2073 7.106C71.6153 7.814 71.8193 8.612 71.8193 9.5C71.8193 10.388 71.6153 11.186 71.2073 11.894C70.8113 12.602 70.2533 13.16 69.5333 13.568C68.8133 13.976 67.9913 14.18 67.0673 14.18ZM67.0673 12.362C67.8593 12.362 68.5073 12.11 69.0113 11.606C69.5153 11.09 69.7673 10.388 69.7673 9.5C69.7673 8.612 69.5153 7.916 69.0113 7.412C68.5073 6.896 67.8593 6.638 67.0673 6.638C66.2753 6.638 65.6213 6.896 65.1053 7.412C64.6013 7.916 64.3493 8.612 64.3493 9.5C64.3493 10.388 64.6013 11.09 65.1053 11.606C65.6213 12.11 66.2753 12.362 67.0673 12.362ZM75.7656 6.8H72.7056V5H80.8776V6.8H77.8356V14H75.7656V6.8ZM82.6461 5H84.6981V8.204H87.2541C88.2141 8.204 89.0061 8.444 89.6301 8.924C90.2541 9.392 90.5661 10.118 90.5661 11.102C90.5661 12.086 90.2541 12.818 89.6301 13.298C89.0061 13.766 88.2141 14 87.2541 14H82.6461V5ZM91.9521 5H94.0041V14H91.9521V5ZM86.9841 12.272C88.0041 12.272 88.5141 11.882 88.5141 11.102C88.5141 10.706 88.3881 10.412 88.1361 10.22C87.8961 10.028 87.5121 9.932 86.9841 9.932H84.6981V12.272H86.9841Z" fill="#4754EB"/>
</svg>
