<svg width="240" height="35" viewBox="0 0 240 35" fill="none" xmlns="http://www.w3.org/2000/svg">
<path d="M0.448 1.8H4.948V12.42H15.568V1.8H20.068V27H15.568V16.38H4.948V27H0.448V1.8ZM29.6679 27.36C28.0359 27.36 26.6679 26.88 25.5639 25.92C24.4839 24.936 23.9439 23.628 23.9439 21.996C23.9439 20.34 24.5079 19.032 25.6359 18.072C26.7879 17.088 28.2999 16.5 30.1719 16.308L35.3919 15.768V14.796C35.3919 13.86 35.0799 13.152 34.4559 12.672C33.8319 12.168 32.9919 11.916 31.9359 11.916C30.9999 11.916 30.2319 12.144 29.6319 12.6C29.0559 13.056 28.6839 13.728 28.5159 14.616L24.9519 14.436L24.7719 14.292C25.1079 12.468 25.9479 11.076 27.2919 10.116C28.6359 9.132 30.2319 8.64 32.0799 8.64C34.2639 8.64 36.0279 9.192 37.3719 10.296C38.7159 11.376 39.3879 12.864 39.3879 14.76V22.14C39.3879 23.34 39.8679 23.94 40.8279 23.94C41.0439 23.94 41.3079 23.904 41.6199 23.832L41.7279 23.904V26.856C40.9839 27.096 40.2279 27.216 39.4599 27.216C38.5959 27.216 37.8159 27.012 37.1199 26.604C36.4479 26.196 35.9559 25.524 35.6439 24.588H35.5359C34.7679 25.428 33.8799 26.1 32.8719 26.604C31.8879 27.108 30.8199 27.36 29.6679 27.36ZM30.4239 24.012C31.3839 24.012 32.2599 23.784 33.0519 23.328C33.8439 22.848 34.6239 22.164 35.3919 21.276V18.648L30.7119 19.188C29.7759 19.308 29.0679 19.608 28.5879 20.088C28.1079 20.544 27.8679 21.108 27.8679 21.78C27.8679 22.5 28.1079 23.052 28.5879 23.436C29.0679 23.82 29.6799 24.012 30.4239 24.012ZM45.0228 9H49.1268V23.4H55.1028V9H59.2068V23.4H65.1828V9H69.2868V27H45.0228V9ZM73.886 9H77.918V21.132H77.99L78.134 20.52L86.306 9H90.41V27H86.378V14.616H86.306L86.054 15.48L77.954 27H73.886V9ZM107.938 12.6H101.818V9H118.162V12.6H112.078V27H107.938V12.6ZM125.82 27.36C124.188 27.36 122.82 26.88 121.716 25.92C120.636 24.936 120.096 23.628 120.096 21.996C120.096 20.34 120.66 19.032 121.788 18.072C122.94 17.088 124.452 16.5 126.324 16.308L131.544 15.768V14.796C131.544 13.86 131.232 13.152 130.608 12.672C129.984 12.168 129.144 11.916 128.088 11.916C127.152 11.916 126.384 12.144 125.784 12.6C125.208 13.056 124.836 13.728 124.668 14.616L121.104 14.436L120.924 14.292C121.26 12.468 122.1 11.076 123.444 10.116C124.788 9.132 126.384 8.64 128.232 8.64C130.416 8.64 132.18 9.192 133.524 10.296C134.868 11.376 135.54 12.864 135.54 14.76V22.14C135.54 23.34 136.02 23.94 136.98 23.94C137.196 23.94 137.46 23.904 137.772 23.832L137.88 23.904V26.856C137.136 27.096 136.38 27.216 135.612 27.216C134.748 27.216 133.968 27.012 133.272 26.604C132.6 26.196 132.108 25.524 131.796 24.588H131.688C130.92 25.428 130.032 26.1 129.024 26.604C128.04 27.108 126.972 27.36 125.82 27.36ZM126.576 24.012C127.536 24.012 128.412 23.784 129.204 23.328C129.996 22.848 130.776 22.164 131.544 21.276V18.648L126.864 19.188C125.928 19.308 125.22 19.608 124.74 20.088C124.26 20.544 124.02 21.108 124.02 21.78C124.02 22.5 124.26 23.052 124.74 23.436C125.22 23.82 125.832 24.012 126.576 24.012ZM141.175 9H145.279V10.98C146.791 9.42 148.711 8.64 151.039 8.64C152.479 8.64 153.835 9.012 155.107 9.756C156.403 10.476 157.435 11.544 158.203 12.96C158.995 14.376 159.391 16.056 159.391 18C159.391 19.944 158.995 21.624 158.203 23.04C157.435 24.456 156.391 25.536 155.071 26.28C153.775 27 152.347 27.36 150.787 27.36C149.707 27.36 148.675 27.18 147.691 26.82C146.731 26.46 145.927 25.956 145.279 25.308V34.2H141.175V9ZM150.103 23.832C151.615 23.832 152.851 23.34 153.811 22.356C154.771 21.348 155.251 19.896 155.251 18C155.251 16.104 154.771 14.664 153.811 13.68C152.851 12.672 151.615 12.168 150.103 12.168C148.783 12.168 147.643 12.6 146.683 13.464C145.747 14.328 145.279 15.396 145.279 16.668V19.296C145.279 20.136 145.495 20.904 145.927 21.6C146.359 22.296 146.947 22.848 147.691 23.256C148.435 23.64 149.239 23.832 150.103 23.832ZM163.077 9H167.109V21.132H167.181L167.325 20.52L175.497 9H179.601V27H175.569V14.616H175.497L175.245 15.48L167.145 27H163.077V9ZM196.302 25.128C195.63 25.824 194.898 26.376 194.106 26.784C193.338 27.168 192.354 27.36 191.154 27.36C189.762 27.36 188.466 27 187.266 26.28C186.066 25.536 185.094 24.456 184.35 23.04C183.63 21.624 183.27 19.944 183.27 18C183.27 16.056 183.63 14.376 184.35 12.96C185.07 11.544 186.03 10.476 187.23 9.756C188.43 9.012 189.762 8.64 191.226 8.64C192.306 8.64 193.242 8.808 194.034 9.144C194.85 9.48 195.606 9.996 196.302 10.692V0.719999H200.406V10.692C201.102 9.996 201.846 9.48 202.638 9.144C203.43 8.808 204.378 8.64 205.482 8.64C206.922 8.64 208.242 9.012 209.442 9.756C210.666 10.476 211.638 11.544 212.358 12.96C213.078 14.376 213.438 16.056 213.438 18C213.438 19.944 213.066 21.624 212.322 23.04C211.602 24.456 210.63 25.536 209.406 26.28C208.206 27 206.91 27.36 205.518 27.36C204.318 27.36 203.322 27.168 202.53 26.784C201.762 26.376 201.054 25.824 200.406 25.128V34.2H196.302V25.128ZM192.09 23.832C193.314 23.832 194.322 23.412 195.114 22.572C195.906 21.708 196.302 20.628 196.302 19.332V16.704C196.302 15.408 195.906 14.328 195.114 13.464C194.322 12.6 193.302 12.168 192.054 12.168C190.662 12.168 189.534 12.66 188.67 13.644C187.83 14.628 187.41 16.08 187.41 18C187.41 19.92 187.83 21.372 188.67 22.356C189.534 23.34 190.674 23.832 192.09 23.832ZM204.618 23.832C206.034 23.832 207.162 23.34 208.002 22.356C208.842 21.372 209.262 19.92 209.262 18C209.262 16.08 208.842 14.628 208.002 13.644C207.162 12.66 206.034 12.168 204.618 12.168C203.37 12.168 202.35 12.6 201.558 13.464C200.79 14.304 200.406 15.384 200.406 16.704V19.332C200.406 20.628 200.79 21.708 201.558 22.572C202.35 23.412 203.37 23.832 204.618 23.832ZM217.113 9H221.217V15.408H226.329C228.249 15.408 229.833 15.888 231.081 16.848C232.329 17.784 232.953 19.236 232.953 21.204C232.953 23.172 232.329 24.636 231.081 25.596C229.833 26.532 228.249 27 226.329 27H217.113V9ZM235.725 9H239.829V27H235.725V9ZM225.789 23.544C227.829 23.544 228.849 22.764 228.849 21.204C228.849 20.412 228.597 19.824 228.093 19.44C227.613 19.056 226.845 18.864 225.789 18.864H221.217V23.544H225.789Z" fill="#1A1A1A"/>
</svg>
