<svg width="284" height="28" viewBox="0 0 284 28" fill="none" xmlns="http://www.w3.org/2000/svg">
<path d="M0.84 0.599999H1.992V4.272H5.868V0.599999H7.02V9H5.868V5.328H1.992V9H0.84V0.599999ZM10.2753 9.12C9.70728 9.12 9.24728 8.964 8.89528 8.652C8.54328 8.332 8.36728 7.908 8.36728 7.38C8.36728 6.82 8.55928 6.38 8.94328 6.06C9.32728 5.74 9.81128 5.552 10.3953 5.496L12.2673 5.304V4.896C12.2673 4.552 12.1433 4.292 11.8953 4.116C11.6553 3.932 11.3353 3.84 10.9353 3.84C10.5993 3.84 10.3153 3.92 10.0833 4.08C9.85928 4.24 9.70728 4.484 9.62728 4.812H8.63128C8.71928 4.18 8.98728 3.7 9.43528 3.372C9.89128 3.044 10.4153 2.88 11.0073 2.88C11.7113 2.88 12.2713 3.056 12.6873 3.408C13.1113 3.752 13.3233 4.208 13.3233 4.776V7.584C13.3233 7.784 13.3673 7.94 13.4553 8.052C13.5433 8.156 13.6753 8.208 13.8513 8.208C13.9553 8.208 14.0593 8.192 14.1633 8.16V8.952C13.9233 9.032 13.6993 9.072 13.4913 9.072C12.8433 9.072 12.4473 8.76 12.3033 8.136C12.0713 8.4 11.7713 8.632 11.4033 8.832C11.0353 9.024 10.6593 9.12 10.2753 9.12ZM10.3953 8.16C11.0193 8.16 11.6433 7.848 12.2673 7.224V6.144L10.4673 6.348C10.1313 6.388 9.87128 6.5 9.68728 6.684C9.51128 6.86 9.42328 7.076 9.42328 7.332C9.42328 7.604 9.51128 7.812 9.68728 7.956C9.87128 8.092 10.1073 8.16 10.3953 8.16ZM17.6635 5.724L15.0115 3H16.2955L18.4195 5.196V3H19.4755V5.196L21.5995 3H22.8835L20.2315 5.724L23.1355 9H21.8755L19.4755 6.264V9H18.4195V6.264L16.0195 9H14.7595L17.6635 5.724ZM24.1709 3H25.2029V7.44L28.3349 3H29.3909V9H28.3589V4.5L25.2269 9H24.1709V3ZM30.9795 3H32.0595L34.1955 7.752L36.3315 3H37.3995V9H36.3915V5.112L34.6875 9H33.6915L31.9875 5.112V9H30.9795V3ZM40.6034 9.12C40.0354 9.12 39.5754 8.964 39.2234 8.652C38.8714 8.332 38.6954 7.908 38.6954 7.38C38.6954 6.82 38.8874 6.38 39.2714 6.06C39.6554 5.74 40.1394 5.552 40.7234 5.496L42.5954 5.304V4.896C42.5954 4.552 42.4714 4.292 42.2234 4.116C41.9834 3.932 41.6634 3.84 41.2634 3.84C40.9274 3.84 40.6434 3.92 40.4114 4.08C40.1874 4.24 40.0354 4.484 39.9554 4.812H38.9594C39.0474 4.18 39.3154 3.7 39.7634 3.372C40.2194 3.044 40.7434 2.88 41.3354 2.88C42.0394 2.88 42.5994 3.056 43.0154 3.408C43.4394 3.752 43.6514 4.208 43.6514 4.776V7.584C43.6514 7.784 43.6954 7.94 43.7834 8.052C43.8714 8.156 44.0034 8.208 44.1794 8.208C44.2834 8.208 44.3874 8.192 44.4914 8.16V8.952C44.2514 9.032 44.0274 9.072 43.8194 9.072C43.1714 9.072 42.7754 8.76 42.6314 8.136C42.3994 8.4 42.0994 8.632 41.7314 8.832C41.3634 9.024 40.9874 9.12 40.6034 9.12ZM40.7234 8.16C41.3474 8.16 41.9714 7.848 42.5954 7.224V6.144L40.7954 6.348C40.4594 6.388 40.1994 6.5 40.0154 6.684C39.8394 6.86 39.7514 7.076 39.7514 7.332C39.7514 7.604 39.8394 7.812 40.0154 7.956C40.1994 8.092 40.4354 8.16 40.7234 8.16ZM46.4317 6.66V6.624C45.7437 6.232 45.3997 5.672 45.3997 4.944C45.3997 4.352 45.5997 3.88 45.9997 3.528C46.3997 3.176 46.9437 3 47.6317 3H49.6597V9H48.6517V6.84H47.4397L46.2277 9H45.0877L46.4317 6.66ZM48.6517 5.988V3.864H47.5357C47.1677 3.864 46.8837 3.96 46.6837 4.152C46.4837 4.336 46.3837 4.592 46.3837 4.92C46.3837 5.248 46.4837 5.508 46.6837 5.7C46.8917 5.892 47.1757 5.988 47.5357 5.988H48.6517ZM53.7607 3H54.8168V5.52H57.8408V3H58.8968V9H57.8408V6.48H54.8168V9H53.7607V3ZM62.0956 9.12C61.5276 9.12 61.0676 8.964 60.7156 8.652C60.3636 8.332 60.1876 7.908 60.1876 7.38C60.1876 6.82 60.3796 6.38 60.7636 6.06C61.1476 5.74 61.6316 5.552 62.2156 5.496L64.0876 5.304V4.896C64.0876 4.552 63.9636 4.292 63.7156 4.116C63.4756 3.932 63.1556 3.84 62.7556 3.84C62.4196 3.84 62.1356 3.92 61.9036 4.08C61.6796 4.24 61.5276 4.484 61.4476 4.812H60.4516C60.5396 4.18 60.8076 3.7 61.2556 3.372C61.7116 3.044 62.2356 2.88 62.8276 2.88C63.5316 2.88 64.0916 3.056 64.5076 3.408C64.9316 3.752 65.1436 4.208 65.1436 4.776V7.584C65.1436 7.784 65.1876 7.94 65.2756 8.052C65.3636 8.156 65.4956 8.208 65.6716 8.208C65.7756 8.208 65.8796 8.192 65.9836 8.16V8.952C65.7436 9.032 65.5196 9.072 65.3116 9.072C64.6636 9.072 64.2676 8.76 64.1236 8.136C63.8916 8.4 63.5916 8.632 63.2236 8.832C62.8556 9.024 62.4796 9.12 62.0956 9.12ZM62.2156 8.16C62.8396 8.16 63.4636 7.848 64.0876 7.224V6.144L62.2876 6.348C61.9516 6.388 61.6916 6.5 61.5076 6.684C61.3316 6.86 61.2436 7.076 61.2436 7.332C61.2436 7.604 61.3316 7.812 61.5076 7.956C61.6916 8.092 61.9276 8.16 62.2156 8.16ZM69.6514 3H70.7074V5.16L72.8314 3H74.1994L71.5474 5.676L74.4514 9H73.1074L70.7074 6.312V9H69.6514V3ZM75.4873 3H76.5433V5.52H79.5673V3H80.6233V9H79.5673V6.48H76.5433V9H75.4873V3ZM84.9742 9.12C84.3742 9.12 83.8382 8.988 83.3662 8.724C82.9022 8.452 82.5382 8.08 82.2742 7.608C82.0182 7.128 81.8902 6.592 81.8902 6C81.8902 5.408 82.0182 4.876 82.2742 4.404C82.5382 3.924 82.9022 3.552 83.3662 3.288C83.8382 3.016 84.3742 2.88 84.9742 2.88C85.5742 2.88 86.1062 3.016 86.5702 3.288C87.0422 3.552 87.4062 3.924 87.6622 4.404C87.9262 4.876 88.0582 5.408 88.0582 6C88.0582 6.592 87.9262 7.128 87.6622 7.608C87.4062 8.08 87.0422 8.452 86.5702 8.724C86.1062 8.988 85.5742 9.12 84.9742 9.12ZM84.9742 8.16C85.5662 8.16 86.0502 7.972 86.4262 7.596C86.8102 7.22 87.0022 6.688 87.0022 6C87.0022 5.312 86.8102 4.78 86.4262 4.404C86.0502 4.028 85.5662 3.84 84.9742 3.84C84.3822 3.84 83.8942 4.028 83.5102 4.404C83.1342 4.78 82.9462 5.312 82.9462 6C82.9462 6.688 83.1342 7.22 83.5102 7.596C83.8942 7.972 84.3822 8.16 84.9742 8.16ZM89.3272 3H94.4632V9H93.4072V3.96H90.3832V9H89.3272V3ZM96.042 3H97.098V5.16L99.222 3H100.59L97.938 5.676L100.842 9H99.498L97.098 6.312V9H96.042V3ZM103.726 8.736L101.35 3H102.454L104.062 6.828L104.218 7.56L105.97 3H107.038L103.702 11.4H102.658L103.726 8.736ZM110.608 3H113.344C113.912 3 114.368 3.144 114.712 3.432C115.064 3.712 115.24 4.068 115.24 4.5C115.24 5.06 114.996 5.488 114.508 5.784V5.844C114.812 5.94 115.064 6.112 115.264 6.36C115.472 6.608 115.576 6.908 115.576 7.26C115.576 7.78 115.384 8.2 115 8.52C114.624 8.84 114.108 9 113.452 9H110.608V3ZM113.356 5.436C113.94 5.436 114.232 5.188 114.232 4.692C114.232 4.204 113.94 3.96 113.356 3.96H111.664V5.436H113.356ZM113.584 8.04C114.208 8.04 114.52 7.764 114.52 7.212C114.52 6.668 114.208 6.396 113.584 6.396H111.664V8.04H113.584ZM116.655 3H117.711V5.28H119.547C120.131 5.28 120.631 5.424 121.047 5.712C121.463 6 121.671 6.476 121.671 7.14C121.671 7.804 121.463 8.28 121.047 8.568C120.631 8.856 120.131 9 119.547 9H116.655V3ZM122.655 3H123.711V9H122.655V3ZM119.427 8.04C119.835 8.04 120.135 7.968 120.327 7.824C120.519 7.68 120.615 7.452 120.615 7.14C120.615 6.828 120.519 6.6 120.327 6.456C120.135 6.312 119.835 6.24 119.427 6.24H117.711V8.04H119.427ZM130.5 9.12C129.932 9.12 129.42 8.992 128.964 8.736C128.508 8.472 128.148 8.104 127.884 7.632C127.628 7.16 127.5 6.616 127.5 6C127.5 5.384 127.628 4.84 127.884 4.368C128.148 3.896 128.508 3.532 128.964 3.276C129.42 3.012 129.932 2.88 130.5 2.88C131.276 2.88 131.916 3.084 132.42 3.492C132.924 3.892 133.228 4.452 133.332 5.172H132.336C132.24 4.748 132.036 4.42 131.724 4.188C131.412 3.956 131.008 3.84 130.512 3.84C129.936 3.84 129.464 4.036 129.096 4.428C128.736 4.812 128.556 5.336 128.556 6C128.556 6.664 128.736 7.192 129.096 7.584C129.464 7.968 129.936 8.16 130.512 8.16C131.008 8.16 131.412 8.044 131.724 7.812C132.036 7.58 132.24 7.252 132.336 6.828H133.332C133.228 7.548 132.924 8.112 132.42 8.52C131.916 8.92 131.276 9.12 130.5 9.12ZM137.38 9.12C136.78 9.12 136.244 8.988 135.772 8.724C135.308 8.452 134.944 8.08 134.68 7.608C134.424 7.128 134.296 6.592 134.296 6C134.296 5.408 134.424 4.876 134.68 4.404C134.944 3.924 135.308 3.552 135.772 3.288C136.244 3.016 136.78 2.88 137.38 2.88C137.98 2.88 138.512 3.016 138.976 3.288C139.448 3.552 139.812 3.924 140.068 4.404C140.332 4.876 140.464 5.408 140.464 6C140.464 6.592 140.332 7.128 140.068 7.608C139.812 8.08 139.448 8.452 138.976 8.724C138.512 8.988 137.98 9.12 137.38 9.12ZM137.38 8.16C137.972 8.16 138.456 7.972 138.832 7.596C139.216 7.22 139.408 6.688 139.408 6C139.408 5.312 139.216 4.78 138.832 4.404C138.456 4.028 137.972 3.84 137.38 3.84C136.788 3.84 136.3 4.028 135.916 4.404C135.54 4.78 135.352 5.312 135.352 6C135.352 6.688 135.54 7.22 135.916 7.596C136.3 7.972 136.788 8.16 137.38 8.16ZM141.733 3H145.489V3.96H142.789V9H141.733V3ZM146.17 9.12C145.89 9.12 145.622 9.04 145.366 8.88V7.884C145.606 8.012 145.802 8.076 145.954 8.076C146.09 8.076 146.194 8.028 146.266 7.932C146.346 7.836 146.41 7.676 146.458 7.452C146.514 7.22 146.566 6.876 146.614 6.42L146.986 3H151.234V9H150.178V3.96H147.934L147.658 6.456C147.586 7.12 147.49 7.644 147.37 8.028C147.258 8.412 147.106 8.692 146.914 8.868C146.722 9.036 146.474 9.12 146.17 9.12ZM154.439 9.12C153.871 9.12 153.411 8.964 153.059 8.652C152.707 8.332 152.531 7.908 152.531 7.38C152.531 6.82 152.723 6.38 153.107 6.06C153.491 5.74 153.975 5.552 154.559 5.496L156.431 5.304V4.896C156.431 4.552 156.307 4.292 156.059 4.116C155.819 3.932 155.499 3.84 155.099 3.84C154.763 3.84 154.479 3.92 154.247 4.08C154.023 4.24 153.871 4.484 153.791 4.812H152.795C152.883 4.18 153.151 3.7 153.599 3.372C154.055 3.044 154.579 2.88 155.171 2.88C155.875 2.88 156.435 3.056 156.851 3.408C157.275 3.752 157.487 4.208 157.487 4.776V7.584C157.487 7.784 157.531 7.94 157.619 8.052C157.707 8.156 157.839 8.208 158.015 8.208C158.119 8.208 158.223 8.192 158.327 8.16V8.952C158.087 9.032 157.863 9.072 157.655 9.072C157.007 9.072 156.611 8.76 156.467 8.136C156.235 8.4 155.935 8.632 155.567 8.832C155.199 9.024 154.823 9.12 154.439 9.12ZM154.559 8.16C155.183 8.16 155.807 7.848 156.431 7.224V6.144L154.631 6.348C154.295 6.388 154.035 6.5 153.851 6.684C153.675 6.86 153.587 7.076 153.587 7.332C153.587 7.604 153.675 7.812 153.851 7.956C154.035 8.092 154.271 8.16 154.559 8.16ZM159.476 3H160.532V8.04H162.716V3H163.772V8.04H165.956V3H167.012V9H159.476V3ZM170.213 9.12C169.645 9.12 169.185 8.964 168.833 8.652C168.481 8.332 168.305 7.908 168.305 7.38C168.305 6.82 168.497 6.38 168.881 6.06C169.265 5.74 169.749 5.552 170.333 5.496L172.205 5.304V4.896C172.205 4.552 172.081 4.292 171.833 4.116C171.593 3.932 171.273 3.84 170.873 3.84C170.537 3.84 170.253 3.92 170.021 4.08C169.797 4.24 169.645 4.484 169.565 4.812H168.569C168.657 4.18 168.925 3.7 169.373 3.372C169.829 3.044 170.353 2.88 170.945 2.88C171.649 2.88 172.209 3.056 172.625 3.408C173.049 3.752 173.261 4.208 173.261 4.776V7.584C173.261 7.784 173.305 7.94 173.393 8.052C173.481 8.156 173.613 8.208 173.789 8.208C173.893 8.208 173.997 8.192 174.101 8.16V8.952C173.861 9.032 173.637 9.072 173.429 9.072C172.781 9.072 172.385 8.76 172.241 8.136C172.009 8.4 171.709 8.632 171.341 8.832C170.973 9.024 170.597 9.12 170.213 9.12ZM170.333 8.16C170.957 8.16 171.581 7.848 172.205 7.224V6.144L170.405 6.348C170.069 6.388 169.809 6.5 169.625 6.684C169.449 6.86 169.361 7.076 169.361 7.332C169.361 7.604 169.449 7.812 169.625 7.956C169.809 8.092 170.045 8.16 170.333 8.16ZM177.525 9.12C176.925 9.12 176.405 8.992 175.965 8.736C175.525 8.472 175.185 8.108 174.945 7.644C174.713 7.172 174.597 6.624 174.597 6C174.597 5.392 174.729 4.852 174.993 4.38C175.257 3.908 175.613 3.54 176.061 3.276C176.509 3.012 176.997 2.88 177.525 2.88C178.061 2.88 178.541 3.004 178.965 3.252C179.397 3.492 179.733 3.84 179.973 4.296C180.221 4.752 180.345 5.296 180.345 5.928V6.336H175.665C175.681 6.904 175.857 7.352 176.193 7.68C176.537 8 176.985 8.16 177.537 8.16C177.993 8.16 178.373 8.052 178.677 7.836C178.981 7.612 179.189 7.316 179.301 6.948H180.285C180.117 7.628 179.797 8.16 179.325 8.544C178.853 8.928 178.253 9.12 177.525 9.12ZM179.349 5.424C179.309 4.92 179.117 4.532 178.773 4.26C178.437 3.98 178.021 3.84 177.525 3.84C177.045 3.84 176.637 3.98 176.301 4.26C175.965 4.54 175.757 4.928 175.677 5.424H179.349ZM182.862 3.96H180.822V3H185.958V3.96H183.918V9H182.862V3.96ZM189.431 9.12C188.831 9.12 188.311 8.992 187.871 8.736C187.431 8.472 187.091 8.108 186.851 7.644C186.619 7.172 186.503 6.624 186.503 6C186.503 5.392 186.635 4.852 186.899 4.38C187.163 3.908 187.519 3.54 187.967 3.276C188.415 3.012 188.903 2.88 189.431 2.88C189.967 2.88 190.447 3.004 190.871 3.252C191.303 3.492 191.639 3.84 191.879 4.296C192.127 4.752 192.251 5.296 192.251 5.928V6.336H187.571C187.587 6.904 187.763 7.352 188.099 7.68C188.443 8 188.891 8.16 189.443 8.16C189.899 8.16 190.279 8.052 190.583 7.836C190.887 7.612 191.095 7.316 191.207 6.948H192.191C192.023 7.628 191.703 8.16 191.231 8.544C190.759 8.928 190.159 9.12 189.431 9.12ZM191.255 5.424C191.215 4.92 191.023 4.532 190.679 4.26C190.343 3.98 189.927 3.84 189.431 3.84C188.951 3.84 188.543 3.98 188.207 4.26C187.871 4.54 187.663 4.928 187.583 5.424H191.255ZM196.136 9.12C195.568 9.12 195.056 8.992 194.6 8.736C194.144 8.472 193.784 8.104 193.52 7.632C193.264 7.16 193.136 6.616 193.136 6C193.136 5.384 193.264 4.84 193.52 4.368C193.784 3.896 194.144 3.532 194.6 3.276C195.056 3.012 195.568 2.88 196.136 2.88C196.912 2.88 197.552 3.084 198.056 3.492C198.56 3.892 198.864 4.452 198.968 5.172H197.972C197.876 4.748 197.672 4.42 197.36 4.188C197.048 3.956 196.644 3.84 196.148 3.84C195.572 3.84 195.1 4.036 194.732 4.428C194.372 4.812 194.192 5.336 194.192 6C194.192 6.664 194.372 7.192 194.732 7.584C195.1 7.968 195.572 8.16 196.148 8.16C196.644 8.16 197.048 8.044 197.36 7.812C197.672 7.58 197.876 7.252 197.972 6.828H198.968C198.864 7.548 198.56 8.112 198.056 8.52C197.552 8.92 196.912 9.12 196.136 9.12ZM200.245 3H201.301V5.28H203.137C203.721 5.28 204.221 5.424 204.637 5.712C205.053 6 205.261 6.476 205.261 7.14C205.261 7.804 205.053 8.28 204.637 8.568C204.221 8.856 203.721 9 203.137 9H200.245V3ZM203.017 8.04C203.425 8.04 203.725 7.968 203.917 7.824C204.109 7.68 204.205 7.452 204.205 7.14C204.205 6.828 204.109 6.6 203.917 6.456C203.725 6.312 203.425 6.24 203.017 6.24H201.301V8.04H203.017ZM209.058 3H210.114V5.52H213.138V3H214.194V9H213.138V6.48H210.114V9H209.058V3ZM217.392 9.12C216.824 9.12 216.364 8.964 216.012 8.652C215.66 8.332 215.484 7.908 215.484 7.38C215.484 6.82 215.676 6.38 216.06 6.06C216.444 5.74 216.928 5.552 217.512 5.496L219.384 5.304V4.896C219.384 4.552 219.26 4.292 219.012 4.116C218.772 3.932 218.452 3.84 218.052 3.84C217.716 3.84 217.432 3.92 217.2 4.08C216.976 4.24 216.824 4.484 216.744 4.812H215.748C215.836 4.18 216.104 3.7 216.552 3.372C217.008 3.044 217.532 2.88 218.124 2.88C218.828 2.88 219.388 3.056 219.804 3.408C220.228 3.752 220.44 4.208 220.44 4.776V7.584C220.44 7.784 220.484 7.94 220.572 8.052C220.66 8.156 220.792 8.208 220.968 8.208C221.072 8.208 221.176 8.192 221.28 8.16V8.952C221.04 9.032 220.816 9.072 220.608 9.072C219.96 9.072 219.564 8.76 219.42 8.136C219.188 8.4 218.888 8.632 218.52 8.832C218.152 9.024 217.776 9.12 217.392 9.12ZM217.512 8.16C218.136 8.16 218.76 7.848 219.384 7.224V6.144L217.584 6.348C217.248 6.388 216.988 6.5 216.804 6.684C216.628 6.86 216.54 7.076 216.54 7.332C216.54 7.604 216.628 7.812 216.804 7.956C216.988 8.092 217.224 8.16 217.512 8.16ZM227.72 9.12C227.12 9.12 226.584 8.988 226.112 8.724C225.648 8.452 225.284 8.08 225.02 7.608C224.764 7.128 224.636 6.592 224.636 6C224.636 5.408 224.764 4.876 225.02 4.404C225.284 3.924 225.648 3.552 226.112 3.288C226.584 3.016 227.12 2.88 227.72 2.88C228.32 2.88 228.852 3.016 229.316 3.288C229.788 3.552 230.152 3.924 230.408 4.404C230.672 4.876 230.804 5.408 230.804 6C230.804 6.592 230.672 7.128 230.408 7.608C230.152 8.08 229.788 8.452 229.316 8.724C228.852 8.988 228.32 9.12 227.72 9.12ZM227.72 8.16C228.312 8.16 228.796 7.972 229.172 7.596C229.556 7.22 229.748 6.688 229.748 6C229.748 5.312 229.556 4.78 229.172 4.404C228.796 4.028 228.312 3.84 227.72 3.84C227.128 3.84 226.64 4.028 226.256 4.404C225.88 4.78 225.692 5.312 225.692 6C225.692 6.688 225.88 7.22 226.256 7.596C226.64 7.972 227.128 8.16 227.72 8.16ZM235.085 9.12C234.557 9.12 234.049 9.008 233.561 8.784C233.081 8.56 232.681 8.168 232.361 7.608C232.041 7.048 231.881 6.3 231.881 5.364C231.881 3.796 232.161 2.612 232.721 1.812C233.281 1.004 234.173 0.599999 235.397 0.599999H235.913C236.169 0.599999 236.357 0.568 236.477 0.504C236.597 0.44 236.681 0.312 236.729 0.12H237.689C237.665 0.528 237.493 0.872 237.173 1.152C236.861 1.424 236.377 1.56 235.721 1.56H235.265C234.473 1.56 233.873 1.796 233.465 2.268C233.065 2.732 232.817 3.428 232.721 4.356C233.001 3.836 233.353 3.46 233.777 3.228C234.201 2.996 234.653 2.88 235.133 2.88C235.653 2.88 236.133 3.004 236.573 3.252C237.013 3.5 237.365 3.86 237.629 4.332C237.893 4.796 238.025 5.352 238.025 6C238.025 6.64 237.885 7.196 237.605 7.668C237.333 8.14 236.969 8.5 236.513 8.748C236.065 8.996 235.589 9.12 235.085 9.12ZM234.989 8.16C235.325 8.16 235.641 8.088 235.937 7.944C236.241 7.792 236.489 7.556 236.681 7.236C236.873 6.908 236.969 6.5 236.969 6.012C236.969 5.508 236.869 5.092 236.669 4.764C236.477 4.436 236.225 4.2 235.913 4.056C235.609 3.904 235.281 3.828 234.929 3.828C234.593 3.828 234.273 3.904 233.969 4.056C233.673 4.2 233.429 4.436 233.237 4.764C233.045 5.084 232.949 5.488 232.949 5.976C232.949 6.48 233.045 6.896 233.237 7.224C233.437 7.552 233.689 7.792 233.993 7.944C234.305 8.088 234.637 8.16 234.989 8.16ZM239.292 3H240.348V3.66C240.556 3.444 240.82 3.26 241.14 3.108C241.46 2.956 241.832 2.88 242.256 2.88C242.752 2.88 243.208 3.008 243.624 3.264C244.048 3.52 244.384 3.884 244.632 4.356C244.88 4.828 245.004 5.376 245.004 6C245.004 6.624 244.888 7.172 244.656 7.644C244.424 8.116 244.1 8.48 243.684 8.736C243.268 8.992 242.8 9.12 242.28 9.12C241.896 9.12 241.532 9.056 241.188 8.928C240.852 8.792 240.572 8.604 240.348 8.364V11.4H239.292V3ZM242.088 8.16C242.632 8.16 243.076 7.98 243.42 7.62C243.772 7.26 243.948 6.72 243.948 6C243.948 5.28 243.772 4.74 243.42 4.38C243.076 4.02 242.632 3.84 242.088 3.84C241.776 3.84 241.484 3.912 241.212 4.056C240.948 4.2 240.736 4.392 240.576 4.632C240.424 4.872 240.348 5.132 240.348 5.412V6.564C240.348 6.844 240.428 7.108 240.588 7.356C240.748 7.596 240.96 7.792 241.224 7.944C241.488 8.088 241.776 8.16 242.088 8.16ZM247.896 9.12C247.328 9.12 246.868 8.964 246.516 8.652C246.164 8.332 245.988 7.908 245.988 7.38C245.988 6.82 246.18 6.38 246.564 6.06C246.948 5.74 247.432 5.552 248.016 5.496L249.888 5.304V4.896C249.888 4.552 249.764 4.292 249.516 4.116C249.276 3.932 248.956 3.84 248.556 3.84C248.22 3.84 247.936 3.92 247.704 4.08C247.48 4.24 247.328 4.484 247.248 4.812H246.252C246.34 4.18 246.608 3.7 247.056 3.372C247.512 3.044 248.036 2.88 248.628 2.88C249.332 2.88 249.892 3.056 250.308 3.408C250.732 3.752 250.944 4.208 250.944 4.776V7.584C250.944 7.784 250.988 7.94 251.076 8.052C251.164 8.156 251.296 8.208 251.472 8.208C251.576 8.208 251.68 8.192 251.784 8.16V8.952C251.544 9.032 251.32 9.072 251.112 9.072C250.464 9.072 250.068 8.76 249.924 8.136C249.692 8.4 249.392 8.632 249.024 8.832C248.656 9.024 248.28 9.12 247.896 9.12ZM248.016 8.16C248.64 8.16 249.264 7.848 249.888 7.224V6.144L248.088 6.348C247.752 6.388 247.492 6.5 247.308 6.684C247.132 6.86 247.044 7.076 247.044 7.332C247.044 7.604 247.132 7.812 247.308 7.956C247.492 8.092 247.728 8.16 248.016 8.16ZM255.581 9.12C255.053 9.12 254.545 9.008 254.057 8.784C253.577 8.56 253.177 8.168 252.857 7.608C252.537 7.048 252.377 6.3 252.377 5.364C252.377 3.796 252.657 2.612 253.217 1.812C253.777 1.004 254.669 0.599999 255.893 0.599999H256.409C256.665 0.599999 256.853 0.568 256.973 0.504C257.093 0.44 257.177 0.312 257.225 0.12H258.185C258.161 0.528 257.989 0.872 257.669 1.152C257.357 1.424 256.873 1.56 256.217 1.56H255.761C254.969 1.56 254.369 1.796 253.961 2.268C253.561 2.732 253.313 3.428 253.217 4.356C253.497 3.836 253.849 3.46 254.273 3.228C254.697 2.996 255.149 2.88 255.629 2.88C256.149 2.88 256.629 3.004 257.069 3.252C257.509 3.5 257.861 3.86 258.125 4.332C258.389 4.796 258.521 5.352 258.521 6C258.521 6.64 258.381 7.196 258.101 7.668C257.829 8.14 257.465 8.5 257.009 8.748C256.561 8.996 256.085 9.12 255.581 9.12ZM255.485 8.16C255.821 8.16 256.137 8.088 256.433 7.944C256.737 7.792 256.985 7.556 257.177 7.236C257.369 6.908 257.465 6.5 257.465 6.012C257.465 5.508 257.365 5.092 257.165 4.764C256.973 4.436 256.721 4.2 256.409 4.056C256.105 3.904 255.777 3.828 255.425 3.828C255.089 3.828 254.769 3.904 254.465 4.056C254.169 4.2 253.925 4.436 253.733 4.764C253.541 5.084 253.445 5.488 253.445 5.976C253.445 6.48 253.541 6.896 253.733 7.224C253.933 7.552 254.185 7.792 254.489 7.944C254.801 8.088 255.133 8.16 255.485 8.16ZM262.56 9.12C261.96 9.12 261.424 8.988 260.952 8.724C260.488 8.452 260.124 8.08 259.86 7.608C259.604 7.128 259.476 6.592 259.476 6C259.476 5.408 259.604 4.876 259.86 4.404C260.124 3.924 260.488 3.552 260.952 3.288C261.424 3.016 261.96 2.88 262.56 2.88C263.16 2.88 263.692 3.016 264.156 3.288C264.628 3.552 264.992 3.924 265.248 4.404C265.512 4.876 265.644 5.408 265.644 6C265.644 6.592 265.512 7.128 265.248 7.608C264.992 8.08 264.628 8.452 264.156 8.724C263.692 8.988 263.16 9.12 262.56 9.12ZM262.56 8.16C263.152 8.16 263.636 7.972 264.012 7.596C264.396 7.22 264.588 6.688 264.588 6C264.588 5.312 264.396 4.78 264.012 4.404C263.636 4.028 263.152 3.84 262.56 3.84C261.968 3.84 261.48 4.028 261.096 4.404C260.72 4.78 260.532 5.312 260.532 6C260.532 6.688 260.72 7.22 261.096 7.596C261.48 7.972 261.968 8.16 262.56 8.16ZM268.233 3.96H266.193V3H271.329V3.96H269.289V9H268.233V3.96ZM272.55 3H273.606V5.16L275.73 3H277.098L274.446 5.676L277.35 9H276.006L273.606 6.312V9H272.55V3ZM280.234 8.736L277.858 3H278.962L280.57 6.828L280.726 7.56L282.478 3H283.546L280.21 11.4H279.166L280.234 8.736Z" fill="#595959"/>
<path d="M0.792 19H5.928V25H4.872V19.96H1.848V25H0.792V19ZM10.1228 25.12C9.52284 25.12 9.00284 24.992 8.56284 24.736C8.12284 24.472 7.78284 24.108 7.54284 23.644C7.31084 23.172 7.19484 22.624 7.19484 22C7.19484 21.392 7.32684 20.852 7.59084 20.38C7.85484 19.908 8.21084 19.54 8.65884 19.276C9.10684 19.012 9.59484 18.88 10.1228 18.88C10.6588 18.88 11.1388 19.004 11.5628 19.252C11.9948 19.492 12.3308 19.84 12.5708 20.296C12.8188 20.752 12.9428 21.296 12.9428 21.928V22.336H8.26284C8.27884 22.904 8.45484 23.352 8.79084 23.68C9.13484 24 9.58284 24.16 10.1348 24.16C10.5908 24.16 10.9708 24.052 11.2748 23.836C11.5788 23.612 11.7868 23.316 11.8988 22.948H12.8828C12.7148 23.628 12.3948 24.16 11.9228 24.544C11.4508 24.928 10.8508 25.12 10.1228 25.12ZM11.9468 21.424C11.9068 20.92 11.7148 20.532 11.3708 20.26C11.0348 19.98 10.6188 19.84 10.1228 19.84C9.64284 19.84 9.23484 19.98 8.89884 20.26C8.56284 20.54 8.35484 20.928 8.27484 21.424H11.9468ZM14.1397 19H15.1957V19.66C15.4037 19.444 15.6677 19.26 15.9877 19.108C16.3077 18.956 16.6797 18.88 17.1037 18.88C17.5997 18.88 18.0557 19.008 18.4717 19.264C18.8957 19.52 19.2317 19.884 19.4797 20.356C19.7277 20.828 19.8517 21.376 19.8517 22C19.8517 22.624 19.7357 23.172 19.5037 23.644C19.2717 24.116 18.9477 24.48 18.5317 24.736C18.1157 24.992 17.6477 25.12 17.1277 25.12C16.7437 25.12 16.3797 25.056 16.0357 24.928C15.6997 24.792 15.4197 24.604 15.1957 24.364V27.4H14.1397V19ZM16.9357 24.16C17.4797 24.16 17.9237 23.98 18.2677 23.62C18.6197 23.26 18.7957 22.72 18.7957 22C18.7957 21.28 18.6197 20.74 18.2677 20.38C17.9237 20.02 17.4797 19.84 16.9357 19.84C16.6237 19.84 16.3317 19.912 16.0597 20.056C15.7957 20.2 15.5837 20.392 15.4237 20.632C15.2717 20.872 15.1957 21.132 15.1957 21.412V22.564C15.1957 22.844 15.2757 23.108 15.4357 23.356C15.5957 23.596 15.8077 23.792 16.0717 23.944C16.3357 24.088 16.6237 24.16 16.9357 24.16ZM23.812 25.12C23.244 25.12 22.732 24.992 22.276 24.736C21.82 24.472 21.46 24.104 21.196 23.632C20.94 23.16 20.812 22.616 20.812 22C20.812 21.384 20.94 20.84 21.196 20.368C21.46 19.896 21.82 19.532 22.276 19.276C22.732 19.012 23.244 18.88 23.812 18.88C24.588 18.88 25.228 19.084 25.732 19.492C26.236 19.892 26.54 20.452 26.644 21.172H25.648C25.552 20.748 25.348 20.42 25.036 20.188C24.724 19.956 24.32 19.84 23.824 19.84C23.248 19.84 22.776 20.036 22.408 20.428C22.048 20.812 21.868 21.336 21.868 22C21.868 22.664 22.048 23.192 22.408 23.584C22.776 23.968 23.248 24.16 23.824 24.16C24.32 24.16 24.724 24.044 25.036 23.812C25.348 23.58 25.552 23.252 25.648 22.828H26.644C26.54 23.548 26.236 24.112 25.732 24.52C25.228 24.92 24.588 25.12 23.812 25.12ZM30.6929 25.12C30.0929 25.12 29.5569 24.988 29.0849 24.724C28.6209 24.452 28.2569 24.08 27.9929 23.608C27.7369 23.128 27.6089 22.592 27.6089 22C27.6089 21.408 27.7369 20.876 27.9929 20.404C28.2569 19.924 28.6209 19.552 29.0849 19.288C29.5569 19.016 30.0929 18.88 30.6929 18.88C31.2929 18.88 31.8249 19.016 32.2889 19.288C32.7609 19.552 33.1249 19.924 33.3809 20.404C33.6449 20.876 33.7769 21.408 33.7769 22C33.7769 22.592 33.6449 23.128 33.3809 23.608C33.1249 24.08 32.7609 24.452 32.2889 24.724C31.8249 24.988 31.2929 25.12 30.6929 25.12ZM30.6929 24.16C31.2849 24.16 31.7689 23.972 32.1449 23.596C32.5289 23.22 32.7209 22.688 32.7209 22C32.7209 21.312 32.5289 20.78 32.1449 20.404C31.7689 20.028 31.2849 19.84 30.6929 19.84C30.1009 19.84 29.6129 20.028 29.2289 20.404C28.8529 20.78 28.6649 21.312 28.6649 22C28.6649 22.688 28.8529 23.22 29.2289 23.596C29.6129 23.972 30.1009 24.16 30.6929 24.16ZM35.0459 19H36.1019V21.52H39.1259V19H40.1819V25H39.1259V22.48H36.1019V25H35.0459V19ZM43.3808 25.12C42.8128 25.12 42.3528 24.964 42.0008 24.652C41.6488 24.332 41.4728 23.908 41.4728 23.38C41.4728 22.82 41.6648 22.38 42.0488 22.06C42.4328 21.74 42.9168 21.552 43.5008 21.496L45.3728 21.304V20.896C45.3728 20.552 45.2488 20.292 45.0008 20.116C44.7608 19.932 44.4408 19.84 44.0408 19.84C43.7048 19.84 43.4208 19.92 43.1888 20.08C42.9648 20.24 42.8128 20.484 42.7327 20.812H41.7368C41.8248 20.18 42.0928 19.7 42.5408 19.372C42.9968 19.044 43.5208 18.88 44.1128 18.88C44.8168 18.88 45.3768 19.056 45.7928 19.408C46.2168 19.752 46.4288 20.208 46.4288 20.776V23.584C46.4288 23.784 46.4728 23.94 46.5608 24.052C46.6488 24.156 46.7808 24.208 46.9568 24.208C47.0608 24.208 47.1648 24.192 47.2688 24.16V24.952C47.0288 25.032 46.8048 25.072 46.5968 25.072C45.9488 25.072 45.5528 24.76 45.4088 24.136C45.1768 24.4 44.8768 24.632 44.5088 24.832C44.1408 25.024 43.7648 25.12 43.3808 25.12ZM43.5008 24.16C44.1248 24.16 44.7488 23.848 45.3728 23.224V22.144L43.5728 22.348C43.2368 22.388 42.9768 22.5 42.7928 22.684C42.6168 22.86 42.5288 23.076 42.5288 23.332C42.5288 23.604 42.6168 23.812 42.7928 23.956C42.9768 24.092 43.2128 24.16 43.5008 24.16ZM48.9514 25.12C48.6714 25.12 48.4034 25.04 48.1474 24.88V23.884C48.3874 24.012 48.5834 24.076 48.7354 24.076C48.8714 24.076 48.9754 24.028 49.0474 23.932C49.1274 23.836 49.1914 23.676 49.2394 23.452C49.2954 23.22 49.3474 22.876 49.3954 22.42L49.7674 19H54.0154V25H52.9594V19.96H50.7154L50.4394 22.456C50.3674 23.12 50.2714 23.644 50.1514 24.028C50.0394 24.412 49.8874 24.692 49.6954 24.868C49.5034 25.036 49.2554 25.12 48.9514 25.12ZM55.6006 19H56.6566V21.28H58.4926C59.0766 21.28 59.5766 21.424 59.9926 21.712C60.4086 22 60.6166 22.476 60.6166 23.14C60.6166 23.804 60.4086 24.28 59.9926 24.568C59.5766 24.856 59.0766 25 58.4926 25H55.6006V19ZM58.3726 24.04C58.7806 24.04 59.0806 23.968 59.2726 23.824C59.4646 23.68 59.5606 23.452 59.5606 23.14C59.5606 22.828 59.4646 22.6 59.2726 22.456C59.0806 22.312 58.7806 22.24 58.3726 22.24H56.6566V24.04H58.3726ZM61.8936 19H62.9496V21.52H65.9736V19H67.0296V25H65.9736V22.48H62.9496V25H61.8936V19ZM68.6084 19H69.6644V21.28H71.5004C72.0844 21.28 72.5844 21.424 73.0004 21.712C73.4164 22 73.6244 22.476 73.6244 23.14C73.6244 23.804 73.4164 24.28 73.0004 24.568C72.5844 24.856 72.0844 25 71.5004 25H68.6084V19ZM74.6084 19H75.6644V25H74.6084V19ZM71.3804 24.04C71.7884 24.04 72.0884 23.968 72.2804 23.824C72.4724 23.68 72.5684 23.452 72.5684 23.14C72.5684 22.828 72.4724 22.6 72.2804 22.456C72.0884 22.312 71.7884 22.24 71.3804 22.24H69.6644V24.04H71.3804ZM78.7691 21.688L76.9211 19H78.0971L79.3811 20.908L80.6651 19H81.8411L79.9931 21.688L82.1171 25H80.9411L79.3811 22.504L77.8211 25H76.6451L78.7691 21.688ZM92.128 24.04V26.332H91.12V25H86.44V26.332H85.432V24.04H86.248C86.424 23.256 86.532 22.492 86.572 21.748C86.62 20.996 86.644 20.08 86.644 19H91.348V24.04H92.128ZM90.292 24.04V19.96H87.616C87.6 20.792 87.568 21.528 87.52 22.168C87.48 22.8 87.396 23.424 87.268 24.04H90.292ZM95.1425 25.12C94.5745 25.12 94.1145 24.964 93.7625 24.652C93.4105 24.332 93.2345 23.908 93.2345 23.38C93.2345 22.82 93.4265 22.38 93.8105 22.06C94.1945 21.74 94.6785 21.552 95.2625 21.496L97.1345 21.304V20.896C97.1345 20.552 97.0105 20.292 96.7625 20.116C96.5225 19.932 96.2025 19.84 95.8025 19.84C95.4665 19.84 95.1825 19.92 94.9505 20.08C94.7265 20.24 94.5745 20.484 94.4945 20.812H93.4985C93.5865 20.18 93.8545 19.7 94.3025 19.372C94.7585 19.044 95.2825 18.88 95.8745 18.88C96.5785 18.88 97.1385 19.056 97.5545 19.408C97.9785 19.752 98.1905 20.208 98.1905 20.776V23.584C98.1905 23.784 98.2345 23.94 98.3225 24.052C98.4105 24.156 98.5425 24.208 98.7185 24.208C98.8225 24.208 98.9265 24.192 99.0305 24.16V24.952C98.7905 25.032 98.5665 25.072 98.3585 25.072C97.7105 25.072 97.3145 24.76 97.1705 24.136C96.9385 24.4 96.6385 24.632 96.2705 24.832C95.9025 25.024 95.5265 25.12 95.1425 25.12ZM95.2625 24.16C95.8865 24.16 96.5105 23.848 97.1345 23.224V22.144L95.3345 22.348C94.9985 22.388 94.7385 22.5 94.5545 22.684C94.3785 22.86 94.2905 23.076 94.2905 23.332C94.2905 23.604 94.3785 23.812 94.5545 23.956C94.7385 24.092 94.9745 24.16 95.2625 24.16ZM100.179 19H101.235V21.52H104.259V19H105.315V25H104.259V22.48H101.235V25H100.179V19ZM106.894 19H107.95V21.52H110.974V19H112.03V25H110.974V22.48H107.95V25H106.894V19ZM113.608 19H114.664V21.28H116.5C117.084 21.28 117.584 21.424 118 21.712C118.416 22 118.624 22.476 118.624 23.14C118.624 23.804 118.416 24.28 118 24.568C117.584 24.856 117.084 25 116.5 25H113.608V19ZM119.608 19H120.664V25H119.608V19ZM116.38 24.04C116.788 24.04 117.088 23.968 117.28 23.824C117.472 23.68 117.568 23.452 117.568 23.14C117.568 22.828 117.472 22.6 117.28 22.456C117.088 22.312 116.788 22.24 116.38 22.24H114.664V24.04H116.38ZM123.769 21.688L121.921 19H123.097L124.381 20.908L125.665 19H126.841L124.993 21.688L127.117 25H125.941L124.381 22.504L122.821 25H121.645L123.769 21.688Z" fill="#505DEC"/>
</svg>
