<svg width="357" height="34" viewBox="0 0 357 34" fill="none" xmlns="http://www.w3.org/2000/svg">
<path d="M0.448 0.799998H4.948V11.42H15.568V0.799998H20.068V26H15.568V15.38H4.948V26H0.448V0.799998ZM29.6679 26.36C28.0359 26.36 26.6679 25.88 25.5639 24.92C24.4839 23.936 23.9439 22.628 23.9439 20.996C23.9439 19.34 24.5079 18.032 25.6359 17.072C26.7879 16.088 28.2999 15.5 30.1719 15.308L35.3919 14.768V13.796C35.3919 12.86 35.0799 12.152 34.4559 11.672C33.8319 11.168 32.9919 10.916 31.9359 10.916C30.9999 10.916 30.2319 11.144 29.6319 11.6C29.0559 12.056 28.6839 12.728 28.5159 13.616L24.9519 13.436L24.7719 13.292C25.1079 11.468 25.9479 10.076 27.2919 9.116C28.6359 8.132 30.2319 7.64 32.0799 7.64C34.2639 7.64 36.0279 8.192 37.3719 9.296C38.7159 10.376 39.3879 11.864 39.3879 13.76V21.14C39.3879 22.34 39.8679 22.94 40.8279 22.94C41.0439 22.94 41.3079 22.904 41.6199 22.832L41.7279 22.904V25.856C40.9839 26.096 40.2279 26.216 39.4599 26.216C38.5959 26.216 37.8159 26.012 37.1199 25.604C36.4479 25.196 35.9559 24.524 35.6439 23.588H35.5359C34.7679 24.428 33.8799 25.1 32.8719 25.604C31.8879 26.108 30.8199 26.36 29.6679 26.36ZM30.4239 23.012C31.3839 23.012 32.2599 22.784 33.0519 22.328C33.8439 21.848 34.6239 21.164 35.3919 20.276V17.648L30.7119 18.188C29.7759 18.308 29.0679 18.608 28.5879 19.088C28.1079 19.544 27.8679 20.108 27.8679 20.78C27.8679 21.5 28.1079 22.052 28.5879 22.436C29.0679 22.82 29.6799 23.012 30.4239 23.012ZM45.0228 8H49.1268V22.4H55.1028V8H59.2068V22.4H65.1828V8H69.2868V26H45.0228V8ZM73.886 8H77.918V20.132H77.99L78.134 19.52L86.306 8H90.41V26H86.378V13.616H86.306L86.054 14.48L77.954 26H73.886V8ZM102.574 8H118.918V26H114.814V11.6H106.678V26H102.574V8ZM123.527 8H127.631V9.98C129.143 8.42 131.063 7.64 133.391 7.64C134.831 7.64 136.187 8.012 137.459 8.756C138.755 9.476 139.787 10.544 140.555 11.96C141.347 13.376 141.743 15.056 141.743 17C141.743 18.944 141.347 20.624 140.555 22.04C139.787 23.456 138.743 24.536 137.423 25.28C136.127 26 134.699 26.36 133.139 26.36C132.059 26.36 131.027 26.18 130.043 25.82C129.083 25.46 128.279 24.956 127.631 24.308V33.2H123.527V8ZM132.455 22.832C133.967 22.832 135.203 22.34 136.163 21.356C137.123 20.348 137.603 18.896 137.603 17C137.603 15.104 137.123 13.664 136.163 12.68C135.203 11.672 133.967 11.168 132.455 11.168C131.135 11.168 129.995 11.6 129.035 12.464C128.099 13.328 127.631 14.396 127.631 15.668V18.296C127.631 19.136 127.847 19.904 128.279 20.6C128.711 21.296 129.299 21.848 130.043 22.256C130.787 22.64 131.591 22.832 132.455 22.832ZM153.493 26.36C151.717 26.36 150.145 25.976 148.777 25.208C147.409 24.416 146.353 23.312 145.609 21.896C144.865 20.48 144.493 18.848 144.493 17C144.493 15.176 144.901 13.556 145.717 12.14C146.557 10.724 147.661 9.62 149.029 8.828C150.397 8.036 151.885 7.64 153.493 7.64C155.197 7.64 156.709 8.012 158.029 8.756C159.373 9.476 160.417 10.532 161.161 11.924C161.905 13.316 162.277 14.96 162.277 16.856V18.116H148.489C148.585 19.58 149.089 20.744 150.001 21.608C150.937 22.448 152.125 22.868 153.565 22.868C154.789 22.868 155.797 22.592 156.589 22.04C157.381 21.464 157.945 20.684 158.281 19.7L161.881 19.916L161.989 20.096C161.413 22.112 160.393 23.66 158.929 24.74C157.489 25.82 155.677 26.36 153.493 26.36ZM158.389 15.128C158.269 13.832 157.753 12.824 156.841 12.104C155.953 11.36 154.837 10.988 153.493 10.988C152.245 10.988 151.165 11.36 150.253 12.104C149.365 12.824 148.801 13.832 148.561 15.128H158.389ZM165.749 8H169.781V20.132H169.853L169.997 19.52L178.169 8H182.273V26H178.241V13.616H178.169L177.917 14.48L169.817 26H165.749V8ZM186.878 8H190.874L197.03 21.716L203.222 8H207.182V26H203.51V15.02H203.402L203.258 16.028L198.794 26H195.266L190.802 16.028L190.658 15.02H190.55V26H186.878V8ZM217.492 25.388L210.22 8H214.756L219.04 18.188L219.328 20.6H219.508L224.404 8H228.688L218.572 33.2H214.36L217.492 25.388ZM254.634 26H231.702V8H235.806V22.4H241.782V8H245.886V22.4H251.862V8H255.966V22.4H258.486V30.068H254.634V26ZM269.649 26.36C267.873 26.36 266.301 25.976 264.933 25.208C263.565 24.416 262.509 23.312 261.765 21.896C261.021 20.48 260.649 18.848 260.649 17C260.649 15.176 261.057 13.556 261.873 12.14C262.713 10.724 263.817 9.62 265.185 8.828C266.553 8.036 268.041 7.64 269.649 7.64C271.353 7.64 272.865 8.012 274.185 8.756C275.529 9.476 276.573 10.532 277.317 11.924C278.061 13.316 278.433 14.96 278.433 16.856V18.116H264.645C264.741 19.58 265.245 20.744 266.157 21.608C267.093 22.448 268.281 22.868 269.721 22.868C270.945 22.868 271.953 22.592 272.745 22.04C273.537 21.464 274.101 20.684 274.437 19.7L278.037 19.916L278.145 20.096C277.569 22.112 276.549 23.66 275.085 24.74C273.645 25.82 271.833 26.36 269.649 26.36ZM274.545 15.128C274.425 13.832 273.909 12.824 272.997 12.104C272.109 11.36 270.993 10.988 269.649 10.988C268.401 10.988 267.321 11.36 266.409 12.104C265.521 12.824 264.957 13.832 264.717 15.128H274.545ZM290.186 26.36C288.458 26.36 286.886 25.964 285.47 25.172C284.078 24.38 282.974 23.276 282.158 21.86C281.366 20.444 280.97 18.824 280.97 17C280.97 15.176 281.366 13.556 282.158 12.14C282.974 10.724 284.078 9.62 285.47 8.828C286.886 8.036 288.458 7.64 290.186 7.64C292.538 7.64 294.482 8.24 296.018 9.44C297.554 10.64 298.49 12.308 298.826 14.444L298.718 14.624L295.118 14.84C294.854 13.736 294.302 12.872 293.462 12.248C292.622 11.6 291.542 11.276 290.222 11.276C288.686 11.276 287.426 11.78 286.442 12.788C285.482 13.796 285.002 15.2 285.002 17C285.002 18.8 285.482 20.204 286.442 21.212C287.426 22.22 288.686 22.724 290.222 22.724C291.542 22.724 292.61 22.424 293.426 21.824C294.242 21.2 294.806 20.312 295.118 19.16L298.718 19.376L298.826 19.556C298.394 21.716 297.422 23.396 295.91 24.596C294.398 25.772 292.49 26.36 290.186 26.36ZM306.676 11.6H300.556V8H316.9V11.6H310.816V26H306.676V11.6ZM320.437 8H329.401C331.129 8 332.521 8.444 333.577 9.332C334.657 10.196 335.197 11.288 335.197 12.608C335.197 14.312 334.489 15.56 333.073 16.352V16.532C333.985 16.868 334.729 17.396 335.305 18.116C335.881 18.812 336.169 19.676 336.169 20.708C336.169 22.292 335.581 23.576 334.405 24.56C333.229 25.52 331.621 26 329.581 26H320.437V8ZM329.149 15.164C330.637 15.164 331.381 14.516 331.381 13.22C331.381 11.948 330.637 11.312 329.149 11.312H324.469V15.164H329.149ZM329.689 22.652C331.273 22.652 332.065 21.956 332.065 20.564C332.065 19.172 331.273 18.476 329.689 18.476H324.469V22.652H329.689ZM344.703 26.36C343.071 26.36 341.703 25.88 340.599 24.92C339.519 23.936 338.979 22.628 338.979 20.996C338.979 19.34 339.543 18.032 340.671 17.072C341.823 16.088 343.335 15.5 345.207 15.308L350.427 14.768V13.796C350.427 12.86 350.115 12.152 349.491 11.672C348.867 11.168 348.027 10.916 346.971 10.916C346.035 10.916 345.267 11.144 344.667 11.6C344.091 12.056 343.719 12.728 343.551 13.616L339.987 13.436L339.807 13.292C340.143 11.468 340.983 10.076 342.327 9.116C343.671 8.132 345.267 7.64 347.115 7.64C349.299 7.64 351.063 8.192 352.407 9.296C353.751 10.376 354.423 11.864 354.423 13.76V21.14C354.423 22.34 354.903 22.94 355.863 22.94C356.079 22.94 356.343 22.904 356.655 22.832L356.763 22.904V25.856C356.019 26.096 355.263 26.216 354.495 26.216C353.631 26.216 352.851 26.012 352.155 25.604C351.483 25.196 350.991 24.524 350.679 23.588H350.571C349.803 24.428 348.915 25.1 347.907 25.604C346.923 26.108 345.855 26.36 344.703 26.36ZM345.459 23.012C346.419 23.012 347.295 22.784 348.087 22.328C348.879 21.848 349.659 21.164 350.427 20.276V17.648L345.747 18.188C344.811 18.308 344.103 18.608 343.623 19.088C343.143 19.544 342.903 20.108 342.903 20.78C342.903 21.5 343.143 22.052 343.623 22.436C344.103 22.82 344.715 23.012 345.459 23.012Z" fill="#1A1A1A"/>
</svg>
