<svg width="481" height="34" viewBox="0 0 481 34" fill="none" xmlns="http://www.w3.org/2000/svg">
<path d="M18.808 0.799998V26H14.308V15.416C13.516 15.896 12.604 16.28 11.572 16.568C10.54 16.832 9.424 16.964 8.224 16.964C5.848 16.964 3.952 16.436 2.536 15.38C1.144 14.3 0.448 12.716 0.448 10.628V0.799998H4.948V9.692C4.948 11.876 6.328 12.968 9.088 12.968C11.008 12.968 12.748 12.44 14.308 11.384V0.799998H18.808ZM28.4374 26.36C26.8054 26.36 25.4374 25.88 24.3334 24.92C23.2534 23.936 22.7134 22.628 22.7134 20.996C22.7134 19.34 23.2774 18.032 24.4054 17.072C25.5574 16.088 27.0694 15.5 28.9414 15.308L34.1614 14.768V13.796C34.1614 12.86 33.8494 12.152 33.2254 11.672C32.6014 11.168 31.7614 10.916 30.7054 10.916C29.7694 10.916 29.0014 11.144 28.4014 11.6C27.8254 12.056 27.4534 12.728 27.2854 13.616L23.7214 13.436L23.5414 13.292C23.8774 11.468 24.7174 10.076 26.0614 9.116C27.4054 8.132 29.0014 7.64 30.8494 7.64C33.0334 7.64 34.7974 8.192 36.1414 9.296C37.4854 10.376 38.1574 11.864 38.1574 13.76V21.14C38.1574 22.34 38.6374 22.94 39.5974 22.94C39.8134 22.94 40.0774 22.904 40.3894 22.832L40.4974 22.904V25.856C39.7534 26.096 38.9974 26.216 38.2294 26.216C37.3654 26.216 36.5854 26.012 35.8894 25.604C35.2174 25.196 34.7254 24.524 34.4134 23.588H34.3054C33.5374 24.428 32.6494 25.1 31.6414 25.604C30.6574 26.108 29.5894 26.36 28.4374 26.36ZM29.1934 23.012C30.1534 23.012 31.0294 22.784 31.8214 22.328C32.6134 21.848 33.3934 21.164 34.1614 20.276V17.648L29.4814 18.188C28.5454 18.308 27.8374 18.608 27.3574 19.088C26.8774 19.544 26.6374 20.108 26.6374 20.78C26.6374 21.5 26.8774 22.052 27.3574 22.436C27.8374 22.82 28.4494 23.012 29.1934 23.012ZM51.1582 26.36C49.4302 26.36 47.8582 25.964 46.4422 25.172C45.0502 24.38 43.9462 23.276 43.1302 21.86C42.3382 20.444 41.9422 18.824 41.9422 17C41.9422 15.176 42.3382 13.556 43.1302 12.14C43.9462 10.724 45.0502 9.62 46.4422 8.828C47.8582 8.036 49.4302 7.64 51.1582 7.64C53.5102 7.64 55.4542 8.24 56.9902 9.44C58.5262 10.64 59.4622 12.308 59.7982 14.444L59.6902 14.624L56.0902 14.84C55.8262 13.736 55.2742 12.872 54.4342 12.248C53.5942 11.6 52.5142 11.276 51.1942 11.276C49.6582 11.276 48.3982 11.78 47.4142 12.788C46.4542 13.796 45.9742 15.2 45.9742 17C45.9742 18.8 46.4542 20.204 47.4142 21.212C48.3982 22.22 49.6582 22.724 51.1942 22.724C52.5142 22.724 53.5822 22.424 54.3982 21.824C55.2142 21.2 55.7782 20.312 56.0902 19.16L59.6902 19.376L59.7982 19.556C59.3662 21.716 58.3942 23.396 56.8822 24.596C55.3702 25.772 53.4622 26.36 51.1582 26.36ZM67.6485 11.6H61.5285V8H77.8725V11.6H71.7885V26H67.6485V11.6ZM89.2049 26.36C87.3569 26.36 85.7009 25.952 84.2369 25.136C82.7969 24.32 81.6689 23.204 80.8529 21.788C80.0609 20.372 79.6649 18.776 79.6649 17C79.6649 15.224 80.0609 13.628 80.8529 12.212C81.6689 10.796 82.7969 9.68 84.2369 8.864C85.7009 8.048 87.3569 7.64 89.2049 7.64C91.0529 7.64 92.6969 8.048 94.1369 8.864C95.5769 9.68 96.6929 10.796 97.4849 12.212C98.3009 13.628 98.7089 15.224 98.7089 17C98.7089 18.776 98.3009 20.372 97.4849 21.788C96.6929 23.204 95.5769 24.32 94.1369 25.136C92.6969 25.952 91.0529 26.36 89.2049 26.36ZM89.2049 22.724C90.7889 22.724 92.0849 22.22 93.0929 21.212C94.1009 20.18 94.6049 18.776 94.6049 17C94.6049 15.224 94.1009 13.832 93.0929 12.824C92.0849 11.792 90.7889 11.276 89.2049 11.276C87.6209 11.276 86.3129 11.792 85.2809 12.824C84.2729 13.832 83.7689 15.224 83.7689 17C83.7689 18.776 84.2729 20.18 85.2809 21.212C86.3129 22.22 87.6209 22.724 89.2049 22.724ZM116.58 26.36C115.02 26.36 113.676 26.084 112.548 25.532C111.444 24.98 110.592 24.26 109.992 23.372C109.392 22.46 109.044 21.452 108.948 20.348L109.092 20.096L112.224 19.484C112.416 20.564 112.872 21.44 113.592 22.112C114.336 22.784 115.32 23.12 116.544 23.12C117.624 23.12 118.464 22.868 119.064 22.364C119.688 21.86 120 21.236 120 20.492C120 18.812 118.728 17.972 116.184 17.972H115.032V14.984H116.184C117.264 14.984 118.056 14.84 118.56 14.552C119.088 14.24 119.352 13.724 119.352 13.004C119.352 12.332 119.088 11.804 118.56 11.42C118.056 11.012 117.396 10.808 116.58 10.808C115.524 10.808 114.684 11.072 114.06 11.6C113.436 12.128 113.064 12.788 112.944 13.58L109.74 13.256L109.56 13.076C109.776 11.492 110.52 10.196 111.792 9.188C113.064 8.156 114.684 7.64 116.652 7.64C118.524 7.64 120.06 8.084 121.26 8.972C122.46 9.86 123.06 11.084 123.06 12.644C123.06 14.276 122.388 15.464 121.044 16.208C122.004 16.52 122.724 17.072 123.204 17.864C123.708 18.656 123.96 19.544 123.96 20.528C123.96 21.584 123.648 22.556 123.024 23.444C122.424 24.332 121.56 25.04 120.432 25.568C119.328 26.096 118.044 26.36 116.58 26.36ZM132.5 26.36C130.868 26.36 129.5 25.88 128.396 24.92C127.316 23.936 126.776 22.628 126.776 20.996C126.776 19.34 127.34 18.032 128.468 17.072C129.62 16.088 131.132 15.5 133.004 15.308L138.224 14.768V13.796C138.224 12.86 137.912 12.152 137.288 11.672C136.664 11.168 135.824 10.916 134.768 10.916C133.832 10.916 133.064 11.144 132.464 11.6C131.888 12.056 131.516 12.728 131.348 13.616L127.784 13.436L127.604 13.292C127.94 11.468 128.78 10.076 130.124 9.116C131.468 8.132 133.064 7.64 134.912 7.64C137.096 7.64 138.86 8.192 140.204 9.296C141.548 10.376 142.22 11.864 142.22 13.76V21.14C142.22 22.34 142.7 22.94 143.66 22.94C143.876 22.94 144.14 22.904 144.452 22.832L144.56 22.904V25.856C143.816 26.096 143.06 26.216 142.292 26.216C141.428 26.216 140.648 26.012 139.952 25.604C139.28 25.196 138.788 24.524 138.476 23.588H138.368C137.6 24.428 136.712 25.1 135.704 25.604C134.72 26.108 133.652 26.36 132.5 26.36ZM133.256 23.012C134.216 23.012 135.092 22.784 135.884 22.328C136.676 21.848 137.456 21.164 138.224 20.276V17.648L133.544 18.188C132.608 18.308 131.9 18.608 131.42 19.088C130.94 19.544 130.7 20.108 130.7 20.78C130.7 21.5 130.94 22.052 131.42 22.436C131.9 22.82 132.512 23.012 133.256 23.012ZM168.627 22.4V30.068H164.739V26H151.095V30.068H147.243V22.4H149.907C150.411 20.024 150.735 17.768 150.879 15.632C151.023 13.472 151.095 10.928 151.095 8H166.107V22.4H168.627ZM161.967 22.4V11.6H154.767C154.695 13.76 154.587 15.692 154.443 17.396C154.323 19.1 154.095 20.768 153.759 22.4H161.967ZM177.43 26.36C175.798 26.36 174.43 25.88 173.326 24.92C172.246 23.936 171.706 22.628 171.706 20.996C171.706 19.34 172.27 18.032 173.398 17.072C174.55 16.088 176.062 15.5 177.934 15.308L183.154 14.768V13.796C183.154 12.86 182.842 12.152 182.218 11.672C181.594 11.168 180.754 10.916 179.698 10.916C178.762 10.916 177.994 11.144 177.394 11.6C176.818 12.056 176.446 12.728 176.278 13.616L172.714 13.436L172.534 13.292C172.87 11.468 173.71 10.076 175.054 9.116C176.398 8.132 177.994 7.64 179.842 7.64C182.026 7.64 183.79 8.192 185.134 9.296C186.478 10.376 187.15 11.864 187.15 13.76V21.14C187.15 22.34 187.63 22.94 188.59 22.94C188.806 22.94 189.07 22.904 189.382 22.832L189.49 22.904V25.856C188.746 26.096 187.99 26.216 187.222 26.216C186.358 26.216 185.578 26.012 184.882 25.604C184.21 25.196 183.718 24.524 183.406 23.588H183.298C182.53 24.428 181.642 25.1 180.634 25.604C179.65 26.108 178.582 26.36 177.43 26.36ZM178.186 23.012C179.146 23.012 180.022 22.784 180.814 22.328C181.606 21.848 182.386 21.164 183.154 20.276V17.648L178.474 18.188C177.538 18.308 176.83 18.608 176.35 19.088C175.87 19.544 175.63 20.108 175.63 20.78C175.63 21.5 175.87 22.052 176.35 22.436C176.83 22.82 177.442 23.012 178.186 23.012ZM192.784 8H201.748C203.476 8 204.868 8.444 205.924 9.332C207.004 10.196 207.544 11.288 207.544 12.608C207.544 14.312 206.836 15.56 205.42 16.352V16.532C206.332 16.868 207.076 17.396 207.652 18.116C208.228 18.812 208.516 19.676 208.516 20.708C208.516 22.292 207.928 23.576 206.752 24.56C205.576 25.52 203.968 26 201.928 26H192.784V8ZM201.496 15.164C202.984 15.164 203.728 14.516 203.728 13.22C203.728 11.948 202.984 11.312 201.496 11.312H196.816V15.164H201.496ZM202.036 22.652C203.62 22.652 204.412 21.956 204.412 20.564C204.412 19.172 203.62 18.476 202.036 18.476H196.816V22.652H202.036ZM217.051 26.36C215.419 26.36 214.051 25.88 212.947 24.92C211.867 23.936 211.327 22.628 211.327 20.996C211.327 19.34 211.891 18.032 213.019 17.072C214.171 16.088 215.683 15.5 217.555 15.308L222.775 14.768V13.796C222.775 12.86 222.463 12.152 221.839 11.672C221.215 11.168 220.375 10.916 219.319 10.916C218.383 10.916 217.615 11.144 217.015 11.6C216.439 12.056 216.067 12.728 215.899 13.616L212.335 13.436L212.155 13.292C212.491 11.468 213.331 10.076 214.675 9.116C216.019 8.132 217.615 7.64 219.463 7.64C221.647 7.64 223.411 8.192 224.755 9.296C226.099 10.376 226.771 11.864 226.771 13.76V21.14C226.771 22.34 227.251 22.94 228.211 22.94C228.427 22.94 228.691 22.904 229.003 22.832L229.111 22.904V25.856C228.367 26.096 227.611 26.216 226.843 26.216C225.979 26.216 225.199 26.012 224.503 25.604C223.831 25.196 223.339 24.524 223.027 23.588H222.919C222.151 24.428 221.263 25.1 220.255 25.604C219.271 26.108 218.203 26.36 217.051 26.36ZM217.807 23.012C218.767 23.012 219.643 22.784 220.435 22.328C221.227 21.848 222.007 21.164 222.775 20.276V17.648L218.095 18.188C217.159 18.308 216.451 18.608 215.971 19.088C215.491 19.544 215.251 20.108 215.251 20.78C215.251 21.5 215.491 22.052 215.971 22.436C216.451 22.82 217.063 23.012 217.807 23.012ZM239.556 26.36C237.78 26.36 236.208 25.976 234.84 25.208C233.472 24.416 232.416 23.312 231.672 21.896C230.928 20.48 230.556 18.848 230.556 17C230.556 15.176 230.964 13.556 231.78 12.14C232.62 10.724 233.724 9.62 235.092 8.828C236.46 8.036 237.948 7.64 239.556 7.64C241.26 7.64 242.772 8.012 244.092 8.756C245.436 9.476 246.48 10.532 247.224 11.924C247.968 13.316 248.34 14.96 248.34 16.856V18.116H234.552C234.648 19.58 235.152 20.744 236.064 21.608C237 22.448 238.188 22.868 239.628 22.868C240.852 22.868 241.86 22.592 242.652 22.04C243.444 21.464 244.008 20.684 244.344 19.7L247.944 19.916L248.052 20.096C247.476 22.112 246.456 23.66 244.992 24.74C243.552 25.82 241.74 26.36 239.556 26.36ZM244.452 15.128C244.332 13.832 243.816 12.824 242.904 12.104C242.016 11.36 240.9 10.988 239.556 10.988C238.308 10.988 237.228 11.36 236.316 12.104C235.428 12.824 234.864 13.832 234.624 15.128H244.452ZM251.812 8H255.808L261.964 21.716L268.156 8H272.116V26H268.444V15.02H268.336L268.192 16.028L263.728 26H260.2L255.736 16.028L255.592 15.02H255.484V26H251.812V8ZM276.738 8H280.842V14.408H285.954C287.874 14.408 289.458 14.888 290.706 15.848C291.954 16.784 292.578 18.236 292.578 20.204C292.578 22.172 291.954 23.636 290.706 24.596C289.458 25.532 287.874 26 285.954 26H276.738V8ZM295.35 8H299.454V26H295.35V8ZM285.414 22.544C287.454 22.544 288.474 21.764 288.474 20.204C288.474 19.412 288.222 18.824 287.718 18.44C287.238 18.056 286.47 17.864 285.414 17.864H280.842V22.544H285.414ZM312.118 26.36C310.342 26.36 308.77 25.976 307.402 25.208C306.034 24.416 304.978 23.312 304.234 21.896C303.49 20.48 303.118 18.848 303.118 17C303.118 15.176 303.526 13.556 304.342 12.14C305.182 10.724 306.286 9.62 307.654 8.828C309.022 8.036 310.51 7.64 312.118 7.64C313.822 7.64 315.334 8.012 316.654 8.756C317.998 9.476 319.042 10.532 319.786 11.924C320.53 13.316 320.902 14.96 320.902 16.856V18.116H307.114C307.21 19.58 307.714 20.744 308.626 21.608C309.562 22.448 310.75 22.868 312.19 22.868C313.414 22.868 314.422 22.592 315.214 22.04C316.006 21.464 316.57 20.684 316.906 19.7L320.506 19.916L320.614 20.096C320.038 22.112 319.018 23.66 317.554 24.74C316.114 25.82 314.302 26.36 312.118 26.36ZM317.014 15.128C316.894 13.832 316.378 12.824 315.466 12.104C314.578 11.36 313.462 10.988 312.118 10.988C310.87 10.988 309.79 11.36 308.878 12.104C307.99 12.824 307.426 13.832 307.186 15.128H317.014ZM331.933 8H340.897C342.625 8 344.017 8.444 345.073 9.332C346.153 10.196 346.693 11.288 346.693 12.608C346.693 14.312 345.985 15.56 344.569 16.352V16.532C345.481 16.868 346.225 17.396 346.801 18.116C347.377 18.812 347.665 19.676 347.665 20.708C347.665 22.292 347.077 23.576 345.901 24.56C344.725 25.52 343.117 26 341.077 26H331.933V8ZM340.645 15.164C342.133 15.164 342.877 14.516 342.877 13.22C342.877 11.948 342.133 11.312 340.645 11.312H335.965V15.164H340.645ZM341.185 22.652C342.769 22.652 343.561 21.956 343.561 20.564C343.561 19.172 342.769 18.476 341.185 18.476H335.965V22.652H341.185ZM359.381 26.36C357.533 26.36 355.877 25.952 354.413 25.136C352.973 24.32 351.845 23.204 351.029 21.788C350.237 20.372 349.841 18.776 349.841 17C349.841 15.224 350.237 13.628 351.029 12.212C351.845 10.796 352.973 9.68 354.413 8.864C355.877 8.048 357.533 7.64 359.381 7.64C361.229 7.64 362.873 8.048 364.313 8.864C365.753 9.68 366.869 10.796 367.661 12.212C368.477 13.628 368.885 15.224 368.885 17C368.885 18.776 368.477 20.372 367.661 21.788C366.869 23.204 365.753 24.32 364.313 25.136C362.873 25.952 361.229 26.36 359.381 26.36ZM359.381 22.724C360.965 22.724 362.261 22.22 363.269 21.212C364.277 20.18 364.781 18.776 364.781 17C364.781 15.224 364.277 13.832 363.269 12.824C362.261 11.792 360.965 11.276 359.381 11.276C357.797 11.276 356.489 11.792 355.457 12.824C354.449 13.832 353.945 15.224 353.945 17C353.945 18.776 354.449 20.18 355.457 21.212C356.489 22.22 357.797 22.724 359.381 22.724ZM372.574 8H388.918V26H384.814V11.6H376.678V26H372.574V8ZM393.527 8H397.631V9.98C399.143 8.42 401.063 7.64 403.391 7.64C404.831 7.64 406.187 8.012 407.459 8.756C408.755 9.476 409.787 10.544 410.555 11.96C411.347 13.376 411.743 15.056 411.743 17C411.743 18.944 411.347 20.624 410.555 22.04C409.787 23.456 408.743 24.536 407.423 25.28C406.127 26 404.699 26.36 403.139 26.36C402.059 26.36 401.027 26.18 400.043 25.82C399.083 25.46 398.279 24.956 397.631 24.308V33.2H393.527V8ZM402.455 22.832C403.967 22.832 405.203 22.34 406.163 21.356C407.123 20.348 407.603 18.896 407.603 17C407.603 15.104 407.123 13.664 406.163 12.68C405.203 11.672 403.967 11.168 402.455 11.168C401.135 11.168 399.995 11.6 399.035 12.464C398.099 13.328 397.631 14.396 397.631 15.668V18.296C397.631 19.136 397.847 19.904 398.279 20.6C398.711 21.296 399.299 21.848 400.043 22.256C400.787 22.64 401.591 22.832 402.455 22.832ZM424.033 26.36C422.185 26.36 420.529 25.952 419.065 25.136C417.625 24.32 416.497 23.204 415.681 21.788C414.889 20.372 414.493 18.776 414.493 17C414.493 15.224 414.889 13.628 415.681 12.212C416.497 10.796 417.625 9.68 419.065 8.864C420.529 8.048 422.185 7.64 424.033 7.64C425.881 7.64 427.525 8.048 428.965 8.864C430.405 9.68 431.521 10.796 432.313 12.212C433.129 13.628 433.537 15.224 433.537 17C433.537 18.776 433.129 20.372 432.313 21.788C431.521 23.204 430.405 24.32 428.965 25.136C427.525 25.952 425.881 26.36 424.033 26.36ZM424.033 22.724C425.617 22.724 426.913 22.22 427.921 21.212C428.929 20.18 429.433 18.776 429.433 17C429.433 15.224 428.929 13.832 427.921 12.824C426.913 11.792 425.617 11.276 424.033 11.276C422.449 11.276 421.141 11.792 420.109 12.824C419.101 13.832 418.597 15.224 418.597 17C418.597 18.776 419.101 20.18 420.109 21.212C421.141 22.22 422.449 22.724 424.033 22.724ZM445.506 26.36C443.778 26.36 442.206 25.964 440.79 25.172C439.398 24.38 438.294 23.276 437.478 21.86C436.686 20.444 436.29 18.824 436.29 17C436.29 15.176 436.686 13.556 437.478 12.14C438.294 10.724 439.398 9.62 440.79 8.828C442.206 8.036 443.778 7.64 445.506 7.64C447.858 7.64 449.802 8.24 451.338 9.44C452.874 10.64 453.81 12.308 454.146 14.444L454.038 14.624L450.438 14.84C450.174 13.736 449.622 12.872 448.782 12.248C447.942 11.6 446.862 11.276 445.542 11.276C444.006 11.276 442.746 11.78 441.762 12.788C440.802 13.796 440.322 15.2 440.322 17C440.322 18.8 440.802 20.204 441.762 21.212C442.746 22.22 444.006 22.724 445.542 22.724C446.862 22.724 447.93 22.424 448.746 21.824C449.562 21.2 450.126 20.312 450.438 19.16L454.038 19.376L454.146 19.556C453.714 21.716 452.742 23.396 451.23 24.596C449.718 25.772 447.81 26.36 445.506 26.36ZM457.827 8H461.931V14.408H467.043C468.963 14.408 470.547 14.888 471.795 15.848C473.043 16.784 473.667 18.236 473.667 20.204C473.667 22.172 473.043 23.636 471.795 24.596C470.547 25.532 468.963 26 467.043 26H457.827V8ZM476.439 8H480.543V26H476.439V8ZM466.503 22.544C468.543 22.544 469.563 21.764 469.563 20.204C469.563 19.412 469.311 18.824 468.807 18.44C468.327 18.056 467.559 17.864 466.503 17.864H461.931V22.544H466.503Z" fill="#1A1A1A"/>
</svg>
